<svg width="44" height="44" viewBox="0 0 44 44" fill="none" xmlns="http://www.w3.org/2000/svg">
<path d="M44 22C44 34.1502 34.1502 44 22 44C9.84981 44 0 34.1502 0 22C0 22.0052 22 0.00240625 22 0C34.1502 0 44 9.84981 44 22Z" fill="#0052B4"/>
<path d="M21.9409 22.0005H21.9998C21.9998 21.9808 21.9998 21.9615 21.9998 21.9417C21.9802 21.9613 21.9606 21.9809 21.9409 22.0005Z" fill="#F0F0F0"/>
<path d="M22 11.4782C22 7.60719 22 5.07074 22 0H21.9963C9.84766 0.0020625 0 9.85093 0 22H11.4782V15.5366L17.9417 22H21.9412C21.9608 21.9804 21.9804 21.9608 22.0001 21.9411C22.0001 20.459 22.0001 19.1365 22.0001 17.9419L15.5365 11.4782H22Z" fill="#F0F0F0"/>
<path d="M11.1308 2.86987C7.68992 4.82916 4.82932 7.68968 2.87012 11.1305V22.0003H8.60928V8.60921V8.60904H22.0006C22.0006 6.79894 22.0006 5.07451 22.0006 2.86987H11.1308Z" fill="#D80027"/>
<path d="M22.0008 19.2943L14.1843 11.478H11.479V11.4782L22.0006 21.9997H22.0008C22.0008 21.9997 22.0008 20.1342 22.0008 19.2943Z" fill="#D80027"/>
<path d="M24.8701 11.4788V22.0004C24.8701 27.1257 31.5658 28.6962 31.5658 28.6962C31.5658 28.6962 38.2614 27.1257 38.2614 22.0004V11.4788H24.8701Z" fill="#FFDA44"/>
<path d="M30.6083 15.3042C30.6083 16.3608 29.7519 19.1303 28.6953 19.1303C27.6387 19.1303 26.7822 16.3608 26.7822 15.3042C26.7822 14.2476 28.6953 13.3911 28.6953 13.3911C28.6953 13.3911 30.6083 14.2476 30.6083 15.3042Z" fill="#FF9811"/>
<path d="M35.6855 17.3877C35.9942 16.6345 36.2343 15.5334 36.2343 14.9853C36.2343 14.1048 35.0864 13.3911 35.0864 13.3911C35.0864 13.3911 33.9386 14.1049 33.9386 14.9853C33.9386 15.5334 34.1787 16.6345 34.4874 17.3877L33.8247 18.8839C34.2142 19.0422 34.6399 19.1302 35.0864 19.1302C35.5328 19.1302 35.9585 19.0422 36.348 18.8839L35.6855 17.3877Z" fill="#A2001D"/>
<path d="M30.1308 22.0007C30.1308 22.0007 29.1743 23.9137 29.1743 25.8268C29.1743 25.8268 32.0439 25.8268 33.9569 25.8268C33.9568 23.9137 33.0003 22.0007 33.0003 22.0007L31.5655 21.0442L30.1308 22.0007Z" fill="#6DA544"/>
<path d="M32.9995 22.0007V21.5225C32.9995 20.7301 32.3571 20.0876 31.5647 20.0876C30.7724 20.0876 30.1299 20.73 30.1299 21.5225V22.0007H32.9995Z" fill="#D80027"/>
</svg>
