<svg width="44" height="44" viewBox="0 0 44 44" fill="none" xmlns="http://www.w3.org/2000/svg">
<g clip-path="url(#clip0)">
<path d="M21.9998 44C24.6909 44 27.2687 43.516 29.6519 42.6316L30.6085 22L29.652 1.36838C27.2687 0.484086 24.6909 0 21.9998 0C19.3088 0 16.7309 0.484086 14.3477 1.36838L13.3911 22L14.3476 42.6316C16.7309 43.516 19.3088 44 21.9998 44Z" fill="#F0F0F0"/>
<path d="M0 22C0 31.4593 5.97025 39.5232 14.3479 42.6316V1.36841C5.97025 4.47685 0 12.5408 0 22Z" fill="#FF9811"/>
<path d="M29.6523 1.36841V42.6317C38.03 39.5232 44.0002 31.4593 44.0002 22C44.0002 12.5408 38.03 4.47685 29.6523 1.36841Z" fill="#6DA544"/>
</g>
<defs>
<clipPath id="clip0">
<rect width="44" height="44" fill="white"/>
</clipPath>
</defs>
</svg>
