<svg width="44" height="44" viewBox="0 0 44 44" fill="none" xmlns="http://www.w3.org/2000/svg">
<g clip-path="url(#clip0)">
<path d="M22 44C34.1503 44 44 34.1503 44 22C44 9.84974 34.1503 0 22 0C9.84974 0 0 9.84974 0 22C0 34.1503 9.84974 44 22 44Z" fill="#F0F0F0"/>
<path d="M43.9992 21.9365H20.1507C15.4158 26.6715 12.5525 30.327 9.62891 33.2506L22.0637 34.3713L41.3596 32.4582C43.0436 29.3477 44 25.7857 44 22.0002C44 21.9789 43.9992 21.9578 43.9992 21.9365Z" fill="#D80027"/>
<path d="M9.62901 11.4146H41.2894C37.5479 4.61106 30.3128 0 22 0C15.9409 0 10.455 2.45016 6.47656 6.413L9.62901 11.4146Z" fill="#FFDA44"/>
<path d="M10.5851 32.4576C8.60738 34.4354 7.84305 36.0925 6.41211 37.5233C10.3957 41.5234 15.9082 43.9996 21.9996 43.9996C30.3644 43.9996 37.6385 39.3311 41.3594 32.4576H10.5851Z" fill="#0052B4"/>
<path d="M6.44364 6.37964C-2.14788 14.9712 -2.14788 28.9009 6.44364 37.4925C9.99397 33.9421 13.4085 30.5276 22 21.936L6.44364 6.37964Z" fill="#6DA544"/>
<path d="M5.80322 21.9366C5.80322 18.7313 8.0559 16.0536 11.0641 15.3967C10.6017 15.2957 10.122 15.241 9.62924 15.241C5.93127 15.241 2.93359 18.2386 2.93359 21.9366C2.93359 25.6346 5.93127 28.6323 9.62924 28.6323C10.1219 28.6323 10.6016 28.5775 11.0641 28.4766C8.0559 27.8196 5.80322 25.1419 5.80322 21.9366Z" fill="#F0F0F0"/>
<path d="M10.9906 16.1975L11.3468 17.2936H12.4992L11.5668 17.971L11.923 19.067L10.9906 18.3897L10.0581 19.067L10.4144 17.971L9.48193 17.2936H10.6344L10.9906 16.1975Z" fill="#F0F0F0"/>
<path d="M10.9906 19.0665L11.3468 20.1627H12.4992L11.5668 20.84L11.923 21.9362L10.9906 21.2587L10.0581 21.9362L10.4144 20.84L9.48193 20.1627H10.6344L10.9906 19.0665Z" fill="#F0F0F0"/>
<path d="M10.9906 21.9365L11.3468 23.0326H12.4992L11.5668 23.71L11.923 24.8061L10.9906 24.1286L10.0581 24.8061L10.4144 23.71L9.48193 23.0326H10.6344L10.9906 21.9365Z" fill="#F0F0F0"/>
<path d="M10.9906 24.8064L11.3468 25.9024H12.4992L11.5668 26.5799L11.923 27.6759L10.9906 26.9986L10.0581 27.6759L10.4144 26.5799L9.48193 25.9024H10.6344L10.9906 24.8064Z" fill="#F0F0F0"/>
</g>
<defs>
<clipPath id="clip0">
<rect width="44" height="44" fill="white"/>
</clipPath>
</defs>
</svg>
