<svg width="44" height="44" viewBox="0 0 44 44" fill="none" xmlns="http://www.w3.org/2000/svg">
<g clip-path="url(#clip0)">
<path d="M22 44C34.1503 44 44 34.1503 44 22C44 9.84974 34.1503 0 22 0C9.84974 0 0 9.84974 0 22C0 34.1503 9.84974 44 22 44Z" fill="#F0F0F0"/>
<path d="M12.4351 29.6521L14.3481 42.6318C16.7313 43.5161 19.3092 44 22.0002 44C31.4594 44 39.5234 38.0297 42.6318 29.6521H12.4351Z" fill="black"/>
<path d="M12.4351 14.3479L14.3481 1.36821C16.7313 0.483828 19.3092 0 22.0002 0C31.4594 0 39.5234 5.97025 42.6318 14.3479H12.4351Z" fill="#6DA544"/>
<path d="M0 21.9993C0 31.4585 5.97034 39.5225 14.3479 42.6309V1.36768C5.97034 4.47612 0 12.5401 0 21.9993Z" fill="#A2001D"/>
</g>
<defs>
<clipPath id="clip0">
<rect width="44" height="44" fill="white"/>
</clipPath>
</defs>
</svg>
