<svg width="44" height="44" viewBox="0 0 44 44" fill="none" xmlns="http://www.w3.org/2000/svg">
<g clip-path="url(#clip0)">
<path d="M11.9127 2.44312C9.94321 3.45967 8.09444 4.79213 6.44341 6.44316C4.79229 8.09428 3.45983 9.94305 2.44336 11.9126L16.5893 27.4113L32.088 41.5572C34.0576 40.5407 35.9064 39.2082 37.5574 37.5573C39.2085 35.9061 40.5409 34.0574 41.5575 32.0879L27.4116 16.589L11.9127 2.44312Z" fill="#F0F0F0"/>
<path d="M37.5567 37.5566C38.4796 36.6337 39.3027 35.6489 40.0273 34.616L9.38331 3.97192C8.35043 4.69646 7.36567 5.51957 6.44279 6.44246C5.5199 7.36534 4.69679 8.3501 3.97217 9.38306L34.6162 40.027C35.649 39.3025 36.6338 38.4794 37.5567 37.5566Z" fill="black"/>
<path d="M6.4429 37.5578C13.3838 44.4987 23.8078 45.8311 32.0875 41.5577L2.44294 11.9131C-1.8303 20.1928 -0.497671 30.6169 6.4429 37.5578Z" fill="#D80027"/>
<path d="M37.5572 6.44277C30.6163 -0.498062 20.1923 -1.83044 11.9126 2.44263L41.5572 32.0875C45.8305 23.8077 44.4981 13.3836 37.5572 6.44277Z" fill="#D80027"/>
</g>
<defs>
<clipPath id="clip0">
<rect width="44" height="44" fill="white"/>
</clipPath>
</defs>
</svg>
