<svg width="44" height="44" viewBox="0 0 44 44" fill="none" xmlns="http://www.w3.org/2000/svg">
<path d="M22 44C34.1503 44 44 34.1503 44 22C44 9.84974 34.1503 0 22 0C9.84974 0 0 9.84974 0 22C0 34.1503 9.84974 44 22 44Z" fill="#F0F0F0"/>
<path d="M20.0867 22C20.0867 22 6.45625 37.5594 6.44336 37.5563C10.4245 41.5375 15.9246 44 21.9998 44C34.1499 44 43.9997 34.1502 43.9997 22H20.0867Z" fill="#D80027"/>
<path d="M6.44413 6.44312C-2.14739 15.0346 -2.14739 28.9643 6.44413 37.5559C9.99446 34.0056 13.409 30.591 22.0005 21.9995L6.44413 6.44312Z" fill="#0052B4"/>
</svg>
