<svg width="44" height="44" viewBox="0 0 44 44" fill="none" xmlns="http://www.w3.org/2000/svg">
<g clip-path="url(#clip0)">
<path d="M0 21.9995C0 25.4276 0.784352 28.6724 2.18298 31.5647L22 32.5213L41.817 31.5648C43.2156 28.6724 44 25.4276 44 21.9995C44 18.5715 43.2156 15.3267 41.817 12.4344L22 11.4778L2.18298 12.4343C0.784352 15.3267 0 18.5715 0 21.9995Z" fill="#F0F0F0"/>
<path d="M22.0001 44.0002C30.7222 44.0002 38.2586 38.9243 41.8171 31.5654H2.18311C5.74161 38.9243 13.278 44.0002 22.0001 44.0002Z" fill="#6DA544"/>
<path d="M22.0001 0C13.278 0 5.74161 5.0759 2.18311 12.4348H41.817C38.2586 5.0759 30.7222 0 22.0001 0Z" fill="#0052B4"/>
<path d="M23.4345 21.5221V16.2612H20.565V21.5221L17.0991 24.988C18.1071 26.638 19.9247 27.7395 21.9998 27.7395C24.0748 27.7395 25.8924 26.638 26.9005 24.988L23.4345 21.5221Z" fill="black"/>
</g>
<defs>
<clipPath id="clip0">
<rect width="44" height="44" fill="white"/>
</clipPath>
</defs>
</svg>
