<svg width="44" height="44" viewBox="0 0 44 44" fill="none" xmlns="http://www.w3.org/2000/svg">
<g clip-path="url(#clip0)">
<path d="M37.5564 37.5565C28.9648 46.148 15.0352 46.148 6.44364 37.5565C-2.14788 28.965 -2.14788 15.0353 6.44364 6.44372C6.44673 6.44372 26.2142 0.60281 34.8058 9.19433C43.3974 17.7858 37.5623 37.5505 37.5564 37.5565Z" fill="#FFDA44"/>
<path d="M37.5566 37.5565C46.1481 28.965 46.1481 15.0353 37.5566 6.44367C28.9651 -2.14793 15.0354 -2.14785 6.44385 6.44367L37.5566 37.5565Z" fill="#D80027"/>
<path d="M27.7507 27.7526C26.847 28.1075 25.797 28.0699 24.8859 27.5587C23.2763 26.6553 22.7017 24.6105 23.6054 23.0006L23.3311 22.8468C26.0872 22.1822 28.1262 19.6806 28.0905 16.7285C28.0683 14.8931 27.2482 13.2511 25.9654 12.1276L23.9568 14.1854C24.7161 14.7906 25.2085 15.7189 25.2211 16.7633C25.2434 18.6092 23.76 20.1292 21.9141 20.1515L21.918 20.4657C19.9644 18.4113 16.7785 17.8963 14.2398 19.4033C12.6615 20.3403 11.6497 21.8714 11.3179 23.5442L14.1043 24.2549C14.2488 23.2946 14.8064 22.4041 15.7045 21.8709C17.2919 20.9286 19.3499 21.4535 20.2922 23.0408L20.5628 22.8803C19.7603 25.5992 20.9071 28.6159 23.4817 30.061C25.0824 30.9594 26.9142 31.0702 28.5288 30.5211L27.7507 27.7526ZM21.9372 22.0641L21.9371 22.0642L21.9372 22.0641Z" fill="#FF9811"/>
<path d="M30.1456 14.8998L28.5907 20.4489L23.9251 19.5874L20.9219 13.3969L12.8088 16.2758L12.169 14.4729L10.0464 14.2114L11.6458 18.7187L17.229 17.2908L18.8157 21.762L14.9561 27.458L21.506 33.0445L20.2644 34.5L21.0993 36.4693L24.2032 32.8303L20.175 28.709L23.2539 25.0994L30.1167 25.5939L31.6798 17.1282L33.561 17.4756L34.8492 15.768L30.1456 14.8998ZM21.9983 22.1496V22.1498V22.1496Z" fill="#FFEACF"/>
</g>
<defs>
<clipPath id="clip0">
<rect width="44" height="44" fill="white"/>
</clipPath>
</defs>
</svg>
