<svg width="44" height="44" viewBox="0 0 44 44" fill="none" xmlns="http://www.w3.org/2000/svg">
<path d="M44 22C44 34.1502 34.1502 44 22 44C9.84981 44 0 34.1502 0 22C0 22.0052 22 0.00240625 22 0C34.1502 0 44 9.84981 44 22Z" fill="#0052B4"/>
<path d="M21.9409 21.9995H21.9998C21.9998 21.9798 21.9998 21.9605 21.9998 21.9407C21.9802 21.9604 21.9606 21.9799 21.9409 21.9995Z" fill="#F0F0F0"/>
<path d="M22 11.4782C22 7.60719 22 5.07074 22 0H21.9963C9.84766 0.0020625 0 9.85093 0 22H11.4782V15.5366L17.9417 22H21.9412C21.9608 21.9804 21.9804 21.9608 22.0001 21.9411C22.0001 20.459 22.0001 19.1365 22.0001 17.9419L15.5365 11.4782H22Z" fill="#F0F0F0"/>
<path d="M11.1308 2.86987C7.68992 4.82916 4.82932 7.68968 2.87012 11.1305V22.0003H8.60928V8.60921V8.60904H22.0006C22.0006 6.79894 22.0006 5.07451 22.0006 2.86987H11.1308Z" fill="#D80027"/>
<path d="M22.0008 19.295L14.1843 11.4788H11.479V11.4789L22.0006 22.0004H22.0008C22.0008 22.0004 22.0008 20.135 22.0008 19.295Z" fill="#D80027"/>
<path d="M24.8701 11.4778V21.9995C24.8701 27.1248 31.5658 28.6952 31.5658 28.6952C31.5658 28.6952 38.2614 27.1248 38.2614 21.9995V11.4778H24.8701Z" fill="#338AF3"/>
<path d="M24.8701 22C24.8701 27.1253 31.5658 28.6957 31.5658 28.6957C31.5658 28.6957 38.2614 27.1253 38.2614 22H24.8701Z" fill="#A2001D"/>
<path d="M34.435 16.261H32.5218V14.3479H30.6088V16.261H28.6958V18.174H30.6088V23.9131H32.5218V18.174H34.435V16.261Z" fill="black"/>
</svg>
