<svg width="44" height="44" viewBox="0 0 44 44" fill="none" xmlns="http://www.w3.org/2000/svg">
<path d="M44 21.9997C44 34.1499 34.1502 43.9997 22 43.9997C9.84981 43.9997 0 34.1499 0 21.9997C0.956484 21.9997 22 19.1301 22 19.1301L44 21.9997Z" fill="#D80027"/>
<path d="M0 22C0 9.84981 9.84981 0 22 0C34.1502 0 44 9.84981 44 22" fill="#0052B4"/>
<path d="M16.2605 15.3045C16.2605 13.7198 14.9757 12.435 13.3909 12.435C12.6557 12.435 11.9857 12.7117 11.4779 13.1662V11.4784H12.4344V9.56537H11.4779V8.60889H9.56482V9.56537H8.60834V11.4784H9.56482V13.1662C9.05702 12.7117 8.38696 12.435 7.65177 12.435C6.06699 12.435 4.78223 13.7198 4.78223 15.3045C4.78223 16.1542 5.15184 16.9173 5.73871 17.4428V19.1306H15.3039V17.4428C15.8909 16.9173 16.2605 16.1542 16.2605 15.3045Z" fill="#FFDA44"/>
</svg>
