<svg width="44" height="44" viewBox="0 0 44 44" fill="none" xmlns="http://www.w3.org/2000/svg">
<path d="M22 43.9999C34.1502 43.9999 43.9999 34.1502 43.9999 22C43.9999 9.84972 34.1502 0 22 0C9.84972 0 0 9.84972 0 22C0 34.1502 9.84972 43.9999 22 43.9999Z" fill="#FFDA44"/>
<path d="M6.44391 37.556C7.3668 38.4789 8.35156 39.302 9.38444 40.0265L40.0271 9.38388C39.3025 8.35091 38.4795 7.36624 37.5565 6.44335C36.6336 5.52047 35.649 4.69761 34.6161 3.9729L3.97363 34.6156C4.69809 35.6485 5.52103 36.6331 6.44391 37.556Z" fill="black"/>
<path d="M6.44379 6.44357C-0.496791 13.3842 -1.82925 23.8078 2.44391 32.0871L32.0872 2.44386C23.8079 -1.82922 13.3841 -0.496756 6.44379 6.44357Z" fill="#6DA544"/>
<path d="M37.5562 37.5564C44.4967 30.616 45.8291 20.1923 41.5562 11.9128L11.9126 41.5564C20.192 45.8293 30.6156 44.497 37.5562 37.5564Z" fill="#D80027"/>
<path d="M13.9881 25.9532L16.0419 26.9997L17.6718 25.3699L17.3112 27.6463L19.3648 28.6928L17.0882 29.0533L16.7277 31.3299L15.6813 29.2762L13.4048 29.6368L15.0346 28.007L13.9881 25.9532Z" fill="#F0F0F0"/>
<path d="M25.9539 13.9879L28.0076 15.0343L29.6375 13.4045L29.277 15.6809L31.3306 16.7275L29.0541 17.0881L28.6936 19.3646L27.6471 17.3109L25.3706 17.6714L27.0004 16.0416L25.9539 13.9879Z" fill="#F0F0F0"/>
</svg>
