<svg width="44" height="44" viewBox="0 0 44 44" fill="none" xmlns="http://www.w3.org/2000/svg">
<g clip-path="url(#clip0)">
<path d="M22 44C34.1503 44 44 34.1503 44 22C44 9.84974 34.1503 0 22 0C9.84974 0 0 9.84974 0 22C0 34.1503 9.84974 44 22 44Z" fill="#F0F0F0"/>
<path d="M29.1452 16.2609H26.2668C26.2906 16.5773 26.3041 16.8965 26.3041 17.2174C26.3041 19.3456 25.7721 21.4083 24.8448 22.8767C24.5587 23.3296 24.078 23.9691 23.4345 24.4005V16.2609H20.5649V24.4005C19.9215 23.9691 19.4407 23.3297 19.1546 22.8767C18.2272 21.4083 17.6953 19.3456 17.6953 17.2174C17.6953 16.8965 17.7089 16.5772 17.7326 16.2609H14.8542C14.8357 16.5757 14.8257 16.8946 14.8257 17.2174C14.8257 23.1176 17.9768 27.7392 21.9996 27.7392C26.0223 27.7392 29.1735 23.1176 29.1735 17.2174C29.1736 16.8946 29.1636 16.5757 29.1452 16.2609Z" fill="#D80027"/>
<path d="M9.08707 10.5218H11.9566V12.4348H14.8261V10.5218H17.6957V12.4348H20.5652V10.5218H23.4348V12.4348H26.3043V10.5218H29.1738V12.4348H32.0434V10.5218H34.9129V12.4348H41.8169C38.2586 5.0759 30.7222 0 22.0001 0C13.2781 0 5.74161 5.0759 2.18311 12.4348H9.08707V10.5218Z" fill="#6DA544"/>
<path d="M34.9132 31.5654V33.4785H32.0436V31.5654H29.1741V33.4785H26.3046V31.5654H23.435V33.4785H20.5655V31.5654H17.6959V33.4785H14.8264V31.5654H11.9566V33.4785H9.08707V31.5654H2.18311C5.74161 38.9243 13.278 44.0002 22.0001 44.0002C30.7223 44.0002 38.2586 38.9243 41.8171 31.5654H34.9132Z" fill="#D80027"/>
</g>
<defs>
<clipPath id="clip0">
<rect width="44" height="44" fill="white"/>
</clipPath>
</defs>
</svg>
