<svg width="44" height="44" viewBox="0 0 44 44" fill="none" xmlns="http://www.w3.org/2000/svg">
<path d="M22 44C34.1503 44 44 34.1503 44 22C44 9.84974 34.1503 0 22 0C9.84974 0 0 9.84974 0 22C0 34.1503 9.84974 44 22 44Z" fill="#F0F0F0"/>
<path d="M5.02881 8.00021H38.9714C37.7177 6.48212 36.2637 5.13591 34.6507 4.00024H9.34949C7.73653 5.13574 6.28255 6.48204 5.02881 8.00021Z" fill="#F0F0F0"/>
<path d="M0 22.0004C0 22.6748 0.0320547 23.3415 0.0914375 24.0005H43.9086C43.9679 23.3415 44 22.6748 44 22.0004C44 21.3261 43.9679 20.6594 43.9086 20.0005H0.0914375C0.0320547 20.6594 0 21.3261 0 22.0004Z" fill="#F0F0F0"/>
<path d="M2.39872 31.9996H41.6007C42.2485 30.7324 42.7768 29.3943 43.1712 27.9998H0.828125C1.22249 29.3943 1.75101 30.7325 2.39872 31.9996Z" fill="#F0F0F0"/>
<path d="M9.34949 40H34.6506C36.2636 38.8643 37.7176 37.5181 38.9713 36H5.02881C6.28255 37.5179 7.73653 38.8643 9.34949 40Z" fill="#F0F0F0"/>
<path d="M0.828125 16.0002H43.1714C42.777 14.6056 42.2485 13.2674 41.6007 12.0002H2.3988C1.75109 13.2674 1.22258 14.6056 0.828125 16.0002Z" fill="#F0F0F0"/>
<path d="M10.5215 3.99996H34.6503C31.0719 1.48045 26.7088 0 21.9997 0C19.1302 0 14.0999 1.48045 10.5215 3.99996Z" fill="#D80027"/>
<path d="M21.0435 12.0002H41.6009C40.8693 10.5691 39.9857 9.22855 38.9712 8.00024H21.0435V12.0002Z" fill="#D80027"/>
<path d="M21.0435 20.0004H43.9085C43.7848 18.627 43.5361 17.2895 43.1716 16.0005H21.0435V20.0004Z" fill="#D80027"/>
<path d="M0.828309 27.9997H43.1714C43.536 26.7108 43.7847 25.3732 43.9084 23.9998H0.0913086C0.215059 25.3732 0.463762 26.7107 0.828309 27.9997Z" fill="#D80027"/>
<path d="M5.02861 35.9997H38.9712C39.9857 34.7712 40.8693 33.4308 41.6009 31.9998H2.39893C3.13051 33.4309 4.01412 34.7714 5.02861 35.9997Z" fill="#D80027"/>
<path d="M21.9997 43.9999C26.7088 43.9999 31.0719 42.5195 34.6503 40H9.34912C12.9276 42.5195 17.2906 43.9999 21.9997 43.9999Z" fill="#D80027"/>
<path d="M0.828223 16C0.463676 17.2891 0.215059 18.6265 0.0913086 20H21.9999V0C11.9297 0 3.44004 6.76603 0.828223 16Z" fill="#0052B4"/>
<path d="M13.096 5.73901L14.5204 10.1231H19.1306L15.4011 12.8329L16.8254 17.2173L13.096 14.5076L9.36637 17.2173L10.791 12.8329L7.06152 10.1231H11.6715L13.096 5.73901Z" fill="#F0F0F0"/>
</svg>
