<svg width="44" height="44" viewBox="0 0 44 44" fill="none" xmlns="http://www.w3.org/2000/svg">
<path d="M22 44C34.1503 44 44 34.1503 44 22C44 9.84974 34.1503 0 22 0C9.84974 0 0 9.84974 0 22C0 34.1503 9.84974 44 22 44Z" fill="#F0F0F0"/>
<path d="M43.9997 21.9996C43.9997 13.2775 38.9238 5.74112 31.5649 2.18262V41.8166C38.9238 38.2581 43.9997 30.7217 43.9997 21.9996Z" fill="#338AF3"/>
<path d="M0 21.9996C0 30.7217 5.0759 38.2581 12.4348 41.8166V2.18262C5.0759 5.74112 0 13.2775 0 21.9996Z" fill="#338AF3"/>
<path d="M27.7492 25.7198L24.0293 21.9999L27.5702 18.4589L27.4097 16.5887L26.396 15.5748L22.0001 19.9707L17.6042 15.5748L16.5905 16.5887L16.4301 18.4589L19.971 21.9999L16.251 25.7198L18.2801 27.7488L22.0001 24.029L25.7201 27.7488L27.7492 25.7198Z" fill="#ACABB1"/>
<path d="M27.4107 16.589L25.3816 18.6181C26.2471 19.4835 26.7825 20.6792 26.7825 21.9999C26.7825 24.6413 24.6412 26.7825 21.9999 26.7825C19.3586 26.7825 17.2172 24.6413 17.2172 21.9999C17.2172 20.6792 17.7526 19.4835 18.6181 18.6181L16.589 16.589C15.2041 17.9736 14.3477 19.8867 14.3477 21.9999C14.3477 26.2261 17.7736 29.652 21.9998 29.652C26.2259 29.652 29.6519 26.226 29.6519 21.9999C29.6519 19.8868 28.7955 17.9737 27.4107 16.589Z" fill="#6DA544"/>
</svg>
