<svg width="44" height="44" viewBox="0 0 44 44" fill="none" xmlns="http://www.w3.org/2000/svg">
<g clip-path="url(#clip0)">
<path d="M22 44C34.1503 44 44 34.1503 44 22C44 9.84974 34.1503 0 22 0C9.84974 0 0 9.84974 0 22C0 34.1503 9.84974 44 22 44Z" fill="#F0F0F0"/>
<path d="M26.3047 43.5779C35.0018 41.8526 41.8528 35.0015 43.5781 26.3044H26.3047V43.5779Z" fill="#496E2D"/>
<path d="M0.422363 26.3044C2.14756 35.0015 8.99867 41.8526 17.6958 43.5779V26.3044H0.422363Z" fill="#496E2D"/>
<path d="M43.5781 17.6956C41.8528 8.99851 35.0018 2.1474 26.3047 0.422119V17.6956H43.5781Z" fill="#496E2D"/>
<path d="M17.6958 0.422119C8.99867 2.1474 2.14756 8.99851 0.422363 17.6956H17.6958V0.422119Z" fill="#496E2D"/>
<path d="M20.5653 26.3044H17.6958V43.5779C18.6323 43.7636 19.5902 43.8894 20.5653 43.9522V26.3044Z" fill="#FFDA44"/>
<path d="M20.5653 17.696V0.0482178C19.5902 0.110952 18.6322 0.236851 17.6958 0.422562V17.696H20.5653Z" fill="#FFDA44"/>
<path d="M23.4346 0.0478672C22.96 0.0171875 22.4819 0 21.9997 0C21.5176 0 21.0395 0.0171875 20.5649 0.0478672V17.6957H23.4345V0.0478672H23.4346Z" fill="black"/>
<path d="M20.5649 43.9522C21.0395 43.9829 21.5176 44.0001 21.9997 44.0001C22.4819 44.0001 22.96 43.9829 23.4346 43.9522V26.3044H20.565V43.9522H20.5649Z" fill="black"/>
<path d="M17.6956 20.5651V17.6956H0.422195C0.236398 18.6321 0.110586 19.59 0.0478516 20.5651H17.6956Z" fill="#FFDA44"/>
<path d="M26.3047 20.5651H43.9526C43.8898 19.59 43.7639 18.6321 43.5782 17.6956H26.3048V20.5651H26.3047Z" fill="#FFDA44"/>
<path d="M26.3042 23.435H43.9521C43.9827 22.9606 43.9998 22.4824 43.9998 22.0002C43.9998 21.518 43.9827 21.0399 43.952 20.5654H26.3042V23.435Z" fill="black"/>
<path d="M0.0478672 20.5654C0.0172734 21.0399 0 21.518 0 22.0002C0 22.4824 0.0172734 22.9606 0.0478672 23.435H17.6957V20.5655H0.0478672V20.5654Z" fill="black"/>
<path d="M22.0003 32.5214C27.8113 32.5214 32.522 27.8107 32.522 21.9997C32.522 16.1887 27.8113 11.4779 22.0003 11.4779C16.1893 11.4779 11.4785 16.1887 11.4785 21.9997C11.4785 27.8107 16.1893 32.5214 22.0003 32.5214Z" fill="#D80027"/>
<path d="M24.3969 23.1739C23.6143 21.6087 22.5971 20.0223 22.5971 20.0223C22.5971 20.0223 22.6223 19.3 22.6223 18.8696C22.6223 18.2213 22.0967 17.6957 21.4484 17.6957C20.8342 17.6957 20.331 18.1676 20.2797 18.7684C19.7967 18.7999 19.4146 19.2005 19.4146 19.6914C19.4146 20.0483 19.6168 20.3576 19.9127 20.5122C20.0599 20.1681 20.3479 19.8995 20.7042 19.777C20.7623 19.8245 20.8247 19.867 20.8913 19.903L21.0417 19.975C21.0417 19.975 20.484 21.5469 20.484 22.3913C20.484 24.7652 22.0493 25.4973 22.0493 25.4973V25.5218L21.2667 26.3044H22.8319V24.7391L23.6145 25.5217C23.6214 25.5071 25.0969 24.5739 24.3969 23.1739Z" fill="#496E2D"/>
<path d="M22.0003 13.3911L22.3564 14.4872H23.5088L22.5765 15.1646L22.9327 16.2607L22.0003 15.5833L21.0678 16.2607L21.424 15.1646L20.4917 14.4872H21.6441L22.0003 13.3911Z" fill="#496E2D"/>
<path d="M16.9396 15.0354L17.8718 15.7128L18.8042 15.0353L18.4481 16.1315L19.3805 16.8088L18.228 16.8089L17.8719 17.9049L17.5157 16.8089L16.3633 16.8088L17.2956 16.1313L16.9396 15.0354Z" fill="#496E2D"/>
<path d="M13.8125 19.3397H14.9648L15.321 18.2437L15.6772 19.3397L16.8297 19.3396L15.8973 20.0171L16.2536 21.1132L15.321 20.4357L14.3887 21.1131L14.7447 20.0171L13.8125 19.3397Z" fill="#496E2D"/>
<path d="M13.8125 24.6599L14.7447 23.9826L14.3886 22.8865L15.321 23.5639L16.2535 22.8865L15.8973 23.9825L16.8298 24.66L15.6772 24.6601L15.321 25.756L14.9648 24.6599H13.8125Z" fill="#496E2D"/>
<path d="M16.9397 28.9642L17.2957 27.8683L16.3633 27.1909H17.5158L17.872 26.0947L18.2281 27.1908H19.3806L18.4482 27.8683L18.8043 28.9643L17.8719 28.2868L16.9397 28.9642Z" fill="#496E2D"/>
<path d="M22.0003 30.6084L21.6441 29.5126H20.4917L21.424 28.835L21.0678 27.739L22.0003 28.4163L22.9326 27.7389L22.5765 28.835L23.5088 29.5125L22.3564 29.5126L22.0003 30.6084Z" fill="#496E2D"/>
<path d="M27.0596 28.9642L26.1274 28.2868L25.195 28.9644L25.5511 27.8683L24.6187 27.1909L25.7712 27.1908L26.1272 26.0947L26.4835 27.1909H27.6359L26.7036 27.8683L27.0596 28.9642Z" fill="#496E2D"/>
<path d="M30.1872 24.6599H29.0349L28.6786 25.756L28.3225 24.6601H27.1699L28.1023 23.9826L27.7461 22.8866L28.6786 23.564L29.6109 22.8866L29.2549 23.9826L30.1872 24.6599Z" fill="#496E2D"/>
<path d="M30.1872 19.3397L29.2549 20.0171L29.611 21.1131L28.6786 20.4358L27.7462 21.1133L28.1023 20.0172L27.1699 19.3398L28.3225 19.3396L28.6786 18.2438L29.0349 19.3397H30.1872Z" fill="#496E2D"/>
<path d="M27.0596 15.0354L26.7036 16.1314L27.6359 16.8088H26.4835L26.1274 17.9049L25.7712 16.8089L24.6187 16.809L25.5511 16.1314L25.1949 15.0355L26.1274 15.7128L27.0596 15.0354Z" fill="#496E2D"/>
</g>
<defs>
<clipPath id="clip0">
<rect width="44" height="44" fill="white"/>
</clipPath>
</defs>
</svg>
