<svg width="44" height="44" viewBox="0 0 44 44" fill="none" xmlns="http://www.w3.org/2000/svg">
<g clip-path="url(#clip0)">
<path d="M0 21.9999C0 25.8112 0.969633 29.396 2.67498 32.5216L22 34.4347L41.325 32.5216C43.0304 29.396 44 25.8112 44 21.9999C44 18.1885 43.0304 14.6038 41.325 11.4781L22 9.56506L2.67498 11.4781C0.969633 14.6038 0 18.1885 0 21.9999Z" fill="#D80027"/>
<path d="M2.6748 11.4782H41.3248C37.5935 4.63968 30.3388 0 21.9998 0C13.6609 0 6.40613 4.63968 2.6748 11.4782Z" fill="#0052B4"/>
<path d="M21.9998 44.0003C30.3388 44.0003 37.5935 39.3607 41.3249 32.5221H2.6748C6.40613 39.3607 13.6609 44.0003 21.9998 44.0003Z" fill="#0052B4"/>
<path d="M29.6519 26.3042V23.4347H27.7389V19.6086L25.8259 17.6955L23.9128 19.6086V15.7824L21.9998 13.8694L20.0867 15.7824V19.6086L18.1737 17.6955L16.2606 19.6086V23.4347H14.3476V26.3042H12.4346V29.1737H31.565V26.3042H29.6519Z" fill="#F0F0F0"/>
</g>
<defs>
<clipPath id="clip0">
<rect width="44" height="44" fill="white"/>
</clipPath>
</defs>
</svg>
