<svg width="44" height="44" viewBox="0 0 44 44" fill="none" xmlns="http://www.w3.org/2000/svg">
<path d="M22 44C34.1503 44 44 34.1503 44 22C44 9.84974 34.1503 0 22 0C9.84974 0 0 9.84974 0 22C0 34.1503 9.84974 44 22 44Z" fill="#338AF3"/>
<path d="M22 9.56543L22.9497 12.4883H26.0231L23.5368 14.2948L24.4864 17.2176L22 15.4112L19.5136 17.2176L20.4635 14.2948L17.9771 12.4883H21.0504L22 9.56543Z" fill="#F0F0F0"/>
<path d="M9.56494 22.0005L12.4878 21.0508V17.9773L14.2943 20.4638L17.2172 19.5141L15.4108 22.0005L17.2172 24.4867L14.2943 23.5369L12.4878 26.0234V22.9501L9.56494 22.0005Z" fill="#F0F0F0"/>
<path d="M22.0002 34.4354L21.0505 31.5125H17.9771L20.4636 29.706L19.5139 26.7832L22.0002 28.5896L24.4865 26.7832L23.5367 29.706L26.0231 31.5125H22.9498L22.0002 34.4354Z" fill="#F0F0F0"/>
<path d="M34.4344 22.0003L31.5115 22.95V26.0234L29.705 23.5369L26.7822 24.4866L28.5886 22.0003L26.7822 19.514L29.705 20.4638L31.5115 17.9773V21.0507L34.4344 22.0003Z" fill="#F0F0F0"/>
</svg>
