<svg width="44" height="44" viewBox="0 0 44 44" fill="none" xmlns="http://www.w3.org/2000/svg">
<path d="M41.817 31.5652C43.2156 28.6728 44 25.4281 44 22C44 18.5718 43.2156 15.3271 41.817 12.4348L22 10.5217L2.18298 12.4348C0.784352 15.3271 0 18.5718 0 22C0 25.4281 0.784352 28.6728 2.18298 31.5652L22 33.4782L41.817 31.5652Z" fill="#0052B4"/>
<path d="M21.9996 43.9998C30.7217 43.9998 38.2581 38.9239 41.8166 31.565H2.18262C5.74112 38.9239 13.2775 43.9998 21.9996 43.9998Z" fill="#D80027"/>
<path d="M38.1022 26.3185L36.9402 27.2265L37.4445 28.6119L36.2218 27.7875L35.0598 28.6953L35.4661 27.2778L34.2437 26.4531L35.7174 26.4017L36.1241 24.9842L36.6285 26.3698L38.1022 26.3185Z" fill="#F0F0F0"/>
<path d="M35.1264 21.1649L34.3452 22.4155L35.2931 23.5449L33.8622 23.1886L33.0807 24.4389L32.9776 22.9679L31.5469 22.611L32.9143 22.0585L32.8115 20.5875L33.7593 21.7173L35.1264 21.1649Z" fill="#F0F0F0"/>
<path d="M30.5678 17.3395L30.2614 18.7819L31.5384 19.5193L30.0719 19.6739L29.7653 21.1159L29.1654 19.7689L27.6987 19.9228L28.7948 18.9361L28.195 17.5891L29.472 18.3263L30.5678 17.3395Z" fill="#F0F0F0"/>
<path d="M24.9755 15.3044L25.181 16.7648L26.6331 17.0207L25.3078 17.6675L25.5131 19.1277L24.4887 18.0669L23.163 18.7133L23.8555 17.4111L22.8311 16.3505L24.2834 16.6065L24.9755 15.3044Z" fill="#F0F0F0"/>
<path d="M19.0247 15.3044L19.7171 16.6065L21.1691 16.3503L20.1449 17.4114L20.837 18.7135L19.5117 18.0669L18.4871 19.1275L18.6926 17.6675L17.3672 17.021L18.8194 16.7648L19.0247 15.3044Z" fill="#F0F0F0"/>
<path d="M13.4327 17.3395L14.5288 18.3263L15.8055 17.5891L15.206 18.9366L16.3017 19.9232L14.8352 19.7689L14.2352 21.1159L13.929 19.6736L12.4624 19.5196L13.7394 18.7821L13.4327 17.3395Z" fill="#F0F0F0"/>
<path d="M8.87332 21.1649L10.2408 21.7173L11.1884 20.5878L11.0859 22.0591L12.453 22.6116L11.0222 22.9681L10.9191 24.439L10.138 23.1887L8.70703 23.5452L9.65492 22.4156L8.87332 21.1649Z" fill="#F0F0F0"/>
<path d="M5.89844 26.3185L7.37244 26.3699L7.87655 24.9844L8.28346 26.4021L9.75703 26.4535L8.53448 27.2782L8.9408 28.6956L7.77892 27.7878L6.55629 28.6122L7.06066 27.2265L5.89844 26.3185Z" fill="#F0F0F0"/>
<path d="M41.8166 12.4348C38.2581 5.0759 30.7217 0 21.9996 0C13.2775 0 5.74112 5.0759 2.18262 12.4348H41.8166Z" fill="#FFDA44"/>
</svg>
