<svg width="44" height="44" viewBox="0 0 44 44" fill="none" xmlns="http://www.w3.org/2000/svg">
<path d="M22 44C34.1503 44 44 34.1503 44 22C44 9.84974 34.1503 0 22 0C9.84974 0 0 9.84974 0 22C0 34.1503 9.84974 44 22 44Z" fill="#F0F0F0"/>
<path d="M5.32247 7.6521C4.55049 8.54869 3.84967 9.50801 3.22852 10.5216H40.7705C40.1493 9.50801 39.4486 8.5486 38.6765 7.6521H5.32247Z" fill="#D80027"/>
<path d="M5.32238 36.3476H38.6765C39.4485 35.451 40.1493 34.4917 40.7705 33.478H3.22852C3.84959 34.4916 4.55041 35.451 5.32238 36.3476Z" fill="#D80027"/>
<path d="M19.1841 17.9773L20.9891 20.4648L23.9125 19.5169L22.1046 22.0022L23.9095 24.4896L20.9872 23.5381L19.1793 26.0234L19.1811 22.9502L16.2588 21.9987L19.1822 21.0508L19.1841 17.9773Z" fill="#D80027"/>
<path d="M14.2578 28.2173C10.8241 28.2173 8.04038 25.4336 8.04038 21.9999C8.04038 18.5662 10.8241 15.7825 14.2578 15.7825C15.3284 15.7825 16.3358 16.0532 17.2153 16.5298C15.8356 15.1805 13.9487 14.3477 11.8665 14.3477C7.64025 14.3477 4.21436 17.7736 4.21436 21.9998C4.21436 26.2259 7.64034 29.6519 11.8665 29.6519C13.9487 29.6519 15.8356 28.8191 17.2153 27.4698C16.3358 27.9466 15.3285 28.2173 14.2578 28.2173Z" fill="#D80027"/>
</svg>
