<svg width="44" height="44" viewBox="0 0 44 44" fill="none" xmlns="http://www.w3.org/2000/svg">
<g clip-path="url(#clip0)">
<path d="M41.5575 11.9125C40.5409 9.94288 39.2085 8.09419 37.5574 6.44316C35.9063 4.79204 34.0575 3.45958 32.088 2.44312L16.5893 16.5889L2.44336 32.0877C3.45991 34.0573 4.79237 35.9061 6.44341 37.5571C8.09444 39.2081 9.94321 40.5406 11.9127 41.5571L27.4115 27.4112L41.5575 11.9125Z" fill="#FFDA44"/>
<path d="M6.44368 37.5574C7.36656 38.4802 8.35132 39.3034 9.3842 40.0281L40.0281 9.38396C39.3036 8.35107 38.4805 7.36631 37.5576 6.44343C36.6346 5.52055 35.65 4.69753 34.6171 3.9729L3.97314 34.6168C4.69768 35.6495 5.52071 36.6345 6.44368 37.5574Z" fill="#D80027"/>
<path d="M6.44309 6.44302C-0.497826 13.3839 -1.83029 23.808 2.44304 32.0876L32.0877 2.44306C23.808 -1.83018 13.3839 -0.497549 6.44309 6.44302Z" fill="#338AF3"/>
<path d="M37.5571 37.5569C44.4979 30.616 45.8303 20.192 41.5573 11.9124L11.9126 41.5569C20.1922 45.8302 30.6164 44.4978 37.5571 37.5569Z" fill="#338AF3"/>
<path d="M11.7239 6.6947L12.911 10.3485H16.7528L13.6448 12.6066L14.8319 16.2603L11.7239 14.0021L8.6157 16.2603L9.80301 12.6066L6.69482 10.3485H10.5366L11.7239 6.6947Z" fill="#FFDA44"/>
</g>
<defs>
<clipPath id="clip0">
<rect width="44" height="44" fill="white"/>
</clipPath>
</defs>
</svg>
