<svg width="44" height="44" viewBox="0 0 44 44" fill="none" xmlns="http://www.w3.org/2000/svg">
<g clip-path="url(#clip0)">
<path d="M22 44C34.1503 44 44 34.1503 44 22C44 9.84974 34.1503 0 22 0C9.84974 0 0 9.84974 0 22C0 34.1503 9.84974 44 22 44Z" fill="#FFDA44"/>
<path d="M9.60059 3.82611C13.1313 1.41247 17.4005 0 22.0002 0C26.6 0 30.8692 1.41247 34.3999 3.82611L22.0002 4.78259L9.60059 3.82611Z" fill="#A2001D"/>
<path d="M22 21.9999L20.5959 20.5958L20.2231 21.2636L22 21.9999Z" fill="#0052B4"/>
<path d="M6.44413 6.44312C-2.14739 15.0346 -2.14739 28.9643 6.44413 37.5559C9.99446 34.0056 13.409 30.591 22.0005 21.9995L6.44413 6.44312Z" fill="#496E2D"/>
<path d="M37.5564 6.44312C46.1479 15.0346 46.1479 28.9643 37.5564 37.5559C34.0061 34.0056 30.5915 30.591 22 21.9995L37.5564 6.44312Z" fill="#496E2D"/>
<path d="M21.9998 29.6522C26.2259 29.6522 29.6519 26.2262 29.6519 22C29.6519 17.7739 26.2259 14.3479 21.9998 14.3479C17.7736 14.3479 14.3477 17.7739 14.3477 22C14.3477 26.2262 17.7736 29.6522 21.9998 29.6522Z" fill="#A2001D"/>
<path d="M21.9998 14.3479L23.7151 19.627H29.2665L24.7755 22.8903L26.4908 28.1696L21.9998 24.9069L17.5087 28.1696L19.2243 22.8903L14.7334 19.627H20.2844L21.9998 14.3479Z" fill="#FFDA44"/>
<path d="M22.0001 0C21.9976 0 21.9952 0.000171875 21.9927 0.000171875H22.0074C22.005 0.000171875 22.0026 0 22.0001 0Z" fill="#FFDA44"/>
<path d="M22.0074 0H21.9927C15.921 0.00197656 10.4243 2.46348 6.44482 6.44256H37.5553C33.5757 2.46348 28.0791 0.00197656 22.0074 0Z" fill="#A2001D"/>
<path d="M6.44482 37.5574C10.426 41.5379 15.9255 43.9998 21.9999 43.9998C28.0744 43.9998 33.5739 41.5379 37.5551 37.5574H6.44482Z" fill="#A2001D"/>
<path d="M21.9998 2.39111L22.3561 3.48716H23.5085L22.5761 4.16461L22.9324 5.26065L21.9998 4.58329L21.0675 5.26065L21.4237 4.16461L20.4912 3.48716H21.6436L21.9998 2.39111Z" fill="#FFDA44"/>
<path d="M16.6654 2.39111L17.0216 3.48716H18.174L17.2417 4.16461L17.5979 5.26065L16.6654 4.58329L15.7331 5.26065L16.0892 4.16461L15.1567 3.48716H16.3092L16.6654 2.39111Z" fill="#FFDA44"/>
<path d="M27.3343 2.39111L27.6905 3.48716H28.8429L27.9106 4.16461L28.2668 5.26065L27.3343 4.58329L26.402 5.26065L26.7582 4.16461L25.8257 3.48716H26.9781L27.3343 2.39111Z" fill="#FFDA44"/>
<path d="M21.9998 38.739L22.3561 39.8351H23.5085L22.5761 40.5125L22.9324 41.6086L21.9998 40.9311L21.0675 41.6086L21.4237 40.5125L20.4912 39.8351H21.6436L21.9998 38.739Z" fill="#FFDA44"/>
<path d="M16.6654 38.739L17.0216 39.8351H18.174L17.2417 40.5125L17.5979 41.6086L16.6654 40.9311L15.7331 41.6086L16.0892 40.5125L15.1567 39.8351H16.3092L16.6654 38.739Z" fill="#FFDA44"/>
<path d="M27.3343 38.739L27.6905 39.8351H28.8429L27.9106 40.5125L28.2668 41.6086L27.3343 40.9311L26.402 41.6086L26.7582 40.5125L25.8257 39.8351H26.9781L27.3343 38.739Z" fill="#FFDA44"/>
<path d="M6.70351 21.6361C7.26854 22.5289 7.003 23.7107 6.11019 24.2758C5.21747 24.8409 4.03566 24.5754 3.47054 23.6826C2.44745 22.0663 3.04068 19.4265 3.04068 19.4265C3.04068 19.4265 5.68033 20.0197 6.70351 21.6361Z" fill="#FFDA44"/>
<path d="M5.59906 24.4247C6.12731 24.4247 6.55555 23.9965 6.55555 23.4682C6.55555 22.94 6.12731 22.5117 5.59906 22.5117C5.07081 22.5117 4.64258 22.94 4.64258 23.4682C4.64258 23.9965 5.07081 24.4247 5.59906 24.4247Z" fill="#A2001D"/>
</g>
<defs>
<clipPath id="clip0">
<rect width="44" height="44" fill="white"/>
</clipPath>
</defs>
</svg>
