<svg width="44" height="44" viewBox="0 0 44 44" fill="none" xmlns="http://www.w3.org/2000/svg">
<path d="M22 44C34.1503 44 44 34.1503 44 22C44 9.84974 34.1503 0 22 0C9.84974 0 0 9.84974 0 22C0 34.1503 9.84974 44 22 44Z" fill="#FCFCFC"/>
<path d="M28.6958 18.1743V20.0874H31.3214C30.2257 21.6102 28.7662 22.8534 27.0705 23.6905C26.6355 23.2385 26.0247 22.9569 25.348 22.9569C24.2071 22.9569 23.2536 23.756 23.0148 24.825C22.6805 24.8544 22.3421 24.87 22.0002 24.87C21.6582 24.87 21.3199 24.8542 20.9856 24.825C20.7468 23.7561 19.7932 22.9569 18.6524 22.9569C17.9756 22.9569 17.3651 23.2385 16.9299 23.6905C15.2342 22.8534 13.7748 21.6101 12.6791 20.0874H15.3045V18.1743H8.60889C8.60889 25.57 14.6045 31.5656 22.0002 31.5656C29.396 31.5656 35.3915 25.57 35.3915 18.1743H28.6958Z" fill="#D80027"/>
</svg>
