<svg width="44" height="44" viewBox="0 0 44 44" fill="none" xmlns="http://www.w3.org/2000/svg">
<path d="M22 44C34.1503 44 44 34.1503 44 22C44 9.84974 34.1503 0 22 0C9.84974 0 0 9.84974 0 22C0 34.1503 9.84974 44 22 44Z" fill="#F0F0F0"/>
<path d="M42.6316 14.3479H1.36838C0.484 16.7312 0 19.309 0 22C0 24.6911 0.484 27.2689 1.36838 29.6522H42.6317C43.516 27.2689 44 24.6911 44 22C44 19.309 43.516 16.7312 42.6316 14.3479Z" fill="#0052B4"/>
<path d="M21.9994 0C15.3314 0 9.35677 2.96691 5.32227 7.65213H38.6764C34.642 2.96691 28.6674 0 21.9994 0Z" fill="#D80027"/>
<path d="M38.6765 36.3479H5.32227C9.35677 41.0331 15.3314 44.0001 21.9994 44.0001C28.6674 44.0001 34.642 41.0331 38.6765 36.3479Z" fill="#D80027"/>
</svg>
