<svg width="44" height="44" viewBox="0 0 44 44" fill="none" xmlns="http://www.w3.org/2000/svg">
<g clip-path="url(#clip0)">
<path d="M0 22C0 9.84981 9.84981 0 22 0C34.1502 0 44 9.84981 44 22" fill="#D80027"/>
<path d="M29.6519 20.4598L26.5251 21.9304L28.1902 24.9588L24.7949 24.3092L24.3647 27.7391L21.9998 25.2164L19.6348 27.7391L19.2047 24.3092L15.8094 24.9586L17.4744 21.9304L14.3477 20.4598L17.4744 18.9889L15.8094 15.9608L19.2046 16.6102L19.6349 13.1804L21.9998 15.7029L24.3648 13.1804L24.7949 16.6102L28.1903 15.9608L26.5253 18.9891L29.6519 20.4598Z" fill="#FFDA44"/>
<path d="M27.7391 7.17358H23.4347C23.4347 6.38132 22.7923 5.73877 21.9999 5.73877C21.2076 5.73877 20.5651 6.38124 20.5651 7.17358H16.2607C16.2607 7.96593 16.951 8.6084 17.7433 8.6084H17.6955C17.6955 9.40074 18.3378 10.0432 19.1303 10.0432C19.1303 10.8356 19.7726 11.478 20.5651 11.478H23.4346C24.2269 11.478 24.8695 10.8356 24.8695 10.0432C25.6617 10.0432 26.3043 9.40083 26.3043 8.6084H26.2564C27.0488 8.6084 27.7391 7.96601 27.7391 7.17358Z" fill="#FFDA44"/>
<path d="M44 22C44 34.1502 34.1502 44 22 44C9.84981 44 0 34.1502 0 22C0.956484 22 44 22 44 22Z" fill="#F0F0F0"/>
<path d="M22.0006 43.9999C28.8775 43.9999 35.0164 40.8439 39.0508 35.9021C38.3251 35.4074 37.9333 34.6077 36.667 34.6077C34.8337 34.6077 34.8337 36.284 33.0005 36.284C31.1672 36.284 31.1671 34.6077 29.3339 34.6077C27.5006 34.6077 27.5006 36.284 25.6672 36.284C23.8338 36.284 23.8338 34.6077 22.0003 34.6077C20.167 34.6077 20.167 36.284 18.3338 36.284C16.5007 36.284 16.5007 34.6077 14.6674 34.6077C12.8339 34.6077 12.8339 36.284 11.0005 36.284C9.16698 36.284 9.16698 34.6077 7.3335 34.6077C6.0673 34.6077 5.67551 35.4072 4.9502 35.902C8.98445 40.8439 15.1236 43.9999 22.0006 43.9999Z" fill="#0052B4"/>
<path d="M40.3332 24.8062C38.4999 24.8062 38.4999 23.1299 36.6665 23.1299C34.8332 23.1299 34.8332 24.8062 33 24.8062C31.1668 24.8062 31.1667 23.1299 29.3335 23.1299C27.5002 23.1299 27.5002 24.8062 25.6668 24.8062C23.8334 24.8062 23.8333 23.1299 21.9998 23.1299C20.1665 23.1299 20.1665 24.8062 18.3333 24.8062C16.5003 24.8062 16.5003 23.1299 14.667 23.1299C12.8335 23.1299 12.8335 24.8062 11 24.8062C9.16654 24.8062 9.16654 23.1299 7.33307 23.1299C5.50002 23.1299 5.50002 24.8062 3.66671 24.8062C1.84329 24.8062 1.83272 23.1484 0.0288086 23.1307C0.0795977 24.137 0.199738 25.1249 0.38141 26.091C1.84269 26.3058 1.97065 27.7395 3.6668 27.7395C5.50011 27.7395 5.50011 26.0634 7.33315 26.0634C9.16663 26.0634 9.16663 27.7395 11.0001 27.7395C12.8336 27.7395 12.8336 26.0634 14.6671 26.0634C16.5004 26.0634 16.5004 27.7395 18.3334 27.7395C20.1667 27.7395 20.1667 26.0634 21.9999 26.0634C23.8334 26.0634 23.8334 27.7395 25.6669 27.7395C27.5004 27.7395 27.5004 26.0634 29.3336 26.0634C31.1669 26.0634 31.1669 27.7395 33.0001 27.7395C34.8333 27.7395 34.8334 26.0634 36.6666 26.0634C38.5001 26.0634 38.5001 27.7395 40.3333 27.7395C42.0296 27.7395 42.1576 26.3059 43.619 26.0911C43.8007 25.1249 43.9207 24.1371 43.9717 23.1307C42.1675 23.1485 42.1567 24.8062 40.3332 24.8062Z" fill="#0052B4"/>
<path d="M36.6666 28.8689C34.8333 28.8689 34.8333 30.5452 33 30.5452C31.1668 30.5452 31.1667 28.8689 29.3335 28.8689C27.5002 28.8689 27.5002 30.5452 25.6668 30.5452C23.8333 30.5452 23.8333 28.8689 21.9999 28.8689C20.1666 28.8689 20.1666 30.5452 18.3333 30.5452C16.5003 30.5452 16.5003 28.8689 14.667 28.8689C12.8335 28.8689 12.8335 30.5452 11 30.5452C9.16656 30.5452 9.16656 28.8689 7.33309 28.8689C5.50004 28.8689 5.50004 30.5452 3.66673 30.5452C2.35679 30.5452 1.98262 29.6896 1.20703 29.2008C1.72334 30.6926 2.39503 32.1117 3.20396 33.4382C3.34464 33.4641 3.49778 33.4785 3.66673 33.4785C5.50004 33.4785 5.50004 31.8024 7.33309 31.8024C9.16656 31.8024 9.16656 33.4785 11 33.4785C12.8335 33.4785 12.8335 31.8024 14.667 31.8024C16.5003 31.8024 16.5003 33.4785 18.3333 33.4785C20.1666 33.4785 20.1666 31.8024 21.9999 31.8024C23.8333 31.8024 23.8333 33.4785 25.6668 33.4785C27.5003 33.4785 27.5003 31.8024 29.3335 31.8024C31.1668 31.8024 31.1668 33.4785 33 33.4785C34.8333 33.4785 34.8333 31.8024 36.6666 31.8024C38.5 31.8024 38.5 33.4785 40.3333 33.4785C40.5024 33.4785 40.6555 33.4641 40.7962 33.4381C41.6051 32.1117 42.2767 30.6926 42.7933 29.2009C42.0176 29.6894 41.6434 30.5452 40.3333 30.5452C38.5 30.5452 38.5 28.8689 36.6666 28.8689Z" fill="#0052B4"/>
<path d="M43.9318 20.2619C42.1675 20.3036 42.1431 21.9363 40.333 21.9363C38.4997 21.9363 38.4997 20.26 36.6664 20.26C34.833 20.26 34.833 21.9363 32.9998 21.9363C31.1666 21.9363 31.1665 20.26 29.3333 20.26C27.5 20.26 27.5 21.9363 25.6666 21.9363C23.8332 21.9363 23.8331 20.26 21.9997 20.26C20.1664 20.26 20.1664 21.9363 18.3331 21.9363C16.5001 21.9363 16.5001 20.26 14.6668 20.26C12.8333 20.26 12.8333 21.9363 10.9998 21.9363C9.16635 21.9363 9.16635 20.26 7.33288 20.26C5.49983 20.26 5.49983 21.9363 3.66652 21.9363C1.85677 21.9363 1.83227 20.3038 0.0681484 20.2619C0.023375 20.8354 0 21.415 0 22C0 22.4007 0.0113438 22.7989 0.0327422 23.1943C1.83253 23.2144 1.84448 24.8695 3.66661 24.8695C5.49991 24.8695 5.49991 23.1934 7.33296 23.1934C9.16644 23.1934 9.16644 24.8695 10.9999 24.8695C12.8334 24.8695 12.8334 23.1934 14.6669 23.1934C16.5002 23.1934 16.5002 24.8695 18.3332 24.8695C20.1665 24.8695 20.1665 23.1934 21.9997 23.1934C23.8332 23.1934 23.8332 24.8695 25.6667 24.8695C27.5002 24.8695 27.5002 23.1934 29.3334 23.1934C31.1667 23.1934 31.1667 24.8695 32.9999 24.8695C34.8331 24.8695 34.8332 23.1934 36.6664 23.1934C38.4999 23.1934 38.4999 24.8695 40.3331 24.8695C42.1554 24.8695 42.1674 23.2144 43.9675 23.1943C43.9887 22.7988 44 22.4007 44 22C44 21.415 43.9766 20.8354 43.9318 20.2619Z" fill="#F0F0F0"/>
</g>
<defs>
<clipPath id="clip0">
<rect width="44" height="44" fill="white"/>
</clipPath>
</defs>
</svg>
