<svg width="44" height="44" viewBox="0 0 44 44" fill="none" xmlns="http://www.w3.org/2000/svg">
<path d="M22 44C34.1503 44 44 34.1503 44 22C44 9.84974 34.1503 0 22 0C9.84974 0 0 9.84974 0 22C0 34.1503 9.84974 44 22 44Z" fill="#0052B4"/>
<path d="M9.6638 13.3921L10.1387 14.8537H11.6753L10.4322 15.7568L10.907 17.2182L9.6638 16.3151L8.42054 17.2182L8.89552 15.7568L7.65234 14.8537H9.18882L9.6638 13.3921Z" fill="#F0F0F0"/>
<path d="M14.4459 11.9568L14.9208 13.4183H16.4574L15.2143 14.3214L15.6891 15.7828L14.4459 14.8797L13.2028 15.7828L13.6777 14.3214L12.4346 13.4183H13.9711L14.4459 11.9568Z" fill="#F0F0F0"/>
<path d="M19.2291 10.5222L19.704 11.9838H21.2406L19.9975 12.887L20.4723 14.3483L19.2291 13.4451L17.986 14.3483L18.4609 12.887L17.2178 11.9838H18.7543L19.2291 10.5222Z" fill="#F0F0F0"/>
<path d="M34.3371 13.3921L33.8622 14.8537H32.3257L33.5689 15.7568L33.094 17.2182L34.3371 16.3151L35.5804 17.2182L35.1054 15.7568L36.3486 14.8537H34.812L34.3371 13.3921Z" fill="#F0F0F0"/>
<path d="M29.5539 11.9568L29.079 13.4183H27.5425L28.7857 14.3214L28.3108 15.7828L29.5539 14.8797L30.7971 15.7828L30.3222 14.3214L31.5653 13.4183H30.0287L29.5539 11.9568Z" fill="#F0F0F0"/>
<path d="M24.7717 10.5222L24.2968 11.9838H22.7603L24.0033 12.887L23.5285 14.3483L24.7717 13.4451L26.0149 14.3483L25.54 12.887L26.7831 11.9838H25.2465L24.7717 10.5222Z" fill="#F0F0F0"/>
<path d="M25.826 22.9569L21.9998 18.1743L20.0868 19.1308V21.0439L17.2173 22.9569H15.3042V25.4284C18.1082 26.5638 20.0868 29.3111 20.0868 32.5222H21.9998V30.6091L23.9129 28.6961L25.826 30.6091L27.739 28.6961V26.783L29.6521 23.9135L25.826 22.9569Z" fill="#FFDA44"/>
</svg>
