<svg width="44" height="44" viewBox="0 0 44 44" fill="none" xmlns="http://www.w3.org/2000/svg">
<path d="M22 44C34.1503 44 44 34.1503 44 22C44 9.84974 34.1503 0 22 0C9.84974 0 0 9.84974 0 22C0 34.1503 9.84974 44 22 44Z" fill="#496E2D"/>
<path d="M25.8262 21.0829C25.2862 21.0829 24.7735 21.1906 24.2974 21.362C24.5582 20.7807 24.7331 20.1339 24.7331 19.4432C24.7331 16.7103 22.0002 14.6606 22.0002 14.6606C22.0002 14.6606 19.2673 16.7103 19.2673 19.4432C19.2673 20.1338 19.4422 20.7807 19.703 21.362C19.2268 21.1908 18.7141 21.0829 18.1742 21.0829C15.4413 21.0829 13.3916 23.8158 13.3916 23.8158C13.3916 23.8158 15.4413 26.5488 18.1742 26.5488C19.7765 26.5488 21.1431 25.6097 22.0003 24.8323C22.8575 25.6096 24.2241 26.5488 25.8264 26.5488C28.5593 26.5488 30.609 23.8158 30.609 23.8158C30.609 23.8158 28.5591 21.0829 25.8262 21.0829Z" fill="#F0F0F0"/>
<path d="M22.0002 8.60889L22.5647 10.3462H24.3915L22.9138 11.4201L23.4779 13.1574L22.0002 12.0835L20.5225 13.1574L21.0866 11.4201L19.6089 10.3462H21.4357L22.0002 8.60889Z" fill="#FFDA44"/>
<path d="M15.053 11.6472L16.1391 12.625L17.4047 11.8944L16.8104 13.2294L17.8964 14.2074L16.443 14.0546L15.8486 15.3896L15.5446 13.9602L14.0913 13.8074L15.3568 13.0766L15.053 11.6472Z" fill="#FFDA44"/>
<path d="M9.96826 16.7331L11.3977 17.0368L12.1285 15.7712L12.2813 17.2245L13.7106 17.5286L12.3756 18.123L12.5284 19.5762L11.5504 18.4904L10.2154 19.0847L10.9461 17.819L9.96826 16.7331Z" fill="#FFDA44"/>
<path d="M28.9468 11.6472L27.8608 12.625L26.5952 11.8944L27.1894 13.2294L26.1035 14.2074L27.5569 14.0546L28.1512 15.3896L28.4553 13.9602L29.9086 13.8074L28.6431 13.0766L28.9468 11.6472Z" fill="#FFDA44"/>
<path d="M34.0319 16.7331L32.6024 17.0368L31.8717 15.7712L31.7189 17.2245L30.2896 17.5286L31.6245 18.123L31.4717 19.5762L32.4498 18.4904L33.7847 19.0847L33.054 17.819L34.0319 16.7331Z" fill="#FFDA44"/>
<path d="M22.001 34.2005C24.1719 34.2005 26.1728 33.4762 27.778 32.2576H16.2241C17.8293 33.4762 19.8301 34.2005 22.001 34.2005Z" fill="#F0F0F0"/>
<path d="M13.2319 28.4612C13.5356 29.1561 13.9206 29.8069 14.3728 30.4041H29.6282C30.0804 29.807 30.4654 29.1561 30.769 28.4612H13.2319Z" fill="#F0F0F0"/>
</svg>
