<svg width="44" height="44" viewBox="0 0 44 44" fill="none" xmlns="http://www.w3.org/2000/svg">
<path d="M22 44C34.1503 44 44 34.1503 44 22C44 9.84974 34.1503 0 22 0C9.84974 0 0 9.84974 0 22C0 34.1503 9.84974 44 22 44Z" fill="#6DA544"/>
<path d="M12.4346 26.3037C12.4346 27.8885 13.7193 29.1732 15.3041 29.1732H23.9128C23.9128 30.4939 24.9834 31.5645 26.3041 31.5645H29.1737C30.4944 31.5645 31.565 30.4939 31.565 29.1732V26.3037H12.4346Z" fill="#F0F0F0"/>
<path d="M31.8042 12.4346V19.1302C31.8042 20.1851 30.946 21.0433 29.8911 21.0433V23.9128C32.5283 23.9128 34.6737 21.7673 34.6737 19.1302V12.4346H31.8042Z" fill="#F0F0F0"/>
<path d="M11.2387 19.1312C11.2387 20.1861 10.3806 21.0442 9.32568 21.0442V23.9138C11.9628 23.9138 14.1083 21.7683 14.1083 19.1312V12.4355H11.2387V19.1312Z" fill="#F0F0F0"/>
<path d="M30.3695 12.4346H27.5V19.1302H30.3695V12.4346Z" fill="#F0F0F0"/>
<path d="M23.1956 16.2607C23.1956 16.5244 22.981 16.7389 22.7173 16.7389C22.4537 16.7389 22.2391 16.5243 22.2391 16.2607V12.4346H19.3696V16.2607C19.3696 16.5244 19.155 16.7389 18.8913 16.7389C18.6277 16.7389 18.4131 16.5243 18.4131 16.2607V12.4346H15.5435V16.2607C15.5435 18.1067 17.0453 19.6085 18.8913 19.6085C19.6023 19.6085 20.2616 19.3851 20.8044 19.0056C21.3471 19.385 22.0065 19.6085 22.7174 19.6085C22.8606 19.6085 23.0014 19.5985 23.1398 19.5809C22.9365 20.4187 22.182 21.0433 21.2826 21.0433V23.9128C23.9198 23.9128 26.0652 21.7673 26.0652 19.1302V16.2607V12.4346H23.1957V16.2607H23.1956Z" fill="#F0F0F0"/>
<path d="M19.8478 21.0435H15.5435V23.913H19.8478V21.0435Z" fill="#F0F0F0"/>
</svg>
