<svg width="44" height="44" viewBox="0 0 44 44" fill="none" xmlns="http://www.w3.org/2000/svg">
<path d="M21.9998 0C20.0141 0 18.0905 0.264688 16.2606 0.757883L14.3477 22L16.2607 43.2421C18.0905 43.7353 20.0141 44 21.9998 44C34.15 44 43.9998 34.1502 43.9998 22C43.9998 9.84981 34.15 0 21.9998 0Z" fill="#FFDA44"/>
<path d="M14.3477 22L16.2607 43.2421C18.0905 43.7353 20.0141 44 21.9998 44C34.15 44 43.9998 34.1502 43.9998 22H14.3477Z" fill="#6DA544"/>
<path d="M0 22.0001C0 30.339 4.63977 37.5939 11.4782 41.3251V2.67505C4.63977 6.40628 0 13.6611 0 22.0001Z" fill="#D80027"/>
<path d="M0 21.9997C0 32.1643 6.89399 40.7173 16.2608 43.2418V0.757568C6.89399 3.28207 0 11.8351 0 21.9997Z" fill="#D80027"/>
<path d="M8.31325 16.261L9.73767 20.6452H14.3479L10.6184 23.355L12.0427 27.7393L8.31325 25.0296L4.58365 27.7393L6.00832 23.355L2.27881 20.6452H6.88875L8.31325 16.261Z" fill="black"/>
</svg>
