<svg width="44" height="44" viewBox="0 0 44 44" fill="none" xmlns="http://www.w3.org/2000/svg">
<g clip-path="url(#clip0)">
<path d="M22 44C34.1503 44 44 34.1503 44 22C44 9.84974 34.1503 0 22 0C9.84974 0 0 9.84974 0 22C0 34.1503 9.84974 44 22 44Z" fill="#F0F0F0"/>
<path d="M22.0002 0C17.5851 0 13.4745 1.30152 10.0291 3.54045L15.6871 7.33279L8.60889 10.9994L15.6871 14.666L8.60889 18.3326L15.6871 21.9988L8.60889 25.6653L15.6871 29.3318L8.60889 32.9988L15.6871 36.6654L10.0284 40.4589C13.474 42.6983 17.5848 44 22.0002 44C34.1504 44 44.0002 34.1502 44.0002 22C44.0002 9.84981 34.1504 0 22.0002 0Z" fill="#D80027"/>
</g>
<defs>
<clipPath id="clip0">
<rect width="44" height="44" fill="white"/>
</clipPath>
</defs>
</svg>
