<svg width="44" height="44" viewBox="0 0 44 44" fill="none" xmlns="http://www.w3.org/2000/svg">
<path d="M22 44C34.1503 44 44 34.1503 44 22C44 9.84974 34.1503 0 22 0C9.84974 0 0 9.84974 0 22C0 34.1503 9.84974 44 22 44Z" fill="#F0F0F0"/>
<path d="M14.348 11.4784V8.60889H11.4784V11.4784H8.60889V14.348H11.4784V17.2176H14.348V14.348H17.2176V11.4784H14.348Z" fill="#D80027"/>
<path d="M22 0V22C9.84981 22.0001 5.0209 22 0 22.0001C0 34.1502 9.84981 44 22 44C34.1502 44 44 34.1502 44 22C44 9.84981 34.1502 0 22 0Z" fill="#D80027"/>
</svg>
