<svg width="44" height="44" viewBox="0 0 44 44" fill="none" xmlns="http://www.w3.org/2000/svg">
<path d="M22 44C34.1503 44 44 34.1503 44 22C44 9.84974 34.1503 0 22 0C9.84974 0 0 9.84974 0 22C0 34.1503 9.84974 44 22 44Z" fill="#FCFCFC"/>
<path d="M9.08661 20.4058L6.69531 16.0674L9.08661 11.7971L11.4779 16.0674L9.08661 20.4058Z" fill="#A2001D"/>
<path d="M4.30438 20.4058L1.91309 16.0674L4.30438 11.7971L6.69568 16.0674L4.30438 20.4058Z" fill="#A2001D"/>
<path d="M9.08661 32.2031L6.69531 27.8647L9.08661 23.5944L11.4779 27.8647L9.08661 32.2031Z" fill="#A2001D"/>
<path d="M4.30438 32.2031L1.91309 27.8647L4.30438 23.5944L6.69568 27.8647L4.30438 32.2031Z" fill="#A2001D"/>
<path d="M11.4781 4.27037L10.801 3.0614C9.58675 3.78087 8.44782 4.61386 7.39844 5.54577L9.08677 8.60867L11.4781 4.27037Z" fill="#A2001D"/>
<path d="M9.08706 35.3911L7.38086 38.4381C8.4293 39.3712 9.56745 40.2055 10.7812 40.9264L11.4784 39.6615L9.08706 35.3911Z" fill="#A2001D"/>
<path d="M13.3911 27.739V42.2507C16.0353 43.3762 18.9446 43.9998 21.9998 43.9998C31.459 43.9998 39.523 38.0296 42.6314 29.652L13.3911 27.739Z" fill="#6DA544"/>
<path d="M42.6314 29.6521C43.5158 27.2688 43.9998 24.691 43.9998 22C43.9998 9.84981 34.15 0 21.9998 0C18.9448 0 16.0353 0.623305 13.3911 1.74866V29.6522H42.6314V29.6521Z" fill="#A2001D"/>
</svg>
