<svg width="44" height="44" viewBox="0 0 44 44" fill="none" xmlns="http://www.w3.org/2000/svg">
<g clip-path="url(#clip0)">
<path d="M22 44C34.1503 44 44 34.1503 44 22C44 9.84974 34.1503 0 22 0C9.84974 0 0 9.84974 0 22C0 34.1503 9.84974 44 22 44Z" fill="#F0F0F0"/>
<path d="M21.9996 0C13.2775 0 5.74112 5.0759 2.18262 12.4348H41.8166C38.2581 5.0759 30.7217 0 21.9996 0Z" fill="black"/>
<path d="M21.9996 44.0002C13.2775 44.0002 5.74112 38.9243 2.18262 31.5654H41.8166C38.2581 38.9243 30.7217 44.0002 21.9996 44.0002Z" fill="#496E2D"/>
<path d="M42.9611 15.3044H1.0389C0.364977 17.4158 0 19.6653 0 22.0001C0 24.3349 0.364977 26.5843 1.0389 28.6957H42.961C43.635 26.5843 44 24.3349 44 22.0001C44 19.6653 43.635 17.4158 42.9611 15.3044Z" fill="#A2001D"/>
<path d="M28.8504 10.1669L26.2451 8.96436L21.9999 18.5766L17.7548 8.96436L15.1494 10.1669L20.4198 22.0004L15.1494 33.8339L17.7548 35.0364L21.9999 25.4242L26.2451 35.0364L28.8504 33.8339L23.5801 22.0004L28.8504 10.1669Z" fill="#F0F0F0"/>
<path d="M23.7695 11.3001C22.761 10.1986 22 9.56543 22 9.56543C22 9.56543 21.239 10.1985 20.2305 11.3001V32.7002C21.239 33.8019 22 34.4351 22 34.4351C22 34.4351 22.761 33.802 23.7695 32.7003V11.3001Z" fill="#F0F0F0"/>
<path d="M17.2178 15.4032V28.5957C18.2836 30.4842 19.588 32.0321 20.5656 33.0583V10.9407C19.588 11.9669 18.2835 13.5148 17.2178 15.4032Z" fill="#A2001D"/>
<path d="M26.7834 15.4032C25.7175 13.5148 24.4132 11.9669 23.4355 10.9407V33.0583C24.4131 32.0321 25.7175 30.4842 26.7834 28.5957V15.4032Z" fill="#A2001D"/>
<path d="M26.7822 15.4036V28.596C27.8612 26.684 28.6953 24.423 28.6953 21.9999C28.6953 19.5767 27.8612 17.3157 26.7822 15.4036Z" fill="black"/>
<path d="M17.2173 15.4036V28.596C16.1383 26.684 15.3042 24.423 15.3042 21.9999C15.3042 19.5767 16.1383 17.3157 17.2173 15.4036Z" fill="black"/>
</g>
<defs>
<clipPath id="clip0">
<rect width="44" height="44" fill="white"/>
</clipPath>
</defs>
</svg>
