<svg width="44" height="44" viewBox="0 0 44 44" fill="none" xmlns="http://www.w3.org/2000/svg">
<g clip-path="url(#clip0)">
<path d="M22 44C34.1503 44 44 34.1503 44 22C44 9.84974 34.1503 0 22 0C9.84974 0 0 9.84974 0 22C0 34.1503 9.84974 44 22 44Z" fill="#F0F0F0"/>
<path d="M11.8912 30.6089L6.44434 37.5558C10.4253 41.5373 15.9247 44.0002 22 44.0002C31.0947 44.0002 38.8991 38.4805 42.2495 30.6089H11.8912Z" fill="#FFDA44"/>
<path d="M42.2837 13.471C38.952 5.55689 31.1255 0 22 0C15.9247 0 10.4253 2.46288 6.44434 6.44437L11.9538 13.471H42.2837Z" fill="#496E2D"/>
<path d="M4.78271 16.1812V27.7391H43.2423C43.7358 25.9094 44.0001 23.9857 44.0001 22C44.0001 19.9854 43.7287 18.0347 43.2214 16.1812H4.78271Z" fill="black"/>
<path d="M6.44364 6.44312C-2.14788 15.0346 -2.14788 28.9643 6.44364 37.5559C9.99397 34.0056 13.4085 30.591 22 21.9995L6.44364 6.44312Z" fill="#A2001D"/>
<path d="M8.90407 16.261L10.3285 20.6452H14.9387L11.2092 23.355L12.6335 27.7393L8.90407 25.0296L5.17447 27.7393L6.59914 23.355L2.86963 20.6452H7.47949L8.90407 16.261Z" fill="#FFDA44"/>
<path d="M13.0738 22H4.73584V25.8261H13.0738V22Z" fill="#F0F0F0"/>
<path d="M14.6523 17.6138L13.2996 16.261L8.90404 20.6565L4.5085 16.261L3.15576 17.6138L7.55516 22.0054L3.15576 26.4049L4.5085 27.7393L8.90404 23.3517L13.2996 27.7393L14.6523 26.4049L10.2529 22.0054L14.6523 17.6138Z" fill="black"/>
</g>
<defs>
<clipPath id="clip0">
<rect width="44" height="44" fill="white"/>
</clipPath>
</defs>
</svg>
