<svg width="44" height="44" viewBox="0 0 44 44" fill="none" xmlns="http://www.w3.org/2000/svg">
<g clip-path="url(#clip0)">
<path d="M22 44C34.1503 44 44 34.1503 44 22C44 9.84974 34.1503 0 22 0C9.84974 0 0 9.84974 0 22C0 34.1503 9.84974 44 22 44Z" fill="#F0F0F0"/>
<path d="M44.0002 22.0001C44.0002 13.278 38.9243 5.74161 31.5654 2.18311V41.817C38.9243 38.2586 44.0002 30.7223 44.0002 22.0001Z" fill="#D80027"/>
<path d="M0 22.0001C0 30.7223 5.0759 38.2586 12.4348 41.8171V2.18311C5.0759 5.74161 0 13.278 0 22.0001Z" fill="#D80027"/>
<path d="M25.8259 24.8696L29.6519 22.9566L27.739 22.0001V20.087L23.9128 22.0001L25.8259 18.174H23.9128L21.9998 15.3044L20.0867 18.174H18.1737L20.0867 22.0001L16.2606 20.087V22.0001L14.3477 22.9566L18.1737 24.8696L17.2172 26.7827H21.0433V29.6522H22.9563V26.7827H26.7824L25.8259 24.8696Z" fill="#D80027"/>
</g>
<defs>
<clipPath id="clip0">
<rect width="44" height="44" fill="white"/>
</clipPath>
</defs>
</svg>
