<svg width="44" height="44" viewBox="0 0 44 44" fill="none" xmlns="http://www.w3.org/2000/svg">
<g clip-path="url(#clip0)">
<path d="M22 44C34.1503 44 44 34.1503 44 22C44 9.84974 34.1503 0 22 0C9.84974 0 0 9.84974 0 22C0 34.1503 9.84974 44 22 44Z" fill="#F0F0F0"/>
<path d="M42.6316 14.3481H19.1305V8.60889H7.65213V14.3481H1.36838C0.484086 16.7313 0 19.3091 0 22.0002C0 24.6912 0.484086 27.269 1.36838 29.6523L22 31.5654L42.6316 29.6523C43.5159 27.269 44 24.6912 44 22.0002C44 19.3091 43.5159 16.7313 42.6316 14.3481Z" fill="#0052B4"/>
<path d="M22.0003 44C31.4595 44 39.5234 38.0297 42.6319 29.6521H1.36865C4.4771 38.0297 12.541 44 22.0003 44Z" fill="#D80027"/>
<path d="M7.65234 14.3486V16.2615C7.65234 20.6548 13.3915 22.0008 13.3915 22.0008C13.3915 22.0008 19.1307 20.6548 19.1307 16.2615V14.3486L17.2176 16.2616L13.3915 13.3921L9.5654 16.2616L7.65234 14.3486Z" fill="#F0F0F0"/>
</g>
<defs>
<clipPath id="clip0">
<rect width="44" height="44" fill="white"/>
</clipPath>
</defs>
</svg>
