<svg width="44" height="44" viewBox="0 0 44 44" fill="none" xmlns="http://www.w3.org/2000/svg">
<g clip-path="url(#clip0)">
<path d="M22 44C34.1503 44 44 34.1503 44 22C44 9.84974 34.1503 0 22 0C9.84974 0 0 9.84974 0 22C0 34.1503 9.84974 44 22 44Z" fill="#F0F0F0"/>
<path d="M22.0003 0C12.541 0 4.4771 5.97025 1.36865 14.3479H42.632C39.5234 5.97025 31.4595 0 22.0003 0Z" fill="#D80027"/>
<path d="M22.0003 44C31.4595 44 39.5234 38.0297 42.6319 29.6521H1.36865C4.4771 38.0297 12.541 44 22.0003 44Z" fill="black"/>
<path d="M29.6521 19.6086H23.9129C23.9129 18.5521 23.0564 17.6956 21.9999 17.6956C20.9434 17.6956 20.0868 18.5521 20.0868 19.6086H14.3477C14.3477 20.6652 15.268 21.5217 16.3245 21.5217H16.2607C16.2607 22.5783 17.1172 23.4347 18.1738 23.4347C18.1738 24.4913 19.0302 25.3478 20.0868 25.3478H23.9129C24.9695 25.3478 25.826 24.4913 25.826 23.4347C26.8826 23.4347 27.739 22.5783 27.739 21.5217H27.6753C28.7319 21.5217 29.6521 20.6652 29.6521 19.6086Z" fill="#FF9811"/>
</g>
<defs>
<clipPath id="clip0">
<rect width="44" height="44" fill="white"/>
</clipPath>
</defs>
</svg>
