<svg width="44" height="44" viewBox="0 0 44 44" fill="none" xmlns="http://www.w3.org/2000/svg">
<path d="M22 44C34.1503 44 44 34.1503 44 22C44 9.84974 34.1503 0 22 0C9.84974 0 0 9.84974 0 22C0 34.1503 9.84974 44 22 44Z" fill="#496E2D"/>
<path d="M21.9998 25.4161C18.3366 25.4161 15.2764 22.8416 14.5255 19.4036C14.4102 19.9322 14.3477 20.4802 14.3477 21.0434C14.3477 25.2697 17.7736 28.6955 21.9998 28.6955C26.226 28.6955 29.6519 25.2696 29.6519 21.0434C29.6519 20.4802 29.5894 19.9322 29.474 19.4036C28.7232 22.8417 25.663 25.4161 21.9998 25.4161Z" fill="#FFDA44"/>
<path d="M22.0001 15.3044L22.7123 17.4966H25.0175L23.1527 18.8514L23.8649 21.0436L22.0001 19.6887L20.1353 21.0436L20.8477 18.8514L18.9829 17.4966H21.2878L22.0001 15.3044Z" fill="#FFDA44"/>
</svg>
