<svg width="44" height="44" viewBox="0 0 44 44" fill="none" xmlns="http://www.w3.org/2000/svg">
<path d="M44 22C44 34.1502 34.1502 44 22.0001 44C9.84981 44 0 34.1502 0 22C0 22.0052 22.0001 0.00240625 22.0001 0C34.1502 0 44 9.84981 44 22Z" fill="#338AF3"/>
<path d="M10.522 22H17.942L11.4785 14.3479L10.522 17.2174V22Z" fill="#0052B4"/>
<path d="M21.9999 17.9413L14.3477 10.5212H21.9998L21.9999 17.9413Z" fill="#0052B4"/>
<path d="M21.9409 22.0005H21.9998C21.9998 21.9808 21.9998 21.9615 21.9998 21.9417C21.9802 21.9613 21.9606 21.9809 21.9409 22.0005Z" fill="#F0F0F0"/>
<path d="M22.0001 11.4782C22.0001 7.60719 22.0001 5.07066 22.0001 0H21.9964C9.84775 0.0020625 0 9.85093 0 22H11.4783V15.5366L17.9418 22H21.9413C21.9609 21.9804 21.9805 21.9608 22.0002 21.9411C22.0002 20.459 22.0002 19.1365 22.0002 17.9419L15.5365 11.4782H22.0001Z" fill="#F0F0F0"/>
<path d="M11.1308 2.86987C7.68992 4.82916 4.82941 7.68968 2.87012 11.1305V22.0003H8.60928V8.60921V8.60904H22.0006C22.0006 6.79894 22.0006 5.07451 22.0006 2.86987H11.1308Z" fill="#D80027"/>
<path d="M22.0008 19.2943L14.1843 11.478H11.479V11.4782L22.0006 21.9997H22.0008C22.0008 21.9997 22.0008 20.1342 22.0008 19.2943Z" fill="#D80027"/>
<path d="M24.0115 36.3479L24.4863 37.8094H26.023L24.7799 38.7126L25.2548 40.1739L24.0115 39.2708L22.7684 40.1739L23.2433 38.7126L22 37.8094H23.5366L24.0115 36.3479Z" fill="#FFDA44"/>
<path d="M36.2493 26.7842L36.7241 28.2456H38.2608L37.0177 29.1489L37.4927 30.6103L36.2493 29.7072L35.0062 30.6103L35.4811 29.1489L34.2378 28.2456H35.7744L36.2493 26.7842Z" fill="#FFDA44"/>
<path d="M39.3157 12.4355L39.7905 13.897H41.3272L40.0841 14.8002L40.5589 16.2616L39.3157 15.3585L38.0726 16.2616L38.5475 14.8002L37.3042 13.897H38.8408L39.3157 12.4355Z" fill="#FFDA44"/>
<path d="M40.0755 22.9575L40.5503 24.4191H42.087L40.8439 25.3223L41.3188 26.7836L40.0755 25.8805L38.8324 26.7836L39.3073 25.3223L38.064 24.4191H39.6006L40.0755 22.9575Z" fill="#FFDA44"/>
<path d="M26.2145 32.912L27.5839 33.6097L28.6704 32.5232L28.4301 34.0408L29.7992 34.7384L28.2813 34.9789L28.041 36.4966L27.3435 35.1274L25.8257 35.3679L26.9122 34.2814L26.2145 32.912Z" fill="#FFDA44"/>
<path d="M26.2145 27.173L27.5839 27.8707L28.6704 26.7842L28.4301 28.3018L29.7992 28.9994L28.2813 29.2398L28.041 30.7576L27.3435 29.3884L25.8257 29.6289L26.9122 28.5424L26.2145 27.173Z" fill="#FFDA44"/>
<path d="M30.9977 30.8512L32.3671 31.5489L33.4536 30.4624L33.2133 31.98L34.5824 32.6776L33.0645 32.9181L32.8242 34.4358L32.1267 33.0665L30.6089 33.3071L31.6954 32.2206L30.9977 30.8512Z" fill="#FFDA44"/>
<path d="M30.9977 18.5642L32.3671 19.2618L33.4536 18.1753L33.2133 19.6929L34.5824 20.3905L33.0645 20.631L32.8242 22.1487L32.1267 20.7795L30.6089 21.02L31.6954 19.9335L30.9977 18.5642Z" fill="#FFDA44"/>
<path d="M35.6324 18.416L37.0018 19.1136L38.0884 18.0271L37.848 19.5448L39.2171 20.2423L37.6993 20.4828L37.459 22.0005L36.7615 20.6313L35.2437 20.8718L36.3302 19.7853L35.6324 18.416Z" fill="#FFDA44"/>
</svg>
