<svg width="44" height="44" viewBox="0 0 44 44" fill="none" xmlns="http://www.w3.org/2000/svg">
<path d="M22 44C34.1503 44 44 34.1503 44 22C44 9.84974 34.1503 0 22 0C9.84974 0 0 9.84974 0 22C0 34.1503 9.84974 44 22 44Z" fill="#F0F0F0"/>
<path d="M43.8138 19.1305H24.8697H24.8696V0.186227C23.9302 0.0639375 22.9726 0 22 0C21.0274 0 20.0698 0.0639375 19.1305 0.186227V19.1305H0.186227C0.0639375 20.0698 0 21.0274 0 22C0 22.9726 0.0639375 23.9302 0.186227 24.8695H19.1303H19.1304V43.8138C20.0698 43.9361 21.0274 44 22 44C22.9726 44 23.9302 43.9361 24.8695 43.8138V24.8698V24.8696H43.8138C43.9361 23.9302 44 22.9726 44 22C44 21.0274 43.9361 20.0698 43.8138 19.1305Z" fill="#D80027"/>
<path d="M28.2172 22.9565L29.6519 23.9131V20.087L28.2172 21.0435H22.9563V15.7826L23.9128 14.3479H20.0867L21.0433 15.7826V21.0435H15.7824L14.3477 20.087V23.9131L15.7824 22.9565H21.0433V28.2174L20.0867 29.6522H23.9128L22.9563 28.2174V22.9565H28.2172Z" fill="#FFDA44"/>
</svg>
