<svg width="44" height="44" viewBox="0 0 44 44" fill="none" xmlns="http://www.w3.org/2000/svg">
<g clip-path="url(#clip0)">
<path d="M0 22C0 9.84981 9.84981 0 22 0C34.1502 0 44 9.84981 44 22L22 23.9131L0 22Z" fill="#FFDA44"/>
<path d="M2.94385 33.0002C6.74787 39.5758 13.857 44.0002 22 44.0002C30.143 44.0002 37.2521 39.5758 41.0561 33.0002L22 31.5654L2.94385 33.0002Z" fill="#D80027"/>
<path d="M41.0561 33C42.928 29.7641 44 26.0074 44 22H0C0 26.0074 1.07198 29.7641 2.94388 33H41.0561Z" fill="#0052B4"/>
<path d="M21.9998 29.6522C26.2259 29.6522 29.6519 26.2262 29.6519 22C29.6519 17.7739 26.2259 14.3479 21.9998 14.3479C17.7736 14.3479 14.3477 17.7739 14.3477 22C14.3477 26.2262 17.7736 29.6522 21.9998 29.6522Z" fill="#FFDA44"/>
<path d="M22.0004 26.7826C19.3632 26.7826 17.2178 24.6371 17.2178 22V19.1305C17.2178 16.4933 19.3633 14.3479 22.0004 14.3479C24.6374 14.3479 26.7829 16.4934 26.7829 19.1305V22C26.7829 24.6372 24.6375 26.7826 22.0004 26.7826Z" fill="#338AF3"/>
<path d="M29.6521 10.5219H23.9129C23.9129 9.46542 23.0564 8.60889 21.9999 8.60889C20.9434 8.60889 20.0868 9.46542 20.0868 10.5219H14.3477C14.3477 11.5785 15.268 12.435 16.3244 12.435H16.2607C16.2607 13.4916 17.1172 14.348 18.1738 14.348C18.1738 15.4046 19.0302 16.2611 20.0868 16.2611H23.9129C24.9695 16.2611 25.826 15.4046 25.826 14.348C26.8826 14.348 27.739 13.4916 27.739 12.435H27.6753C28.7319 12.435 29.6521 11.5785 29.6521 10.5219Z" fill="black"/>
</g>
<defs>
<clipPath id="clip0">
<rect width="44" height="44" fill="white"/>
</clipPath>
</defs>
</svg>
