<svg width="44" height="44" viewBox="0 0 44 44" fill="none" xmlns="http://www.w3.org/2000/svg">
<path d="M22 44C34.1503 44 44 34.1503 44 22C44 9.84974 34.1503 0 22 0C9.84974 0 0 9.84974 0 22C0 34.1503 9.84974 44 22 44Z" fill="#0052B4"/>
<path d="M22.0002 8.60889L22.7125 10.8011H25.0173L23.1526 12.1559L23.8649 14.3481L22.0002 12.9932L20.1353 14.3481L20.8477 12.1559L18.9829 10.8011H21.2878L22.0002 8.60889Z" fill="#FFDA44"/>
<path d="M12.531 12.5315L14.5849 13.5778L16.2147 11.9481L15.854 14.2246L17.9079 15.2711L15.6313 15.6317L15.2707 17.9083L14.2242 15.8545L11.9478 16.2152L13.5776 14.5854L12.531 12.5315Z" fill="#FFDA44"/>
<path d="M8.60889 22.0003L10.8011 21.288V18.983L12.1558 20.8479L14.3481 20.1355L12.9931 22.0003L14.3481 23.8651L12.1558 23.1528L10.8011 25.0176V22.7126L8.60889 22.0003Z" fill="#FFDA44"/>
<path d="M12.531 31.4691L13.5775 29.4151L11.9478 27.7853L14.2243 28.1461L15.2706 26.0923L15.6313 28.3689L17.9078 28.7295L15.8542 29.7759L16.2147 32.0524L14.5849 30.4226L12.531 31.4691Z" fill="#FFDA44"/>
<path d="M22.0002 35.3913L21.2877 33.1992H18.9829L20.8477 31.8444L20.1353 29.6523L22.0002 31.0071L23.8649 29.6523L23.1526 31.8444L25.0173 33.1992H22.7124L22.0002 35.3913Z" fill="#FFDA44"/>
<path d="M31.4695 31.4691L29.4156 30.4227L27.7857 32.0525L28.1464 29.7758L26.0928 28.7295L28.3693 28.3689L28.7299 26.0923L29.7762 28.1461L32.0527 27.7853L30.4229 29.4153L31.4695 31.4691Z" fill="#FFDA44"/>
<path d="M35.3913 22.0003L33.1992 22.7126V25.0176L31.8444 23.1527L29.6523 23.8651L31.0071 22.0003L29.6523 20.1355L31.8444 20.8479L33.1992 18.983V21.2881L35.3913 22.0003Z" fill="#FFDA44"/>
<path d="M31.4695 12.5315L30.423 14.5854L32.0528 16.2152L29.7761 15.8544L28.7299 17.9083L28.3693 15.6317L26.0928 15.271L28.1464 14.2246L27.7857 11.9482L29.4157 13.578L31.4695 12.5315Z" fill="#FFDA44"/>
</svg>
