<svg width="44" height="44" viewBox="0 0 44 44" fill="none" xmlns="http://www.w3.org/2000/svg">
<g clip-path="url(#clip0)">
<path d="M22 44C34.1503 44 44 34.1503 44 22C44 9.84974 34.1503 0 22 0C9.84974 0 0 9.84974 0 22C0 34.1503 9.84974 44 22 44Z" fill="#F0F0F0"/>
<path d="M22.0003 0C12.541 0 4.4771 5.97025 1.36865 14.3479H42.632C39.5234 5.97025 31.4595 0 22.0003 0Z" fill="#D80027"/>
<path d="M22.0003 44C31.4595 44 39.5234 38.0297 42.6319 29.6521H1.36865C4.4771 38.0297 12.541 44 22.0003 44Z" fill="black"/>
<path d="M13.1454 16.739L14.3325 20.3924H18.1741L15.0662 22.6506L16.2533 26.3042L13.1454 24.0462L10.0375 26.3042L11.2246 22.6506L8.1167 20.3924H11.9584L13.1454 16.739Z" fill="#6DA544"/>
<path d="M30.8549 16.739L32.0419 20.3924H35.8837L32.7757 22.6506L33.9628 26.3042L30.8549 24.0462L27.747 26.3042L28.9341 22.6506L25.8262 20.3924H29.6678L30.8549 16.739Z" fill="#6DA544"/>
</g>
<defs>
<clipPath id="clip0">
<rect width="44" height="44" fill="white"/>
</clipPath>
</defs>
</svg>
