<svg width="44" height="44" viewBox="0 0 44 44" fill="none" xmlns="http://www.w3.org/2000/svg">
<g clip-path="url(#clip0)">
<path d="M22 44C34.1503 44 44 34.1503 44 22C44 9.84974 34.1503 0 22 0C9.84974 0 0 9.84974 0 22C0 34.1503 9.84974 44 22 44Z" fill="#F0F0F0"/>
<path d="M17.2174 19.1305H43.8137C42.4075 8.33611 33.1775 0 21.9999 0C20.3572 0 18.7573 0.181586 17.2173 0.52293V19.1305H17.2174Z" fill="#D80027"/>
<path d="M11.4781 19.1304V2.67505C5.43725 5.9711 1.1127 12.0169 0.186035 19.1305H11.4781V19.1304Z" fill="#D80027"/>
<path d="M11.478 24.8699H0.186035C1.1127 31.9835 5.43725 38.0293 11.4781 41.3253L11.478 24.8699Z" fill="#D80027"/>
<path d="M17.2173 24.87V43.4774C18.7573 43.8188 20.3572 44.0003 21.9999 44.0003C33.1775 44.0003 42.4075 35.6642 43.8137 24.8699H17.2173V24.87Z" fill="#D80027"/>
</g>
<defs>
<clipPath id="clip0">
<rect width="44" height="44" fill="white"/>
</clipPath>
</defs>
</svg>
