<svg width="44" height="44" viewBox="0 0 44 44" fill="none" xmlns="http://www.w3.org/2000/svg">
<path d="M22 44C34.1503 44 44 34.1503 44 22C44 9.84974 34.1503 0 22 0C9.84974 0 0 9.84974 0 22C0 34.1503 9.84974 44 22 44Z" fill="#D80027"/>
<path d="M32.7595 21.9997L28.3633 24.0675L30.7043 28.3255L25.9303 27.412L25.3256 32.2345L22.0002 28.6879L18.6752 32.2345L18.0702 27.412L13.2966 28.3253L15.6375 24.0674L11.2412 21.9997L15.6375 19.932L13.2966 15.6739L18.0701 16.5874L18.6753 11.7649L22.0002 15.3116L25.3258 11.7649L25.9303 16.5874L30.7045 15.6739L28.3634 19.9322L32.7595 21.9997Z" fill="#FFDA44"/>
<path d="M21.9998 28.6957C25.6978 28.6957 28.6955 25.698 28.6955 22.0001C28.6955 18.3022 25.6978 15.3044 21.9998 15.3044C18.3019 15.3044 15.3042 18.3022 15.3042 22.0001C15.3042 25.698 18.3019 28.6957 21.9998 28.6957Z" fill="#D80027"/>
<path d="M18.6516 22C18.4903 22 18.331 22.0083 18.1738 22.0239C18.1796 22.9512 18.5151 23.8 19.0692 24.4594C19.3648 23.6639 19.8062 22.9385 20.3628 22.3177C19.8312 22.1133 19.2545 22 18.6516 22Z" fill="#FFDA44"/>
<path d="M20.7124 25.6037C21.1146 25.7474 21.5476 25.8262 21.9993 25.8262C22.451 25.8262 22.884 25.7474 23.2862 25.6037C23.067 24.7433 22.6144 23.9752 21.9993 23.3716C21.3843 23.9751 20.9316 24.7433 20.7124 25.6037Z" fill="#FFDA44"/>
<path d="M25.3127 20.088C24.6511 18.9445 23.4156 18.1743 21.9994 18.1743C20.5831 18.1743 19.3476 18.9444 18.686 20.088C19.8921 20.0941 21.023 20.422 21.9994 20.9883C22.9757 20.422 24.1065 20.0941 25.3127 20.088Z" fill="#FFDA44"/>
<path d="M23.6362 22.3177C24.1928 22.9384 24.6342 23.6638 24.9298 24.4594C25.484 23.8 25.8195 22.9512 25.8252 22.0239C25.668 22.0082 25.5087 22 25.3475 22C24.7447 21.9999 24.168 22.1132 23.6362 22.3177Z" fill="#FFDA44"/>
</svg>
