<svg width="44" height="44" viewBox="0 0 44 44" fill="none" xmlns="http://www.w3.org/2000/svg">
<g clip-path="url(#clip0)">
<path d="M22 44C34.1503 44 44 34.1503 44 22C44 9.84974 34.1503 0 22 0C9.84974 0 0 9.84974 0 22C0 34.1503 9.84974 44 22 44Z" fill="#F0F0F0"/>
<path d="M13.3913 14.3479H42.6315C39.5231 5.97025 31.4591 0 22 0C15.9247 0 10.4253 2.46288 6.44434 6.44437L13.3913 14.3479Z" fill="black"/>
<path d="M13.3913 29.6521H42.6315C39.5231 38.0297 31.4591 44 22 44C15.9247 44 10.4253 41.5371 6.44434 37.5556L13.3913 29.6521Z" fill="#6DA544"/>
<path d="M6.44364 6.44312C-2.14788 15.0346 -2.14788 28.9643 6.44364 37.5559C9.99397 34.0056 13.4085 30.591 22 21.9995L6.44364 6.44312Z" fill="#D80027"/>
</g>
<defs>
<clipPath id="clip0">
<rect width="44" height="44" fill="white"/>
</clipPath>
</defs>
</svg>
