<svg width="44" height="44" viewBox="0 0 44 44" fill="none" xmlns="http://www.w3.org/2000/svg">
<path d="M44 22C44 34.1502 34.1502 44 22 44C9.84981 44 0 34.1502 0 22C0 22.0052 22 0.00240625 22 0C34.1502 0 44 9.84981 44 22Z" fill="#0052B4"/>
<path d="M21.9414 21.9997H22.0003C22.0003 21.9799 22.0003 21.9606 22.0003 21.9408C21.9807 21.9605 21.9611 21.9801 21.9414 21.9997Z" fill="#F0F0F0"/>
<path d="M22 11.4782C22 7.60719 22 5.07074 22 0H21.9963C9.84766 0.0020625 0 9.85093 0 22H11.4782V15.5366L17.9417 22H21.9412C21.9608 21.9804 21.9804 21.9608 22.0001 21.9411C22.0001 20.459 22.0001 19.1365 22.0001 17.9419L15.5365 11.4782H22Z" fill="#F0F0F0"/>
<path d="M11.1303 2.86987C7.68943 4.82916 4.82883 7.68968 2.86963 11.1305V22.0003H8.60879V8.60921V8.60904H22.0001C22.0001 6.79894 22.0001 5.07451 22.0001 2.86987H11.1303Z" fill="#D80027"/>
<path d="M22.0003 19.2952L14.1838 11.4789H11.4785V11.4791L22.0001 22.0006H22.0003C22.0003 22.0006 22.0003 20.1351 22.0003 19.2952Z" fill="#D80027"/>
<path d="M29.6522 22L30.0594 23.2526H31.3764L30.3109 24.0268L30.7179 25.2795L29.6522 24.5052L28.5867 25.2795L28.9937 24.0268L27.9282 23.2526H29.2452L29.6522 22Z" fill="#F0F0F0"/>
<path d="M24.2412 24.2412L25.4146 24.839L26.346 23.9077L26.1399 25.2086L27.3135 25.8066L26.0126 26.0125L25.8066 27.3136L25.2086 26.1399L23.9077 26.346L24.8392 25.4147L24.2412 24.2412Z" fill="#F0F0F0"/>
<path d="M22 29.6518L23.2526 29.2448L23.2528 27.9279L24.0268 28.9932L25.2795 28.5861L24.5052 29.6518L25.2795 30.7175L24.0268 30.3105L23.2528 31.3759V30.0589L22 29.6518Z" fill="#F0F0F0"/>
<path d="M24.2412 35.0631L24.839 33.8895L23.9077 32.9583L25.2086 33.1643L25.8066 31.9907L26.0126 33.2916L27.3135 33.4975L26.1399 34.0956L26.346 35.3966L25.4146 34.465L24.2412 35.0631Z" fill="#F0F0F0"/>
<path d="M29.6523 37.3046L29.2453 36.0519H27.9282L28.9938 35.2778L28.5868 34.0251L29.6523 34.7993L30.718 34.0251L30.311 35.2778L31.3765 36.0519H30.0595L29.6523 37.3046Z" fill="#F0F0F0"/>
<path d="M35.0631 35.0631L33.8895 34.4653L32.9583 35.3966L33.1643 34.0956L31.9907 33.4977L33.2916 33.2916L33.4977 31.9907L34.0956 33.1643L35.3965 32.9583L34.465 33.8896L35.0631 35.0631Z" fill="#F0F0F0"/>
<path d="M37.3044 29.6518L36.0517 30.0589V31.3759L35.2775 30.3104L34.0249 30.7175L34.7991 29.6518L34.0249 28.5861L35.2775 28.9932L36.0517 27.9279V29.2448L37.3044 29.6518Z" fill="#F0F0F0"/>
<path d="M35.0631 24.2413L34.4653 25.4148L35.3965 26.3461L34.0956 26.14L33.4977 27.3136L33.2916 26.0125L31.9907 25.8065L33.1643 25.2087L32.9583 23.9078L33.8896 24.8391L35.0631 24.2413Z" fill="#F0F0F0"/>
</svg>
