<svg width="44" height="44" viewBox="0 0 44 44" fill="none" xmlns="http://www.w3.org/2000/svg">
<path d="M22 44C34.1503 44 44 34.1503 44 22C44 9.84974 34.1503 0 22 0C9.84974 0 0 9.84974 0 22C0 34.1503 9.84974 44 22 44Z" fill="#338AF3"/>
<path d="M21.3062 35.8519C20.7131 35.8232 20.2224 35.4378 20.0302 34.9145C19.6907 35.3573 19.1071 35.5803 18.5323 35.432C17.9564 35.2838 17.5538 34.8074 17.4706 34.2545C17.0477 34.6198 16.4317 34.7192 15.899 34.4583C15.3653 34.1961 15.0669 33.648 15.0975 33.0903C14.6106 33.3638 13.987 33.3371 13.5173 32.9736C13.0486 32.6101 12.8659 32.0142 13.0075 31.4737C12.4756 31.644 11.8711 31.4929 11.4837 31.0423C11.0963 30.5928 11.0369 29.972 11.2838 29.4717C10.729 29.5309 10.1666 29.2613 9.87772 28.7429C9.58785 28.2244 9.65488 27.6037 9.9982 27.1626C9.44245 27.1091 8.94504 26.7312 8.76715 26.1649C8.58831 25.5987 8.77961 25.0038 9.20526 24.6412C8.6715 24.4765 8.26209 24.0059 8.20185 23.4159C8.14161 22.8258 8.44772 22.2834 8.93645 22.0136C8.44763 21.7458 8.13963 21.2035 8.19799 20.6142C8.19799 20.6142 8.19798 20.6142 8.19893 20.6142C8.25728 20.0231 8.66669 19.5516 9.19941 19.3851C8.77377 19.0235 8.58058 18.4295 8.75752 17.8632C8.93447 17.296 9.43084 16.9172 9.98669 16.8617C9.64328 16.4217 9.57445 15.8008 9.86234 15.2816C10.1502 14.7631 10.7127 14.4924 11.2684 14.5508C11.0197 14.0505 11.0781 13.4297 11.4646 12.9783C11.8501 12.5278 12.4546 12.3757 12.9874 12.544C12.8439 12.0045 13.0256 11.4077 13.4943 11.0433C13.9621 10.6788 14.5857 10.651 15.0726 10.9226C15.041 10.3651 15.3384 9.81688 15.8713 9.55383C16.4031 9.29172 17.0201 9.38934 17.4437 9.75467C17.525 9.20192 17.9277 8.72367 18.5026 8.57431C19.0765 8.42513 19.66 8.64607 20.0005 9.08796C20.1927 8.56477 20.6825 8.17831 21.2755 8.14866C21.8676 8.11816 22.3937 8.45091 22.6386 8.95132C22.9313 8.47686 23.488 8.19567 24.0743 8.28462C24.6616 8.37262 25.1122 8.80488 25.2519 9.34543C25.6344 8.93783 26.237 8.77627 26.7937 8.98088C27.3514 9.18653 27.7053 9.70113 27.7321 10.2597C28.1883 9.9384 28.812 9.90102 29.3161 10.2148C29.8202 10.5276 30.0622 11.1024 29.9761 11.6543C30.4879 11.4315 31.1057 11.5204 31.5362 11.9279C31.9667 12.3363 32.089 12.9475 31.894 13.4707C32.4401 13.3549 33.0275 13.5654 33.368 14.0522C33.7084 14.5381 33.7056 15.1618 33.4101 15.6353C33.9677 15.6314 34.5005 15.9567 34.7368 16.5009C34.9721 17.0461 34.8429 17.6574 34.4575 18.062C35.0056 18.171 35.4618 18.5967 35.5823 19.1782C35.7019 19.7598 35.4522 20.3308 34.9941 20.6494C35.5068 20.8666 35.8683 21.3744 35.8693 21.9675C35.8693 21.9741 35.8693 21.98 35.8693 21.9867C35.8693 21.9905 35.8693 21.9953 35.8693 21.9991C35.8693 22.5921 35.5096 23.101 34.9969 23.3201C35.4561 23.6367 35.7076 24.2077 35.5881 24.7893C35.4695 25.3708 35.0142 25.7975 34.4661 25.9084C34.8525 26.3121 34.9836 26.9223 34.7492 27.4685C34.5149 28.0137 33.9821 28.3399 33.4235 28.337C33.72 28.8105 33.7248 29.4342 33.3852 29.921C33.0457 30.408 32.4593 30.6203 31.9131 30.5055C32.1092 31.0277 31.9877 31.6399 31.5583 32.0493C31.1278 32.4579 30.5109 32.5477 29.9991 32.3267C30.0862 32.8777 29.8451 33.4536 29.342 33.7683C28.8388 34.083 28.2151 34.0465 27.758 33.7262C27.7321 34.2847 27.3801 34.8004 26.8235 35.007C26.8235 35.007 26.8235 35.007 26.8225 35.007C26.2658 35.2126 25.6632 35.052 25.2797 34.6455C25.1419 35.1869 24.6924 35.6201 24.1051 35.7101C23.5188 35.7991 22.9611 35.5198 22.6675 35.0453C22.434 35.5265 21.9405 35.8535 21.378 35.8535C21.3541 35.8539 21.3302 35.8529 21.3062 35.8519Z" fill="#F3F3F3"/>
<path d="M22.0003 31.565C27.283 31.565 31.5654 27.2825 31.5654 21.9998C31.5654 16.7171 27.283 12.4346 22.0003 12.4346C16.7175 12.4346 12.4351 16.7171 12.4351 21.9998C12.4351 27.2825 16.7175 31.565 22.0003 31.565Z" fill="#338AF3"/>
<path d="M24.0935 18.7532C24.5635 18.4047 24.8694 17.8475 24.8694 17.2174V16.261C24.8694 15.2044 24.0129 14.3479 22.9563 14.3479H21.0434C19.9868 14.3479 19.1303 15.2044 19.1303 16.261V17.2174C19.1303 17.8475 19.4362 18.4047 19.9062 18.7532L18.1738 36.3478C18.1738 36.3478 19.1303 37.3045 21.9999 37.3045C24.8696 37.3045 25.826 36.3478 25.826 36.3478L24.0935 18.7532Z" fill="#BDBCC1"/>
<path d="M21.9996 14.3479L23.6615 19.4627H29.0399L24.6889 22.6242L26.3507 27.7392L21.9996 24.578L17.6485 27.7392L19.3106 22.6242L14.9595 19.4627H20.3377L21.9996 14.3479Z" fill="#F0F0F0"/>
</svg>
