<svg width="44" height="44" viewBox="0 0 44 44" fill="none" xmlns="http://www.w3.org/2000/svg">
<path d="M32.522 2.67498C29.3964 0.969633 25.8116 0 22.0002 0C18.1889 0 14.6041 0.969633 11.4785 2.67498L9.56543 22L11.4785 41.325C14.6041 43.0304 18.1889 44 22.0002 44C25.8116 44 29.3964 43.0304 32.522 41.325L34.4351 22L32.522 2.67498Z" fill="#FFDA44"/>
<path d="M11.4782 41.324V2.67407C4.63968 6.40548 0 13.6602 0 21.9992C0 30.3381 4.63968 37.5929 11.4782 41.324Z" fill="#338AF3"/>
<path d="M43.9997 21.9992C43.9997 13.6602 39.36 6.40548 32.5215 2.67407V41.324C39.36 37.5929 43.9997 30.3381 43.9997 21.9992Z" fill="#6DA544"/>
<path d="M17.2173 27.7376L13.3911 21.9984L17.2172 16.2593L21.0435 21.9984L17.2173 27.7376Z" fill="#6DA544"/>
<path d="M26.7827 27.7376L22.9565 21.9984L26.7827 16.2593L30.6088 21.9984L26.7827 27.7376Z" fill="#6DA544"/>
<path d="M21.9994 35.3906L18.1733 29.6514L21.9994 23.9124L25.8256 29.6514L21.9994 35.3906Z" fill="#6DA544"/>
</svg>
