<svg width="44" height="44" viewBox="0 0 44 44" fill="none" xmlns="http://www.w3.org/2000/svg">
<path d="M44 22C44 34.1502 34.1502 44 22 44C9.84981 44 0 34.1502 0 22C0 22.0052 22 0.00240625 22 0C34.1502 0 44 9.84981 44 22Z" fill="#0052B4"/>
<path d="M21.9414 22H22.0003C22.0003 21.9803 22.0003 21.961 22.0003 21.9412C21.9807 21.9608 21.9611 21.9804 21.9414 22Z" fill="#F0F0F0"/>
<path d="M22 11.4782C22 7.60719 22 5.07074 22 0H21.9963C9.84766 0.0020625 0 9.85093 0 22H11.4782V15.5366L17.9417 22H21.9412C21.9608 21.9804 21.9804 21.9608 22.0001 21.9411C22.0001 20.459 22.0001 19.1365 22.0001 17.9419L15.5365 11.4782H22Z" fill="#F0F0F0"/>
<path d="M11.1303 2.86938C7.68943 4.82867 4.82883 7.68919 2.86963 11.13V21.9998H8.60879V8.60872V8.60855H22.0001C22.0001 6.79845 22.0001 5.07403 22.0001 2.86938H11.1303Z" fill="#D80027"/>
<path d="M31.5654 22L25.6191 27.9463C26.7336 30.0957 28.9772 31.5652 31.5654 31.5652C34.1536 31.5652 36.3973 30.0957 37.5117 27.9463L31.5654 22Z" fill="#FFDA44"/>
<path d="M22.0003 19.2947L14.1838 11.4784H11.4785V11.4786L22.0001 22.0001H22.0003C22.0003 22.0001 22.0003 20.1346 22.0003 19.2947Z" fill="#D80027"/>
<path d="M24.8696 11.4783V21.9999V22C24.8697 27.1253 31.5653 28.6957 31.5653 28.6957C31.5653 28.6957 38.2608 27.1253 38.2609 22V21.9999V11.4783H24.8696Z" fill="#6DA544"/>
<path d="M32.9999 16.261H30.1304V23.9131H32.9999V16.261Z" fill="#F0F0F0"/>
<path d="M31.5652 17.6957C32.3576 17.6957 33 17.0533 33 16.2609C33 15.4684 32.3576 14.826 31.5652 14.826C30.7728 14.826 30.1304 15.4684 30.1304 16.2609C30.1304 17.0533 30.7728 17.6957 31.5652 17.6957Z" fill="#A2001D"/>
<path d="M28.6958 13.3911H26.7827V15.3042H28.6958V13.3911Z" fill="#FFDA44"/>
<path d="M28.6958 17.6956H26.7827V19.6086H28.6958V17.6956Z" fill="#FFDA44"/>
<path d="M28.6958 22H26.7827V23.9131H28.6958V22Z" fill="#FFDA44"/>
<path d="M36.3481 13.3911H34.4351V15.3042H36.3481V13.3911Z" fill="#FFDA44"/>
<path d="M36.3481 17.6956H34.4351V19.6086H36.3481V17.6956Z" fill="#FFDA44"/>
<path d="M36.3481 22H34.4351V23.9131H36.3481V22Z" fill="#FFDA44"/>
</svg>
