<svg width="44" height="44" viewBox="0 0 44 44" fill="none" xmlns="http://www.w3.org/2000/svg">
<path d="M42.6316 29.6523C43.516 27.269 44 24.6912 44 22.0001C44 19.3091 43.516 16.7314 42.6316 14.348L22 12.4349L1.36838 14.348C0.484086 16.7314 0 19.3091 0 22.0001C0 24.6912 0.484086 27.269 1.36838 29.6523L22 31.5653L42.6316 29.6523Z" fill="#F0F0F0"/>
<path d="M22.0004 44C31.4595 44 39.5235 38.0297 42.6319 29.6521H1.36865C4.47718 38.0297 12.541 44 22.0004 44Z" fill="#D80027"/>
<path d="M22.0004 0C12.541 0 4.47718 5.97025 1.36865 14.3479H42.632C39.5235 5.97025 31.4595 0 22.0004 0Z" fill="#D80027"/>
</svg>
