<svg width="44" height="44" viewBox="0 0 44 44" fill="none" xmlns="http://www.w3.org/2000/svg">
<g clip-path="url(#clip0)">
<path d="M22 44C34.1503 44 44 34.1503 44 22C44 9.84974 34.1503 0 22 0C9.84974 0 0 9.84974 0 22C0 34.1503 9.84974 44 22 44Z" fill="#F0F0F0"/>
<path d="M32.6731 2.75962C29.512 1.00238 25.8732 0 22 0C9.85067 0 0.00154687 9.84827 0 21.9974L15.3044 14.3479L32.6731 2.75962Z" fill="#0052B4"/>
<path d="M0 22.0027C0.00154687 34.1519 9.85067 44.0002 22 44.0002C25.8732 44.0002 29.512 42.998 32.6731 41.2405L15.3044 29.6523L0 22.0027Z" fill="#0052B4"/>
<path d="M34.5065 3.89981C33.9156 3.49084 33.3033 3.11048 32.6723 2.75977L0 21.9972C0 21.9981 0 21.9989 0 21.9998C0 22.0007 0 22.0016 0 22.0024L32.6724 41.2397C33.3034 40.8889 33.9156 40.5087 34.5066 40.0997L3.76595 21.9998L34.5065 3.89981Z" fill="#D80027"/>
<path d="M38.261 21.1795H35.6404C36.3218 20.3614 36.2798 19.1442 35.5121 18.3767C36.3253 17.5637 36.3253 16.2453 35.5121 15.4321L35.4632 15.4812C36.2762 14.6682 36.3253 13.3007 35.5121 12.4876L23.7339 24.2659C24.547 25.0791 25.8423 25.0694 26.6553 24.2562L26.882 24.049L32.5219 23.5363V25.962H34.435V23.3624L37.3045 23.1016L38.261 21.1795Z" fill="#A2001D"/>
<path d="M23.9137 26.7825L22 25.826L23.9137 24.8694H36.3485V26.7825H23.9137Z" fill="#FFDA44"/>
</g>
<defs>
<clipPath id="clip0">
<rect width="44" height="44" fill="white"/>
</clipPath>
</defs>
</svg>
