<svg width="44" height="44" viewBox="0 0 44 44" fill="none" xmlns="http://www.w3.org/2000/svg">
<g clip-path="url(#clip0)">
<path d="M22 44C34.1503 44 44 34.1503 44 22C44 9.84974 34.1503 0 22 0C9.84974 0 0 9.84974 0 22C0 34.1503 9.84974 44 22 44Z" fill="#F0F0F0"/>
<path d="M42.6316 29.6522C43.516 27.2689 44 24.6911 44 22C44 19.309 43.516 16.7312 42.6316 14.3479H1.36838C0.484086 16.7312 0 19.309 0 22C0 24.6911 0.484086 27.2689 1.36838 29.6522L22 31.5652L42.6316 29.6522Z" fill="#0052B4"/>
<path d="M22.0003 44C31.4595 44 39.5234 38.0297 42.6319 29.6521H1.36865C4.4771 38.0297 12.541 44 22.0003 44Z" fill="#D80027"/>
</g>
<defs>
<clipPath id="clip0">
<rect width="44" height="44" fill="white"/>
</clipPath>
</defs>
</svg>
