<svg width="44" height="44" viewBox="0 0 44 44" fill="none" xmlns="http://www.w3.org/2000/svg">
<path d="M22 44C34.1503 44 44 34.1503 44 22C44 9.84974 34.1503 0 22 0C9.84974 0 0 9.84974 0 22C0 34.1503 9.84974 44 22 44Z" fill="#D80027"/>
<path d="M34.435 16.329H26.4663C26.9582 15.8139 27.261 15.1165 27.261 14.3479C27.261 12.7632 25.9762 11.4784 24.3915 11.4784C23.393 11.4784 22.5141 11.9885 22.0002 12.762C21.4862 11.9885 20.6072 11.4784 19.6089 11.4784C18.0241 11.4784 16.7393 12.7632 16.7393 14.3479C16.7393 15.1165 17.0421 15.8139 17.534 16.329H9.56543C9.56543 18.4421 11.406 20.155 13.5189 20.155H13.3914C13.3914 22.2682 15.1044 23.9812 17.2176 23.9812C17.2176 24.6656 17.3979 25.3072 17.7128 25.8627L14.5391 29.0365L16.9741 31.4712L20.4281 28.0173C20.5634 28.0669 20.7034 28.1067 20.8479 28.1338L18.7607 32.8462L22.0002 36.3479L25.2396 32.846L23.1524 28.1336C23.297 28.1065 23.4369 28.0668 23.5722 28.0172L27.0262 31.4711L29.4612 29.0362L26.2874 25.8624C26.6024 25.307 26.7828 24.6653 26.7828 23.9809C28.8959 23.9809 30.6089 22.268 30.6089 20.1547H30.4814C32.5944 20.1549 34.435 18.4421 34.435 16.329Z" fill="black"/>
</svg>
