<svg width="44" height="44" viewBox="0 0 44 44" fill="none" xmlns="http://www.w3.org/2000/svg">
<g clip-path="url(#clip0)">
<path d="M42.6316 29.6519C43.516 27.2687 44 24.6908 44 21.9998C44 19.3087 43.516 16.7308 42.6316 14.3476L22 12.4346L1.36838 14.3476C0.484086 16.7308 0 19.3087 0 21.9998C0 24.6908 0.484086 27.2687 1.36838 29.6519L22 31.565L42.6316 29.6519Z" fill="#6DA544"/>
<path d="M42.6319 14.3479C39.5234 5.97025 31.4595 0 22.0003 0C12.541 0 4.4771 5.97025 1.36865 14.3479H42.6319Z" fill="#FFDA44"/>
<path d="M22.0003 44C31.4595 44 39.5234 38.0297 42.6319 29.6521H1.36865C4.4771 38.0297 12.541 44 22.0003 44Z" fill="#D80027"/>
<path d="M37.0861 18.6128H25.5612L21.9998 7.6521L18.4384 18.6128H6.91357L16.2374 25.3869L12.6759 36.3478L21.9998 29.6521L31.3237 36.3477L27.7624 25.3869L37.0861 18.6128Z" fill="#F0F0F0"/>
</g>
<defs>
<clipPath id="clip0">
<rect width="44" height="44" fill="white"/>
</clipPath>
</defs>
</svg>
