<svg width="44" height="44" viewBox="0 0 44 44" fill="none" xmlns="http://www.w3.org/2000/svg">
<g clip-path="url(#clip0)">
<path d="M29.6519 1.3683C27.2685 0.484086 24.6908 1.14381e-08 21.9998 1.14381e-08C19.3087 -8.59261e-05 16.7309 0.484086 14.3476 1.3683L12.4346 21.9999L14.3476 42.6315C16.7308 43.516 19.3086 44 21.9998 44C24.6907 44 27.2686 43.516 29.6519 42.6315L31.5649 22L29.6519 1.3683Z" fill="#FFDA44"/>
<path d="M44.0002 22C44.0002 12.5409 38.03 4.47677 29.6523 1.36841V42.6318C38.03 39.5231 44.0001 31.4593 44.0002 22Z" fill="#D80027"/>
<path d="M0 22.0001C0 31.4595 5.97025 39.5233 14.3477 42.6319L14.3478 1.36865C5.97025 4.47701 0 12.5409 0 22.0001Z" fill="#0052B4"/>
</g>
<defs>
<clipPath id="clip0">
<rect width="44" height="44" fill="white"/>
</clipPath>
</defs>
</svg>
