<svg width="44" height="44" viewBox="0 0 44 44" fill="none" xmlns="http://www.w3.org/2000/svg">
<path d="M22 44C34.1503 44 44 34.1503 44 22C44 9.84974 34.1503 0 22 0C9.84974 0 0 9.84974 0 22C0 34.1503 9.84974 44 22 44Z" fill="#F0F0F0"/>
<path d="M6.44372 6.44354C1.72876 11.1585 -0.397934 17.4813 0.0620894 23.6469L23.647 0.0619883C17.4814 -0.398121 11.1587 1.72857 6.44372 6.44354Z" fill="#FFDA44"/>
<path d="M7.85547 38.8498C16.4991 46.122 29.4206 45.6919 37.5563 37.5562C45.692 29.4206 46.1221 16.4991 38.8499 7.85547L7.85547 38.8498Z" fill="#0052B4"/>
<path d="M21.9209 21.1141L23.8168 20.0871L21.9209 19.0602C21.4783 16.1846 19.2063 13.9125 16.3307 13.4699L15.3037 11.574L14.2767 13.4698C11.4012 13.9124 9.12923 16.1845 8.68648 19.0601L6.79053 20.0871L8.68639 21.1141C9.12906 23.9896 11.4011 26.2617 14.2766 26.7043L15.3037 28.6003L16.3306 26.7044C19.2063 26.2617 21.4783 23.9896 21.9209 21.1141ZM15.3037 23.9132C13.1906 23.9132 11.4776 22.2003 11.4776 20.0871C11.4776 17.9739 13.1905 16.261 15.3037 16.261C17.4169 16.261 19.1299 17.9739 19.1299 20.0871C19.1299 22.2003 17.4169 23.9132 15.3037 23.9132Z" fill="black"/>
<path d="M15.3044 17.2173L16.1327 18.652H17.7895L16.9611 20.0868L17.7895 21.5216H16.1327L15.3044 22.9564L14.476 21.5216H12.8193L13.6477 20.0868L12.8193 18.652H14.476L15.3044 17.2173Z" fill="#D80027"/>
</svg>
