<svg width="44" height="44" viewBox="0 0 44 44" fill="none" xmlns="http://www.w3.org/2000/svg">
<path d="M22 44C34.1503 44 44 34.1503 44 22C44 9.84974 34.1503 0 22 0C9.84974 0 0 9.84974 0 22C0 34.1503 9.84974 44 22 44Z" fill="#FCFCFC"/>
<path d="M25.7364 15.3694C25.7364 13.3059 24.0636 11.6331 21.9999 11.6331C19.9363 11.6331 18.2635 13.3059 18.2635 15.3694H10.0435C10.0435 17.4011 11.8133 19.0483 13.8449 19.0483H13.7225C13.7225 21.0801 15.3694 22.7273 17.4014 22.7273C17.4014 24.5262 18.6934 26.021 20.3997 26.3406L20.3902 26.362H23.6098L23.6003 26.3406C25.3066 26.0209 26.5985 24.5262 26.5985 22.7273C28.6304 22.7273 30.2774 21.0801 30.2774 19.0483H30.1549C32.1865 19.0483 33.9564 17.4011 33.9564 15.3694H25.7364Z" fill="#FFDA44"/>
<path d="M20.3577 25.9808L18.041 31.2112C19.2634 31.7081 20.5995 31.9843 22.0003 31.9843C23.4012 31.9843 24.7373 31.7082 25.9595 31.2112L23.6429 25.9808H20.3577Z" fill="#FFDA44"/>
<path d="M17.2178 17.207V23.6429C17.2178 27.3037 22.0004 28.4255 22.0004 28.4255C22.0004 28.4255 26.7829 27.3037 26.7829 23.6429V17.207H17.2178Z" fill="#F0F0F0"/>
<path d="M5.33528 22.1551L7.92192 29.3897L10.4817 22.1551H12.4352L8.70326 31.7203H7.14049L3.38184 22.1551H5.33528Z" fill="#338AF3"/>
<path d="M35.3921 31.7203V22.1551H37.2512V31.7203H35.3921Z" fill="#338AF3"/>
<path d="M19.1299 19.2852V27.0844C19.7874 27.5683 20.4948 27.9012 21.0429 28.1143V19.2852H19.1299Z" fill="#D80027"/>
<path d="M24.8686 19.2852V27.0844C24.2111 27.5683 23.5037 27.9012 22.9556 28.1143V19.2852H24.8686Z" fill="#D80027"/>
<path d="M26.7829 17.2067H17.2178V20.2417H26.7829V17.2067Z" fill="#0052B4"/>
</svg>
