<svg width="44" height="44" viewBox="0 0 44 44" fill="none" xmlns="http://www.w3.org/2000/svg">
<g clip-path="url(#clip0)">
<path d="M22 44C34.1503 44 44 34.1503 44 22C44 9.84974 34.1503 0 22 0C9.84974 0 0 9.84974 0 22C0 34.1503 9.84974 44 22 44Z" fill="#F0F0F0"/>
<path d="M44.0002 22C44.0002 9.84981 34.1504 0 22.0002 0C17.6964 0 13.6819 1.23707 10.291 3.37313L15.1132 5.42197L8.60889 8.18555L15.1132 10.949L8.60889 13.7124L15.1132 16.4758L8.60889 19.2387L15.1132 22.0015L8.60889 24.765L15.1132 27.5282L8.60889 30.2912L15.1132 33.0544L8.60889 35.8178L15.1132 38.5808L10.2932 40.6285C13.6837 42.7635 17.6973 44 22.0002 44C34.1504 44 44.0002 34.1502 44.0002 22Z" fill="#751A46"/>
</g>
<defs>
<clipPath id="clip0">
<rect width="44" height="44" fill="white"/>
</clipPath>
</defs>
</svg>
