<svg width="44" height="44" viewBox="0 0 44 44" fill="none" xmlns="http://www.w3.org/2000/svg">
<path d="M44 22C44 34.1502 34.1502 44 22 44C9.84981 44 0 34.1502 0 22C0 22.0052 22 0.00249219 22 0C34.1502 0 44 9.84981 44 22Z" fill="#0052B4"/>
<path d="M21.9998 0C21.9986 0 21.9973 8.59375e-05 21.9961 8.59375e-05L21.9998 0Z" fill="#F0F0F0"/>
<path d="M21.9409 22H21.9998C21.9998 21.9801 21.9998 21.961 21.9998 21.9412C21.9802 21.9608 21.9606 21.9804 21.9409 22Z" fill="#F0F0F0"/>
<path d="M22 11.4792C22 7.60816 22 5.07155 22 0.000976562H21.9963C9.84775 0.00295312 0 9.85182 0 22.0009H11.4782V15.5374L17.9418 22.0009H21.9412C21.9609 21.9813 21.9805 21.9617 22.0001 21.942C22.0001 20.4599 22.0001 19.1374 22.0001 17.9428L15.5365 11.4792H22Z" fill="#F0F0F0"/>
<path d="M11.1308 2.86938C7.68992 4.82867 4.82941 7.68919 2.87012 11.13V21.9998H8.60928V8.60864V8.60855H22.0006C22.0006 6.79845 22.0006 5.07403 22.0006 2.86938H11.1308Z" fill="#D80027"/>
<path d="M22.0007 19.2943L14.1844 11.4781H11.479C11.479 11.478 11.479 11.4781 11.479 11.4781L22.0006 21.9997H22.0007C22.0007 21.9997 22.0007 20.1344 22.0007 19.2943Z" fill="#D80027"/>
<path d="M13.2689 25.8262L14.4763 28.3508L17.2028 27.7207L15.9818 30.2388L18.1744 31.9776L15.4444 32.5929L15.4521 35.3914L13.2689 33.6406L11.0857 35.3914L11.0933 32.5929L8.36328 31.9776L10.556 30.2388L9.3348 27.7207L12.0615 28.3508L13.2689 25.8262Z" fill="#F0F0F0"/>
<path d="M32.9396 30.6085L33.5433 31.8709L34.9066 31.5557L34.296 32.8148L35.3924 33.6842L34.0274 33.9919L34.0311 35.3911L32.9396 34.5157L31.848 35.3911L31.8518 33.9919L30.4868 33.6842L31.5831 32.8148L30.9726 31.5557L32.3358 31.8709L32.9396 30.6085Z" fill="#F0F0F0"/>
<path d="M27.3229 17.2173L27.9266 18.4797L29.2899 18.1645L28.6794 19.4236L29.7757 20.293L28.4107 20.6007L28.4144 21.9999L27.3229 21.1244L26.2314 21.9999L26.2351 20.6007L24.8701 20.293L25.9664 19.4236L25.3559 18.1645L26.7192 18.4797L27.3229 17.2173Z" fill="#F0F0F0"/>
<path d="M32.9396 9.56506L33.5433 10.8275L34.9066 10.5124L34.2961 11.7714L35.3923 12.6408L34.0274 12.9485L34.0311 14.3477L32.9396 13.4723L31.848 14.3477L31.8518 12.9485L30.4868 12.6408L31.583 11.7714L30.9726 10.5124L32.3358 10.8275L32.9396 9.56506Z" fill="#F0F0F0"/>
<path d="M37.8449 15.3041L38.4485 16.5665L39.8119 16.2513L39.2014 17.5103L40.2977 18.3798L38.9326 18.6875L38.9364 20.0867L37.8449 19.2113L36.7533 20.0867L36.757 18.6875L35.3921 18.3798L36.4884 17.5103L35.8779 16.2513L37.2411 16.5665L37.8449 15.3041Z" fill="#F0F0F0"/>
<path d="M34.3367 22L34.8115 23.4615H36.3483L35.105 24.3647L35.58 25.8261L34.3367 24.9229L33.0936 25.8261L33.5684 24.3647L32.3252 23.4615H33.8618L34.3367 22Z" fill="#F0F0F0"/>
</svg>
