<svg width="44" height="44" viewBox="0 0 44 44" fill="none" xmlns="http://www.w3.org/2000/svg">
<g clip-path="url(#clip0)">
<path d="M22 44C34.1503 44 44 34.1503 44 22C44 9.84974 34.1503 0 22 0C9.84974 0 0 9.84974 0 22C0 34.1503 9.84974 44 22 44Z" fill="#F0F0F0"/>
<path d="M22.0001 0C13.278 0 5.74161 5.0759 2.18311 12.4348H41.817C38.2586 5.0759 30.7222 0 22.0001 0Z" fill="#FF9811"/>
<path d="M22.0001 44.0002C30.7222 44.0002 38.2586 38.9243 41.8171 31.5654H2.18311C5.74161 38.9243 13.278 44.0002 22.0001 44.0002Z" fill="#6DA544"/>
<path d="M21.9998 29.6522C26.2259 29.6522 29.6519 26.2262 29.6519 22C29.6519 17.7739 26.2259 14.3479 21.9998 14.3479C17.7736 14.3479 14.3477 17.7739 14.3477 22C14.3477 26.2262 17.7736 29.6522 21.9998 29.6522Z" fill="#0052B4"/>
<path d="M21.9999 26.7829C24.6412 26.7829 26.7825 24.6417 26.7825 22.0004C26.7825 19.359 24.6412 17.2178 21.9999 17.2178C19.3585 17.2178 17.2173 19.359 17.2173 22.0004C17.2173 24.6417 19.3585 26.7829 21.9999 26.7829Z" fill="#F0F0F0"/>
<path d="M22.0001 16.0981L23.4756 19.4444L27.1111 19.049L24.951 21.9998L27.1111 24.9506L23.4756 24.5552L22.0001 27.9015L20.5247 24.5552L16.8892 24.9506L19.0493 21.9998L16.8892 19.049L20.5247 19.4444L22.0001 16.0981Z" fill="#0052B4"/>
</g>
<defs>
<clipPath id="clip0">
<rect width="44" height="44" fill="white"/>
</clipPath>
</defs>
</svg>
