<svg width="44" height="44" viewBox="0 0 44 44" fill="none" xmlns="http://www.w3.org/2000/svg">
<path d="M22 44C34.1503 44 44 34.1503 44 22C44 9.84974 34.1503 0 22 0C9.84974 0 0 9.84974 0 22C0 34.1503 9.84974 44 22 44Z" fill="#F0F0F0"/>
<path d="M4.54774 8.60718C2.81962 10.8556 1.51655 13.447 0.757812 16.2622H12.2028L4.54774 8.60718Z" fill="#0052B4"/>
<path d="M43.2422 16.2614C42.4834 13.4463 41.1803 10.8548 39.4522 8.60645L31.7974 16.2614H43.2422Z" fill="#0052B4"/>
<path d="M0.757812 27.74C1.51664 30.5551 2.81971 33.1466 4.54774 35.3949L12.2025 27.74H0.757812Z" fill="#0052B4"/>
<path d="M35.3942 4.54856C33.1458 2.82044 30.5545 1.51737 27.7393 0.758545V12.2034L35.3942 4.54856Z" fill="#0052B4"/>
<path d="M8.60596 39.4531C10.8543 41.1813 13.4458 42.4843 16.2609 43.2432V31.7983L8.60596 39.4531Z" fill="#0052B4"/>
<path d="M16.2608 0.758545C13.4457 1.51737 10.8543 2.82044 8.60596 4.54847L16.2608 12.2034V0.758545Z" fill="#0052B4"/>
<path d="M27.7393 43.2432C30.5544 42.4843 33.1458 41.1813 35.3941 39.4532L27.7393 31.7983V43.2432Z" fill="#0052B4"/>
<path d="M31.7974 27.74L39.4522 35.395C41.1803 33.1467 42.4834 30.5551 43.2422 27.74H31.7974Z" fill="#0052B4"/>
<path d="M43.8138 19.1305H24.8697H24.8696V0.186227C23.9302 0.0639375 22.9726 0 22 0C21.0273 0 20.0698 0.0639375 19.1305 0.186227V19.1303V19.1304H0.186227C0.0639375 20.0698 0 21.0274 0 22C0 22.9727 0.0639375 23.9302 0.186227 24.8695H19.1303H19.1304V43.8138C20.0698 43.9361 21.0273 44 22 44C22.9726 44 23.9302 43.9361 24.8695 43.8138V24.8697V24.8696H43.8138C43.9361 23.9302 44 22.9727 44 22C44 21.0274 43.9361 20.0698 43.8138 19.1305Z" fill="#D80027"/>
<path d="M27.7388 27.7391L37.5559 37.5563C38.0074 37.1049 38.4382 36.633 38.8491 36.1439L30.4443 27.739H27.7388V27.7391Z" fill="#D80027"/>
<path d="M16.2611 27.74H16.2609L6.44385 37.5571C6.89519 38.0086 7.36707 38.4393 7.85623 38.8502L16.2611 30.4452V27.74Z" fill="#D80027"/>
<path d="M16.2607 16.2605V16.2604L6.44358 6.44312C5.99206 6.89446 5.56134 7.36634 5.15039 7.8555L13.5553 16.2605H16.2607V16.2605Z" fill="#D80027"/>
<path d="M27.7388 16.2613L37.556 6.44398C37.1047 5.99247 36.6328 5.56175 36.1436 5.15088L27.7388 13.5558V16.2613Z" fill="#D80027"/>
</svg>
