<svg width="44" height="44" viewBox="0 0 44 44" fill="none" xmlns="http://www.w3.org/2000/svg">
<path d="M22 44C34.1503 44 44 34.1503 44 22C44 9.84974 34.1503 0 22 0C9.84974 0 0 9.84974 0 22C0 34.1503 9.84974 44 22 44Z" fill="#F0F0F0"/>
<path d="M43.8138 19.1305H24.8697H24.8696V0.186227C23.9302 0.0639375 22.9726 0 22 0C21.0274 0 20.0698 0.0639375 19.1305 0.186227V19.1303V19.1304H0.186227C0.0639375 20.0698 0 21.0274 0 22C0 22.9727 0.0639375 23.9302 0.186227 24.8695H19.1303H19.1304V43.8138C20.0698 43.9361 21.0274 44 22 44C22.9726 44 23.9302 43.9361 24.8695 43.8138V24.8697V24.8696H43.8138C43.9361 23.9302 44 22.9727 44 22C44 21.0274 43.9361 20.0698 43.8138 19.1305Z" fill="#D80027"/>
<path d="M13.3915 10.5217V7.6521H10.522V10.5217H7.65234V13.3913H10.522V16.2608H13.3915V13.3913H16.261V10.5217H13.3915Z" fill="#D80027"/>
<path d="M33.4778 10.5217V7.6521H30.6083V10.5217H27.7388V13.3913H30.6083V16.2608H33.4778V13.3913H36.3475V10.5217H33.4778Z" fill="#D80027"/>
<path d="M13.3915 30.6086V27.739H10.522V30.6086H7.65234V33.4781H10.522V36.3477H13.3915V33.4781H16.261V30.6086H13.3915Z" fill="#D80027"/>
<path d="M33.4778 30.6086V27.739H30.6083V30.6086H27.7388V33.4781H30.6083V36.3477H33.4778V33.4781H36.3475V30.6086H33.4778Z" fill="#D80027"/>
</svg>
