<svg width="44" height="44" viewBox="0 0 44 44" fill="none" xmlns="http://www.w3.org/2000/svg">
<path d="M22 44C34.1503 44 44 34.1503 44 22C44 9.84974 34.1503 0 22 0C9.84974 0 0 9.84974 0 22C0 34.1503 9.84974 44 22 44Z" fill="#F0F0F0"/>
<path d="M22.0003 0C15.9251 0 10.4251 2.46245 6.44385 6.44359L22.0003 22V0Z" fill="black"/>
<path d="M0 22C0 28.0752 2.46245 33.5752 6.44359 37.5564L22 22H0Z" fill="black"/>
<path d="M22 44C28.0752 44 33.5752 41.5375 37.5564 37.5564L22 22V44Z" fill="black"/>
<path d="M44 22C44 15.9248 41.5375 10.4248 37.5564 6.4436L22 22H44Z" fill="black"/>
<path d="M14.3477 15.3043L21.9998 16.2611L29.6519 15.3043V10.713L26.5911 12.2435L21.9998 7.6521L17.4085 12.2435L14.3477 10.713V15.3043Z" fill="#FFDA44"/>
<path d="M21.9998 33.4784C17.7803 33.4784 14.3477 30.0456 14.3477 25.8263V18.1745L17.2172 15.3047H26.7824L29.6519 18.1745V25.8263C29.6519 30.0456 26.2192 33.4784 21.9998 33.4784Z" fill="#D80027"/>
<path d="M21.9999 30.6087C19.3627 30.6087 17.2173 28.4632 17.2173 25.8261V18.1741H26.7825V25.826C26.7825 28.4632 24.637 30.6087 21.9999 30.6087Z" fill="#F0F0F0"/>
<path d="M17.2172 15.3044H14.3477V18.174H17.2172V15.3044Z" fill="#FFDA44"/>
<path d="M29.6523 15.3044H26.7827V18.174H29.6523V15.3044Z" fill="#FFDA44"/>
<path d="M29.6523 21.5217H26.7827V24.3913H29.6523V21.5217Z" fill="#FFDA44"/>
<path d="M17.2172 21.5217H14.3477V24.3913H17.2172V21.5217Z" fill="#FFDA44"/>
<path d="M21.9997 30.6085C21.4999 30.6085 21.0181 30.5311 20.5649 30.3883V33.3412C21.03 33.4299 21.5092 33.4781 21.9997 33.4781C22.4903 33.4781 22.9695 33.4299 23.4346 33.3412V30.3883C22.9814 30.531 22.4996 30.6085 21.9997 30.6085Z" fill="#FFDA44"/>
<path d="M17.2813 26.6028L14.9912 28.8928C15.3882 29.7968 15.9547 30.6097 16.651 31.2912L18.6791 29.2631C17.9554 28.5638 17.4512 27.6391 17.2813 26.6028Z" fill="#FFDA44"/>
<path d="M29.0086 28.8931L26.7186 26.603C26.5486 27.6393 26.0445 28.5639 25.3208 29.2634L27.3489 31.2915C28.045 30.6099 28.6116 29.7971 29.0086 28.8931Z" fill="#FFDA44"/>
<path d="M21.0435 19.7684V21.3626C21.0435 21.8907 21.4717 22.3191 21.9999 22.3191C22.5282 22.3191 22.9564 21.8907 22.9564 21.3626V19.7684H21.0435Z" fill="#0052B4"/>
<path d="M21.0435 26.1456V27.7398C21.0435 28.2679 21.4717 28.6963 21.9999 28.6963C22.5282 28.6963 22.9564 28.2679 22.9564 27.7398V26.1456H21.0435Z" fill="#0052B4"/>
<path d="M23.9126 22.9567V24.551C23.9126 25.0791 24.3408 25.5075 24.8691 25.5075C25.3973 25.5075 25.8256 25.0791 25.8256 24.551V22.9567H23.9126Z" fill="#0052B4"/>
<path d="M21.0435 22.9567V24.551C21.0435 25.0791 21.4717 25.5075 21.9999 25.5075C22.5282 25.5075 22.9564 25.0791 22.9564 24.551V22.9567H21.0435Z" fill="#0052B4"/>
<path d="M18.1738 22.9567V24.551C18.1738 25.0791 18.6021 25.5075 19.1303 25.5075C19.6586 25.5075 20.0868 25.0791 20.0868 24.551V22.9567H18.1738Z" fill="#0052B4"/>
</svg>
