<svg width="44" height="44" viewBox="0 0 44 44" fill="none" xmlns="http://www.w3.org/2000/svg">
<g clip-path="url(#clip0)">
<path d="M22.0009 0.000976562C34.1511 0.000976562 44.0009 9.85078 44.0009 22.0009C44.0009 34.1511 34.1511 44.0009 22.0009 44.0009C9.85078 44.0009 0.000976562 34.1511 0.000976562 22.0009" fill="#FFDA44"/>
<path d="M21.5215 9.77768H40.294C39.0579 7.93115 37.5494 6.28287 35.8264 4.88879H21.5215V9.77768Z" fill="#D80027"/>
<path d="M21.5215 19.5557H43.8639C43.6764 17.8605 43.2965 16.2236 42.7462 14.6669H21.5215V19.5557Z" fill="#D80027"/>
<path d="M1.25344 29.3331H42.7461C43.2964 27.7763 43.6764 26.1393 43.8639 24.4441H0.135742C0.323086 26.1394 0.703101 27.7764 1.25344 29.3331Z" fill="#D80027"/>
<path d="M8.17302 39.1109H35.8263C37.5492 37.7169 39.0578 36.0685 40.2939 34.222H3.70557C4.94169 36.0685 6.45006 37.7169 8.17302 39.1109Z" fill="#D80027"/>
<path d="M22 0.000976562C9.84979 0.000976562 -8.59368e-05 9.85077 5.62329e-10 22.0011C5.02097 22.0009 9.84979 22.0011 22 22.0011L22 0.000976562Z" fill="#4A1F63"/>
<path d="M18.1741 11.4781V13.3912H17.2176V11.4781H15.3045V13.3912H14.3481V9.56506H10.522V13.3912H9.56539V11.4781H7.65242V13.3912H6.69585V11.4781H4.78271V17.2172H20.0871V11.4781H18.1741Z" fill="#F0F0F0"/>
</g>
<defs>
<clipPath id="clip0">
<rect width="44" height="44" fill="white"/>
</clipPath>
</defs>
</svg>
