<svg width="44" height="44" viewBox="0 0 44 44" fill="none" xmlns="http://www.w3.org/2000/svg">
<path d="M12.4345 41.817C15.3269 43.2156 18.5716 44 21.9997 44C25.4279 44 28.6726 43.2156 31.5649 41.817L33.478 22L31.5649 2.18298C28.6726 0.784438 25.4279 0 21.9997 0C18.5716 0 15.3269 0.784438 12.4345 2.18298L10.5215 22L12.4345 41.817Z" fill="#FFDA44"/>
<path d="M31.5649 41.8161C38.9238 38.2578 43.9997 30.722 43.9997 21.9999C43.9997 13.2778 38.9238 5.74198 31.5649 2.18365V41.8161Z" fill="#D80027"/>
<path d="M12.4348 41.8161V2.18365C5.0759 5.74198 0 13.2778 0 21.9999C0 30.722 5.0759 38.2578 12.4348 41.8161Z" fill="#0052B4"/>
<path d="M22 29.6521C22 26.1415 22 22 22 22H27.7392V24.8695C27.7392 25.3681 26.7827 27.1947 24.4217 28.6956C23.5275 29.2642 22.6019 29.4471 22 29.6521Z" fill="#D80027"/>
<path d="M22.0004 16.261H16.2612V22.0002H22.0004V16.261Z" fill="#D80027"/>
<path d="M24.8693 14.3481C24.8693 13.2915 24.0128 12.435 22.9563 12.435C22.6074 12.435 22.2813 12.5299 21.9998 12.693C21.7182 12.5299 21.3922 12.435 21.0433 12.435C19.9868 12.435 19.1302 13.2915 19.1302 14.3481H14.3477V23.9132C14.3477 27.4741 17.1755 29.5334 19.3931 30.6009C19.2272 30.8843 19.1302 31.2132 19.1302 31.5655C19.1302 32.6221 19.9868 33.4785 21.0433 33.4785C21.3922 33.4785 21.7183 33.3836 21.9998 33.2205C22.2814 33.3836 22.6074 33.4785 22.9563 33.4785C24.0128 33.4785 24.8693 32.6221 24.8693 31.5655C24.8693 31.2132 24.7724 30.8843 24.6064 30.6009C26.824 29.5334 29.6519 27.4742 29.6519 23.9132V14.3481H24.8693ZM26.7824 23.9132C26.7824 24.4117 26.7824 25.9286 24.4215 27.4296C23.5272 27.9981 22.6017 28.3668 21.9998 28.5717C21.3979 28.3668 20.4723 27.9981 19.5781 27.4296C17.2172 25.9286 17.2172 24.4117 17.2172 23.9132V17.2176H26.7824V23.9132Z" fill="#FF9811"/>
</svg>
