<svg width="44" height="44" viewBox="0 0 44 44" fill="none" xmlns="http://www.w3.org/2000/svg">
<path d="M31.5649 2.18298C28.6726 0.784438 25.4279 0 21.9997 0C18.5716 0 15.3269 0.784438 12.4345 2.18298L10.5215 22L12.4345 41.817C15.3269 43.2156 18.5716 44 21.9997 44C25.4279 44 28.6726 43.2156 31.5649 41.817L33.478 22L31.5649 2.18298Z" fill="#FFDA44"/>
<path d="M12.4348 2.18359C5.0759 5.74201 0 13.2778 0 21.9998C0 30.7219 5.0759 38.2577 12.4348 41.8161V2.18359Z" fill="#0052B4"/>
<path d="M31.5649 2.18359V41.8161C38.9238 38.2577 43.9997 30.7219 43.9997 21.9998C43.9997 13.2778 38.9238 5.74201 31.5649 2.18359Z" fill="#0052B4"/>
<path d="M28.2172 23.9131L29.6519 25.8261V18.1739L28.2172 20.087H23.9128V15.7826L25.8259 14.3479H18.1737L20.0867 15.7826V20.087H15.7824L14.3477 18.1739V25.8261L15.7824 23.9131H20.0867V28.2174L18.1737 29.6522H25.8259L23.9128 28.2174V23.9131H28.2172Z" fill="#D80027"/>
<path d="M27.7396 21.0437H22.9569V16.261H21.0439V21.0437H16.2612V22.9566H21.0439V27.7393H22.9569V22.9566H27.7396V21.0437Z" fill="#F0F0F0"/>
</svg>
