<svg width="44" height="44" viewBox="0 0 44 44" fill="none" xmlns="http://www.w3.org/2000/svg">
<g clip-path="url(#clip0)">
<path d="M22 44C34.1503 44 44 34.1503 44 22C44 9.84974 34.1503 0 22 0C9.84974 0 0 9.84974 0 22C0 34.1503 9.84974 44 22 44Z" fill="#F0F0F0"/>
<path d="M22.0001 0C14.1996 0 7.34778 4.05995 3.44141 10.1818L33.2754 40.8933C39.6986 37.0517 44.0001 30.0285 44.0001 22C44.0001 9.84981 34.1503 0 22.0001 0Z" fill="#FFDA44"/>
<path d="M44.0004 22.0002C44.0004 16.292 41.8263 11.0921 38.2612 7.18213V36.8183C41.8263 32.9082 44.0004 27.7083 44.0004 22.0002Z" fill="#0052B4"/>
<path d="M27.4819 41.4111L29.7863 41.4097L30.4972 39.2175L31.2106 41.4088L32.3665 41.4081C33.0752 41.0287 33.7607 40.6117 34.4204 40.1595L3.84046 9.57971C3.33652 10.315 2.87693 11.0828 2.46366 11.8785L2.73539 12.7132L5.0398 12.7117L3.17634 14.0674L3.88979 16.2587L2.0246 14.9053L0.912141 15.7145C0.319086 17.7062 0 19.8159 0 22.0002C0 34.1504 9.84981 44.0002 22 44.0002C24.5688 44.0002 27.0345 43.5591 29.3262 42.7496L27.4819 41.4111ZM4.90695 21.0437L5.61765 18.8516L3.75263 17.4981L6.05705 17.4966L6.76784 15.3044L7.48129 17.4958L9.7857 17.4943L7.92215 18.85L8.6356 21.0413L6.77041 19.6879L4.90695 21.0437ZM9.65284 25.8263L10.3635 23.6342L8.49853 22.2807L10.8029 22.2792L11.5137 20.087L12.2272 22.2784L14.5316 22.2769L12.6681 23.6326L13.3816 25.8239L11.5164 24.4705L9.65284 25.8263ZM14.3987 30.6089L15.1094 28.4168L13.2443 27.0633L15.5488 27.0618L16.2595 24.8696L16.973 27.0609L19.2774 27.0595L17.4139 28.4151L18.1274 30.6065L16.2622 29.253L14.3987 30.6089ZM21.008 34.0358L19.1445 35.3915L19.8552 33.1994L17.9902 31.8459L20.2946 31.8444L21.0054 29.6522L21.7189 31.8435L24.0233 31.8421L22.1598 33.1977L22.8733 35.3891L21.008 34.0358ZM23.8904 40.1741L24.6011 37.982L22.7361 36.6285L25.0405 36.627L25.7513 34.4348L26.4647 36.6261L28.7691 36.6247L26.9057 37.9803L27.6191 40.1717L25.7539 38.8181L23.8904 40.1741Z" fill="#0052B4"/>
</g>
<defs>
<clipPath id="clip0">
<rect width="44" height="44" fill="white"/>
</clipPath>
</defs>
</svg>
