<svg width="44" height="44" viewBox="0 0 44 44" fill="none" xmlns="http://www.w3.org/2000/svg">
<path d="M43.242 16.2608C40.7175 6.89399 32.1645 0 21.9999 0C11.8353 0 3.28231 6.89399 0.757812 16.2608L21.9999 17.2174L43.242 16.2608Z" fill="#A2001D"/>
<path d="M0.757812 27.7388C3.28231 37.1055 11.8353 43.9996 21.9999 43.9996C32.1645 43.9996 40.7175 37.1056 43.242 27.7388L21.9999 26.7822L0.757812 27.7388Z" fill="#A2001D"/>
<path d="M43.2421 16.261H0.757883C0.264688 18.0909 0 20.0144 0 22.0002C0 23.9859 0.264688 25.9095 0.757883 27.7393H43.2422C43.7353 25.9095 44 23.9859 44 22.0002C44 20.0144 43.7353 18.0909 43.2421 16.261Z" fill="#6DA544"/>
</svg>
