<svg width="44" height="44" viewBox="0 0 44 44" fill="none" xmlns="http://www.w3.org/2000/svg">
<g clip-path="url(#clip0)">
<path d="M2.18298 12.4348C0.784438 15.3271 0 18.5718 0 22C0 25.4281 0.784438 28.6728 2.18298 31.5652L22 33.4782L41.817 31.5652C43.2156 28.6728 44 25.4281 44 22C44 18.5718 43.2156 15.3271 41.817 12.4348L22 10.5217L2.18298 12.4348Z" fill="#F0F0F0"/>
<path d="M2.18359 31.565C5.74192 38.9239 13.2778 43.9998 21.9998 43.9998C30.7219 43.9998 38.2578 38.9239 41.8161 31.565H2.18359Z" fill="#496E2D"/>
<path d="M2.18359 12.4348H41.8161C38.2578 5.0759 30.722 0 21.9998 0C13.2777 0 5.74192 5.0759 2.18359 12.4348Z" fill="black"/>
<path d="M6.44364 6.4436C-2.14788 15.0351 -2.14788 28.9648 6.44364 37.5564C9.99397 34.0061 13.4085 30.5915 22 22L6.44364 6.4436Z" fill="#D80027"/>
<path d="M27.7393 22.0001C27.7393 18.7948 29.9919 16.1171 33.0001 15.4602C32.5377 15.3592 32.058 15.3044 31.5653 15.3044C27.8673 15.3044 24.8696 18.3021 24.8696 22.0001C24.8696 25.6981 27.8673 28.6957 31.5653 28.6957C32.058 28.6957 32.5377 28.641 33.0001 28.54C29.9919 27.8831 27.7393 25.2054 27.7393 22.0001Z" fill="#D80027"/>
<path d="M33.2812 17.6956L34.2311 20.6186H37.3043L34.8179 22.4249L35.7677 25.3478L33.2812 23.5414L30.795 25.3478L31.7448 22.4249L29.2583 20.6186H32.3315L33.2812 17.6956Z" fill="#D80027"/>
</g>
<defs>
<clipPath id="clip0">
<rect width="44" height="44" fill="white"/>
</clipPath>
</defs>
</svg>
