<svg width="44" height="44" viewBox="0 0 44 44" fill="none" xmlns="http://www.w3.org/2000/svg">
<path d="M44 22C44 34.1502 34.1502 44 22 44C9.84981 44 0 34.1502 0 22C0 22.0052 22 0.00240625 22 0C34.1502 0 44 9.84981 44 22Z" fill="#FFDA44"/>
<path d="M21.9998 10.5222V17.9423L14.3477 10.5222H21.9998Z" fill="#0052B4"/>
<path d="M11.478 22.0008H17.9414L11.478 13.3921L10.5215 20.0877L11.478 22.0008Z" fill="#0052B4"/>
<path d="M21.9414 21.9995H22.0003C22.0003 21.9798 22.0003 21.9605 22.0003 21.9407C21.9807 21.9604 21.9611 21.9799 21.9414 21.9995Z" fill="#F0F0F0"/>
<path d="M22 11.4782C22 7.60719 22 5.07074 22 0H21.9963C9.84766 0.0020625 0 9.85093 0 22H11.4782V15.5366L17.9417 22H21.9412C21.9608 21.9804 21.9804 21.9608 22.0001 21.9411C22.0001 20.459 22.0001 19.1365 22.0001 17.9419L15.5365 11.4782H22Z" fill="#F0F0F0"/>
<path d="M22.0003 19.295L14.1838 11.4788H11.4785V11.4789L22.0001 22.0004H22.0003C22.0003 22.0004 22.0003 20.135 22.0003 19.295Z" fill="#D80027"/>
<path d="M11.1303 2.86987C10.2822 3.35284 9.46963 3.89107 8.69688 4.47862H9.59957L7.21377 6.21233L8.12488 9.01707L5.73908 7.28371L5.48522 7.46822C4.49462 8.59314 3.61634 9.8193 2.86963 11.1305V22.0003H8.60879V8.60921V8.60904H22.0001C22.0001 6.79894 22.0001 5.07451 22.0001 2.86987H11.1303Z" fill="#D80027"/>
<path d="M9.39833 3.96582C9.16106 4.13194 8.92714 4.3027 8.69674 4.47792L7.21389 6.21163L5.7392 7.28292L5.48319 7.46889C4.94299 8.08248 4.43639 8.72633 3.96631 9.39776C4.50213 9.6578 5.10361 9.80398 5.7392 9.80398C7.9844 9.80398 9.80439 7.984 9.80439 5.7388C9.80456 5.10303 9.65846 4.50173 9.39833 3.96582Z" fill="#0052B4"/>
<path d="M5.4834 7.469L5.73941 7.28303L8.1252 9.01647L7.21401 6.21173L9.59963 4.47803H8.69677C7.52854 5.36654 6.452 6.36891 5.4834 7.469Z" fill="#FFDA44"/>
<path d="M15.2055 3.82568L15.6804 5.28705H17.2169L15.9738 6.19034L16.4485 7.65171L15.2055 6.74851L13.9624 7.65171L14.4369 6.19034L13.1938 5.28705H14.7305L15.2055 3.82568Z" fill="#FFDA44"/>
<path d="M5.73908 13.3911L6.21397 14.8525H7.75053L6.50753 15.7559L6.98216 17.2172L5.73908 16.3139L4.49591 17.2172L4.97054 15.7559L3.72754 14.8525H5.2641L5.73908 13.3911Z" fill="#FFDA44"/>
</svg>
