<svg width="44" height="44" viewBox="0 0 44 44" fill="none" xmlns="http://www.w3.org/2000/svg">
<path d="M22 44C34.1503 44 44 34.1503 44 22C44 9.84974 34.1503 0 22 0C9.84974 0 0 9.84974 0 22C0 34.1503 9.84974 44 22 44Z" fill="#FFDA44"/>
<path d="M21.9994 44.0001C28.6674 44.0001 34.642 41.0331 38.6765 36.3479H5.32227C9.35677 41.0331 15.3314 44.0001 21.9994 44.0001Z" fill="#338AF3"/>
<path d="M44 22C44 9.84981 34.1502 0 22 0C9.84981 0 0 9.84981 0 22C0 23.9858 0.264688 25.9092 0.757883 27.7392H43.2422C43.7353 25.9092 44 23.9858 44 22Z" fill="#338AF3"/>
<path d="M1.74902 30.6089C2.17313 31.6054 2.6689 32.5638 3.2293 33.4784H40.7713C41.3317 32.5637 41.8274 31.6053 42.2517 30.6089H1.74902Z" fill="#338AF3"/>
<path d="M10.0819 13.8759L5.78369 11.979L10.0819 10.082L11.9788 5.78381L13.8757 10.082L18.1739 11.979L13.8757 13.8759L11.9788 18.1741L10.0819 13.8759Z" fill="#F0F0F0"/>
<path d="M11.9785 8.15247L13.1499 10.807L15.8045 11.9786L13.1499 13.1501L11.9785 15.8046L10.8069 13.1501L8.15234 11.9786L10.8069 10.807L11.9785 8.15247Z" fill="#D80027"/>
</svg>
