<svg width="44" height="44" viewBox="0 0 44 44" fill="none" xmlns="http://www.w3.org/2000/svg">
<path d="M41.817 31.5657C43.2156 28.6735 44 25.4286 44 22.0005C44 18.5725 43.2156 15.3276 41.817 12.4353L22 11.4788L2.18298 12.4352C0.784438 15.3276 0 18.5725 0 22.0005C0 25.4286 0.784438 28.6735 2.18298 31.5657L22 32.5223L41.817 31.5657Z" fill="#FFDA44"/>
<path d="M22.0001 0C13.278 0 5.74161 5.0759 2.18311 12.4348H41.817C38.2586 5.0759 30.7222 0 22.0001 0Z" fill="black"/>
<path d="M22.0001 43.9992C13.278 43.9992 5.74161 38.9233 2.18311 31.5645H41.817C38.2586 38.9233 30.7222 43.9992 22.0001 43.9992Z" fill="#0052B4"/>
<path d="M42.9611 15.3035H1.0389C0.364977 17.4149 0 19.6643 0 21.9991C0 24.334 0.364977 26.5834 1.0389 28.6948H42.961C43.635 26.5834 44 24.334 44 21.9991C44 19.6643 43.635 17.4149 42.9611 15.3035Z" fill="#A2001D"/>
<path d="M36.348 21.0444H7.65234V22.9575H36.348V21.0444Z" fill="#FFDA44"/>
<path d="M32.522 17.2178H11.4785V19.1308H32.522V17.2178Z" fill="#FFDA44"/>
<path d="M32.6588 22.0002C32.6588 22.0002 27.7395 27.7393 22.0004 27.7393C16.2613 27.7393 16.2612 22.0002 16.2612 22.0002C16.2612 22.0002 16.2612 16.261 22.0004 16.261C27.7396 16.261 32.6588 22.0002 32.6588 22.0002Z" fill="#F0F0F0"/>
<path d="M21.9997 27.7393C16.2605 27.7393 11.3413 22.0002 11.3413 22.0002C11.3413 22.0002 16.2605 16.261 21.9997 16.261" fill="black"/>
<path d="M20.0869 20.0876H18.1738V23.9138H20.0869V20.0876Z" fill="#F0F0F0"/>
<path d="M25.8261 20.0876H23.9131V23.9138H25.8261V20.0876Z" fill="black"/>
<path d="M7.65182 23.9138C8.70838 23.9138 9.56488 23.0573 9.56488 22.0007C9.56488 20.9442 8.70838 20.0876 7.65182 20.0876C6.59527 20.0876 5.73877 20.9442 5.73877 22.0007C5.73877 23.0573 6.59527 23.9138 7.65182 23.9138Z" fill="#0052B4"/>
<path d="M36.3476 23.9138C37.4042 23.9138 38.2607 23.0573 38.2607 22.0007C38.2607 20.9442 37.4042 20.0876 36.3476 20.0876C35.2911 20.0876 34.4346 20.9442 34.4346 22.0007C34.4346 23.0573 35.2911 23.9138 36.3476 23.9138Z" fill="#0052B4"/>
</svg>
