<svg width="44" height="44" viewBox="0 0 44 44" fill="none" xmlns="http://www.w3.org/2000/svg">
<path d="M22 44C34.1503 44 44 34.1503 44 22C44 9.84974 34.1503 0 22 0C9.84974 0 0 9.84974 0 22C0 34.1503 9.84974 44 22 44Z" fill="#F0F0F0"/>
<path d="M22 0C9.84981 0 0 9.84981 0 22C0 24.691 0.484086 27.2689 1.36838 29.6521H42.6317C43.516 27.2689 44 24.691 44 22C44 9.84981 34.1502 0 22 0Z" fill="#0052B4"/>
<path d="M22.0003 0C12.541 0 4.4771 5.97025 1.36865 14.3479H42.632C39.5234 5.97025 31.4595 0 22.0003 0Z" fill="#D80027"/>
<path d="M5.68896 12.4346V23.4093C5.68896 29.6521 13.8445 31.565 13.8445 31.565C13.8445 31.565 22 29.6521 22 23.4093V12.4346H5.68896Z" fill="#D80027"/>
<path d="M9.06152 14.3481H18.6268V10.5219L16.7137 11.4784L13.8442 8.60889L10.9746 11.4784L9.06152 10.5219V14.3481Z" fill="#FFDA44"/>
<path d="M20.0872 24.9376L13.8698 18.7202L7.65234 24.9376L9.68141 26.9667L13.8698 22.7784L18.0581 26.9667L20.0872 24.9376Z" fill="#FFDA44"/>
<path d="M20.0872 19.1306H17.1863C17.3494 18.8491 17.4442 18.523 17.4442 18.1743C17.4442 17.1176 16.5877 16.2612 15.5312 16.2612C14.8011 16.2612 14.1672 16.6701 13.8447 17.2713C13.5221 16.6702 12.8882 16.2612 12.1581 16.2612C11.1016 16.2612 10.2451 17.1176 10.2451 18.1743C10.2451 18.523 10.34 18.8492 10.5031 19.1306H7.65234C7.65234 20.1872 8.57265 21.0437 9.62908 21.0437H9.5654C9.5654 22.1003 10.4219 22.9567 11.4785 22.9567C11.4785 23.8922 12.1503 24.6694 13.0376 24.8358L11.5303 28.2391C12.2527 28.5328 13.0421 28.6959 13.8698 28.6959C14.6976 28.6959 15.487 28.5328 16.2094 28.2391L14.7021 24.8358C15.5894 24.6696 16.2612 23.8923 16.2612 22.9567C17.3178 22.9567 18.1743 22.1003 18.1743 21.0437H18.1106C19.1669 21.0437 20.0872 20.1871 20.0872 19.1306Z" fill="#F0F0F0"/>
</svg>
