<svg width="44" height="44" viewBox="0 0 44 44" fill="none" xmlns="http://www.w3.org/2000/svg">
<g clip-path="url(#clip0)">
<path d="M20.0872 23.9131C20.0872 23.9131 6.45674 6.44059 6.44385 6.44368C10.425 2.46245 15.9251 0 22.0003 0C34.1504 0 44.0003 9.84981 44.0003 22L20.0872 23.9131Z" fill="#D80027"/>
<path d="M20.0872 22C20.0872 22 6.45674 37.5594 6.44385 37.5563C10.425 41.5375 15.9251 44 22.0003 44C34.1504 44 44.0003 34.1502 44.0003 22H20.0872Z" fill="#0052B4"/>
<path d="M6.44364 6.44312C-2.14788 15.0346 -2.14788 28.9643 6.44364 37.5559C9.99397 34.0056 13.4085 30.591 22 21.9995L6.44364 6.44312Z" fill="#F0F0F0"/>
<path d="M2.41131 22C2.39928 22.158 2.39111 22.3171 2.39111 22.4782C2.39111 25.9119 5.1748 28.6956 8.60852 28.6956C12.0422 28.6956 14.8259 25.9119 14.8259 22.4782C14.8259 22.3171 14.8178 22.1579 14.8057 22H2.41131Z" fill="#FFDA44"/>
<path d="M8.60837 19.1306C9.66492 19.1306 10.5214 18.274 10.5214 17.2175C10.5214 16.1609 9.66492 15.3044 8.60837 15.3044C7.55182 15.3044 6.69531 16.1609 6.69531 17.2175C6.69531 18.274 7.55182 19.1306 8.60837 19.1306Z" fill="#FFDA44"/>
<path d="M4.3042 16.739V22.9564C4.3042 26.2513 8.60855 27.2608 8.60855 27.2608C8.60855 27.2608 12.9129 26.2513 12.9129 22.9564V16.739H4.3042Z" fill="#D80027"/>
<path d="M8.61073 25.2587C7.8122 24.9713 6.21729 24.2369 6.21729 22.9565V18.6521H11V22.9565C11 24.2411 9.40522 24.9737 8.61073 25.2587Z" fill="#338AF3"/>
<path d="M9.56512 21.0437V20.0871L8.60864 19.6089L7.65207 20.0871V21.0437L7.17383 21.5219V23.435H10.0435V21.5219L9.56512 21.0437Z" fill="#F3F3F3"/>
</g>
<defs>
<clipPath id="clip0">
<rect width="44" height="44" fill="white"/>
</clipPath>
</defs>
</svg>
