<svg width="44" height="44" viewBox="0 0 44 44" fill="none" xmlns="http://www.w3.org/2000/svg">
<path d="M21.9998 44C24.6909 44 27.2687 43.516 29.6519 42.6316L30.6085 22L29.652 1.36838C27.2687 0.484086 24.6909 0 21.9998 0C19.3088 0 16.7309 0.484086 14.3477 1.36838L13.3911 22L14.3476 42.6316C16.7309 43.516 19.3088 44 21.9998 44Z" fill="#0052B4"/>
<path d="M0 22C0 31.4593 5.97025 39.5232 14.3479 42.6316V1.36841C5.97025 4.47685 0 12.5408 0 22Z" fill="#A2001D"/>
<path d="M29.6523 1.36841V42.6317C38.03 39.5232 44.0002 31.4593 44.0002 22C44.0002 12.5408 38.03 4.47685 29.6523 1.36841Z" fill="#A2001D"/>
<path d="M12.4355 22H10.5225V29.6521H12.4355V22Z" fill="#FFDA44"/>
<path d="M4.78317 22H2.87012V29.6521H4.78317V22Z" fill="#FFDA44"/>
<path d="M7.65329 26.7817C8.70984 26.7817 9.56634 25.9252 9.56634 24.8686C9.56634 23.8121 8.70984 22.9556 7.65329 22.9556C6.59674 22.9556 5.74023 23.8121 5.74023 24.8686C5.74023 25.9252 6.59674 26.7817 7.65329 26.7817Z" fill="#FFDA44"/>
<path d="M7.65229 19.1298C8.18054 19.1298 8.60877 18.7015 8.60877 18.1733C8.60877 17.645 8.18054 17.2168 7.65229 17.2168C7.12403 17.2168 6.6958 17.645 6.6958 18.1733C6.6958 18.7015 7.12403 19.1298 7.65229 19.1298Z" fill="#FFDA44"/>
<path d="M9.56634 27.739H5.74023V29.6521H9.56634V27.739Z" fill="#FFDA44"/>
<path d="M9.56634 20.0867H5.74023V21.9997H9.56634V20.0867Z" fill="#FFDA44"/>
<path d="M7.65274 11.4778L8.33027 13.5626H10.5224L8.74905 14.8512L9.42606 16.936L7.65274 15.6475L5.87951 16.936L6.55652 14.8512L4.7832 13.5626H6.9753L7.65274 11.4778Z" fill="#FFDA44"/>
</svg>
