<svg width="44" height="44" viewBox="0 0 44 44" fill="none" xmlns="http://www.w3.org/2000/svg">
<path d="M22 44C34.1503 44 44 34.1503 44 22C44 9.84974 34.1503 0 22 0C9.84974 0 0 9.84974 0 22C0 34.1503 9.84974 44 22 44Z" fill="#FFDA44"/>
<path d="M25.3457 43.7471C28.9238 43.2012 32.2175 41.7922 35.0099 39.7409L22 22L25.3457 43.7471Z" fill="#D80027"/>
<path d="M18.654 0.252686C15.076 0.798561 11.7824 2.20759 8.98975 4.25883L21.9998 21.9998L18.654 0.252686Z" fill="#D80027"/>
<path d="M8.98975 39.7409C11.7822 41.7921 15.0758 43.2011 18.6538 43.7472L21.9998 22L8.98975 39.7409Z" fill="#D80027"/>
<path d="M4.25908 8.98975C2.20775 11.7824 0.798891 15.0759 0.25293 18.654L22 21.9998L4.25908 8.98975Z" fill="#D80027"/>
<path d="M0.25293 25.3457C0.798805 28.9238 2.20784 32.2175 4.25916 35.0099L22 22L0.25293 25.3457Z" fill="#D80027"/>
<path d="M43.7471 18.6539C43.2011 15.0759 41.7922 11.7823 39.7409 8.98975L22 21.9997L43.7471 18.6539Z" fill="#D80027"/>
<path d="M35.0099 4.25875C32.2174 2.20751 28.9238 0.798561 25.3457 0.252686L22 21.9998L35.0099 4.25875Z" fill="#D80027"/>
<path d="M39.741 35.01C41.7923 32.2175 43.2012 28.9237 43.7473 25.3458L22 22L39.741 35.01Z" fill="#D80027"/>
<path d="M21.9998 29.6522C26.2259 29.6522 29.6519 26.2262 29.6519 22C29.6519 17.7739 26.2259 14.3479 21.9998 14.3479C17.7736 14.3479 14.3477 17.7739 14.3477 22C14.3477 26.2262 17.7736 29.6522 21.9998 29.6522Z" fill="#D80027"/>
<path d="M22.0004 27.7393C25.1701 27.7393 27.7396 25.1698 27.7396 22.0002C27.7396 18.8305 25.1701 16.261 22.0004 16.261C18.8307 16.261 16.2612 18.8305 16.2612 22.0002C16.2612 25.1698 18.8307 27.7393 22.0004 27.7393Z" fill="#FFDA44"/>
</svg>
