<svg width="44" height="44" viewBox="0 0 44 44" fill="none" xmlns="http://www.w3.org/2000/svg">
<path d="M31.5649 2.18298C28.6726 0.784438 25.4279 0 21.9997 0C18.5716 0 15.3269 0.784438 12.4345 2.18298L10.5215 22L12.4345 41.817C15.3269 43.2156 18.5716 44 21.9997 44C25.4279 44 28.6726 43.2156 31.5649 41.817L33.478 22L31.5649 2.18298Z" fill="#F0F0F0"/>
<path d="M12.4348 2.18359C5.0759 5.74192 0 13.2777 0 21.9998C0 30.722 5.0759 38.2578 12.4348 41.8161V2.18359Z" fill="#6DA544"/>
<path d="M31.5649 2.18359V41.8161C38.9238 38.2578 43.9997 30.7219 43.9997 21.9998C43.9997 13.2778 38.9238 5.74192 31.5649 2.18359Z" fill="#6DA544"/>
<path d="M27.7396 28.6951L22.0004 10.5212L16.2612 28.6951H20.5656V33.4777H23.4352V28.6951H27.7396Z" fill="#6DA544"/>
</svg>
