<svg width="44" height="44" viewBox="0 0 44 44" fill="none" xmlns="http://www.w3.org/2000/svg">
<g clip-path="url(#clip0)">
<path d="M22 44C34.1503 44 44 34.1503 44 22C44 9.84974 34.1503 0 22 0C9.84974 0 0 9.84974 0 22C0 34.1503 9.84974 44 22 44Z" fill="#F0F0F0"/>
<path d="M0 22.0001C0 30.339 4.63977 37.5939 11.4782 41.3251V2.67505C4.63977 6.40628 0 13.6611 0 22.0001Z" fill="#D80027"/>
<path d="M42.6317 29.6522C43.516 27.2689 44 24.6911 44 22C44 19.309 43.516 16.7311 42.6317 14.3479H1.36847C0.484086 16.7311 0 19.309 0 22C0 24.6911 0.484086 27.2689 1.36847 29.6522L22 31.5652L42.6317 29.6522Z" fill="#D80027"/>
<path d="M22.0002 44C31.4595 44 39.5234 38.0297 42.6319 29.6521H1.36865C4.47701 38.0297 12.541 44 22.0002 44Z" fill="#6DA544"/>
<path d="M0 21.9997C0 32.1643 6.89399 40.7173 16.2608 43.2418V0.757568C6.89399 3.28207 0 11.8351 0 21.9997Z" fill="#D80027"/>
<path d="M13.4594 9.68117L11.4304 7.6521L10.0777 9.00493L8.72504 7.6521L6.69597 9.68117L8.04871 11.0339L6.6958 12.3867L8.72487 14.4158L10.0776 13.063L11.4304 14.4158L13.4594 12.3867L12.1067 11.0339L13.4594 9.68117Z" fill="#F0F0F0"/>
</g>
<defs>
<clipPath id="clip0">
<rect width="44" height="44" fill="white"/>
</clipPath>
</defs>
</svg>
