<svg width="44" height="44" viewBox="0 0 44 44" fill="none" xmlns="http://www.w3.org/2000/svg">
<g clip-path="url(#clip0)">
<path d="M20.0867 20.0867C20.0867 20.0867 6.45625 37.5592 6.44336 37.556C10.4245 41.5373 15.9246 43.9997 21.9998 43.9997C34.1499 43.9997 43.9997 34.1499 43.9997 21.9997L20.0867 20.0867Z" fill="#338AF3"/>
<path d="M20.0867 22C20.0867 22 6.45625 6.44059 6.44336 6.44368C10.4245 2.46245 15.9246 0 21.9998 0C34.1499 0 43.9997 9.84981 43.9997 22H20.0867Z" fill="#6DA544"/>
<path d="M6.44413 6.44312C-2.14739 15.0346 -2.14739 28.9643 6.44413 37.5559C6.44352 37.5595 44.0005 21.9995 44.0005 21.9995L6.44413 6.44312Z" fill="#D80027"/>
<path d="M11.4778 12.9133C7.25837 12.9133 3.82568 16.3461 3.82568 20.5655V23.435C3.82568 27.6545 7.25846 31.0871 11.4778 31.0871C15.6972 31.0871 19.1299 27.6544 19.1299 23.435V20.5655C19.13 16.3461 15.6973 12.9133 11.4778 12.9133ZM16.2604 23.4351C16.2604 25.5725 14.8509 27.3866 12.9125 27.9975V24.8699L14.9427 22.8397L12.9137 20.8106L12.9125 20.0885V19.1308H10.0431V22.0003L8.01428 24.029L10.0431 26.0577V27.9976C8.10477 27.3867 6.69522 25.5726 6.69522 23.4352V20.5656C6.69522 17.9285 8.84074 15.783 11.4778 15.783C14.1149 15.783 16.2604 17.9286 16.2604 20.5656V23.4351Z" fill="#FFDA44"/>
</g>
<defs>
<clipPath id="clip0">
<rect width="44" height="44" fill="white"/>
</clipPath>
</defs>
</svg>
