<svg width="44" height="44" viewBox="0 0 44 44" fill="none" xmlns="http://www.w3.org/2000/svg">
<path d="M22 44C34.1503 44 44 34.1503 44 22C44 9.84974 34.1503 0 22 0C9.84974 0 0 9.84974 0 22C0 34.1503 9.84974 44 22 44Z" fill="#F0F0F0"/>
<path d="M0.186523 24.8695C0.698367 28.798 2.24713 32.4 4.54828 35.3938L16.261 24.8695H0.186523Z" fill="#D80027"/>
<path d="M19.1312 43.8136V27.739L8.60693 39.4519C11.6007 41.753 15.2027 43.3019 19.1312 43.8136Z" fill="#D80027"/>
<path d="M19.1312 0.186279C15.2027 0.698123 11.6007 2.24689 8.60693 4.54804L19.1312 16.261V0.186279Z" fill="#D80027"/>
<path d="M0.186523 19.1305H16.261L4.5482 8.6062C2.24705 11.5999 0.698281 15.202 0.186523 19.1305Z" fill="#D80027"/>
<path d="M24.8701 0.186279V16.2609L35.3945 4.54804C32.4007 2.24706 28.7987 0.698037 24.8701 0.186279Z" fill="#D80027"/>
<path d="M43.8139 19.1304C43.302 15.202 41.7533 11.5999 39.4521 8.60608L27.7393 19.1304H43.8139Z" fill="#D80027"/>
<path d="M27.7393 24.8695L39.4522 35.3938C41.7533 32.4 43.3021 28.798 43.814 24.8695H27.7393Z" fill="#D80027"/>
<path d="M24.8701 43.8136C28.7986 43.3018 32.4007 41.753 35.3945 39.4518L24.8701 27.739V43.8136Z" fill="#D80027"/>
<path d="M39.4534 35.3957L26.0579 22.0002L26.0579 22.0001L39.4534 8.60453C38.8757 7.85378 38.2437 7.13156 37.556 6.44372C36.8684 5.75604 36.1461 5.12397 35.3952 4.54639L21.9997 17.9419H21.9996L8.60413 4.54639C7.85337 5.12406 7.13107 5.75596 6.44323 6.44372C5.75555 7.13156 5.12348 7.85378 4.5459 8.60461L17.9414 22L17.9415 22.0001L4.54598 35.3957C5.12366 36.1464 5.75564 36.8687 6.44331 37.5565C7.13107 38.2442 7.85337 38.8763 8.60421 39.4539L21.9996 26.0583L35.3952 39.4539C36.1459 38.8762 36.8682 38.2442 37.556 37.5565C38.2438 36.8687 38.8757 36.1464 39.4534 35.3957Z" fill="#496E2D"/>
<path d="M24.8695 43.8138V24.8698V24.8696H43.8138C43.9362 23.9302 44 22.9726 44 22C44 21.0275 43.9361 20.0698 43.8138 19.1305H24.8697L24.8696 19.1305V0.186312C23.9303 0.0640234 22.9727 0 22 0C21.0274 8.59375e-05 20.0698 0.0640234 19.1305 0.186312L19.1305 19.1303V19.1305H0.186312C0.0639375 20.0698 0 21.0274 0 22C8.59375e-05 22.9727 0.0639375 23.9302 0.186312 24.8695H19.1304L19.1305 43.8138C20.0698 43.9361 21.0273 44 22 44C22.9727 44 23.9303 43.9361 24.8695 43.8138Z" fill="#F0F0F0"/>
</svg>
