<svg width="44" height="44" viewBox="0 0 44 44" fill="none" xmlns="http://www.w3.org/2000/svg">
<g clip-path="url(#clip0)">
<path d="M9.60059 40.174C13.1314 42.5876 17.4005 44.0001 22.0002 44.0001C26.6 44.0001 30.8692 42.5876 34.3999 40.174L22.0002 38.261L9.60059 40.174Z" fill="#D80027"/>
<path d="M34.3999 3.82611C30.8692 1.41255 26.6 0 22.0002 0C17.4005 0 13.1312 1.41255 9.60059 3.82611L22.0002 5.73916L34.3999 3.82611Z" fill="#D80027"/>
<path d="M9.60059 40.174C13.1314 42.5876 17.4005 44.0001 22.0002 44.0001C26.6 44.0001 30.8692 42.5876 34.3999 40.174L22.0002 38.261L9.60059 40.174Z" fill="#D80027"/>
<path d="M34.3999 3.82611C30.8692 1.41255 26.6 0 22.0002 0C17.4005 0 13.1312 1.41255 9.60059 3.82611L22.0002 5.73916L34.3999 3.82611Z" fill="#D80027"/>
<path d="M43.9441 20.5648C43.4229 13.7749 39.2973 7.17355 34.3998 3.82568H9.60049C4.17474 7.53483 0.494293 13.6096 0.0463867 20.5648L22.0002 21.9997L43.9441 20.5648Z" fill="#0052B4"/>
<path d="M0.0463867 23.4348C0.494293 30.3902 4.17465 36.4648 9.6004 40.174H34.3997C39.8257 36.4649 43.5059 30.3902 43.9538 23.4348L22.0002 22L0.0463867 23.4348Z" fill="#0052B4"/>
<path d="M43.944 20.5654H23.4348V2.86987H20.5653V20.5654H0.0463203C0.0158125 21.0398 0 21.5182 0 22.0003C0 22.4824 0.0157266 22.9607 0.0462344 23.4351H20.5653V41.1308H23.4348V23.4351H43.9539C43.9843 22.9607 44 22.4824 44 22.0003C44 21.5217 43.9807 21.0432 43.944 20.5654Z" fill="#D80027"/>
<path d="M8.60889 22.0004L22.0001 13.5835L35.3915 22.0004L22.0001 30.4173L8.60889 22.0004Z" fill="#F0F0F0"/>
<path d="M14.3477 25.8258H31.565L27.739 20.0867L25.8259 21.9997L23.9128 21.0432L21.9998 23.9128H18.1737L16.2606 21.9997L14.3477 25.8258Z" fill="#6DA544"/>
<path d="M21.9996 16.261L22.4745 17.7224H24.011L22.7679 18.6256L23.2428 20.0871L21.9996 19.1839L20.7565 20.0871L21.2314 18.6256L19.9883 17.7224H21.5248L21.9996 16.261Z" fill="#FFDA44"/>
<path d="M22 11.178L4.78271 21.9997L22 32.8215L39.2175 21.9997L22 11.178ZM10.1751 21.9997L22 14.5673L33.8251 21.9997L22 29.4322L10.1751 21.9997Z" fill="#D80027"/>
</g>
<defs>
<clipPath id="clip0">
<rect width="44" height="44" fill="white"/>
</clipPath>
</defs>
</svg>
