<svg width="44" height="44" viewBox="0 0 44 44" fill="none" xmlns="http://www.w3.org/2000/svg">
<path d="M22 44C34.1503 44 44 34.1503 44 22C44 9.84974 34.1503 0 22 0C9.84974 0 0 9.84974 0 22C0 34.1503 9.84974 44 22 44Z" fill="#FFDA44"/>
<path d="M44 21.9996C44 14.449 40.1956 7.78766 34.3997 3.82568H9.60034C3.80445 7.78766 0 14.449 0 21.9996C0 29.5503 3.80445 36.2115 9.60034 40.1735H34.3997C40.1956 36.2115 44 29.5503 44 21.9996Z" fill="#A2001D"/>
<path d="M17.2168 16.2613H26.782V12.4353L24.8689 13.3918L21.9994 10.5222L19.1298 13.3918L17.2168 12.4353V16.2613Z" fill="#FFDA44"/>
<path d="M30.6087 22.0002H25.8279C26.0154 21.6758 26.1244 21.3005 26.1244 20.899C26.1244 19.6798 25.136 18.6917 23.917 18.6917C23.0747 18.6917 22.3432 19.1636 21.971 19.8571C21.5988 19.1635 20.8673 18.6917 20.0251 18.6917C18.806 18.6917 17.8177 19.6798 17.8177 20.899C17.8177 21.3006 17.9268 21.6759 18.1142 22.0002H13.3911C13.3911 23.4631 14.6653 24.6489 16.1281 24.6489H16.04C16.04 25.8489 16.8381 26.8621 17.9323 27.1875L15.7824 29.3376L17.8115 31.3667L20.6898 28.4884C20.8025 28.5297 20.9192 28.5627 21.0397 28.5854L19.3005 32.5123C20.1339 32.8512 21.0448 33.0393 22 33.0393C22.9551 33.0393 23.8659 32.8512 24.6995 32.5123L22.9603 28.5854C23.0807 28.5628 23.1974 28.5297 23.31 28.4884L26.1883 31.3667L28.2173 29.3376L26.0673 27.1876C27.1615 26.862 27.9597 25.849 27.9597 24.649H27.8714C29.3344 24.6489 30.6087 23.4631 30.6087 22.0002Z" fill="#FFDA44"/>
<path d="M21.9998 23.4346L18.8911 24.8693V27.7389L21.9998 29.6519L25.1085 27.7389V24.8693L21.9998 23.4346Z" fill="#6DA544"/>
<path d="M25.1085 22H18.8911V25.8261H25.1085V22Z" fill="#0052B4"/>
</svg>
