<svg width="44" height="44" viewBox="0 0 44 44" fill="none" xmlns="http://www.w3.org/2000/svg">
<g clip-path="url(#clip0)">
<path d="M44 21.9998C44 19.3088 43.5159 16.7309 42.6316 14.3477L22 13.3911L1.36838 14.3476C0.484086 16.7309 0 19.3088 0 21.9998C0 24.6909 0.484086 27.2687 1.36838 29.6519L22 30.6085L42.6316 29.652C43.5159 27.2687 44 24.6909 44 21.9998Z" fill="#F0F0F0"/>
<path d="M22.0003 44C31.4595 44 39.5234 38.0297 42.6319 29.6521H1.36865C4.4771 38.0297 12.541 44 22.0003 44Z" fill="#0052B4"/>
<path d="M1.36865 14.3479H42.632C39.5234 5.97025 31.4595 0 22.0003 0C12.541 0 4.4771 5.97025 1.36865 14.3479Z" fill="#D80027"/>
<path d="M27.7387 15.3046H23.9126L24.5503 10.5219L27.101 8.60889L29.6517 10.5219V14.348L27.7387 15.3046Z" fill="#338AF3"/>
<path d="M16.2606 15.3046H20.0867L19.449 10.5219L16.8983 8.60889L14.3477 10.5219V14.348L16.2606 15.3046Z" fill="#338AF3"/>
<path d="M24.5508 15.3046H19.4492V10.5219L22 8.60889L24.5508 10.5219V15.3046Z" fill="#0052B4"/>
<path d="M14.3477 14.3479V24.8696C14.3477 27.3749 15.5578 29.6029 17.4244 30.9997L18.7636 30.6646L20.4534 32.3646C20.9532 32.4676 21.4702 32.5218 21.9999 32.5218C22.5267 32.5218 23.0412 32.4682 23.5382 32.3663L25.4673 30.7601L26.5752 30.9966C28.441 29.5999 29.652 27.3742 29.652 24.8696V14.3479H14.3477Z" fill="#F0F0F0"/>
<path d="M17.4085 14.3479H14.3477V17.4087H17.4085V14.3479Z" fill="#D80027"/>
<path d="M23.5301 14.3479H20.4692V17.4087H23.5301V14.3479Z" fill="#D80027"/>
<path d="M29.6521 14.3479H26.5913V17.4087H29.6521V14.3479Z" fill="#D80027"/>
<path d="M20.469 17.4086H17.4082V20.4694H20.469V17.4086Z" fill="#D80027"/>
<path d="M26.5911 17.4086H23.5303V20.4694H26.5911V17.4086Z" fill="#D80027"/>
<path d="M17.4085 20.469H14.3477V23.5298H17.4085V20.469Z" fill="#D80027"/>
<path d="M20.469 23.5297H17.4082V26.5905H20.469V23.5297Z" fill="#D80027"/>
<path d="M23.5301 20.469H20.4692V23.5298H23.5301V20.469Z" fill="#D80027"/>
<path d="M29.6521 20.469H26.5913V23.5298H29.6521V20.469Z" fill="#D80027"/>
<path d="M26.5911 23.5297H23.5303V26.5905H26.5911V23.5297Z" fill="#D80027"/>
<path d="M23.5301 26.5903H20.4692V29.6512H23.5301V26.5903Z" fill="#D80027"/>
<path d="M17.4088 26.5907H14.5454C14.808 27.7285 15.3243 28.7696 16.0323 29.6515H17.4088V26.5907Z" fill="#D80027"/>
<path d="M26.5913 29.6517H27.9677C28.6758 28.7698 29.1919 27.7285 29.4546 26.5908H26.5913V29.6517Z" fill="#D80027"/>
<path d="M17.4082 29.6515V30.987C18.2984 31.6569 19.3388 32.1372 20.469 32.3677V29.6515H17.4082Z" fill="#D80027"/>
<path d="M23.5303 29.6515V32.3677C24.6606 32.1374 25.7009 31.6569 26.5911 30.987V29.6515H23.5303Z" fill="#D80027"/>
</g>
<defs>
<clipPath id="clip0">
<rect width="44" height="44" fill="white"/>
</clipPath>
</defs>
</svg>
