<svg width="44" height="44" viewBox="0 0 44 44" fill="none" xmlns="http://www.w3.org/2000/svg">
<path d="M22 44C34.1503 44 44 34.1503 44 22C44 9.84974 34.1503 0 22 0C9.84974 0 0 9.84974 0 22C0 34.1503 9.84974 44 22 44Z" fill="#F0F0F0"/>
<path d="M44 22C44 34.1502 34.1502 44 22 44C9.84981 44 0 34.1502 0 22" fill="#496E2D"/>
<path d="M38.0717 15.3092C37.285 13.078 35.1591 11.4784 32.6588 11.4784H27.7394C24.5697 11.4784 22.0002 14.0479 22.0002 17.2176C22.0002 18.2531 22.2759 19.2483 22.7557 20.0871C20.9289 20.0721 19.2383 20.0997 18.1741 20.0871C18.1741 17.8737 18.1741 15.0541 18.1741 14.4641L18.4001 14.2381C19.4147 13.2235 19.0764 11.5326 19.0764 11.5326C19.0764 11.5326 17.3856 11.1945 16.371 12.209L15.1886 13.3914H13.8698C10.9642 13.3914 8.60891 15.7468 8.60891 18.6523H12.435V22.9566C12.435 23.5862 12.562 24.186 12.7913 24.7322L11.4785 25.8262H9.5654V23.9131H7.65234V27.7392H16.261V31.5653H14.348V33.4784H18.1741V29.6523L19.9277 27.5479H24.0727L25.8262 29.6523V31.5653H23.9132V33.4784H31.5653V22.9566C31.5653 21.3718 32.8501 20.087 34.4349 20.087C34.4756 20.087 34.516 20.0885 34.5564 20.0901C34.4771 19.7835 34.4349 19.462 34.4349 19.1305C34.435 17.081 36.0466 15.408 38.0717 15.3092ZM27.7394 31.5653V27.5478H27.8988L29.6523 29.6522V31.5653H27.7394Z" fill="#D80027"/>
</svg>
