<svg width="44" height="44" viewBox="0 0 44 44" fill="none" xmlns="http://www.w3.org/2000/svg">
<path d="M22 44C34.1503 44 44 34.1503 44 22C44 9.84974 34.1503 0 22 0C9.84974 0 0 9.84974 0 22C0 34.1503 9.84974 44 22 44Z" fill="#F0F0F0"/>
<path d="M43.9997 21.9996C43.9997 13.2775 38.9238 5.74112 31.5649 2.18262V41.8166C38.9238 38.2581 43.9997 30.7218 43.9997 21.9996Z" fill="#D80027"/>
<path d="M0 21.9996C0 30.7218 5.0759 38.2581 12.4348 41.8166V2.18262C5.0759 5.74112 0 13.2775 0 21.9996Z" fill="#6DA544"/>
<path d="M16.2612 21.9997C16.2612 25.1693 18.8308 27.7389 22.0004 27.7389C25.17 27.7389 27.7396 25.1693 27.7396 21.9997V20.0867H16.2612V21.9997Z" fill="#6DA544"/>
<path d="M29.6521 18.174H23.9129C23.9129 17.1175 23.0564 16.261 21.9999 16.261C20.9434 16.261 20.0868 17.1175 20.0868 18.174H14.3477C14.3477 19.2306 15.268 20.0871 16.3244 20.0871H16.2607C16.2607 21.1437 17.1172 22.0001 18.1738 22.0001C18.1738 23.0567 19.0302 23.9132 20.0868 23.9132H23.9129C24.9695 23.9132 25.826 23.0567 25.826 22.0001C26.8826 22.0001 27.739 21.1437 27.739 20.0871H27.6753C28.7319 20.0871 29.6521 19.2306 29.6521 18.174Z" fill="#FF9811"/>
</svg>
