<svg width="44" height="44" viewBox="0 0 44 44" fill="none" xmlns="http://www.w3.org/2000/svg">
<g clip-path="url(#clip0)">
<path d="M22 44C34.1503 44 44 34.1503 44 22C44 9.84974 34.1503 0 22 0C9.84974 0 0 9.84974 0 22C0 34.1503 9.84974 44 22 44Z" fill="#F0F0F0"/>
<path d="M21.9999 0C14.8024 0 8.41255 3.45666 4.39893 8.8H39.6008C35.5872 3.45666 29.1973 0 21.9999 0Z" fill="#D80027"/>
<path d="M21.9999 44.0004C29.1973 44.0004 35.5872 40.5438 39.6008 35.2004H4.39893C8.41255 40.5438 14.8024 44.0004 21.9999 44.0004Z" fill="#D80027"/>
<path d="M0 22.0001C0 23.507 0.151937 24.9784 0.440602 26.4001H43.5596C43.8482 24.9784 44 23.507 44 22.0001C44 20.4932 43.8481 19.0218 43.5595 17.6001H0.440602C0.151937 19.0218 0 20.4932 0 22.0001Z" fill="#D80027"/>
<path d="M6.44364 6.44312C-2.14788 15.0346 -2.14788 28.9643 6.44364 37.5559C9.99397 34.0056 13.4085 30.591 22 21.9995L6.44364 6.44312Z" fill="#0052B4"/>
<path d="M8.90407 16.261L10.3285 20.6452H14.9387L11.2092 23.355L12.6335 27.7393L8.90407 25.0296L5.17447 27.7393L6.59914 23.355L2.86963 20.6452H7.47949L8.90407 16.261Z" fill="#F0F0F0"/>
</g>
<defs>
<clipPath id="clip0">
<rect width="44" height="44" fill="white"/>
</clipPath>
</defs>
</svg>
