<svg width="44" height="44" viewBox="0 0 44 44" fill="none" xmlns="http://www.w3.org/2000/svg">
<g clip-path="url(#clip0)">
<path d="M22 44C34.1503 44 44 34.1503 44 22C44 9.84974 34.1503 0 22 0C9.84974 0 0 9.84974 0 22C0 34.1503 9.84974 44 22 44Z" fill="#F0F0F0"/>
<path d="M21.0435 21.9992H43.9999C43.9999 20.0134 43.7353 18.09 43.2421 16.26H21.0435V21.9992Z" fill="#D80027"/>
<path d="M21.0435 10.5214H40.7709C39.4242 8.3238 37.7024 6.38135 35.6947 4.78223H21.0435V10.5214Z" fill="#D80027"/>
<path d="M21.9999 43.9994C27.1776 43.9994 31.9365 42.2098 35.6947 39.2168H8.30518C12.0633 42.2098 16.8223 43.9994 21.9999 43.9994Z" fill="#D80027"/>
<path d="M3.22895 33.4779H40.7709C41.8521 31.7138 42.6905 29.7853 43.242 27.7388H0.757812C1.30927 29.7853 2.14777 31.7138 3.22895 33.4779Z" fill="#D80027"/>
<path d="M22 22C22 9.84981 22 8.41741 22 0C9.84981 0 0 9.84981 0 22H22Z" fill="#0052B4"/>
<path d="M14.6294 18.8315C11.6248 18.8315 9.18918 16.3958 9.18918 13.3914C9.18918 10.3869 11.6249 7.95118 14.6294 7.95118C15.5662 7.95118 16.4476 8.1881 17.2172 8.60507C16.0099 7.42455 14.3589 6.6958 12.537 6.6958C8.83915 6.6958 5.84131 9.69356 5.84131 13.3914C5.84131 17.0893 8.83915 20.0871 12.537 20.0871C14.3589 20.0871 16.0099 19.3583 17.2172 18.1778C16.4476 18.5946 15.5663 18.8315 14.6294 18.8315Z" fill="#FFDA44"/>
<path d="M16.1624 9.56567L17.1282 11.5854L19.3094 11.0814L18.3327 13.0957L20.0868 14.4868L17.9028 14.9791L17.9089 17.2179L16.1624 15.8173L14.4158 17.2179L14.4218 14.9791L12.2378 14.4868L13.9919 13.0957L13.0151 11.0814L15.1964 11.5854L16.1624 9.56567Z" fill="#FFDA44"/>
</g>
<defs>
<clipPath id="clip0">
<rect width="44" height="44" fill="white"/>
</clipPath>
</defs>
</svg>
