<svg width="44" height="44" viewBox="0 0 44 44" fill="none" xmlns="http://www.w3.org/2000/svg">
<g clip-path="url(#clip0)">
<path d="M22 44C34.1503 44 44 34.1503 44 22C44 9.84974 34.1503 0 22 0C9.84974 0 0 9.84974 0 22C0 34.1503 9.84974 44 22 44Z" fill="#F0F0F0"/>
<path d="M21.9996 44.0002C30.7217 44.0002 38.2581 38.9243 41.8166 31.5654H2.18262C5.74112 38.9243 13.2775 44.0002 21.9996 44.0002Z" fill="#338AF3"/>
<path d="M21.9996 0C13.2775 0 5.74112 5.0759 2.18262 12.4348H41.8166C38.2581 5.0759 30.7217 0 21.9996 0Z" fill="#338AF3"/>
<path d="M13.5383 14.3479L14.2505 16.5401H16.5554L14.6908 17.8948L15.4031 20.087L13.5383 18.7322L11.6734 20.087L12.3858 17.8948L10.521 16.5401H12.8259L13.5383 14.3479Z" fill="#338AF3"/>
<path d="M13.5383 23.9133L14.2505 26.1056H16.5554L14.6908 27.4603L15.4031 29.6524L13.5383 28.2976L11.6734 29.6524L12.3858 27.4603L10.521 26.1056H12.8259L13.5383 23.9133Z" fill="#338AF3"/>
<path d="M30.4601 14.3479L31.1725 16.5401H33.4774L31.6126 17.8948L32.325 20.087L30.4601 18.7322L28.5953 20.087L29.3076 17.8948L27.4429 16.5401H29.7479L30.4601 14.3479Z" fill="#338AF3"/>
<path d="M30.4601 23.9133L31.1725 26.1056H33.4774L31.6126 27.4603L32.325 29.6524L30.4601 28.2976L28.5953 29.6524L29.3076 27.4603L27.4429 26.1056H29.7479L30.4601 23.9133Z" fill="#338AF3"/>
<path d="M21.9992 19.1301L22.7115 21.3224H25.0165L23.1517 22.6771L23.8641 24.8692L21.9992 23.5144L20.1344 24.8692L20.8467 22.6771L18.9819 21.3224H21.2869L21.9992 19.1301Z" fill="#338AF3"/>
</g>
<defs>
<clipPath id="clip0">
<rect width="44" height="44" fill="white"/>
</clipPath>
</defs>
</svg>
