<svg width="44" height="44" viewBox="0 0 44 44" fill="none" xmlns="http://www.w3.org/2000/svg">
<g clip-path="url(#clip0)">
<path d="M29.6519 1.36838C27.2686 0.484086 24.6908 0 21.9998 0C19.3087 0 16.7309 0.484086 14.3476 1.36838L12.4346 22L14.3476 42.6316C16.7309 43.516 19.3087 44 21.9998 44C24.6908 44 27.2686 43.516 29.6519 42.6316L31.565 22L29.6519 1.36838Z" fill="#FFDA44"/>
<path d="M44.0002 22.0002C44.0002 12.541 38.03 4.47701 29.6523 1.36865V42.632C38.03 39.5234 44.0002 31.4595 44.0002 22.0002Z" fill="#D80027"/>
<path d="M0 22.0002C0 31.4595 5.97025 39.5234 14.3479 42.6319V1.36865C5.97025 4.47701 0 12.541 0 22.0002Z" fill="#6DA544"/>
</g>
<defs>
<clipPath id="clip0">
<rect width="44" height="44" fill="white"/>
</clipPath>
</defs>
</svg>
