<svg width="44" height="44" viewBox="0 0 44 44" fill="none" xmlns="http://www.w3.org/2000/svg">
<path d="M38.3963 36.6665C41.8804 32.7742 44 27.6349 44 21.9999C44 16.3648 41.8804 11.2254 38.3962 7.33315L22 5.73901L5.60381 7.33315C2.11965 11.2254 0 16.3648 0 21.9999C0 27.6349 2.11956 32.7742 5.60373 36.6665L22 38.2607L38.3963 36.6665Z" fill="#FFDA44"/>
<path d="M5.604 7.3333H38.3965C34.3681 2.83302 28.5154 0 22.0002 0C15.485 0 9.63224 2.83302 5.604 7.3333Z" fill="black"/>
<path d="M0 21.9999L22 23.913L44 21.9999C44 19.4283 43.5573 16.9604 42.7463 14.6665H1.25366C0.442664 16.9604 0 19.4283 0 21.9999Z" fill="#D80027"/>
<path d="M1.25366 29.3333H42.7465C43.5573 27.0395 44 24.5716 44 22H0C0 24.5716 0.442664 27.0395 1.25366 29.3333Z" fill="black"/>
<path d="M38.3961 36.6665H5.60352C9.63175 41.1669 15.4845 43.9999 21.9998 43.9999C28.5151 43.9999 34.3678 41.1669 38.3961 36.6665Z" fill="#D80027"/>
<path d="M29.3413 21.9997C29.3413 26.0545 26.0548 29.341 22 29.341C17.9452 29.341 14.6587 26.0545 14.6587 21.9997C14.6587 17.945 17.9452 14.6584 22 14.6584C26.0548 14.6584 29.3413 17.945 29.3413 21.9997Z" fill="#F0F0F0"/>
<path d="M24.6892 22.3737L21.9998 21.2083C21.9998 21.2083 22.6291 19.1198 22.6626 18.9769C22.6871 18.8725 22.7001 18.7636 22.7001 18.6517C22.7001 18.2555 22.5395 17.8967 22.2798 17.6372L22.9561 16.9609C22.5234 16.5282 21.9256 16.2605 21.2652 16.2605C20.6049 16.2605 20.007 16.5281 19.5743 16.9609L20.2507 17.6372C19.991 17.8968 19.8304 18.2555 19.8304 18.6517C19.8304 18.7966 19.8523 18.9362 19.8923 19.0682L18.874 20.0863H20.7248C20.7248 20.0863 19.9596 21.2357 19.5418 22.1795C19.1241 23.1233 19.5476 24.2755 20.513 24.7046L21.0713 24.9527L21.9998 25.8255V26.782L21.0433 27.7385H22.9564V25.8254L23.8293 24.9526H25.6346C25.6433 24.9346 25.6524 24.9171 25.6607 24.8987C26.0896 23.9333 25.6547 22.8027 24.6892 22.3737Z" fill="black"/>
</svg>
