<svg width="44" height="44" viewBox="0 0 44 44" fill="none" xmlns="http://www.w3.org/2000/svg">
<path d="M31.5649 2.18298C28.6726 0.784438 25.4278 0 21.9997 0C18.5717 0 15.3269 0.784438 12.4345 2.18298L10.5215 22L12.4345 41.817C15.3269 43.2156 18.5717 44 21.9997 44C25.4278 44 28.6726 43.2156 31.5649 41.817L33.478 22L31.5649 2.18298Z" fill="#FFDA44"/>
<path d="M12.4348 2.18359C5.07598 5.74201 0 13.2778 0 21.9998C0 30.7219 5.07598 38.2577 12.4348 41.8161V2.18359Z" fill="#0052B4"/>
<path d="M31.5649 2.18359V41.8161C38.9238 38.2577 43.9997 30.7219 43.9997 21.9998C43.9997 13.2778 38.9238 5.74201 31.5649 2.18359Z" fill="#D80027"/>
<path d="M29.6519 17.3098H24.3911C24.3911 15.9891 23.3205 14.9185 21.9998 14.9185C20.6791 14.9185 19.6085 15.9891 19.6085 17.3098H14.3477C14.3477 18.6101 15.4804 19.6641 16.7805 19.6641H16.7022C16.7022 20.9645 17.7563 22.0187 19.0567 22.0187C19.0567 23.17 19.8836 24.1266 20.9757 24.3312L19.1203 28.5199C20.0093 28.8813 20.9809 29.0821 21.9998 29.0821C23.0186 29.0821 23.9903 28.8813 24.8792 28.5199L23.0239 24.3312C24.116 24.1266 24.9429 23.17 24.9429 22.0187C26.2433 22.0187 27.2974 20.9645 27.2974 19.6641H27.2189C28.5193 19.6641 29.6519 18.61 29.6519 17.3098Z" fill="#FF9811"/>
<path d="M21.9998 20.5654L18.8911 22.0002V24.8698L21.9998 26.7828L25.1085 24.8698V22.0002L21.9998 20.5654Z" fill="#0052B4"/>
<path d="M25.1085 19.1301H18.8911V21.9997H25.1085V19.1301Z" fill="#D80027"/>
</svg>
