<svg width="44" height="44" viewBox="0 0 44 44" fill="none" xmlns="http://www.w3.org/2000/svg">
<g clip-path="url(#clip0)">
<path d="M22 44C34.1503 44 44 34.1503 44 22C44 9.84974 34.1503 0 22 0C9.84974 0 0 9.84974 0 22C0 34.1503 9.84974 44 22 44Z" fill="#F0F0F0"/>
<path d="M22.0002 0C18.1105 0 14.4575 1.0108 11.2871 2.78197V41.218C14.4576 42.9892 18.1105 44 22.0002 44C34.1504 44 44.0002 34.1502 44.0002 22C44.0002 9.84981 34.1504 0 22.0002 0Z" fill="#6DA544"/>
<path d="M11.3518 2.74561C9.96774 3.5126 8.67541 4.42422 7.49471 5.46063C7.61408 5.35596 7.73465 5.25249 7.85617 5.15039L24.7055 21.9998L7.85608 38.8492C7.73448 38.7471 7.614 38.6437 7.49463 38.539C8.67532 39.5754 9.96774 40.4869 11.3517 41.254L44.0001 21.9998L11.3518 2.74561Z" fill="#F0F0F0"/>
<path d="M9.49335 3.90015C8.82243 4.36472 8.17807 4.86462 7.56405 5.3989L21.9998 22.0001L7.56396 38.6014C8.17799 39.1356 8.82235 39.6356 9.49326 40.1001L40.2339 22.0001L9.49335 3.90015Z" fill="#FFDA44"/>
<path d="M7.85623 5.151C7.36716 5.56195 6.89519 5.99276 6.44385 6.44402L20.0872 22.0004L6.44385 37.5568C6.89519 38.0082 7.36707 38.4391 7.85623 38.8498L24.7057 22.0004L7.85623 5.151Z" fill="black"/>
<path d="M6.44364 6.44312C-2.14788 15.0346 -2.14788 28.9643 6.44364 37.5559C9.99397 34.0056 13.4085 30.591 22 21.9995L6.44364 6.44312Z" fill="#D80027"/>
</g>
<defs>
<clipPath id="clip0">
<rect width="44" height="44" fill="white"/>
</clipPath>
</defs>
</svg>
