<svg width="44" height="44" viewBox="0 0 44 44" fill="none" xmlns="http://www.w3.org/2000/svg">
<g clip-path="url(#clip0)">
<path d="M22 44C34.1503 44 44 34.1503 44 22C44 9.84974 34.1503 0 22 0C9.84974 0 0 9.84974 0 22C0 34.1503 9.84974 44 22 44Z" fill="#F0F0F0"/>
<path d="M35.3943 4.54781C31.6846 1.69632 27.041 0 22.0004 0C16.9598 0 12.3161 1.69641 8.60645 4.54781L22.0004 17.9417L35.3943 4.54781Z" fill="#0052B4"/>
<path d="M4.54773 8.60645C1.69641 12.3161 0 16.9597 0 22.0003C0 27.0409 1.69641 31.6846 4.54781 35.3944L17.9418 22.0003L4.54773 8.60645Z" fill="#0052B4"/>
<path d="M8.60645 39.4517C12.3162 42.3032 16.9598 43.9995 22.0004 43.9995C27.041 43.9995 31.6846 42.3031 35.3944 39.4517L22.0004 26.0579L8.60645 39.4517Z" fill="#0052B4"/>
<path d="M39.4525 35.3942C42.304 31.6845 44.0003 27.0409 44.0003 22.0003C44.0003 16.9597 42.304 12.3161 39.4525 8.60645L26.0586 22.0003L39.4525 35.3942Z" fill="#0052B4"/>
</g>
<defs>
<clipPath id="clip0">
<rect width="44" height="44" fill="white"/>
</clipPath>
</defs>
</svg>
