<svg width="44" height="44" viewBox="0 0 44 44" fill="none" xmlns="http://www.w3.org/2000/svg">
<path d="M44 22C44 34.1502 34.1502 44 22 44C9.84981 44 0 34.1502 0 22C0 22.0052 22 0.00240625 22 0C34.1502 0 44 9.84981 44 22Z" fill="#0052B4"/>
<path d="M21.9409 21.9995H21.9998C21.9998 21.9798 21.9998 21.9605 21.9998 21.9407C21.9802 21.9604 21.9606 21.9799 21.9409 21.9995Z" fill="#F0F0F0"/>
<path d="M22 11.4782C22 7.60719 22 5.07074 22 0H21.9963C9.84766 0.0020625 0 9.85093 0 22H11.4782V15.5366L17.9417 22H21.9412C21.9608 21.9804 21.9804 21.9608 22.0001 21.9411C22.0001 20.459 22.0001 19.1365 22.0001 17.9419L15.5365 11.4782H22Z" fill="#F0F0F0"/>
<path d="M11.1308 2.86987C7.68992 4.82916 4.82932 7.68968 2.87012 11.1305V22.0003H8.60928V8.60921V8.60904H22.0006C22.0006 6.79894 22.0006 5.07451 22.0006 2.86987H11.1308Z" fill="#D80027"/>
<path d="M22.0008 19.295L14.1843 11.4788H11.479V11.4789L22.0006 22.0004H22.0008C22.0008 22.0004 22.0008 20.135 22.0008 19.295Z" fill="#D80027"/>
<path d="M34.4344 13.3915L31.5648 14.3481L28.6953 13.3915L27.7388 11.0002L28.6953 8.60889H34.4344L33.4778 11.0002L34.4344 13.3915Z" fill="#ACABB1"/>
<path d="M24.8701 13.3911V23.9128C24.8701 29.0381 31.5658 30.6085 31.5658 30.6085C31.5658 30.6085 38.2614 29.0381 38.2614 23.9128V13.3911H24.8701Z" fill="#338AF3"/>
<path d="M25.4731 26.406C27.119 29.5658 31.5653 30.609 31.5653 30.609C31.5653 30.609 36.0115 29.5658 37.6574 26.406L31.5653 16.2612L25.4731 26.406Z" fill="#6DA544"/>
<path d="M38.2614 23.8065L31.5658 13.3911L24.8701 23.8066V23.9128C24.8701 24.8614 25.0999 25.6879 25.4737 26.4055L31.5658 16.9287L37.6579 26.4054C38.0316 25.6877 38.2614 24.8613 38.2614 23.9127V23.8065Z" fill="#FFDA44"/>
</svg>
