<svg width="44" height="44" viewBox="0 0 44 44" fill="none" xmlns="http://www.w3.org/2000/svg">
<g clip-path="url(#clip0)">
<path d="M37.5564 37.5559C28.9649 46.1474 15.0352 46.1474 6.44366 37.5559C-2.14793 28.9644 -2.14784 15.0347 6.44366 6.44312C7.11998 7.11936 24.0291 19.9703 24.0291 19.9703L37.5564 37.5559Z" fill="#0052B4"/>
<path d="M6.44336 6.44326C15.0349 -2.14824 28.9645 -2.14824 37.5561 6.44326C46.1477 15.0348 46.1476 28.9644 37.5561 37.556" fill="#6DA544"/>
<path d="M21.9999 27.7393C25.1696 27.7393 27.7391 25.1698 27.7391 22.0001C27.7391 18.8305 25.1696 16.261 21.9999 16.261C18.8303 16.261 16.2607 18.8305 16.2607 22.0001C16.2607 25.1698 18.8303 27.7393 21.9999 27.7393Z" fill="#FFDA44"/>
<path d="M8.19159 31.5647L8.7953 32.827L10.1585 32.5119L9.54803 33.771L10.6444 34.6404L9.27939 34.948L9.28317 36.3473L8.19159 35.4718L7.10002 36.3473L7.1038 34.948L5.73877 34.6404L6.83516 33.771L6.22457 32.5119L7.58788 32.827L8.19159 31.5647Z" fill="#F0F0F0"/>
<path d="M4.24278 21.0435L4.84649 22.3058L6.20971 21.9906L5.5993 23.2497L6.69551 24.1192L5.33057 24.4267L5.33435 25.826L4.24278 24.9507L3.15129 25.826L3.15498 24.4267L1.79004 24.1192L2.88634 23.2497L2.27584 21.9906L3.63907 22.3058L4.24278 21.0435Z" fill="#F0F0F0"/>
<path d="M8.19151 12.4346L8.79522 13.6969L10.1584 13.3817L9.54803 14.6408L10.6443 15.5103L9.2793 15.8178L9.28308 17.2172L8.19151 16.3418L7.09993 17.2172L7.10371 15.8178L5.73877 15.5103L6.83499 14.6408L6.22449 13.3817L7.5878 13.6969L8.19151 12.4346Z" fill="#F0F0F0"/>
<path d="M13.0973 19.1301L13.701 20.3925L15.0643 20.0772L14.4537 21.3365L15.55 22.2058L14.1851 22.5135L14.1888 23.9127L13.0973 23.0374L12.0057 23.9127L12.0095 22.5135L10.6445 22.2058L11.7407 21.3365L11.1303 20.0772L12.4936 20.3925L13.0973 19.1301Z" fill="#F0F0F0"/>
<path d="M9.59006 24.8691L10.065 26.3306H11.6015L10.3583 27.2338L10.8332 28.6952L9.59006 27.792L8.34689 28.6952L8.82178 27.2338L7.57861 26.3306H9.11517L9.59006 24.8691Z" fill="#F0F0F0"/>
<path d="M21.9998 25.8257H23.9128C23.9128 25.8257 24.7417 24.3592 23.9128 22.9562L25.8258 21.0432L24.8694 19.1301H23.9129C23.9129 19.1301 23.4346 20.5649 21.5216 20.5649C19.6085 20.5649 19.1303 19.1301 19.1303 19.1301H18.1738L19.1303 21.0432L18.1738 22.9562L19.1303 23.9127C19.1303 23.9127 20.0868 21.9997 21.9998 22.9562C21.9998 22.9562 22.8128 24.1519 21.9998 25.8257Z" fill="#6DA544"/>
<path d="M36.2784 12.0505C36.3235 11.8155 36.3475 11.573 36.3475 11.3249C36.3475 9.6233 35.2365 8.18205 33.7006 7.68481C34.1699 8.63872 34.4344 9.71156 34.4344 10.8466C34.4344 11.2294 34.4036 11.6049 34.3458 11.9715C34.1146 11.5991 33.8177 11.2589 33.455 10.9702C32.0885 9.88292 30.2212 9.85413 28.8406 10.7698C29.9065 11.0025 30.937 11.4756 31.8485 12.2008C32.5622 12.7687 33.1388 13.5368 33.5804 14.2783L27.7388 16.1074C33.4779 17.0639 38.2605 13.2379 38.2605 13.2379C37.7305 12.1781 36.9076 11.9994 36.2784 12.0505Z" fill="#FFDA44"/>
</g>
<defs>
<clipPath id="clip0">
<rect width="44" height="44" fill="white"/>
</clipPath>
</defs>
</svg>
