<svg width="44" height="44" viewBox="0 0 44 44" fill="none" xmlns="http://www.w3.org/2000/svg">
<g clip-path="url(#clip0)">
<path d="M22 44C34.1503 44 44 34.1503 44 22C44 9.84974 34.1503 0 22 0C9.84974 0 0 9.84974 0 22C0 34.1503 9.84974 44 22 44Z" fill="#F0F0F0"/>
<path d="M41.3251 11.478C38.4822 6.26772 33.5939 2.33445 27.7392 0.75647L26.7827 11.478H41.3251Z" fill="#0052B4"/>
<path d="M2.6748 11.478H17.2171L16.2607 0.75647C10.406 2.33445 5.5177 6.26781 2.6748 11.478Z" fill="#0052B4"/>
<path d="M26.7827 22V32.5218H41.3251C43.0305 29.3961 44.0001 25.8113 44.0001 22H26.7827Z" fill="#6DA544"/>
<path d="M17.2174 22H0C0 25.8113 0.969633 29.3961 2.67498 32.5218H17.2173V22H17.2174Z" fill="#6DA544"/>
<path d="M2.6748 32.5221C5.5177 37.7324 10.406 41.6657 16.2607 43.2437L17.2171 33.8671L2.6748 32.5221Z" fill="#FFDA44"/>
<path d="M27.7392 43.2437C33.5939 41.6657 38.4822 37.7324 41.3251 32.5221L26.7827 33.8669L27.7392 43.2437Z" fill="#FFDA44"/>
<path d="M26.7827 33.8669L41.3251 32.5221H26.7827V33.8669Z" fill="#FFDA44"/>
<path d="M17.2172 32.5221H2.6748L17.2172 33.8669V32.5221Z" fill="#FFDA44"/>
<path d="M22.0004 0C20.0146 0 18.0912 0.264688 16.2612 0.757883V43.2422C18.0912 43.7353 20.0146 44 22.0004 44C23.9862 44 25.9096 43.7353 27.7396 43.2421V0.757883C25.9096 0.264688 23.9862 0 22.0004 0Z" fill="#D80027"/>
<path d="M11.8335 4.78271L12.427 6.60949H14.348L12.794 7.73853L13.3876 9.56531L11.8335 8.43635L10.2795 9.56531L10.8733 7.73853L9.31934 6.60949H11.2401L11.8335 4.78271Z" fill="#FFDA44"/>
</g>
<defs>
<clipPath id="clip0">
<rect width="44" height="44" fill="white"/>
</clipPath>
</defs>
</svg>
