<svg width="44" height="44" viewBox="0 0 44 44" fill="none" xmlns="http://www.w3.org/2000/svg">
<path d="M22 44C34.1503 44 44 34.1503 44 22C44 9.84974 34.1503 0 22 0C9.84974 0 0 9.84974 0 22C0 34.1503 9.84974 44 22 44Z" fill="#FFDA44"/>
<path d="M6.44302 37.5561C7.3659 38.479 8.35057 39.302 9.38345 40.0266L40.0262 9.38378C39.3017 8.3509 38.4786 7.36623 37.5557 6.44335C36.6328 5.52046 35.6482 4.69753 34.6153 3.9729L3.97266 34.6157C4.69711 35.6483 5.52022 36.6331 6.44302 37.5561Z" fill="black"/>
<path d="M6.44372 6.44313C-0.496764 13.3838 -1.82923 23.8072 2.44384 32.0867L32.0873 2.44334C23.8078 -1.82973 13.3843 -0.497186 6.44372 6.44313Z" fill="#6DA544"/>
<path d="M37.5561 37.5572C44.4966 30.6167 45.8289 20.1931 41.5561 11.9136L11.9126 41.557C20.1919 45.8301 30.6155 44.4976 37.5561 37.5572Z" fill="#338AF3"/>
</svg>
