<svg width="44" height="44" viewBox="0 0 44 44" fill="none" xmlns="http://www.w3.org/2000/svg">
<path d="M22 44C34.1503 44 44 34.1503 44 22C44 9.84974 34.1503 0 22 0C9.84974 0 0 9.84974 0 22C0 34.1503 9.84974 44 22 44Z" fill="#F0F0F0"/>
<path d="M14.3477 21.9997V42.6313C16.7309 43.5157 19.3087 43.9997 21.9998 43.9997C34.15 43.9997 43.9998 34.1499 43.9998 21.9997C43.9998 9.8495 14.3477 21.9997 14.3477 21.9997Z" fill="#6DA544"/>
<path d="M21.9998 0C19.3087 0 16.7309 0.484086 14.3477 1.36838V22C14.3477 22 33.8607 22 43.9998 22C43.9998 9.84981 34.15 0 21.9998 0Z" fill="#D80027"/>
</svg>
