<svg width="44" height="44" viewBox="0 0 44 44" fill="none" xmlns="http://www.w3.org/2000/svg">
<path d="M22 44C34.1503 44 44 34.1503 44 22C44 9.84974 34.1503 0 22 0C9.84974 0 0 9.84974 0 22C0 34.1503 9.84974 44 22 44Z" fill="#F0F0F0"/>
<path d="M21.9999 44C27.5787 44 32.6716 41.9224 36.5497 38.5H7.4502C11.3283 41.9224 16.4211 44 21.9999 44Z" fill="#D80027"/>
<path d="M0.692871 27.4996C1.19518 29.4509 1.95882 31.2972 2.94366 32.9996H41.0558C42.0407 31.2972 42.8043 29.4509 43.3066 27.4996L21.9998 25.8257L0.692871 27.4996Z" fill="#0052B4"/>
<path d="M43.3065 16.5C42.8042 14.5487 42.0406 12.7024 41.0557 11L21.9996 10.5218C21.9996 6.67923 21.9996 3.04777 21.9996 0C20.3653 0 18.7726 0.17832 17.2399 0.516312C17.2105 0.522844 2.86914 11.8351 2.86914 22C3.23584 22.0638 21.9996 23.9131 21.9996 23.9131C21.9996 23.9131 21.9996 19.7227 21.9996 16.5H43.3065Z" fill="#0052B4"/>
<path d="M22 13.7258V2.72579H15.0326L17.241 0.517456C8.17532 2.51688 1.20966 10.1072 0.143516 19.4888C0.0498437 20.313 0 21.1504 0 21.9997C2.29565 21.9997 11.1435 21.9997 11.1435 21.9997V17.6149L15.5717 21.9997H23.4423L15.0325 13.7258H22Z" fill="#F0F0F0"/>
<path d="M22.0101 21.9998L13.7362 13.7259H11.1435V13.726L19.4173 21.9998H8.36954V10.9998H41.0561C39.8583 8.92929 38.3322 7.07269 36.5498 5.49978H8.36954V4.73279C6.14995 6.48737 4.27719 8.66056 2.86954 11.1333V21.9998H0C0 23.8989 0.240625 25.7419 0.693086 27.4998H43.3069C43.7594 25.7418 44 23.8989 44 21.9998H22.0101Z" fill="#D80027"/>
</svg>
