<svg width="44" height="44" viewBox="0 0 44 44" fill="none" xmlns="http://www.w3.org/2000/svg">
<path d="M22 44C34.1503 44 44 34.1503 44 22C44 9.84974 34.1503 0 22 0C9.84974 0 0 9.84974 0 22C0 34.1503 9.84974 44 22 44Z" fill="#FCFCFC"/>
<path d="M34.4349 19.1301C33.7653 19.1301 32.9363 19.1301 31.5653 19.1301C31.5653 24.4129 27.2827 28.6953 22.0002 28.6953C16.7173 28.6953 12.435 24.4129 12.435 19.1301C11.5103 19.1301 10.4899 19.1301 9.56543 19.1301C9.56543 24.8205 13.3876 29.6181 18.6049 31.0956C18.0329 32.1822 18.12 33.5503 18.9371 34.5699C20.0103 33.7098 21.1214 32.8194 22.0639 32.0641C23.0065 32.8194 24.1177 33.7098 25.1908 34.5699C26.0159 33.5401 26.0971 32.1547 25.5061 31.0629C30.6663 29.5491 34.4349 24.78 34.4349 19.1301Z" fill="#6DA544"/>
<path d="M14.3477 18.1736C14.3477 18.1736 14.3477 22.9561 19.1302 22.9561L20.0867 23.9126H21.9998C21.9998 23.9126 22.9563 21.0431 24.8693 21.0431C24.8693 21.0431 24.8693 19.13 26.7824 19.13C28.6954 19.13 29.6519 19.13 29.6519 19.13C29.6519 19.13 28.6954 15.3039 33.478 12.4344L31.565 11.4779C31.565 11.4779 24.8693 16.2605 20.0867 15.304V17.2171H18.1737L17.2172 16.2606L14.3477 18.1736Z" fill="#FFDA44"/>
</svg>
