<svg width="44" height="44" viewBox="0 0 44 44" fill="none" xmlns="http://www.w3.org/2000/svg">
<path d="M22 44C34.1503 44 44 34.1503 44 22C44 9.84974 34.1503 0 22 0C9.84974 0 0 9.84974 0 22C0 34.1503 9.84974 44 22 44Z" fill="#F0F0F0"/>
<path d="M35.3957 4.54636C27.5193 -1.51446 16.4808 -1.51446 8.60449 4.54628L22.0001 17.9419L35.3957 4.54636Z" fill="#D80027"/>
<path d="M21.9999 26.0586L8.60449 39.4541C16.4808 45.5149 27.5193 45.5149 35.3957 39.4541L22.0001 26.0585L21.9999 26.0586Z" fill="#D80027"/>
<path d="M17.9414 22L4.54587 8.60437C-1.51496 16.4807 -1.51496 27.5192 4.54587 35.3956L17.9414 22Z" fill="#6DA544"/>
<path d="M26.0576 22L39.453 35.3956C45.5139 27.5192 45.5139 16.4807 39.453 8.60437L26.0576 22Z" fill="#6DA544"/>
<path d="M21.9998 31.5653C27.2825 31.5653 31.565 27.2828 31.565 22.0001C31.565 16.7174 27.2825 12.4349 21.9998 12.4349C16.7171 12.4349 12.4346 16.7174 12.4346 22.0001C12.4346 27.2828 16.7171 31.5653 21.9998 31.5653Z" fill="#F0F0F0"/>
<path d="M21.9997 15.3044L22.828 16.7393H24.4848L23.6564 18.174L24.4848 19.6088H22.828L21.9997 21.0436L21.1713 19.6088H19.5146L20.343 18.174L19.5146 16.7393H21.1713L21.9997 15.3044Z" fill="#D80027"/>
<path d="M17.7893 22L18.6177 23.4348H20.2744L19.446 24.8695L20.2744 26.3044H18.6177L17.7893 27.7392L16.9609 26.3044H15.3042L16.1326 24.8695L15.3042 23.4348H16.9609L17.7893 22Z" fill="#D80027"/>
<path d="M26.2102 22L27.0386 23.4348H28.6953L27.8669 24.8695L28.6953 26.3044H27.0386L26.2102 27.7392L25.3818 26.3044H23.7251L24.5534 24.8695L23.7251 23.4348H25.3818L26.2102 22Z" fill="#D80027"/>
</svg>
