<svg width="44" height="44" viewBox="0 0 44 44" fill="none" xmlns="http://www.w3.org/2000/svg">
<path d="M22 44C34.1503 44 44 34.1503 44 22C44 9.84974 34.1503 0 22 0C9.84974 0 0 9.84974 0 22C0 34.1503 9.84974 44 22 44Z" fill="#D80027"/>
<path d="M12.0398 13.3884L13.9391 19.2322H20.0836L15.1164 22.8501L17.0156 28.6939L12.0398 25.0845L7.06406 28.6939L8.97188 22.8501L3.99609 19.2322H10.1406L12.0398 13.3884Z" fill="#FFDA44"/>
<path d="M26.0819 34.0739L24.6296 32.2864L22.4812 33.12L23.7272 31.1864L22.2749 29.3903L24.5007 29.9833L25.7554 28.0497L25.8757 30.3528L28.11 30.9458L25.953 31.7708L26.0819 34.0739Z" fill="#FFDA44"/>
<path d="M28.9694 28.8317L29.6569 26.6317L27.7749 25.2997L30.078 25.2653L30.7569 23.0653L31.5046 25.2481L33.8077 25.2223L31.9601 26.5973L32.6991 28.7802L30.8171 27.4481L28.9694 28.8317Z" fill="#FFDA44"/>
<path d="M32.8626 16.1476L31.8485 18.2187L33.4985 19.8257L31.2212 19.4991L30.2071 21.5616L29.8118 19.2929L27.5259 18.9663L29.5712 17.8921L29.1759 15.6147L30.8259 17.2218L32.8626 16.1476Z" fill="#FFDA44"/>
<path d="M26.142 9.8739L25.9701 12.1684L28.11 13.0364L25.867 13.5864L25.7037 15.8895L24.492 13.9302L22.249 14.4802L23.7357 12.7184L22.5154 10.7677L24.6553 11.6356L26.142 9.8739Z" fill="#FFDA44"/>
</svg>
