<svg width="44" height="44" viewBox="0 0 44 44" fill="none" xmlns="http://www.w3.org/2000/svg">
<g clip-path="url(#clip0)">
<path d="M20.0872 23.9131C20.0872 23.9131 6.45674 6.44059 6.44385 6.44368C10.425 2.46245 15.9251 0 22.0003 0C34.1504 0 44.0003 9.84981 44.0003 22L20.0872 23.9131Z" fill="#338AF3"/>
<path d="M20.0872 22C20.0872 22 6.45674 37.5594 6.44385 37.5563C10.425 41.5375 15.9251 44 22.0003 44C34.1504 44 44.0003 34.1502 44.0003 22H20.0872Z" fill="#6DA544"/>
<path d="M6.44364 6.44312C-2.14788 15.0346 -2.14788 28.9643 6.44364 37.5559C9.99397 34.0056 13.4085 30.591 22 21.9995L6.44364 6.44312Z" fill="#F0F0F0"/>
<path d="M8.90407 16.261L10.3285 20.6452H14.9387L11.2092 23.355L12.6335 27.7393L8.90407 25.0296L5.17447 27.7393L6.59914 23.355L2.86963 20.6452H7.47949L8.90407 16.261Z" fill="#D80027"/>
</g>
<defs>
<clipPath id="clip0">
<rect width="44" height="44" fill="white"/>
</clipPath>
</defs>
</svg>
