<svg width="44" height="44" viewBox="0 0 44 44" fill="none" xmlns="http://www.w3.org/2000/svg">
<path d="M22 44C34.1503 44 44 34.1503 44 22C44 9.84974 34.1503 0 22 0C9.84974 0 0 9.84974 0 22C0 34.1503 9.84974 44 22 44Z" fill="#F0F0F0"/>
<path d="M0 22.0001C0 9.84981 9.84981 0 22 0C34.1502 0 44 9.84981 44 22.0001" fill="#D80027"/>
<path d="M13.3911 11.4778C13.3911 8.27249 15.6438 5.59485 18.6519 4.93786C18.1896 4.83697 17.71 4.78223 17.2171 4.78223C13.5192 4.78223 10.5215 7.7799 10.5215 11.4779C10.5215 15.1759 13.5192 18.1735 17.2171 18.1735C17.7098 18.1735 18.1895 18.1188 18.6519 18.0178C15.6438 17.3608 13.3911 14.6832 13.3911 11.4778Z" fill="#F0F0F0"/>
<path d="M21.9997 5.26001L22.4746 6.72138H24.0113L22.768 7.62467L23.2429 9.08604L21.9997 8.18292L20.7566 9.08604L21.2315 7.62467L19.9883 6.72138H21.5248L21.9997 5.26001Z" fill="#F0F0F0"/>
<path d="M18.2719 8.12988L18.7467 9.59134H20.2833L19.0402 10.4945L19.5151 11.9559L18.2719 11.0528L17.0285 11.9559L17.5035 10.4945L16.2603 9.59134H17.7969L18.2719 8.12988Z" fill="#F0F0F0"/>
<path d="M25.7273 8.12988L26.2023 9.59134H27.7388L26.4956 10.4945L26.9705 11.9559L25.7273 11.0528L24.4841 11.9559L24.959 10.4945L23.7158 9.59134H25.2524L25.7273 8.12988Z" fill="#F0F0F0"/>
<path d="M24.2927 12.4343L24.7676 13.8958H26.3042L25.061 14.799L25.5359 16.2603L24.2927 15.3572L23.0495 16.2603L23.5244 14.799L22.2812 13.8958H23.8177L24.2927 12.4343Z" fill="#F0F0F0"/>
<path d="M19.7069 12.4343L20.1817 13.8958H21.7184L20.4751 14.799L20.9501 16.2603L19.7069 15.3572L18.4636 16.2603L18.9385 14.799L17.6953 13.8958H19.232L19.7069 12.4343Z" fill="#F0F0F0"/>
</svg>
