<svg width="44" height="44" viewBox="0 0 44 44" fill="none" xmlns="http://www.w3.org/2000/svg">
<g clip-path="url(#clip0)">
<path d="M2.6748 11.4782L21.9998 13.3913L41.3249 11.4782C37.5935 4.63968 30.3388 0 21.9998 0C13.6609 0 6.40613 4.63968 2.6748 11.4782Z" fill="#D80027"/>
<path d="M2.67498 32.5215L22 34.4345L41.325 32.5215C43.0304 29.3958 44 25.811 44 21.9997L22 20.0867L0 21.9997C0 25.811 0.969633 29.3958 2.67498 32.5215Z" fill="#FFDA44"/>
<path d="M2.67498 11.4778C0.969633 14.6034 0 18.1882 0 21.9995H44C44 18.1882 43.0304 14.6034 41.325 11.4778H22H2.67498Z" fill="#0052B4"/>
<path d="M21.9998 44.0005C30.3388 44.0005 37.5935 39.3608 41.3249 32.5222H2.6748C6.40613 39.3608 13.6609 44.0005 21.9998 44.0005Z" fill="#6DA544"/>
</g>
<defs>
<clipPath id="clip0">
<rect width="44" height="44" fill="white"/>
</clipPath>
</defs>
</svg>
