<svg width="44" height="44" viewBox="0 0 44 44" fill="none" xmlns="http://www.w3.org/2000/svg">
<g clip-path="url(#clip0)">
<path d="M0 21.9998C0 24.6909 0.484086 27.2686 1.36838 29.6519L22 30.6085L42.6316 29.652C43.516 27.2686 44 24.6909 44 21.9998C44 19.3088 43.516 16.731 42.6316 14.3477L22 13.3911L1.36838 14.3476C0.484086 16.731 0 19.3088 0 21.9998Z" fill="#D80027"/>
<path d="M22.0003 0C12.541 0 4.4771 5.97025 1.36865 14.3479H42.632C39.5234 5.97025 31.4595 0 22.0003 0Z" fill="black"/>
<path d="M42.6319 29.6521H1.36865C4.4771 38.0296 12.541 44 22.0003 44C31.4595 44 39.5234 38.0296 42.6319 29.6521Z" fill="#496E2D"/>
<path d="M28.5758 10.5213L25.8891 9.25753L27.3198 6.65543L24.4023 7.2136L24.0326 4.26611L22.0003 6.43389L19.9681 4.26611L19.5984 7.2136L16.6809 6.65543L18.1116 9.25753L15.4248 10.5213H28.5758Z" fill="#D80027"/>
</g>
<defs>
<clipPath id="clip0">
<rect width="44" height="44" fill="white"/>
</clipPath>
</defs>
</svg>
