<svg width="44" height="44" viewBox="0 0 44 44" fill="none" xmlns="http://www.w3.org/2000/svg">
<path d="M22 44C34.1503 44 44 34.1503 44 22C44 9.84974 34.1503 0 22 0C9.84974 0 0 9.84974 0 22C0 34.1503 9.84974 44 22 44Z" fill="#F0F0F0"/>
<path d="M9.60059 3.82611C13.1313 1.41247 17.4005 0 22.0002 0C26.6 0 30.8692 1.41247 34.3999 3.82611L22.0002 4.78259L9.60059 3.82611Z" fill="#FFDA44"/>
<path d="M6.4448 37.5558L16.589 27.4117L22 18.1744L27.4104 27.4111L37.5552 37.5558C41.5367 33.5748 44 28.0757 44 22.0006C44 14.45 40.1956 7.78864 34.3997 3.82666H9.60034C3.80437 7.78864 0 14.45 0 22.0006C0 28.0757 2.46331 33.5748 6.4448 37.5558Z" fill="#D80027"/>
<path d="M42.3291 30.4239L26.2441 23.7588L27.41 27.4098L37.5556 37.5554C39.5813 35.5299 41.2139 33.1115 42.3291 30.4239Z" fill="#0052B4"/>
<path d="M44 22.0006C44 19.0164 43.4052 16.1714 42.3287 13.5769L22 22.0006H44Z" fill="#0052B4"/>
<path d="M37.5552 6.44535C36.5882 5.47855 35.5321 4.60087 34.3997 3.82666H29.5309L22 22.0006L37.5552 6.44535Z" fill="#0052B4"/>
<path d="M22 3.82666H14.4692L22 22.0006V3.82666Z" fill="#0052B4"/>
<path d="M6.44479 6.44482C4.41907 8.47037 2.78651 10.8887 1.67139 13.5763L22 22L6.44479 6.44482Z" fill="#0052B4"/>
<path d="M0 22C0 24.9842 0.594773 27.8291 1.67131 30.4237L22 22H0Z" fill="#0052B4"/>
<path d="M9.60059 40.1736C13.1312 42.5872 17.4005 43.9997 22.0002 43.9997C26.6 43.9997 30.8692 42.5872 34.3999 40.1736H9.60059Z" fill="#FFDA44"/>
<path d="M22.0003 22L27.4112 27.4109C28.796 26.0261 29.6525 24.1132 29.6525 22C29.6525 17.7738 26.2265 14.3479 22.0004 14.3479C17.7742 14.3479 14.3481 17.7738 14.3481 22C14.3481 24.1131 15.2046 26.0261 16.5895 27.4109L22.0003 22Z" fill="#FFDA44"/>
<path d="M25.3481 33.0002C25.3481 34.8492 23.8491 35.3915 22.0002 35.3915C20.1514 35.3915 18.6523 34.8492 18.6523 33.0002C18.6523 31.1513 20.1514 29.6523 22.0002 29.6523C23.8491 29.6523 25.3481 31.1513 25.3481 33.0002Z" fill="#FFDA44"/>
<path d="M25.3481 33C25.3481 34.8489 23.8491 36.3479 22.0002 36.3479C20.1514 36.3479 18.6523 34.8489 18.6523 33" fill="#0052B4"/>
</svg>
