<svg width="44" height="44" viewBox="0 0 44 44" fill="none" xmlns="http://www.w3.org/2000/svg">
<g clip-path="url(#clip0)">
<path d="M22.0002 0C20.3576 0 18.7575 0.181586 17.2177 0.52293L16.2612 21.9999L17.2177 43.477C18.7576 43.8183 20.3577 44 22.0002 44C34.1505 44 44.0002 34.1502 44.0002 21.9999C44.0001 9.84973 34.1505 0 22.0002 0Z" fill="#496E2D"/>
<path d="M5.73908 7.18262C2.17405 11.0924 0 16.2925 0 22.0006C0 27.7088 2.17413 32.9089 5.73916 36.8188L6.69565 22.0006L5.73908 7.18262Z" fill="#496E2D"/>
<path d="M32.176 16.5937C33.2584 13.5767 32.0424 10.2956 29.4327 8.66138C29.9021 8.72248 30.372 8.83299 30.8357 8.99928C34.3165 10.2481 36.1258 14.082 34.877 17.5626C33.6281 21.0435 29.7943 22.8527 26.3135 21.6038C25.8497 21.4374 25.4167 21.2239 25.0156 20.9727C28.069 21.3703 31.0936 19.6106 32.176 16.5937Z" fill="#F0F0F0"/>
<path d="M26.1731 7.83447L25.2325 9.0498L23.7863 8.53082L24.6514 9.80081L23.7109 11.016L25.1861 10.5858L26.0513 11.8556L26.0977 10.3197L27.5729 9.88941L26.1266 9.3706L26.1731 7.83447Z" fill="#F0F0F0"/>
<path d="M28.7123 11.7952L27.7717 13.0104L26.3254 12.4914L27.1905 13.7614L26.25 14.9766L27.7251 14.5462L28.5903 15.8163L28.6369 14.2803L30.112 13.8499L28.6657 13.331L28.7123 11.7952Z" fill="#F0F0F0"/>
<path d="M21.6951 9.27734L20.7545 10.4925L19.3083 9.9737L20.1734 11.2436L19.2329 12.4588L20.7079 12.0285L21.5732 13.2984L21.6197 11.7626L23.0949 11.3323L21.6486 10.8133L21.6951 9.27734Z" fill="#F0F0F0"/>
<path d="M21.5922 13.8123L20.6517 15.0275L19.2053 14.5086L20.0706 15.7786L19.1299 16.9937L20.6052 16.5635L21.4703 17.8334L21.5168 16.2975L22.992 15.8672L21.5456 15.3482L21.5922 13.8123Z" fill="#F0F0F0"/>
<path d="M25.9091 15.3604L24.9685 16.5755L23.5222 16.0566L24.3874 17.3266L23.4468 18.5417L24.9221 18.1115L25.7872 19.3815L25.8337 17.8454L27.3089 17.4152L25.8625 16.8963L25.9091 15.3604Z" fill="#F0F0F0"/>
<path d="M5.73877 7.18093V36.8171C8.73627 40.1045 12.7178 42.4785 17.217 43.4759V0.521973C12.7177 1.51936 8.73636 3.89339 5.73877 7.18093Z" fill="#D80027"/>
<path d="M10.1199 11.584L8.19824 10.1524V8.12799L10.1199 6.69653H12.8377L14.7593 8.12799V10.1524L12.8377 11.584H10.1199Z" fill="#F0F0F0"/>
<path d="M11.4788 6.69653H10.1199L8.19824 8.12799V9.11774H11.4788V6.69653Z" fill="#FF9811"/>
<path d="M11.479 11.5836H12.8378L14.7595 10.1521V9.11938H11.479V11.5836Z" fill="#FF9811"/>
<path d="M10.1199 37.3042L8.19824 35.8726V33.8483L10.1199 32.4167H12.8377L14.7593 33.8483V35.8726L12.8377 37.3042H10.1199Z" fill="#F0F0F0"/>
<path d="M11.4788 32.4167H10.1199L8.19824 33.8483V34.838H11.4788V32.4167Z" fill="#FF9811"/>
<path d="M11.479 37.3047H12.8378L14.7595 35.8732V34.8406H11.479V37.3047Z" fill="#FF9811"/>
<path d="M10.1189 24.4441L8.19727 23.0125V20.9882L10.1189 19.5566H12.8367L14.7583 20.9882V23.0125L12.8367 24.4441H10.1189Z" fill="#496E2D"/>
<path d="M14.8259 27.593H13.9889V26.7561H12.5181L11.4781 25.7161L10.4381 26.7561H8.96732V27.593H8.13037V29.2669H8.96732V30.1039H10.4381L11.4782 31.144L12.5181 30.1039H13.9889V29.2669H14.8259V27.593Z" fill="#496E2D"/>
<path d="M14.8259 14.7328H13.9889V13.8957H12.5181L11.4781 12.8557L10.4381 13.8957H8.96732V14.7328H8.13037V16.4067H8.96732V17.2436H10.4381L11.4782 18.2838L12.5181 17.2436H13.9889V16.4067H14.8259V14.7328Z" fill="#496E2D"/>
<path d="M12.435 21.0442H10.522V22.9573H12.435V21.0442Z" fill="#D80027"/>
<path d="M11.4785 16.5258C12.0067 16.5258 12.4349 16.0975 12.4349 15.5693C12.4349 15.041 12.0067 14.6128 11.4785 14.6128C10.9502 14.6128 10.522 15.041 10.522 15.5693C10.522 16.0975 10.9502 16.5258 11.4785 16.5258Z" fill="#D80027"/>
<path d="M11.4785 29.3878C12.0067 29.3878 12.4349 28.9596 12.4349 28.4313C12.4349 27.9031 12.0067 27.4749 11.4785 27.4749C10.9502 27.4749 10.522 27.9031 10.522 28.4313C10.522 28.9596 10.9502 29.3878 11.4785 29.3878Z" fill="#D80027"/>
</g>
<defs>
<clipPath id="clip0">
<rect width="44" height="44" fill="white"/>
</clipPath>
</defs>
</svg>
