<svg width="44" height="44" viewBox="0 0 44 44" fill="none" xmlns="http://www.w3.org/2000/svg">
<g clip-path="url(#clip0)">
<path d="M22 44C34.1503 44 44 34.1503 44 22C44 9.84974 34.1503 0 22 0C9.84974 0 0 9.84974 0 22C0 34.1503 9.84974 44 22 44Z" fill="#F0F0F0"/>
<path d="M21.9999 0C12.9047 0 5.09915 5.51942 1.74854 13.3913H42.2513C38.9007 5.51942 31.0951 0 21.9999 0Z" fill="#A2001D"/>
<path d="M21.9999 44.0002C31.0951 44.0002 38.9007 38.4808 42.2512 30.6089H1.74854C5.09915 38.4808 12.9047 44.0002 21.9999 44.0002Z" fill="#496E2D"/>
<path d="M43.2421 16.261H0.757883C0.264688 18.0909 0 20.0144 0 22.0002C0 23.9859 0.264688 25.9095 0.757883 27.7393H43.2422C43.7353 25.9095 44 23.9859 44 22.0002C44 20.0144 43.7353 18.0909 43.2421 16.261Z" fill="#0052B4"/>
</g>
<defs>
<clipPath id="clip0">
<rect width="44" height="44" fill="white"/>
</clipPath>
</defs>
</svg>
