<svg width="44" height="44" viewBox="0 0 44 44" fill="none" xmlns="http://www.w3.org/2000/svg">
<g clip-path="url(#clip0)">
<path d="M22 44C34.1503 44 44 34.1503 44 22C44 9.84974 34.1503 0 22 0C9.84974 0 0 9.84974 0 22C0 34.1503 9.84974 44 22 44Z" fill="#F0F0F0"/>
<path d="M37.3949 6.28581C33.4269 2.398 27.9941 0 22.0002 0C20.0872 0 14.4898 2.398 10.522 6.28581H37.3949Z" fill="#6DA544"/>
<path d="M22.0004 18.8571H43.776C43.4585 16.6377 42.8103 14.5254 41.8821 12.5714H21.0439L22.0004 18.8571Z" fill="#6DA544"/>
<path d="M2.11859 31.4288H41.8817C42.81 29.4749 43.4582 27.3623 43.7757 25.143H0.224609C0.542148 27.3624 1.1902 29.4749 2.11859 31.4288Z" fill="#6DA544"/>
<path d="M6.60547 37.7142C10.5735 41.602 16.0063 44 22.0001 44C27.994 44 33.4268 41.602 37.3948 37.7142H6.60547Z" fill="#6DA544"/>
<path d="M22.0001 0C10.9171 0 1.74983 8.19595 0.224609 18.8572H22.0001V0Z" fill="#D80027"/>
<path d="M11.0004 16.8666L10.0439 14.9536V11.1275L12.4352 9.21448L14.8265 11.1275V13.9971L15.783 13.0406V14.9536L13.87 16.8666H11.0004Z" fill="#F0F0F0"/>
<path d="M5.85547 11L6.10873 11.7795H6.92823L6.26522 12.2613L6.51857 13.0407L5.85547 12.5589L5.19238 13.0407L5.44572 12.2613L4.78271 11.7795H5.60222L5.85547 11Z" fill="#F0F0F0"/>
<path d="M7.76856 9.08673L8.02182 9.86618H8.8414L8.17831 10.348L8.43157 11.1274L7.76856 10.6457L7.10555 11.1274L7.35889 10.348L6.6958 9.86618H7.51521L7.76856 9.08673Z" fill="#F0F0F0"/>
<path d="M9.68164 7.17389L9.9349 7.95334H10.7543L10.0914 8.43519L10.3446 9.21456L9.68164 8.73288L9.01855 9.21456L9.27181 8.43519L8.60889 7.95334H9.4283L9.68164 7.17389Z" fill="#F0F0F0"/>
<path d="M19.0141 11L18.7608 11.7795H17.9414L18.6043 12.2613L18.3511 13.0407L19.0141 12.5589L19.6772 13.0407L19.4239 12.2613L20.0868 11.7795H19.2674L19.0141 11Z" fill="#F0F0F0"/>
<path d="M17.1015 9.08673L16.8482 9.86618H16.0288L16.6917 10.348L16.4385 11.1274L17.1015 10.6457L17.7646 11.1274L17.5112 10.348L18.1742 9.86618H17.3548L17.1015 9.08673Z" fill="#F0F0F0"/>
<path d="M15.188 7.17389L14.9346 7.95334H14.1152L14.7782 8.43519L14.5249 9.21456L15.188 8.73288L15.851 9.21456L15.5977 8.43519L16.2607 7.95334H15.4413L15.188 7.17389Z" fill="#F0F0F0"/>
<path d="M12.4351 6.21729L12.1817 6.99674H11.3623L12.0252 7.4785L11.772 8.25787L12.4351 7.77619L13.0981 8.25787L12.8448 7.4785L13.5077 6.99674H12.6883L12.4351 6.21729Z" fill="#F0F0F0"/>
</g>
<defs>
<clipPath id="clip0">
<rect width="44" height="44" fill="white"/>
</clipPath>
</defs>
</svg>
