<svg width="44" height="44" viewBox="0 0 44 44" fill="none" xmlns="http://www.w3.org/2000/svg">
<path d="M22 44C34.1503 44 44 34.1503 44 22C44 9.84974 34.1503 0 22 0C9.84974 0 0 9.84974 0 22C0 34.1503 9.84974 44 22 44Z" fill="#FCFCFC"/>
<path d="M29.6602 18.6342C29.6602 13.9812 25.8882 10.2094 21.2353 10.2094C17.8018 10.2094 14.8501 12.2641 13.5376 15.2104L12.4986 18.9775L13.455 19.934L11.542 23.7601L13.455 24.7165L12.4986 25.673V26.6295L13.455 27.586V29.4991L14.4115 30.4555L17.2811 29.4991C17.2811 29.4991 17.2811 30.4555 18.2376 31.4121C19.194 32.3686 20.1507 34.2817 20.1507 34.2817C20.1507 34.2817 23.0202 35.2382 24.9333 32.3687C26.8463 29.4991 28.7594 28.5426 28.7594 28.5426L26.9155 24.8546C28.6018 23.3144 29.6602 21.0983 29.6602 18.6342Z" fill="black"/>
<path d="M30.3467 21.8559C34.2335 21.2003 34.881 13.5891 34.881 13.5891H29.5245C32.2984 20.2848 29.395 20.7352 29.395 20.7352C29.0017 20.4425 14.9253 13.7741 14.4791 13.6046C14.3716 13.7484 13.9758 14.1263 13.4948 15.3028C13.0136 16.4793 12.8955 17.5377 12.8955 17.5377C13.1208 17.6846 28.0699 22.9045 28.4651 22.948C29.2493 23.4607 30.2142 24.9939 29.6749 29.5398L34.8306 28.0868C34.8308 28.0868 33.081 23.4321 30.3467 21.8559Z" fill="#ACABB1"/>
</svg>
