<svg width="44" height="44" viewBox="0 0 44 44" fill="none" xmlns="http://www.w3.org/2000/svg">
<g clip-path="url(#clip0)">
<path d="M22 44C34.1503 44 44 34.1503 44 22C44 9.84974 34.1503 0 22 0C9.84974 0 0 9.84974 0 22C0 34.1503 9.84974 44 22 44Z" fill="#F0F0F0"/>
<path d="M22.0001 0C13.278 0 5.74161 5.0759 2.18311 12.4348H41.817C38.2586 5.0759 30.7222 0 22.0001 0Z" fill="#D80027"/>
<path d="M22.0001 44.0002C30.7222 44.0002 38.2586 38.9243 41.8171 31.5654H2.18311C5.74161 38.9243 13.278 44.0002 22.0001 44.0002Z" fill="#D80027"/>
<path d="M27.7396 25.8262L22.0004 15.3044L16.2612 25.8262H20.5656V28.6957H23.4352V25.8262H27.7396Z" fill="#6DA544"/>
</g>
<defs>
<clipPath id="clip0">
<rect width="44" height="44" fill="white"/>
</clipPath>
</defs>
</svg>
