<svg width="44" height="44" viewBox="0 0 44 44" fill="none" xmlns="http://www.w3.org/2000/svg">
<path d="M22 44C34.1503 44 44 34.1503 44 22C44 9.84974 34.1503 0 22 0C9.84974 0 0 9.84974 0 22C0 34.1503 9.84974 44 22 44Z" fill="#496E2D"/>
<path d="M30.6087 22H22V44C24.5716 44 27.0395 43.5573 29.3333 42.7465L30.6087 22Z" fill="#D80027"/>
<path d="M36.6664 38.3963C41.1668 34.368 43.9998 28.5152 43.9998 22H35.3911L36.6664 38.3963Z" fill="#FF9811"/>
<path d="M29.3335 22V42.7465C32.0661 41.7805 34.5508 40.2904 36.6669 38.3964V22H29.3335Z" fill="black"/>
<path d="M40.6521 14.3481H34.9129C34.9129 13.2915 34.0564 12.435 32.9999 12.435C31.9434 12.435 31.0868 13.2915 31.0868 14.3481H25.3477C25.3477 15.4047 26.268 16.2611 27.3244 16.2611H27.2607C27.2607 17.3177 28.1171 18.1742 29.1738 18.1742C29.1738 19.2308 30.0301 20.0872 31.0868 20.0872H34.9129C35.9694 20.0872 36.826 19.2308 36.826 18.1742C37.8825 18.1742 38.739 17.3177 38.739 16.2611H38.6754C39.7319 16.261 40.6521 15.4046 40.6521 14.3481Z" fill="#FF9811"/>
</svg>
