<svg width="44" height="44" viewBox="0 0 44 44" fill="none" xmlns="http://www.w3.org/2000/svg">
<path d="M22 44C34.1503 44 44 34.1503 44 22C44 9.84974 34.1503 0 22 0C9.84974 0 0 9.84974 0 22C0 34.1503 9.84974 44 22 44Z" fill="#F0F0F0"/>
<path d="M43.8106 19.1301C43.2037 14.4907 41.1197 10.0077 37.5554 6.44345C33.9912 2.87919 29.5081 0.795123 24.8687 0.188232L24.8687 19.1301H43.8106Z" fill="#0052B4"/>
<path d="M19.1299 0.188232C14.4905 0.795123 10.0074 2.87911 6.44312 6.44337C2.87895 10.0077 0.794879 14.4908 0.187988 19.1303L19.13 19.1302L19.1299 0.188232Z" fill="#0052B4"/>
<path d="M0.187988 24.8691C0.794879 29.5086 2.87895 33.9917 6.44312 37.5559C10.0074 41.1201 14.4904 43.2041 19.13 43.8112L19.1299 24.8693L0.187988 24.8691Z" fill="#0052B4"/>
<path d="M24.8691 43.811C29.5086 43.2041 33.9916 41.1201 37.5558 37.5558C41.1201 33.9916 43.2041 29.5086 43.811 24.8691H24.8691V43.811Z" fill="#0052B4"/>
<path d="M29.5106 13.9597C29.5106 13.6671 29.7484 13.4293 30.041 13.4293H31.1774C32.9739 13.4293 34.4354 11.9679 34.4354 10.1715C34.4354 8.37518 32.974 6.91364 31.1774 6.91364H30.0982C29.746 6.64903 29.2734 6.48584 28.7521 6.48584C27.6647 6.48584 26.7833 7.19096 26.7833 8.06082C26.7833 8.92225 27.6479 9.6211 28.7207 9.63468L28.7202 9.64095H31.1774C31.4701 9.64095 31.7078 9.87882 31.7078 10.1714C31.7078 10.4639 31.4701 10.7017 31.1774 10.7017H30.041C28.2446 10.7017 26.7832 12.1631 26.7832 13.9595C26.7832 15.7558 28.2445 17.2174 30.041 17.2174H34.4353V14.4899H30.041C29.7484 14.49 29.5106 14.2522 29.5106 13.9597Z" fill="#F0F0F0"/>
<path d="M12.2937 13.9597C12.2937 13.6671 12.5315 13.4293 12.8241 13.4293H13.9606C15.757 13.4293 17.2185 11.9679 17.2185 10.1715C17.2185 8.37518 15.7571 6.91364 13.9606 6.91364H12.8814C12.5291 6.64903 12.0565 6.48584 11.5352 6.48584C10.4479 6.48584 9.56641 7.19096 9.56641 8.06082C9.56641 8.92225 10.431 9.6211 11.5039 9.63468L11.5034 9.64095H13.9606C14.2533 9.64095 14.4911 9.87882 14.4911 10.1714C14.4911 10.4639 14.2533 10.7017 13.9606 10.7017H12.8242C11.0278 10.7017 9.56641 12.1631 9.56641 13.9595C9.56641 15.7558 11.0277 17.2174 12.8242 17.2174H17.2185V14.4899H12.8241C12.5315 14.49 12.2937 14.2522 12.2937 13.9597Z" fill="#F0F0F0"/>
<path d="M29.5102 34.2568C29.5102 33.9642 29.748 33.7265 30.0406 33.7265H31.177C32.9735 33.7265 34.435 32.265 34.435 30.4686C34.435 28.6723 32.9736 27.2108 31.177 27.2108H30.0978C29.7456 26.9462 29.273 26.783 28.7517 26.783C27.6643 26.783 26.7828 27.4882 26.7828 28.3579C26.7828 29.2194 27.6474 29.9182 28.7203 29.9318L28.7197 29.9381H31.177C31.4696 29.9381 31.7074 30.1759 31.7074 30.4685C31.7074 30.761 31.4696 30.9988 31.177 30.9988H30.0405C28.2441 30.9988 26.7827 32.4602 26.7827 34.2566C26.7827 36.053 28.244 37.5145 30.0405 37.5145H34.4349V34.7871H30.0406C29.748 34.7872 29.5102 34.5492 29.5102 34.2568Z" fill="#F0F0F0"/>
<path d="M12.2928 34.2568C12.2928 33.9642 12.5306 33.7265 12.8232 33.7265H13.9597C15.7561 33.7265 17.2176 32.265 17.2176 30.4686C17.2176 28.6723 15.7562 27.2108 13.9597 27.2108H12.8805C12.5282 26.9462 12.0556 26.783 11.5343 26.783C10.4469 26.783 9.56543 27.4882 9.56543 28.3579C9.56543 29.2194 10.43 29.9182 11.5029 29.9318L11.5024 29.9381H13.9597C14.2523 29.9381 14.4901 30.1759 14.4901 30.4685C14.4901 30.761 14.2523 30.9988 13.9597 30.9988H12.8232C11.0268 30.9988 9.56543 32.4602 9.56543 34.2566C9.56543 36.053 11.0267 37.5145 12.8232 37.5145H17.2176V34.7871H12.8232C12.5306 34.7872 12.2928 34.5492 12.2928 34.2568Z" fill="#F0F0F0"/>
</svg>
