<svg width="44" height="44" viewBox="0 0 44 44" fill="none" xmlns="http://www.w3.org/2000/svg">
<path d="M22 44C34.1503 44 44 34.1503 44 22C44 9.84974 34.1503 0 22 0C9.84974 0 0 9.84974 0 22C0 34.1503 9.84974 44 22 44Z" fill="#D80027"/>
<path d="M30.1456 14.7478L28.5907 20.2969L23.9251 19.4354L20.9219 13.2449L12.8088 16.1239L12.169 14.3209L10.0464 14.0594L11.6458 18.5667L17.229 17.1389L18.8157 21.6101L14.9561 27.3062L21.506 32.8927L20.2645 34.3482L21.0993 36.3174L24.2032 32.6784L20.175 28.5571L23.2539 24.9475L30.1167 25.442L31.6798 16.9763L33.561 17.3237L34.8492 15.6161L30.1456 14.7478Z" fill="#F0F0F0"/>
</svg>
