<svg width="44" height="44" viewBox="0 0 44 44" fill="none" xmlns="http://www.w3.org/2000/svg">
<path d="M22 44C34.1503 44 44 34.1503 44 22C44 9.84974 34.1503 0 22 0C9.84974 0 0 9.84974 0 22C0 34.1503 9.84974 44 22 44Z" fill="#F0F0F0"/>
<path d="M0 22C0 34.1502 9.84981 44 22 44C22 35.6336 22 22 22 22C22 22 7.65213 22 0 22Z" fill="#0052B4"/>
<path d="M22 0C34.1502 0 44 9.84981 44 22C35.6336 22 22 22 22 22C22 22 22 7.65213 22 0Z" fill="#D80027"/>
<path d="M13.0961 7.6521L14.5206 12.0365H19.1306L15.4011 14.7461L16.8256 19.1304L13.0961 16.4207L9.36654 19.1304L10.791 14.7461L7.06152 12.0365H11.6715L13.0961 7.6521Z" fill="#0052B4"/>
<path d="M30.9042 24.8699L32.3287 29.2542H36.9387L33.2091 31.9638L34.6337 36.3482L30.9042 33.6385L27.1746 36.3482L28.5991 31.9638L24.8696 29.2542H29.4796L30.9042 24.8699Z" fill="#D80027"/>
</svg>
