<svg width="44" height="44" viewBox="0 0 44 44" fill="none" xmlns="http://www.w3.org/2000/svg">
<g clip-path="url(#clip0)">
<path d="M0 21.9997C0 25.811 0.969633 29.3958 2.67498 32.5215L22 34.4345L41.325 32.5215C43.0304 29.3958 44 25.811 44 21.9997L22 20.0867L0 21.9997Z" fill="#FFDA44"/>
<path d="M41.325 11.4782C37.5937 4.63968 30.3389 0 22 0C13.6611 0 6.4063 4.63968 2.67498 11.4782C0.969633 14.6039 0 18.1887 0 22H44C44 18.1887 43.0304 14.6039 41.325 11.4782Z" fill="#338AF3"/>
<path d="M21.9998 44.0005C30.3388 44.0005 37.5935 39.3608 41.3249 32.5222H2.6748C6.40613 39.3608 13.6609 44.0005 21.9998 44.0005Z" fill="#496E2D"/>
<path d="M24.8701 12.8752L27.557 14.139L26.1263 16.7412L29.0438 16.1832L29.4135 19.1304L31.4456 16.9627L33.4779 19.1304L33.8475 16.1832L36.7651 16.7411L35.3344 14.139L38.0211 12.8752L35.3343 11.6115L36.7651 9.00927L33.8476 9.56734L33.4778 6.62012L31.4456 8.7878L29.4135 6.62012L29.0438 9.56734L26.1262 9.00927L27.557 11.6115L24.8701 12.8752Z" fill="#FFDA44"/>
</g>
<defs>
<clipPath id="clip0">
<rect width="44" height="44" fill="white"/>
</clipPath>
</defs>
</svg>
