<svg width="44" height="44" viewBox="0 0 44 44" fill="none" xmlns="http://www.w3.org/2000/svg">
<g clip-path="url(#clip0)">
<path d="M22 44C34.1503 44 44 34.1503 44 22C44 9.84974 34.1503 0 22 0C9.84974 0 0 9.84974 0 22C0 34.1503 9.84974 44 22 44Z" fill="#0052B4"/>
<path d="M22 44C34.1503 44 44 34.1503 44 22C44 9.84974 34.1503 0 22 0C9.84974 0 0 9.84974 0 22C0 34.1503 9.84974 44 22 44Z" fill="#FFDA44"/>
<path d="M21.9997 0C10.4941 0 1.05313 8.83274 0.0834961 20.0869H43.916C42.9463 8.83274 33.5054 0 21.9997 0Z" fill="#0052B4"/>
<path d="M21.9997 44.0003C33.5054 44.0003 42.9463 35.1675 43.916 23.9133H0.0834961C1.05313 35.1675 10.4941 44.0003 21.9997 44.0003Z" fill="#0052B4"/>
<path d="M18.1741 29.6524L15.7089 30.812L17.0216 33.1995L14.3448 32.6874L14.0056 35.3916L12.141 33.4027L10.2765 35.3916L9.93729 32.6874L7.26033 33.1994L8.57311 30.812L6.10791 29.6524L8.5732 28.4929L7.26033 26.1055L9.9372 26.6175L10.2766 23.9133L12.141 25.9022L14.0057 23.9133L14.3448 26.6175L17.0217 26.1055L15.709 28.4929L18.1741 29.6524Z" fill="#F0F0F0"/>
</g>
<defs>
<clipPath id="clip0">
<rect width="44" height="44" fill="white"/>
</clipPath>
</defs>
</svg>
