<svg width="44" height="44" viewBox="0 0 44 44" fill="none" xmlns="http://www.w3.org/2000/svg">
<path d="M22 44C34.1503 44 44 34.1503 44 22C44 9.84974 34.1503 0 22 0C9.84974 0 0 9.84974 0 22C0 34.1503 9.84974 44 22 44Z" fill="#F0F0F0"/>
<path d="M21.9999 44.0001C28.6678 44.0001 34.6425 41.0331 38.677 36.3479H5.32275C9.35726 41.0331 15.3319 44.0001 21.9999 44.0001Z" fill="#0052B4"/>
<path d="M44 22C44 9.84981 34.1502 0 22 0C9.84981 0 0 9.84981 0 22C0 23.9858 0.264688 25.9092 0.757883 27.7392H43.2422C43.7353 25.9092 44 23.9858 44 22Z" fill="#0052B4"/>
<path d="M1.74854 30.6089C2.17264 31.6054 2.66841 32.5638 3.22898 33.4784H40.771C41.3313 32.5637 41.8271 31.6053 42.2514 30.6089H1.74854Z" fill="#D80027"/>
<path d="M15.7253 23.4351L16.0815 24.5311H17.234L16.3016 25.2085L16.6578 26.3046L15.7253 25.6272L14.7929 26.3046L15.1491 25.2085L14.2168 24.5311H15.3693L15.7253 23.4351Z" fill="#FFDA44"/>
<path d="M15.7253 37.7832L16.0815 38.8793H17.234L16.3016 39.5567L16.6578 40.6527L15.7253 39.9754L14.7929 40.6527L15.1491 39.5567L14.2168 38.8793H15.3693L15.7253 37.7832Z" fill="#FFDA44"/>
<path d="M9.04663 32.9308L9.40276 34.0267H10.5553L9.62293 34.7041L9.97905 35.8003L9.04663 35.1229L8.11421 35.8003L8.47051 34.7041L7.53809 34.0267H8.69051L9.04663 32.9308Z" fill="#FFDA44"/>
<path d="M11.5975 24.8699L11.9536 25.966H13.106L12.1738 26.6434L12.5299 27.7395L11.5975 27.0621L10.6651 27.7395L11.0214 26.6434L10.0889 25.966H11.2414L11.5975 24.8699Z" fill="#FFDA44"/>
<path d="M7.53809 29.3832L8.69034 29.3833L9.04655 28.287L9.40276 29.3832L10.5553 29.3831L9.62284 30.0606L9.97905 31.1567L9.04655 30.4793L8.11421 31.1564L8.47034 30.0605L7.53809 29.3832Z" fill="#FFDA44"/>
<path d="M10.6653 39.0085L11.0214 37.9127L10.0889 37.2353H11.2414L11.5976 36.1392L11.9538 37.2352H13.1062L12.1738 37.9126L12.5299 39.0088L11.5975 38.3313L10.6653 39.0085Z" fill="#FFDA44"/>
<path d="M22.4016 32.9308L22.0456 34.0267H20.8931L21.8253 34.7041L21.4692 35.8003L22.4016 35.1229L23.334 35.8003L22.9778 34.7041L23.9102 34.0267H22.7577L22.4016 32.9308Z" fill="#FFDA44"/>
<path d="M19.8508 24.8699L19.4948 25.966H18.3423L19.2745 26.6434L18.9184 27.7395L19.8508 27.0621L20.7833 27.7395L20.427 26.6434L21.3595 25.966H20.207L19.8508 24.8699Z" fill="#FFDA44"/>
<path d="M23.9102 29.3832L22.7579 29.3833L22.4017 28.287L22.0456 29.3832L20.8931 29.3831L21.8254 30.0606L21.4692 31.1567L22.4017 30.4793L23.334 31.1564L22.9779 30.0605L23.9102 29.3832Z" fill="#FFDA44"/>
<path d="M20.7833 39.0085L20.4272 37.9127L21.3596 37.2353H20.2071L19.8509 36.1392L19.4948 37.2352H18.3423L19.2747 37.9126L18.9186 39.0088L19.851 38.3313L20.7833 39.0085Z" fill="#FFDA44"/>
</svg>
