<svg width="44" height="44" viewBox="0 0 44 44" fill="none" xmlns="http://www.w3.org/2000/svg">
<g clip-path="url(#clip0)">
<path d="M22 44C34.1503 44 44 34.1503 44 22C44 9.84974 34.1503 0 22 0C9.84974 0 0 9.84974 0 22C0 34.1503 9.84974 44 22 44Z" fill="#F0F0F0"/>
<path d="M22.0003 0C12.541 0 4.4771 5.97025 1.36865 14.3479H42.632C39.5234 5.97025 31.4595 0 22.0003 0Z" fill="#A2001D"/>
<path d="M22.0003 44C31.4595 44 39.5234 38.0297 42.6319 29.6521H1.36865C4.4771 38.0297 12.541 44 22.0003 44Z" fill="black"/>
<path d="M16.7394 20.5653C16.7273 20.5653 16.7156 20.5661 16.7035 20.5663V20.5653H12.498C12.7112 19.7415 13.4587 19.1305 14.3481 19.1305V16.261C11.7109 16.261 9.56548 18.4065 9.56548 21.0436V23.3871V23.435H16.7035C16.7197 23.435 16.7324 23.435 16.7394 23.435C17.0031 23.435 17.2176 23.6496 17.2176 23.9132V24.8697H7.65234V27.7392H20.0872V23.9131C20.0872 22.0672 18.5853 20.5653 16.7394 20.5653Z" fill="#496E2D"/>
<path d="M23.913 24.8697V16.261H21.0435V27.7393H25.8261V24.8697H23.913Z" fill="#496E2D"/>
<path d="M33.4784 24.8698V16.261H30.6088V24.8698H29.6523V22.0002H26.7827V27.7394H35.3914V24.8698H33.4784Z" fill="#496E2D"/>
</g>
<defs>
<clipPath id="clip0">
<rect width="44" height="44" fill="white"/>
</clipPath>
</defs>
</svg>
