<svg width="44" height="44" viewBox="0 0 44 44" fill="none" xmlns="http://www.w3.org/2000/svg">
<g clip-path="url(#clip0)">
<path d="M22 44C34.1503 44 44 34.1503 44 22C44 9.84974 34.1503 0 22 0C9.84974 0 0 9.84974 0 22C0 34.1503 9.84974 44 22 44Z" fill="#F9F9F9"/>
<path d="M22.0004 44.0001C31.4595 44.0001 39.5235 38.0298 42.6319 29.6522H1.36865C4.47718 38.0298 12.541 44.0001 22.0004 44.0001Z" fill="#D80027"/>
<path d="M30.6095 18.1742V15.3047H31.5659V13.3916H29.6529V14.3482H27.7399V13.3916H25.8269V15.3047H26.7834V18.1742H24.8703V11.4788H25.8269V9.5658H23.9138V10.5221H22.9572V9.5658H21.0443V10.5221H20.0877V9.5658H18.1747V11.4788H19.1312V18.1742H17.2182V15.3047H18.1747V13.3916H16.2616V14.3482H14.3486V13.3916H12.4356V15.3047H13.3921V18.1742H11.479V25.8265H32.5225V18.1742H30.6095Z" fill="#D80027"/>
<path d="M22.0003 24.8699C20.4156 24.8699 19.1308 26.1546 19.1308 27.7394C19.1308 28.9886 19.9295 30.0511 21.0439 30.4451V34.4351H18.1743V38.2613H22.9569V30.4452C24.0713 30.0512 24.87 28.9888 24.87 27.7395C24.8699 26.1547 23.5851 24.8699 22.0003 24.8699ZM22.0003 28.696C21.4721 28.696 21.0439 28.2677 21.0439 27.7395C21.0439 27.2112 21.4721 26.783 22.0003 26.783C22.5286 26.783 22.9568 27.2112 22.9568 27.7395C22.9568 28.2677 22.5286 28.696 22.0003 28.696Z" fill="#FFDA44"/>
</g>
<defs>
<clipPath id="clip0">
<rect width="44" height="44" fill="white"/>
</clipPath>
</defs>
</svg>
