<svg width="44" height="44" viewBox="0 0 44 44" fill="none" xmlns="http://www.w3.org/2000/svg">
<path d="M22 44C34.1503 44 44 34.1503 44 22C44 9.84974 34.1503 0 22 0C9.84974 0 0 9.84974 0 22C0 34.1503 9.84974 44 22 44Z" fill="#F0F0F0"/>
<path d="M22 16.2611H43.2421C42.6905 14.2146 41.8521 12.2861 40.771 10.522H22V16.2611Z" fill="#338AF3"/>
<path d="M8.30525 39.2179H35.6946C37.7024 37.6188 39.4242 35.6764 40.7709 33.4788H3.229C4.57573 35.6764 6.29757 37.6188 8.30525 39.2179Z" fill="#338AF3"/>
<path d="M22 0C22 1.91305 22 4.78259 22 4.78259H35.6947C31.9367 1.78956 27.1776 0 22 0Z" fill="#338AF3"/>
<path d="M22 16.2611H43.2421C42.6905 14.2146 41.8521 12.2861 40.771 10.522H22V16.2611Z" fill="#338AF3"/>
<path d="M0 22C0 23.9858 0.264688 25.9092 0.757883 27.7392H43.2422C43.7353 25.9092 44 23.9858 44 22H0Z" fill="#338AF3"/>
<path d="M19.1305 12.8752L16.4436 14.139L17.8744 16.7412L14.9568 16.1832L14.5871 19.1304L12.555 16.9627L10.5227 19.1304L10.1531 16.1832L7.23555 16.7411L8.66624 14.139L5.97949 12.8752L8.66633 11.6115L7.23555 9.00927L10.153 9.56734L10.5228 6.62012L12.555 8.7878L14.5872 6.62012L14.9568 9.56734L17.8744 9.00927L16.4437 11.6115L19.1305 12.8752Z" fill="#FFDA44"/>
</svg>
