<svg width="44" height="44" viewBox="0 0 44 44" fill="none" xmlns="http://www.w3.org/2000/svg">
<path d="M44 22C44 34.1502 34.1502 44 22 44C9.84981 44 0 34.1502 0 22C0 9.84981 22 0 22 0C22 0 44 9.84981 44 22Z" fill="#A2001D"/>
<path d="M0 22C0 9.84981 9.84981 0 22 0C34.1502 0 44 9.84981 44 22" fill="#0052B4"/>
<path d="M29.6519 27.7393L21.9998 26.7828L14.3477 27.7393V16.261H29.6519V27.7393Z" fill="#F0F0F0"/>
<path d="M22.0004 26.7822C24.1135 26.7822 25.8265 25.0692 25.8265 22.9561C25.8265 20.843 24.1135 19.13 22.0004 19.13C19.8873 19.13 18.1743 20.843 18.1743 22.9561C18.1743 25.0692 19.8873 26.7822 22.0004 26.7822Z" fill="#0052B4"/>
<path d="M22 24.8695C23.0565 24.8695 23.913 24.013 23.913 22.9564C23.913 21.8998 23.0565 21.0433 22 21.0433C20.9434 21.0433 20.0869 21.8998 20.0869 22.9564C20.0869 24.013 20.9434 24.8695 22 24.8695Z" fill="#A2001D"/>
<path d="M19.1299 18.1743H24.869L21.9994 21.0439L19.1299 18.1743Z" fill="#6DA544"/>
<path d="M22.9565 20.0867H21.0435V25.8258H22.9565V20.0867Z" fill="#FFDA44"/>
<path d="M25.0606 25.2523H18.9388L14.3477 27.7394H29.6519L25.0606 25.2523Z" fill="#6DA544"/>
</svg>
