<svg width="44" height="44" viewBox="0 0 44 44" fill="none" xmlns="http://www.w3.org/2000/svg">
<g clip-path="url(#clip0)">
<path d="M22 44C34.1503 44 44 34.1503 44 22C44 9.84974 34.1503 0 22 0C9.84974 0 0 9.84974 0 22C0 34.1503 9.84974 44 22 44Z" fill="#F0F0F0"/>
<path d="M13.3913 14.3479H42.6315C39.5231 5.97025 31.4591 0 22 0C15.9247 0 10.4253 2.46288 6.44434 6.44437L13.3913 14.3479Z" fill="#6DA544"/>
<path d="M13.3913 29.6521H42.6315C39.5231 38.0297 31.4591 44 22 44C15.9247 44 10.4253 41.5371 6.44434 37.5556L13.3913 29.6521Z" fill="#D80027"/>
<path d="M6.44413 6.44312C-2.14739 15.0346 -2.14739 28.9643 6.44413 37.5559C9.99446 34.0056 13.409 30.591 22.0005 21.9995L6.44413 6.44312Z" fill="#0052B4"/>
<path d="M25.8257 18.1743V22.9569C25.8257 25.8857 29.6518 26.7831 29.6518 26.7831C29.6518 26.7831 33.4779 25.8857 33.4779 22.9569V18.1743H25.8257Z" fill="#DEDDE0"/>
<path d="M30.6089 22.0955H28.6958V24.8693H30.6089V22.0955Z" fill="#786145"/>
<path d="M31.5648 21.0432C31.5648 19.9866 30.7084 19.1301 29.6518 19.1301C28.5952 19.1301 27.7387 19.9866 27.7387 21.0432C27.2105 21.0432 26.7822 21.4714 26.7822 21.9997C26.7822 22.5279 27.2105 22.9562 27.7387 22.9562C28.0524 22.9562 31.2511 22.9562 31.5648 22.9562C32.0931 22.9562 32.5213 22.5279 32.5213 21.9997C32.5213 21.4714 32.0932 21.0432 31.5648 21.0432Z" fill="#6DA544"/>
</g>
<defs>
<clipPath id="clip0">
<rect width="44" height="44" fill="white"/>
</clipPath>
</defs>
</svg>
