<svg width="44" height="44" viewBox="0 0 44 44" fill="none" xmlns="http://www.w3.org/2000/svg">
<g clip-path="url(#clip0)">
<path d="M0 21.9998C0 24.691 0.484086 27.2688 1.36847 29.6522L22 31.565L42.6315 29.6521C43.516 27.2688 44 24.6909 44 21.9998C44 19.3456 43.5298 16.8012 42.6685 14.4454L22 12.4346L1.33152 14.4455C0.470164 16.8012 0 19.3456 0 21.9998Z" fill="#FFDA44"/>
<path d="M22.0003 44C31.4595 44 39.5234 38.0297 42.6319 29.6521H1.36865C4.4771 38.0297 12.541 44 22.0003 44Z" fill="#D80027"/>
<path d="M22.0003 0C12.541 0 4.4771 5.97025 1.36865 14.3479H42.632C39.5234 5.97025 31.4595 0 22.0003 0Z" fill="#6DA544"/>
<path d="M22.0003 32.5214C27.8113 32.5214 32.522 27.8107 32.522 21.9997C32.522 16.1887 27.8113 11.4779 22.0003 11.4779C16.1893 11.4779 11.4785 16.1887 11.4785 21.9997C11.4785 27.8107 16.1893 32.5214 22.0003 32.5214Z" fill="#0052B4"/>
<path d="M21.9975 13.8519L23.8969 19.6976H30.0532L25.0707 23.3105L26.9851 29.1735L21.9975 25.5434L17.0176 29.1668L18.9242 23.3105L13.9463 19.6976H20.0981L21.9975 13.8519Z" fill="#FFDA44"/>
<path d="M29.5731 23.455L23.5475 21.497L27.2714 16.3716L25.7238 15.2471L21.9997 20.3727L18.276 15.2472L16.7282 16.3716L20.4521 21.4973L14.4268 23.4549L15.0178 25.2744L21.0434 23.3167V29.6522H22.9564V23.3166L28.9817 25.2744L29.5731 23.455Z" fill="#FFDA44"/>
</g>
<defs>
<clipPath id="clip0">
<rect width="44" height="44" fill="white"/>
</clipPath>
</defs>
</svg>
