<svg width="44" height="44" viewBox="0 0 44 44" fill="none" xmlns="http://www.w3.org/2000/svg">
<path d="M0 22C0 31.4592 5.97025 39.5231 14.3477 42.6316L16.2608 21.9999L14.3477 1.36841C5.97025 4.47694 0 12.5408 0 22Z" fill="#6DA544"/>
<path d="M44 22C44 9.84981 34.1501 0 22 0C19.3089 0 16.731 0.484086 14.3477 1.36838V42.6316C16.731 43.516 19.3089 44 22 44C34.1501 44 44 34.1502 44 22Z" fill="#D80027"/>
<path d="M14.3479 29.6522C18.5741 29.6522 22.0001 26.2262 22.0001 22C22.0001 17.7739 18.5741 14.3479 14.3479 14.3479C10.1218 14.3479 6.6958 17.7739 6.6958 22C6.6958 26.2262 10.1218 29.6522 14.3479 29.6522Z" fill="#FFDA44"/>
<path d="M10.0435 18.1743V22.9569C10.0435 25.3341 11.9705 27.2613 14.3478 27.2613C16.7251 27.2613 18.6522 25.3342 18.6522 22.9569V18.1743H10.0435Z" fill="#D80027"/>
<path d="M14.3479 24.3912C13.5568 24.3912 12.9131 23.7476 12.9131 22.9564V21.0435H15.7826V22.9565C15.7826 23.7476 15.139 24.3912 14.3479 24.3912Z" fill="#F0F0F0"/>
</svg>
