<svg width="44" height="44" viewBox="0 0 44 44" fill="none" xmlns="http://www.w3.org/2000/svg">
<path d="M22 44C34.1503 44 44 34.1503 44 22C44 9.84974 34.1503 0 22 0C9.84974 0 0 9.84974 0 22C0 34.1503 9.84974 44 22 44Z" fill="#F0F0F0"/>
<path d="M39.4539 35.3951L26.0583 21.9997H26.0583L39.4539 8.60404C38.8761 7.85329 38.2441 7.13098 37.5565 6.44323C36.8688 5.75555 36.1466 5.12348 35.3957 4.5459L22.0002 17.9414L22.0001 17.9415L8.60461 4.5459C7.85395 5.12357 7.13156 5.75547 6.4438 6.44323C5.75604 7.13098 5.12406 7.85329 4.54647 8.60404L17.942 21.9995L17.9421 21.9995L4.54639 35.3952C5.12414 36.146 5.75613 36.8683 6.44372 37.556C7.13147 38.2437 7.85369 38.8758 8.60453 39.4534L22.0001 26.0579L22.0002 26.0578L35.3957 39.4533C36.1464 38.8756 36.8688 38.2436 37.5565 37.556C38.2443 36.8682 38.8762 36.1459 39.4539 35.3951Z" fill="#D80027"/>
<path d="M18.1738 6.69592L21.9999 7.65241L25.826 6.69592V3.44379L24.2956 4.20898L21.9999 1.91333L19.7043 4.20898L18.1738 3.44379V6.69592Z" fill="#FFDA44"/>
<path d="M18.1738 6.69556V9.08702C18.1738 12.0158 21.9999 12.9131 21.9999 12.9131C21.9999 12.9131 25.826 12.0157 25.826 9.08702V6.69556H18.1738Z" fill="#D80027"/>
</svg>
