<svg width="44" height="44" viewBox="0 0 44 44" fill="none" xmlns="http://www.w3.org/2000/svg">
<path d="M44 22C44 34.1502 34.1502 44 22 44C9.84981 44 0 34.1502 0 22C0 22.0052 22 0.00240625 22 0C34.1502 0 44 9.84981 44 22Z" fill="#338AF3"/>
<path d="M21.9998 10.5221V17.9422L14.3477 10.5221H21.9998Z" fill="#0052B4"/>
<path d="M11.4785 22.0007H17.942L11.4785 13.392L10.522 20.0876L11.4785 22.0007Z" fill="#0052B4"/>
<path d="M21.9409 21.9997H21.9998C21.9998 21.9799 21.9998 21.9606 21.9998 21.9408C21.9802 21.9605 21.9606 21.9801 21.9409 21.9997Z" fill="#F0F0F0"/>
<path d="M22 11.4782C22 7.60719 22 5.07074 22 0H21.9963C9.84775 0.0020625 0 9.85093 0 22H11.4782V15.5366L17.9418 22H21.9413C21.9609 21.9804 21.9805 21.9608 22.0002 21.9411C22.0002 20.459 22.0002 19.1365 22.0002 17.9419L15.5365 11.4782H22Z" fill="#F0F0F0"/>
<path d="M11.1308 2.86987C7.68992 4.82916 4.82941 7.68968 2.87012 11.1305V22.0003H8.60928V8.60921V8.60904H22.0006C22.0006 6.79894 22.0006 5.07451 22.0006 2.86987H11.1308Z" fill="#D80027"/>
<path d="M22.0007 19.2952L14.1844 11.4789H11.479V11.4791L22.0005 22.0006H22.0007C22.0007 22.0006 22.0007 20.1351 22.0007 19.2952Z" fill="#D80027"/>
<path d="M24.8701 14.3476V21.9997C24.8701 27.125 31.5658 28.6954 31.5658 28.6954C31.5658 28.6954 38.2614 27.125 38.2614 21.9997V14.3476L31.5658 12.4346L24.8701 14.3476Z" fill="#F3F3F3"/>
<path d="M38.2614 14.3474V11.4779H24.8701V14.3474H30.6091V20.0867H24.8701V21.9996C24.8701 21.9997 24.8701 21.9997 24.8701 21.9997L30.6091 21.9998V28.4019C31.1864 28.6061 31.5658 28.6953 31.5658 28.6953C31.5658 28.6953 31.9449 28.6063 32.5222 28.4019V21.9997H38.2614V21.9996V20.0866H32.5222V14.3474H38.2614V14.3474Z" fill="#D80027"/>
</svg>
