<svg width="44" height="44" viewBox="0 0 44 44" fill="none" xmlns="http://www.w3.org/2000/svg">
<g clip-path="url(#clip0)">
<path d="M6.44315 37.5565C-2.14837 28.965 -2.14837 15.0354 6.44315 6.44379C15.0347 -2.14781 28.9644 -2.14772 37.556 6.44379C37.556 6.4468 43.397 26.2143 34.8054 34.806C26.2139 43.3976 6.44916 37.5625 6.44315 37.5565Z" fill="#FFDA44"/>
<path d="M6.44385 37.5565C15.0354 46.148 28.9651 46.148 37.5567 37.5565C46.1483 28.9649 46.1482 15.0353 37.5567 6.44373L6.44385 37.5565Z" fill="#FF9811"/>
<path d="M34.4449 12.4349V8.60876H27.1113L26.551 9.16899C24.5582 11.1618 24.8934 13.4866 25.1382 15.184C25.3652 16.7586 25.3924 17.3618 24.8068 17.9475C24.2212 18.533 23.6179 18.5058 22.0434 18.2787C20.346 18.034 18.0213 17.6988 16.0285 19.6915C14.0358 21.6842 14.3712 24.0089 14.6161 25.7062C14.8432 27.2807 14.8706 27.8839 14.2851 28.4692C13.6997 29.0545 13.0963 29.0273 11.5222 28.8001C10.9084 28.7115 10.2738 28.6201 9.59622 28.6125L9.5542 32.4385C9.97821 32.4432 10.4628 32.513 10.9759 32.587C11.5833 32.6748 12.2708 32.774 12.9949 32.774C13.7453 32.774 14.5347 32.667 15.3143 32.3303V35.3915H21.0535V32.522H18.184V30.6089H20.097V27.7394H18.568C18.6405 26.8111 18.513 25.9222 18.403 25.1601C18.1759 23.5856 18.1486 22.9824 18.734 22.3972C19.3195 21.8116 19.9226 21.8388 21.4974 22.0658C22.7343 22.2441 24.3042 22.4695 25.8362 21.8081V24.8698H31.5753V22.0002H28.7058V20.0872H30.6189V17.2176H29.0899C29.1626 16.2893 29.0351 15.4004 28.9251 14.6381C28.7666 13.538 28.7054 12.912 28.8827 12.435H34.4449V12.4349Z" fill="#F0F0F0"/>
</g>
<defs>
<clipPath id="clip0">
<rect width="44" height="44" fill="white"/>
</clipPath>
</defs>
</svg>
