<svg width="44" height="44" viewBox="0 0 44 44" fill="none" xmlns="http://www.w3.org/2000/svg">
<path d="M22 44C34.1503 44 44 34.1503 44 22C44 9.84974 34.1503 0 22 0C9.84974 0 0 9.84974 0 22C0 34.1503 9.84974 44 22 44Z" fill="#D80027"/>
<path d="M22.0003 32.5223C27.8113 32.5223 32.522 27.8115 32.522 22.0005C32.522 16.1895 27.8113 11.4788 22.0003 11.4788C16.1893 11.4788 11.4785 16.1895 11.4785 22.0005C11.4785 27.8115 16.1893 32.5223 22.0003 32.5223Z" fill="#F0F0F0"/>
<path d="M23.2959 17.9773L25.101 20.4648L28.0243 19.5169L26.2164 22.0022L28.0213 24.4896L25.0989 23.5381L23.291 26.0234L23.2929 22.9502L20.3706 21.9987L23.294 21.0508L23.2959 17.9773Z" fill="#D80027"/>
<path d="M24.3911 28.2183C20.9574 28.2183 18.1737 25.4346 18.1737 22.0009C18.1737 18.5671 20.9574 15.7834 24.3911 15.7834C25.4617 15.7834 26.4691 16.0541 27.3486 16.5308C25.9689 15.1815 24.0821 14.3486 21.9998 14.3486C17.7737 14.3486 14.3477 17.7746 14.3477 22.0008C14.3477 26.2269 17.7737 29.6529 21.9998 29.6529C24.0821 29.6529 25.969 28.8201 27.3486 27.4708C26.4691 27.9476 25.4617 28.2183 24.3911 28.2183Z" fill="#D80027"/>
</svg>
