<svg width="44" height="44" viewBox="0 0 44 44" fill="none" xmlns="http://www.w3.org/2000/svg">
<path d="M22 44C34.1503 44 44 34.1503 44 22C44 9.84974 34.1503 0 22 0C9.84974 0 0 9.84974 0 22C0 34.1503 9.84974 44 22 44Z" fill="#F0F0F0"/>
<path d="M0.757812 27.739C2.7892 35.276 8.72379 41.2107 16.2608 43.2421V27.739H0.757812Z" fill="#D80027"/>
<path d="M16.2608 0.757568C8.72379 2.78887 2.78912 8.72354 0.757812 16.2605H16.2608V0.757568H16.2608Z" fill="#0052B4"/>
<path d="M43.2417 16.2605C41.2104 8.72354 35.2757 2.78887 27.7388 0.757568V16.2606H43.2417V16.2605Z" fill="#D80027"/>
<path d="M27.7388 43.2419C35.2757 41.2105 41.2104 35.276 43.2418 27.7389H27.7388V43.2419Z" fill="#0052B4"/>
<path d="M27.7396 22.0002C27.7396 25.1699 25.1701 27.7393 22.0004 27.7393C18.8308 27.7393 16.2612 25.1699 16.2612 22.0002C16.2612 18.8304 22.0004 16.261 22.0004 16.261C22.0004 16.261 27.7396 18.8304 27.7396 22.0002Z" fill="#496E2D"/>
<path d="M16.2612 22.0002C16.2612 18.8304 18.8308 16.261 22.0004 16.261C25.1701 16.261 27.7396 18.8304 27.7396 22.0002" fill="#0052B4"/>
<path d="M18.7715 19.1301V22.7171C18.7715 24.5 20.2168 25.9453 21.9997 25.9453C23.7827 25.9453 25.228 24.5 25.228 22.7171V19.1301H18.7715Z" fill="#D80027"/>
</svg>
