<svg width="44" height="44" viewBox="0 0 44 44" fill="none" xmlns="http://www.w3.org/2000/svg">
<g clip-path="url(#clip0)">
<path d="M22 44C34.1503 44 44 34.1503 44 22C44 9.84974 34.1503 0 22 0C9.84974 0 0 9.84974 0 22C0 34.1503 9.84974 44 22 44Z" fill="#FFDA44"/>
<path d="M21.9995 0C21.9835 0.000171875 21.043 8.8 21.043 8.8H39.6005C35.5868 3.45666 29.1969 0 21.9995 0Z" fill="#496E2D"/>
<path d="M21.9994 44.0004C29.1968 44.0004 35.5867 40.5438 39.6003 35.2004H4.39844C8.41206 40.5438 14.8019 44.0004 21.9994 44.0004Z" fill="#496E2D"/>
<path d="M43.5589 17.5994H21.043L21.9995 26.3994H43.5589C43.8477 24.9777 43.9995 23.5063 43.9995 21.9994C43.9995 20.4924 43.8475 19.021 43.5589 17.5994Z" fill="#496E2D"/>
<path d="M22 26.4C22 21.8087 22 5.16519 22 0C9.84981 0 0 9.84981 0 22C0 23.5069 0.151937 24.9783 0.440516 26.4H22Z" fill="#D80027"/>
<path d="M12.1393 10.5212L13.5638 14.9053H18.174L14.4445 17.6152L15.8689 21.9995L12.1393 19.2899L8.40982 21.9995L9.83441 17.6152L6.10498 14.9053H10.7149L12.1393 10.5212Z" fill="#F0F0F0"/>
</g>
<defs>
<clipPath id="clip0">
<rect width="44" height="44" fill="white"/>
</clipPath>
</defs>
</svg>
