<svg width="44" height="44" viewBox="0 0 44 44" fill="none" xmlns="http://www.w3.org/2000/svg">
<path d="M44 22C44 34.1502 34.1502 44 22 44C9.84981 44 0 34.1502 0 22C0 22.0052 22 0.00240625 22 0C34.1502 0 44 9.84981 44 22Z" fill="#D80027"/>
<path d="M21.9998 10.5217V17.9418L14.3477 10.5217H21.9998Z" fill="#0052B4"/>
<path d="M11.478 21.9998H17.9414L11.478 13.3911L10.5215 20.0868L11.478 21.9998Z" fill="#0052B4"/>
<path d="M21.9414 22H22.0003C22.0003 21.9803 22.0003 21.961 22.0003 21.9412C21.9807 21.9608 21.9611 21.9804 21.9414 22Z" fill="#F0F0F0"/>
<path d="M22 11.4782C22 7.60719 22 5.07074 22 0H21.9963C9.84766 0.0020625 0 9.85093 0 22H11.4782V15.5366L17.9417 22H21.9412C21.9608 21.9804 21.9804 21.9608 22.0001 21.9411C22.0001 20.459 22.0001 19.1365 22.0001 17.9419L15.5365 11.4782H22Z" fill="#F0F0F0"/>
<path d="M11.1303 2.86938C7.68943 4.82867 4.82883 7.68919 2.86963 11.13V22.9563H8.60879V8.60872V8.60855H22.9566C22.9566 6.79845 22.9566 5.07403 22.9566 2.86938H11.1303Z" fill="#D80027"/>
<path d="M22.8749 20.169L14.1838 11.4783H11.4785V11.4784L22.8746 22.8745H22.8748C22.8749 22.8746 22.8749 21.0092 22.8749 20.169Z" fill="#D80027"/>
<path d="M24.8696 11.4783V21.9999C24.8696 27.1252 38.2609 27.1252 38.2609 21.9999V11.4783H24.8696Z" fill="#F3F3F3"/>
<path d="M24.8696 22V21.9999C24.8696 27.1252 31.5653 28.6956 31.5653 28.6956C31.5653 28.6956 38.2609 27.1252 38.2609 21.9999V22H24.8696Z" fill="#6DA544"/>
<path d="M31.5652 17.7914L28.4565 19.1305V22.0001L31.5652 23.9131L34.674 22.0001V19.1305L31.5652 17.7914Z" fill="#A2001D"/>
<path d="M34.674 16.261H28.4565V19.1305H34.674V16.261Z" fill="#338AF3"/>
</svg>
