<svg width="44" height="44" viewBox="0 0 44 44" fill="none" xmlns="http://www.w3.org/2000/svg">
<g clip-path="url(#clip0)">
<path d="M22 44C34.1503 44 44 34.1503 44 22C44 9.84974 34.1503 0 22 0C9.84974 0 0 9.84974 0 22C0 34.1503 9.84974 44 22 44Z" fill="#F0F0F0"/>
<path d="M44.0002 22C44.0002 12.5408 38.03 4.47685 29.6523 1.36841V42.6317C38.03 39.5232 44.0002 31.4593 44.0002 22Z" fill="#D80027"/>
<path d="M0 22C0 31.4593 5.97025 39.5232 14.3479 42.6316V1.36841C5.97025 4.47685 0 12.5408 0 22Z" fill="#6DA544"/>
</g>
<defs>
<clipPath id="clip0">
<rect width="44" height="44" fill="white"/>
</clipPath>
</defs>
</svg>
