<svg width="44" height="44" viewBox="0 0 44 44" fill="none" xmlns="http://www.w3.org/2000/svg">
<path d="M22 44C34.1503 44 44 34.1503 44 22C44 9.84974 34.1503 0 22 0C9.84974 0 0 9.84974 0 22C0 34.1503 9.84974 44 22 44Z" fill="#F0F0F0"/>
<path d="M21.9998 0V22L6.44336 37.5564C10.4246 41.5375 15.9246 44 21.9998 44C34.1499 44 43.9997 34.1502 43.9997 22C43.9997 9.84981 21.9998 0 21.9998 0Z" fill="#D80027"/>
<path d="M21.9998 0C15.9246 0 10.4246 2.46245 6.44336 6.44359C11.8411 11.8413 13.7572 13.7576 21.9998 22H43.9997C43.9997 9.84981 34.1499 0 21.9998 0Z" fill="#0052B4"/>
<path d="M15.0641 22L12.3774 20.7362L13.8081 18.1341L10.8905 18.6923L10.5208 15.7449L8.48859 17.9126L6.45643 15.7449L6.08664 18.6923L3.16915 18.134L4.59992 20.7362L1.91309 22L4.59992 23.2638L3.16915 25.8659L6.0869 25.3078L6.45634 28.2552L8.48859 26.0875L10.5208 28.2552L10.8905 25.3078L13.808 25.866L12.3773 23.2639L15.0641 22Z" fill="#FFDA44"/>
<path d="M5.86703 8.60889L6.76113 9.85867L8.22593 9.3947L7.31345 10.6312L8.20754 11.881L6.74953 11.3953L5.83713 12.6317L5.84856 11.0951L4.39062 10.6094L5.85569 10.1454L5.86703 8.60889Z" fill="#FFDA44"/>
<path d="M5.86703 31.3689L6.76113 32.6187L8.22593 32.1546L7.31345 33.3912L8.20754 34.641L6.74953 34.1553L5.83713 35.3917L5.84856 33.8552L4.39062 33.3694L5.85569 32.9055L5.86703 31.3689Z" fill="#FFDA44"/>
<path d="M18.6196 19.989L17.7256 21.2388L16.2607 20.7747L17.1732 22.0112L16.2791 23.2611L17.7371 22.7754L18.6496 24.0117L18.6381 22.4753L20.096 21.9896L18.6311 21.5256L18.6196 19.989Z" fill="#FFDA44"/>
</svg>
