<svg width="44" height="44" viewBox="0 0 44 44" fill="none" xmlns="http://www.w3.org/2000/svg">
<g clip-path="url(#clip0)">
<path d="M22 44C34.1503 44 44 34.1503 44 22C44 9.84974 34.1503 0 22 0C9.84974 0 0 9.84974 0 22C0 34.1503 9.84974 44 22 44Z" fill="#F0F0F0"/>
<path d="M42.6315 14.3479H1.3683C0.484086 16.7313 0 19.309 0 22C0 24.6911 0.484086 27.2689 1.3683 29.6522H42.6316C43.516 27.2689 44 24.6911 44 22C44 19.309 43.516 16.7313 42.6315 14.3479Z" fill="#A2001D"/>
<path d="M22.0636 44.0007C29.5988 44.0007 36.2483 40.2116 40.2133 34.4355H3.91406C7.87905 40.2116 14.5284 44.0007 22.0636 44.0007Z" fill="#6DA544"/>
<path d="M22.0636 0.000244141C29.5988 0.000244141 36.2483 3.7894 40.2133 9.56543H3.91406C7.87905 3.7894 14.5284 0.000244141 22.0636 0.000244141Z" fill="#6DA544"/>
<path d="M22.0001 14.3479L23.8994 20.1934H30.0461L25.0734 23.8065L26.9729 29.6522L22.0001 26.0394L17.0273 29.6522L18.9269 23.8065L13.9541 20.1934H20.1008L22.0001 14.3479Z" fill="#FFDA44"/>
</g>
<defs>
<clipPath id="clip0">
<rect width="44" height="44" fill="white"/>
</clipPath>
</defs>
</svg>
