<svg width="44" height="44" viewBox="0 0 44 44" fill="none" xmlns="http://www.w3.org/2000/svg">
<path d="M22 44C34.1503 44 44 34.1503 44 22C44 9.84974 34.1503 0 22 0C9.84974 0 0 9.84974 0 22C0 34.1503 9.84974 44 22 44Z" fill="#338AF3"/>
<path d="M33.478 23.9133H10.5215V26.7829H33.478V23.9133Z" fill="#818085"/>
<path d="M14.3477 15.3043L21.9998 16.261L29.6519 15.3043V10.713L26.5911 12.2435L21.9998 7.6521L17.4085 12.2435L14.3477 10.713V15.3043Z" fill="#FFDA44"/>
<path d="M12.4346 29.6526H9.56494V24.3917L10.5215 22.9568L9.56494 21.5221V18.1743H12.4346V29.6526Z" fill="#F0F0F0"/>
<path d="M34.4346 29.6526H31.5649V18.1743H34.4346V21.522L33.478 22.9809L34.4346 24.3919V29.6526Z" fill="#F0F0F0"/>
<path d="M34.4345 21.5222H9.56494V24.3918H34.4345V21.5222Z" fill="#ACABB1"/>
<path d="M21.9998 33.4783C17.7803 33.4783 14.3477 30.0455 14.3477 25.8261V15.3044H29.652V25.8261C29.6519 30.0455 26.2192 33.4783 21.9998 33.4783Z" fill="#F0F0F0"/>
<path d="M21.9999 30.6082C19.3627 30.6082 17.2173 28.4627 17.2173 25.8256V18.1736H26.7825V25.8256C26.7825 28.4627 24.637 30.6082 21.9999 30.6082Z" fill="#0052B4"/>
<path d="M17.2172 15.3044H14.3477V18.174H17.2172V15.3044Z" fill="#D80027"/>
<path d="M29.6523 15.3044H26.7827V18.174H29.6523V15.3044Z" fill="#D80027"/>
<path d="M29.6523 21.5222H26.7827V24.3918H29.6523V21.5222Z" fill="#D80027"/>
<path d="M17.2172 21.5222H14.3477V24.3918H17.2172V21.5222Z" fill="#D80027"/>
<path d="M23.4345 15.3044H20.5649V18.174H23.4345V15.3044Z" fill="#D80027"/>
<path d="M21.9997 30.6084C21.4999 30.6084 21.0181 30.531 20.5649 30.3882V33.3411C21.03 33.4298 21.5092 33.478 21.9997 33.478C22.4903 33.478 22.9695 33.4298 23.4346 33.3411V30.3882C22.9814 30.5309 22.4996 30.6084 21.9997 30.6084Z" fill="#D80027"/>
<path d="M17.2813 26.6028L14.9912 28.8928C15.3882 29.7968 15.9547 30.6097 16.651 31.2912L18.6791 29.2631C17.9554 28.5638 17.4512 27.6391 17.2813 26.6028Z" fill="#D80027"/>
<path d="M29.0086 28.8931L26.7186 26.603C26.5486 27.6393 26.0445 28.5639 25.3208 29.2634L27.3489 31.2915C28.045 30.6099 28.6116 29.7971 29.0086 28.8931Z" fill="#D80027"/>
</svg>
