<svg width="44" height="44" viewBox="0 0 44 44" fill="none" xmlns="http://www.w3.org/2000/svg">
<g clip-path="url(#clip0)">
<path d="M1.03881 15.3045C0.364891 17.4158 -8.59223e-05 19.665 1.51727e-08 21.9999C-8.59223e-05 24.3348 0.364977 26.5842 1.0389 28.6955L22 29.6522L42.9611 28.6957C43.6349 26.5843 44.0001 24.3348 44.0001 22C44 19.6651 43.635 17.4158 42.9611 15.3044L22 14.3479L1.03881 15.3045Z" fill="#F0F0F0"/>
<path d="M42.961 15.3054L21.9999 14.3489L1.03875 15.3054C0.839027 15.9313 0.667066 16.5696 0.522949 17.2184H43.4766C43.3326 16.5695 43.1608 15.9312 42.961 15.3054Z" fill="#D80027"/>
<path d="M0.523438 26.7832C0.667383 27.432 0.839344 28.0702 1.03906 28.6962L1.04113 28.6963L22.0001 29.6527L42.9612 28.6963C43.1609 28.0703 43.3329 27.432 43.4769 26.7832H0.523438Z" fill="#D80027"/>
<path d="M22.0001 43.9999C31.8155 43.9999 40.1283 37.5715 42.9612 28.6956H1.03906C3.87199 37.5714 12.1849 43.9999 22.0001 43.9999Z" fill="#6DA544"/>
<path d="M22.0002 -0.000732421C12.1849 -0.000646484 3.87216 6.42774 1.03906 15.3036L42.9612 15.3037C40.1284 6.42765 31.8156 -0.000818359 22.0002 -0.000732421Z" fill="#338AF3"/>
<path d="M10.0537 9.08673C10.0537 7.02621 11.5018 5.30488 13.4357 4.88259C13.1385 4.81762 12.8301 4.78247 12.5133 4.78247C10.1361 4.78247 8.20898 6.70953 8.20898 9.08682C8.20898 11.4641 10.136 13.3912 12.5133 13.3912C12.8301 13.3912 13.1384 13.3559 13.4357 13.291C11.5019 12.8686 10.0537 11.1473 10.0537 9.08673Z" fill="#F0F0F0"/>
<path d="M15.98 11.0427L16.2713 11.9395H17.2142L16.4515 12.4938L16.7428 13.3905L15.98 12.8363L15.2171 13.3905L15.5085 12.4938L14.7456 11.9395H15.6885L15.98 11.0427Z" fill="#F0F0F0"/>
<path d="M18.9891 11.0427L19.2805 11.9395H20.2234L19.4606 12.4938L19.752 13.3905L18.9891 12.8363L18.2262 13.3905L18.5177 12.4938L17.7549 11.9395H18.6977L18.9891 11.0427Z" fill="#F0F0F0"/>
<path d="M21.9995 11.0427L22.2909 11.9395H23.2339L22.471 12.4938L22.7623 13.3905L21.9995 12.8363L21.2366 13.3905L21.5281 12.4938L20.7651 11.9395H21.7081L21.9995 11.0427Z" fill="#F0F0F0"/>
<path d="M25.0083 11.0427L25.2997 11.9395H26.2426L25.4798 12.4938L25.7712 13.3905L25.0083 12.8363L24.2454 13.3905L24.5369 12.4938L23.7739 11.9395H24.7168L25.0083 11.0427Z" fill="#F0F0F0"/>
<path d="M28.0184 11.0427L28.3098 11.9395H29.2527L28.49 12.4938L28.7814 13.3905L28.0184 12.8363L27.2555 13.3905L27.547 12.4938L26.7842 11.9395H27.727L28.0184 11.0427Z" fill="#F0F0F0"/>
<path d="M18.9891 7.91309L19.2805 8.80976H20.2234L19.4606 9.36414L19.752 10.2608L18.9891 9.7066L18.2262 10.2608L18.5177 9.36414L17.7549 8.80976H18.6977L18.9891 7.91309Z" fill="#F0F0F0"/>
<path d="M21.9995 7.91309L22.2909 8.80976H23.2339L22.471 9.36414L22.7623 10.2608L21.9995 9.7066L21.2366 10.2608L21.5281 9.36414L20.7651 8.80976H21.7081L21.9995 7.91309Z" fill="#F0F0F0"/>
<path d="M25.0083 7.91309L25.2997 8.80976H26.2426L25.4798 9.36414L25.7712 10.2608L25.0083 9.7066L24.2454 10.2608L24.5369 9.36414L23.7739 8.80976H24.7168L25.0083 7.91309Z" fill="#F0F0F0"/>
<path d="M28.0184 7.91309L28.3098 8.80976H29.2527L28.49 9.36414L28.7814 10.2608L28.0184 9.7066L27.2555 10.2608L27.547 9.36414L26.7842 8.80976H27.727L28.0184 7.91309Z" fill="#F0F0F0"/>
<path d="M21.9995 4.78223L22.2909 5.67907H23.2339L22.471 6.23328L22.7623 7.13013L21.9995 6.57591L21.2366 7.13013L21.5281 6.23328L20.7651 5.67907H21.7081L21.9995 4.78223Z" fill="#F0F0F0"/>
<path d="M25.0083 4.78223L25.2997 5.67907H26.2426L25.4798 6.23328L25.7712 7.13013L25.0083 6.57591L24.2454 7.13013L24.5369 6.23328L23.7739 5.67907H24.7168L25.0083 4.78223Z" fill="#F0F0F0"/>
<path d="M28.0184 4.78223L28.3098 5.67907H29.2527L28.49 6.23328L28.7814 7.13013L28.0184 6.57591L27.2555 7.13013L27.547 6.23328L26.7842 5.67907H27.727L28.0184 4.78223Z" fill="#F0F0F0"/>
</g>
<defs>
<clipPath id="clip0">
<rect width="44" height="44" fill="white"/>
</clipPath>
</defs>
</svg>
