<svg width="44" height="44" viewBox="0 0 44 44" fill="none" xmlns="http://www.w3.org/2000/svg">
<g clip-path="url(#clip0)">
<path d="M44 21.9998C44 19.3088 43.516 16.7309 42.6316 14.3477L22 13.3911L1.36838 14.3476C0.484086 16.7309 0 19.3088 0 21.9998C0 24.6909 0.484086 27.2687 1.36838 29.6519L22 30.6085L42.6316 29.652C43.516 27.2687 44 24.6909 44 21.9998Z" fill="#D80027"/>
<path d="M22.0003 44C31.4595 44 39.5234 38.0297 42.6319 29.6521H1.36865C4.4771 38.0297 12.541 44 22.0003 44Z" fill="#6DA544"/>
<path d="M1.36865 14.3479H42.632C39.5234 5.97025 31.4595 0 22.0003 0C12.541 0 4.4771 5.97025 1.36865 14.3479Z" fill="#338AF3"/>
<path d="M22.478 28.2174C19.0443 28.2174 16.2606 25.4337 16.2606 22C16.2606 18.5663 19.0443 15.7826 22.478 15.7826C23.5486 15.7826 24.5561 16.0533 25.4356 16.5299C24.0557 15.1806 22.1689 14.3478 20.0867 14.3478C15.8605 14.3478 12.4346 17.7738 12.4346 21.9999C12.4346 26.2261 15.8606 29.652 20.0867 29.652C22.169 29.652 24.0558 28.8192 25.4356 27.4699C24.5561 27.9467 23.5486 28.2174 22.478 28.2174Z" fill="#F0F0F0"/>
<path d="M27.2609 17.6956L28.0844 20.0117L30.3045 18.9562L29.2491 21.1763L31.5652 21.9999L29.2491 22.8235L30.3045 25.0436L28.0844 23.9882L27.2609 26.3043L26.4374 23.9882L24.2172 25.0436L25.2727 22.8235L22.9565 21.9999L25.2727 21.1763L24.2172 18.9562L26.4374 20.0117L27.2609 17.6956Z" fill="#F0F0F0"/>
</g>
<defs>
<clipPath id="clip0">
<rect width="44" height="44" fill="white"/>
</clipPath>
</defs>
</svg>
