<svg width="44" height="44" viewBox="0 0 44 44" fill="none" xmlns="http://www.w3.org/2000/svg">
<path d="M22 44C34.1503 44 44 34.1503 44 22C44 9.84974 34.1503 0 22 0C9.84974 0 0 9.84974 0 22C0 34.1503 9.84974 44 22 44Z" fill="#F0F0F0"/>
<path d="M41.8944 12.5988C40.7767 10.2378 39.2512 8.10798 37.4087 6.29943L22.0001 4.78271L6.59155 6.29951C6.54239 6.34772 6.49444 6.39705 6.4458 6.44578L12.5989 12.5989L22.0001 12.886L41.8944 12.5988Z" fill="#FFDA44"/>
<path d="M6.44531 37.5547C6.52627 37.6357 6.60705 37.7167 6.6892 37.7965L21.9999 39.2175L37.3105 37.7965C39.1719 35.9918 40.7161 33.8618 41.8495 31.4971L13.3911 30.6088C10.9425 33.0575 8.11826 35.8816 6.44531 37.5547Z" fill="#FFDA44"/>
<path d="M43.7812 18.8981L18.1738 18.1739L21.9999 22C20.8667 23.1333 19.1749 24.825 18.1738 25.8261L43.7678 25.1976C43.9199 24.1535 44 23.0862 44 22C44 20.9469 43.9243 19.9117 43.7812 18.8981Z" fill="black"/>
<path d="M21.9999 0C15.9991 0 10.5604 2.40367 6.59131 6.29939H37.4085C33.4394 2.40367 28.0007 0 21.9999 0Z" fill="#6DA544"/>
<path d="M18.898 18.8981H43.7811C43.4672 16.6741 42.8213 14.5571 41.8942 12.5987H12.5986L18.898 18.8981Z" fill="#D80027"/>
<path d="M12.5029 31.497H41.8496C42.7875 29.54 43.4437 27.4228 43.7678 25.1976H18.8023C16.3628 27.6371 14.2953 29.7046 12.5029 31.497Z" fill="#D80027"/>
<path d="M22 44C27.9516 44 33.3502 41.6357 37.3105 37.7962H6.68945C10.6498 41.6357 16.0484 44 22 44Z" fill="#6DA544"/>
<path d="M7.85623 5.15051C7.36716 5.56147 6.89528 5.99227 6.44385 6.44353L22.0003 21.9999L6.44385 37.5563C6.89519 38.0077 7.36716 38.4384 7.85623 38.8494L24.7057 21.9999L7.85623 5.15051Z" fill="black"/>
<path d="M8.84491 16.261L10.2693 20.6452H14.8794L11.1499 23.355L12.5744 27.7393L8.84491 25.0296L5.1153 27.7393L6.53998 23.355L2.81055 20.6452H7.42041L8.84491 16.261Z" fill="#D80027"/>
<path d="M12.7635 22.3586L9.05121 21.0434C9.05121 21.0434 8.7769 18.4702 8.76031 18.3829C8.63433 17.7192 8.05107 17.2173 7.35068 17.2173C6.55834 17.2173 5.91587 17.8597 5.91587 18.6521C5.91587 18.7835 5.93503 18.9101 5.96812 19.0311L4.92725 20.0789C4.92725 20.0789 6.16354 20.0789 6.77799 20.0789C6.77799 21.9999 5.34456 21.9999 5.34456 23.9129L6.13974 25.826H10.9223L11.7195 23.9129H11.7191C11.799 23.7294 11.8474 23.54 11.8675 23.3509C12.5546 23.073 12.7635 22.3586 12.7635 22.3586Z" fill="#FFDA44"/>
</svg>
