<svg width="44" height="44" viewBox="0 0 44 44" fill="none" xmlns="http://www.w3.org/2000/svg">
<path d="M21.9994 0C34.1496 0 43.9994 9.84981 43.9994 22C43.9994 34.1502 34.1496 44 21.9994 44C21.9994 43.0435 19.1299 22 19.1299 22L21.9994 0Z" fill="#F0F0F0"/>
<path d="M22 44C9.84981 44 0 34.1502 0 22C0 9.84981 9.84981 0 22 0" fill="#FFDA44"/>
<path d="M30.4247 19.1439L34.5592 24.6135C33.9078 25.5999 33.9113 26.9288 34.6647 27.9255C35.6203 29.1897 37.4199 29.4399 38.6842 28.4842C39.9484 27.5286 40.1987 25.729 39.2429 24.4648C38.4897 23.4681 37.2119 23.1024 36.0853 23.4601L29.6416 14.9357L28.1155 16.0893L25.8262 17.8196L28.1334 20.8716L30.4247 19.1439ZM36.377 25.432C36.7984 25.1133 37.3983 25.1969 37.7169 25.6181C38.0354 26.0396 37.9521 26.6395 37.5307 26.9582C37.1093 27.2766 36.5094 27.1934 36.1909 26.7718C35.8722 26.3504 35.9556 25.7505 36.377 25.432Z" fill="#ACABB1"/>
<path d="M37.5156 20.8715L39.8229 17.8194L37.5337 16.089L36.0076 14.9354L29.5639 23.4598C28.4375 23.1021 27.1597 23.4679 26.4063 24.4645C25.4505 25.7288 25.7008 27.5283 26.965 28.4839C28.2293 29.4396 30.0289 29.1894 30.9845 27.9252C31.7378 26.9285 31.7413 25.5996 31.0899 24.6132L35.2245 19.1436L37.5156 20.8715ZM29.4584 26.7717C29.1399 27.1932 28.5401 27.2765 28.1186 26.958C27.6972 26.6394 27.6138 26.0394 27.9324 25.618C28.2509 25.1967 28.8508 25.1132 29.2724 25.4319C29.6937 25.7504 29.777 26.3504 29.4584 26.7717Z" fill="#FFDA44"/>
</svg>
