<svg width="44" height="44" viewBox="0 0 44 44" fill="none" xmlns="http://www.w3.org/2000/svg">
<path d="M22 44C34.1503 44 44 34.1503 44 22C44 9.84974 34.1503 0 22 0C9.84974 0 0 9.84974 0 22C0 34.1503 9.84974 44 22 44Z" fill="#338AF3"/>
<path d="M21.9368 14.3479C17.7105 14.3479 14.2847 17.7739 14.2847 22C14.2847 26.2262 17.7106 29.6522 21.9368 29.6522C26.1629 29.6522 29.5889 26.2262 29.5889 22C29.5889 17.7739 26.1628 14.3479 21.9368 14.3479ZM20.0238 22C20.0238 20.9435 20.8802 20.087 21.9368 20.087C22.9933 20.087 23.8499 20.9435 23.8499 22C23.8499 23.0566 22.9933 23.9131 21.9368 23.9131C20.8802 23.9131 20.0238 23.0566 20.0238 22ZM23.9202 18.7276C23.6233 18.5472 23.2997 18.4072 22.957 18.3125V16.3532C23.8199 16.508 24.6155 16.8551 25.2983 17.3496L23.9202 18.7276ZM21.044 18.2798C20.685 18.3657 20.3459 18.502 20.0343 18.681L18.6499 17.2966C19.3497 16.8066 20.1634 16.4681 21.044 16.3303V18.2798ZM20.0342 25.319C20.3458 25.4979 20.685 25.6344 21.0439 25.7202V27.6696C20.1632 27.532 19.3497 27.1933 18.6499 26.7033L20.0342 25.319ZM22.9571 25.6875C23.2997 25.5929 23.6235 25.4529 23.9202 25.2725L25.2983 26.6505C24.6154 27.1449 23.8199 27.4921 22.957 27.647V25.6876H22.9571V25.6875ZM25.2557 23.9027C25.4242 23.6094 25.556 23.2921 25.6424 22.9566H27.595C27.4513 23.8127 27.1184 24.6041 26.6403 25.287L25.2557 23.9027ZM25.6424 21.0435C25.556 20.708 25.4242 20.3909 25.2557 20.0975L26.6402 18.7131C27.1183 19.396 27.4513 20.1874 27.5949 21.0435H25.6423V21.0435H25.6424ZM17.2863 18.6386L18.6643 20.0166C18.4727 20.332 18.3255 20.6771 18.2312 21.0435H16.2785C16.4274 20.1562 16.7797 19.3382 17.2863 18.6386ZM16.2785 22.9565H18.2312C18.3255 23.323 18.4727 23.6681 18.6643 23.9835L17.2863 25.3615C16.7797 24.6619 16.4274 23.844 16.2785 22.9565Z" fill="#F0F0F0"/>
<path d="M34.3714 21.9995C34.3714 18.5981 33.0052 15.5163 30.7923 13.2712L28.7632 15.3003C30.4569 17.0259 31.5019 19.3906 31.5019 21.9995C31.5019 27.2822 27.2193 31.5647 21.9367 31.5647C16.6538 31.5647 12.3715 27.2822 12.3715 21.9995C12.3715 19.358 13.442 16.9667 15.1731 15.2359L13.144 13.2068C10.8937 15.4571 9.50195 18.5658 9.50195 21.9995C9.50195 27.6898 13.3242 32.4875 18.5414 33.965C17.9694 35.0516 18.0565 36.4196 18.8736 37.4393C19.9468 36.5792 21.0579 35.6887 22.0004 34.9335C22.943 35.6888 24.0542 36.5792 25.1273 37.4393C25.9525 36.4095 26.0337 35.0241 25.4427 33.9322C30.6028 32.4185 34.3714 27.6494 34.3714 21.9995Z" fill="#F0F0F0"/>
</svg>
