<svg width="44" height="44" viewBox="0 0 44 44" fill="none" xmlns="http://www.w3.org/2000/svg">
<g clip-path="url(#clip0)">
<path d="M22 44C34.1503 44 44 34.1503 44 22C44 9.84974 34.1503 0 22 0C9.84974 0 0 9.84974 0 22C0 34.1503 9.84974 44 22 44Z" fill="#F0F0F0"/>
<path d="M2.6748 11.4782H41.3248C37.5935 4.63968 30.3388 0 21.9998 0C13.6609 0 6.40613 4.63968 2.6748 11.4782Z" fill="#D80027"/>
<path d="M21.9998 44.0003C30.3388 44.0003 37.5935 39.3607 41.3249 32.5221H2.6748C6.40613 39.3607 13.6609 44.0003 21.9998 44.0003Z" fill="#D80027"/>
<path d="M29.6519 22C29.6519 26.2263 26.2259 28.6957 21.9998 28.6957C17.7736 28.6957 14.3477 26.2263 14.3477 22C14.3477 17.7738 17.7736 14.3479 21.9998 14.3479C26.2259 14.3479 29.6519 17.7738 29.6519 22Z" fill="#FFDA44"/>
<path d="M29.6519 22C29.6519 26.2262 26.2259 29.6521 21.9998 29.6521C17.7736 29.6521 14.3477 26.2262 14.3477 22" fill="#0052B4"/>
<path d="M19.1308 20.0876H17.2178V23.9138H19.1308V20.0876Z" fill="#D80027"/>
<path d="M26.7832 20.0876H24.8701V23.9138H26.7832V20.0876Z" fill="#D80027"/>
<path d="M22.9565 17.2178H21.0435V23.9134H22.9565V17.2178Z" fill="#D80027"/>
</g>
<defs>
<clipPath id="clip0">
<rect width="44" height="44" fill="white"/>
</clipPath>
</defs>
</svg>
