<svg width="44" height="44" viewBox="0 0 44 44" fill="none" xmlns="http://www.w3.org/2000/svg">
<g clip-path="url(#clip0)">
<path d="M22 44C34.1503 44 44 34.1503 44 22C44 9.84974 34.1503 0 22 0C9.84974 0 0 9.84974 0 22C0 34.1503 9.84974 44 22 44Z" fill="#F0F0F0"/>
<path d="M0 22.0001C0 30.339 4.63968 37.5938 11.4782 41.3251V2.67505C4.63968 6.40637 0 13.6611 0 22.0001Z" fill="#F0F0F0"/>
<path d="M22.0003 0C18.1889 0 14.6041 0.969633 11.4785 2.67498V41.3249C14.6041 43.0304 18.1889 44 22.0003 44C34.1505 44 44.0003 34.1502 44.0003 22C44.0003 9.84981 34.1505 0 22.0003 0Z" fill="#496E2D"/>
<path d="M31.4061 25.6396C28.6229 27.6506 24.7363 27.0246 22.7253 24.2414C20.7142 21.4581 21.3403 17.5716 24.1235 15.5606C24.9913 14.9336 25.9664 14.563 26.9583 14.4342C25.0499 14.1488 23.0325 14.5788 21.345 15.7982C17.9195 18.2733 17.1489 23.0567 19.624 26.4823C22.0991 29.9077 26.8825 30.6784 30.3082 28.2031C31.9959 26.9837 33.0376 25.2037 33.3657 23.302C32.932 24.2031 32.274 25.0125 31.4061 25.6396Z" fill="#F0F0F0"/>
<path d="M31.287 14.3481L32.8548 16.0378L34.9462 15.0691L33.8236 17.0821L35.3914 18.7719L33.1298 18.3263L32.0073 20.3394L31.7322 18.0509L29.4707 17.6053L31.5622 16.6367L31.287 14.3481Z" fill="#F0F0F0"/>
</g>
<defs>
<clipPath id="clip0">
<rect width="44" height="44" fill="white"/>
</clipPath>
</defs>
</svg>
