<svg width="44" height="44" viewBox="0 0 44 44" fill="none" xmlns="http://www.w3.org/2000/svg">
<g clip-path="url(#clip0)">
<path d="M37.5568 37.5571C45.8078 29.3061 46.1335 16.1332 38.5376 7.49146L21.9998 22L7.49121 38.5379C16.133 46.1338 29.3058 45.808 37.5568 37.5571Z" fill="#496E2D"/>
<path d="M6.44351 6.44307C14.6944 -1.80786 27.8673 -2.13365 36.5091 5.46227L22.0004 22.0002L5.4628 36.5087C-2.1332 27.8669 -1.80733 14.694 6.44351 6.44307Z" fill="#0052B4"/>
<path d="M36.5087 5.46167L5.4624 36.5081C5.77625 36.8652 6.10212 37.2154 6.44321 37.5563C6.7842 37.8973 7.13457 38.2232 7.49173 38.5372L38.5379 7.49082C38.224 7.13367 37.8981 6.78339 37.557 6.4423C37.2162 6.10147 36.8658 5.77551 36.5087 5.46167Z" fill="#FFDA44"/>
<path d="M9.26935 7.65234L9.74433 9.11388H11.281L10.0378 10.017L10.5126 11.4785L9.26935 10.5752L8.02609 11.4785L8.50107 10.017L7.25781 9.11388H8.79455L9.26935 7.65234Z" fill="#F0F0F0"/>
<path d="M17.119 7.65234L17.5939 9.11388H19.1305L17.8873 10.017L18.3622 11.4785L17.119 10.5752L15.8757 11.4785L16.3507 10.017L15.1074 9.11388H16.6441L17.119 7.65234Z" fill="#F0F0F0"/>
<path d="M9.26935 15.3049L9.74433 16.7665H11.281L10.0378 17.6697L10.5126 19.1312L9.26935 18.2279L8.02609 19.1312L8.50107 17.6697L7.25781 16.7665H8.79455L9.26935 15.3049Z" fill="#F0F0F0"/>
<path d="M17.119 15.3049L17.5939 16.7665H19.1305L17.8873 17.6697L18.3622 19.1312L17.119 18.2279L15.8757 19.1312L16.3507 17.6697L15.1074 16.7665H16.6441L17.119 15.3049Z" fill="#F0F0F0"/>
<path d="M13.1942 11.478L13.6692 12.9396H15.2058L13.9626 13.8428L14.4375 15.3043L13.1942 14.401L11.951 15.3043L12.4259 13.8428L11.1826 12.9396H12.7193L13.1942 11.478Z" fill="#F0F0F0"/>
</g>
<defs>
<clipPath id="clip0">
<rect width="44" height="44" fill="white"/>
</clipPath>
</defs>
</svg>
