<svg width="44" height="44" viewBox="0 0 44 44" fill="none" xmlns="http://www.w3.org/2000/svg">
<g clip-path="url(#clip0)">
<path d="M29.6525 1.36847C27.2691 0.484086 24.6913 0 22.0001 0C19.3092 0 16.7314 0.484086 14.3482 1.3683L13.3916 22L14.3481 42.6317C16.7314 43.516 19.3092 44 22.0001 44C24.6914 44 27.2691 43.516 29.6525 42.6315L30.609 22L29.6525 1.36847Z" fill="#FFDA44"/>
<path d="M0 22.0001C0 31.4593 5.97025 39.5233 14.3479 42.6316V1.36841C5.97025 4.47694 0 12.5408 0 22.0001Z" fill="#D80027"/>
<path d="M44.0002 22.0001C44.0002 12.5408 38.03 4.47694 29.6523 1.36841V42.6317C38.03 39.5233 44.0002 31.4593 44.0002 22.0001Z" fill="#6DA544"/>
</g>
<defs>
<clipPath id="clip0">
<rect width="44" height="44" fill="white"/>
</clipPath>
</defs>
</svg>
