<svg width="44" height="44" viewBox="0 0 44 44" fill="none" xmlns="http://www.w3.org/2000/svg">
<path d="M44 21.9998C44 14.4493 40.1956 7.78802 34.3997 3.82596L22 2.86938L9.60034 3.82587C3.80445 7.78802 0 14.4494 0 21.9998C0 29.5506 3.80445 36.2117 9.60034 40.1737L22 41.1303L34.3997 40.1738C40.1956 36.2117 44 29.5506 44 21.9998Z" fill="#0052B4"/>
<path d="M34.3999 3.82611C30.8692 1.41247 26.6 0 22.0002 0C17.4006 0 13.1313 1.41247 9.60059 3.82611H34.3999Z" fill="#A2001D"/>
<path d="M9.60059 40.1738C13.1312 42.5875 17.4006 44 22.0002 44C26.6 44 30.8692 42.5875 34.3999 40.1738H9.60059Z" fill="#A2001D"/>
<path d="M21.9998 32.5218C27.8108 32.5218 32.5215 27.811 32.5215 22C32.5215 16.189 27.8108 11.4783 21.9998 11.4783C16.1888 11.4783 11.478 16.189 11.478 22C11.478 27.811 16.1888 32.5218 21.9998 32.5218Z" fill="#F0F0F0"/>
<path d="M21.9998 30.6085C26.7543 30.6085 30.6085 26.7543 30.6085 21.9998C30.6085 17.2454 26.7543 13.3911 21.9998 13.3911C17.2454 13.3911 13.3911 17.2454 13.3911 21.9998C13.3911 26.7543 17.2454 30.6085 21.9998 30.6085Z" fill="#6DA544"/>
<path d="M22.0004 27.7393C25.1701 27.7393 27.7396 25.1698 27.7396 22.0002C27.7396 18.8305 25.1701 16.261 22.0004 16.261C18.8307 16.261 16.2612 18.8305 16.2612 22.0002C16.2612 25.1698 18.8307 27.7393 22.0004 27.7393Z" fill="#F0F0F0"/>
<path d="M21.9998 20.5651L18.8911 21.9999V24.3912L21.9998 26.3042L25.1085 24.3912V21.9999L21.9998 20.5651Z" fill="#0052B4"/>
<path d="M25.1085 19.1306H18.8911V22.0002H25.1085V19.1306Z" fill="#FFDA44"/>
</svg>
