<svg width="44" height="44" viewBox="0 0 44 44" fill="none" xmlns="http://www.w3.org/2000/svg">
<path d="M22 44C34.1503 44 44 34.1503 44 22C44 9.84974 34.1503 0 22 0C9.84974 0 0 9.84974 0 22C0 34.1503 9.84974 44 22 44Z" fill="#F0F0F0"/>
<path d="M0.757812 27.739C2.03072 32.4621 4.83615 36.5556 8.60863 39.4542V27.739H0.757812Z" fill="#D80027"/>
<path d="M20.0869 43.9161C20.7175 43.9704 21.3553 43.9998 22 43.9998C32.1646 43.9998 40.7176 37.1058 43.2421 27.739H20.0869V43.9161Z" fill="#D80027"/>
<path d="M43.2421 16.2608C40.7176 6.89399 32.1646 0 22 0C21.3553 0 20.7175 0.0293906 20.0869 0.0837031V16.2608H43.2421Z" fill="#D80027"/>
<path d="M8.60863 4.54614C4.83615 7.44481 2.03072 11.5383 0.757812 16.2613H8.60863V4.54614Z" fill="#D80027"/>
<path d="M43.8138 19.1305H17.2175H17.2174V0.522949C15.1843 0.973777 13.2568 1.7045 11.4782 2.675V19.1303V19.1304H0.186227C0.0637656 20.0698 0 21.0275 0 22C0 22.9726 0.0637656 23.9303 0.186227 24.8696H11.4782H11.4782V41.325C13.2568 42.2954 15.1843 43.0263 17.2174 43.477V24.8698V24.8696H43.8138C43.9361 23.9303 44 22.9726 44 22C44 21.0275 43.9361 20.0698 43.8138 19.1305Z" fill="#0052B4"/>
</svg>
