<svg width="44" height="44" viewBox="0 0 44 44" fill="none" xmlns="http://www.w3.org/2000/svg">
<path d="M22 44C34.1503 44 44 34.1503 44 22C44 9.84974 34.1503 0 22 0C9.84974 0 0 9.84974 0 22C0 34.1503 9.84974 44 22 44Z" fill="#F0F0F0"/>
<path d="M43.8707 24.3908L43.8702 24.3901L43.8701 24.3908H43.8707Z" fill="#0052B4"/>
<path d="M43.8702 24.3912C43.8702 24.391 43.8703 24.3908 43.8703 24.3905L19.7438 0.114258C18.6554 0.225203 17.5904 0.415469 16.5547 0.679211C7.03811 3.10222 0 21.9999 0 21.9999C0 21.9999 30.7998 42.6107 34.3136 40.2327C35.0166 39.757 35.6907 39.2416 36.3325 38.6899L22.0339 24.3912H43.8702Z" fill="#0052B4"/>
<path d="M38.2608 21.9997L16.8648 0.60376C7.19194 2.91694 0 11.6178 0 21.9997C0 34.1499 9.84981 43.9997 22 43.9997C26.6087 43.9997 30.8857 42.5816 34.4205 40.1592L16.2608 21.9997H38.2608Z" fill="#D80027"/>
<path d="M20.9231 32.4837L18.2362 31.2199L19.667 28.6178L16.7494 29.176L16.3797 26.2285L14.3476 28.3963L12.3154 26.2285L11.9456 29.176L9.02812 28.6178L10.4589 31.2199L7.77197 32.4837L10.4589 33.7474L9.02812 36.3496L11.9458 35.7916L12.3153 38.7389L14.3476 36.5711L16.3797 38.7389L16.7494 35.7916L19.6669 36.3497L18.2362 33.7476L20.9231 32.4837Z" fill="#F0F0F0"/>
<path d="M19.1297 12.2016L17.1755 11.2825L18.2161 9.38993L16.0941 9.7959L15.8252 7.6521L14.3471 9.2288L12.8691 7.6521L12.6001 9.7959L10.4781 9.38993L11.5188 11.2825L9.56445 12.2016L14.3471 13.1583L19.1297 12.2016Z" fill="#F0F0F0"/>
<path d="M20.0862 12.2012C20.0862 15.3708 17.5167 17.9403 14.3471 17.9403C11.1774 17.9403 8.60791 15.3708 8.60791 12.2012" fill="#F0F0F0"/>
</svg>
