<svg width="44" height="44" viewBox="0 0 44 44" fill="none" xmlns="http://www.w3.org/2000/svg">
<path d="M41.8171 12.4348C38.2586 5.0759 30.7223 0 22.0001 0C13.278 0 5.74161 5.0759 2.18311 12.4348L22.0001 14.3479L41.8171 12.4348Z" fill="#D80027"/>
<path d="M2.18311 31.5652C5.74161 38.9241 13.278 44 22.0001 44C30.7223 44 38.2586 38.9241 41.8171 31.5652L22.0001 29.6521L2.18311 31.5652Z" fill="#D80027"/>
<path d="M41.817 12.4346H2.18298C0.784438 15.3268 0 18.5716 0 21.9998C0 25.4279 0.784438 28.6727 2.18298 31.565H41.8169C43.2156 28.6727 44 25.4279 44 21.9998C44 18.5716 43.2156 15.3268 41.817 12.4346Z" fill="#0052B4"/>
<path d="M21.9998 29.6522C26.2259 29.6522 29.6519 26.2262 29.6519 22C29.6519 17.7739 26.2259 14.3479 21.9998 14.3479C17.7736 14.3479 14.3477 17.7739 14.3477 22C14.3477 26.2262 17.7736 29.6522 21.9998 29.6522Z" fill="#F0F0F0"/>
</svg>
