<svg width="44" height="44" viewBox="0 0 44 44" fill="none" xmlns="http://www.w3.org/2000/svg">
<path d="M22 44C34.1503 44 44 34.1503 44 22C44 9.84974 34.1503 0 22 0C9.84974 0 0 9.84974 0 22C0 34.1503 9.84974 44 22 44Z" fill="#F0F0F0"/>
<path d="M30.2834 17.2172H24.7608L21.9996 12.4346L19.2385 17.2172H13.7158L16.4773 21.9998L13.7158 26.7824H19.2385L21.9996 31.565L24.7608 26.7824H30.2834L27.5219 21.9998L30.2834 17.2172ZM25.392 21.9998L23.6959 24.9378H20.3035L18.6072 21.9998L20.3034 19.0617H23.6958L25.392 21.9998ZM21.9996 16.1236L22.6309 17.2171H21.3685L21.9996 16.1236ZM16.9109 19.0617H18.1735L17.5422 20.1552L16.9109 19.0617ZM16.9109 24.9378L17.5423 23.8443L18.1736 24.9378H16.9109ZM21.9996 27.8758L21.3684 26.7824H22.6309L21.9996 27.8758ZM27.0883 24.9378H25.8257L26.4571 23.8443L27.0883 24.9378ZM25.8257 19.0617H27.0883L26.457 20.1552L25.8257 19.0617Z" fill="#0052B4"/>
<path d="M35.6947 4.78223H8.30525C6.29749 6.38135 4.57564 8.32371 3.229 10.5214H40.771C39.4242 8.3238 37.7024 6.38135 35.6947 4.78223Z" fill="#0052B4"/>
<path d="M8.30525 39.2169H35.6946C37.7024 37.6178 39.4242 35.6755 40.7709 33.4778H3.229C4.57573 35.6754 6.29757 37.6178 8.30525 39.2169Z" fill="#0052B4"/>
</svg>
