<svg width="44" height="44" viewBox="0 0 44 44" fill="none" xmlns="http://www.w3.org/2000/svg">
<g clip-path="url(#clip0)">
<path d="M9.60059 40.174C13.1312 42.5876 17.4006 44.0001 22.0002 44.0001C26.5999 44.0001 30.8692 42.5876 34.3999 40.174L22.0002 38.261L9.60059 40.174Z" fill="#D80027"/>
<path d="M34.3999 3.82611C30.8692 1.41255 26.5999 0 22.0002 0C17.4006 0 13.1312 1.41255 9.60059 3.82611L22.0002 5.73916L34.3999 3.82611Z" fill="#D80027"/>
<path d="M44 21.9996C44 14.7198 39.6416 7.40911 34.3997 3.82568H9.60034C3.80445 7.78775 0 14.4491 0 21.9996C0 29.5503 3.80445 36.2114 9.60034 40.1735H34.3997C40.1956 36.2114 44 29.5503 44 21.9996Z" fill="#0052B4"/>
<path d="M20.7548 35.8869C20.4542 35.6291 13.3911 29.4891 13.3911 21.9997C13.3911 14.5103 20.4541 8.37019 20.7548 8.11246L21.9998 7.04529L23.2448 8.11237C23.5454 8.37019 30.6085 14.5102 30.6085 21.9997C30.6085 29.4892 23.5455 35.6293 23.2448 35.8869L21.9998 36.9541L20.7548 35.8869Z" fill="#D80027"/>
<path d="M28.6955 22.0002C28.6955 15.3046 21.9998 9.56543 21.9998 9.56543C21.9998 9.56543 15.3042 15.3048 15.3042 22.0002C15.3042 24.0486 15.9313 26.007 16.8011 27.7394H27.1985C28.0684 26.007 28.6955 24.0486 28.6955 22.0002Z" fill="#338AF3"/>
<path d="M28.6955 22C28.6955 24.0483 28.0684 26.0067 27.1985 27.7392L21.9998 28.6956L16.8011 27.7392C15.9313 26.0068 15.3042 24.0483 15.3042 22H28.6955Z" fill="#0052B4"/>
<path d="M22 34.4347C22 34.4347 25.225 31.6695 27.1987 27.739H16.8013C18.7749 31.6695 22 34.4347 22 34.4347Z" fill="#FFDA44"/>
<path d="M17.6958 18.1743H26.3045L22.0002 22.4787L17.6958 18.1743Z" fill="#6DA544"/>
<path d="M23.435 21.0435H20.5654V29.6522H23.435V21.0435Z" fill="#A2001D"/>
</g>
<defs>
<clipPath id="clip0">
<rect width="44" height="44" fill="white"/>
</clipPath>
</defs>
</svg>
