<svg width="44" height="44" viewBox="0 0 44 44" fill="none" xmlns="http://www.w3.org/2000/svg">
<path d="M0 22.0007C0 24.6918 0.484086 27.2696 1.36838 29.6529L22 31.5659L42.6316 29.6529C43.5159 27.2696 44 24.6918 44 22.0007C44 19.3097 43.5159 16.7319 42.6316 14.3486L22 12.4355L1.36838 14.3486C0.484086 16.7319 0 19.3097 0 22.0007Z" fill="#FFDA44"/>
<path d="M42.6319 14.3479C39.5234 5.97034 31.4595 0 22.0003 0C12.541 0 4.4771 5.97034 1.36865 14.3479H42.6319Z" fill="#D80027"/>
<path d="M1.36865 29.6521C4.4771 38.0296 12.541 44 22.0003 44C31.4595 44 39.5234 38.0296 42.6319 29.6521H1.36865Z" fill="#D80027"/>
</svg>
