<svg width="44" height="44" viewBox="0 0 44 44" fill="none" xmlns="http://www.w3.org/2000/svg">
<path d="M0 22C0 9.84981 9.84981 0 22 0C34.1502 0 44 9.84981 44 22C43.0435 22 22 24.8695 22 24.8695L0 22Z" fill="#D80027"/>
<path d="M44 22C44 34.1502 34.1502 44 22 44C9.84981 44 0 34.1502 0 22" fill="black"/>
<path d="M18.9829 17.4976L20.8479 18.8511L20.1372 21.0432L22.0009 19.6874L23.8661 21.0409L23.1526 18.8495L25.0161 17.494L22.7117 17.4953L21.9981 15.304L21.2873 17.4961L18.9829 17.4976Z" fill="#FFDA44"/>
<path d="M27.4999 12.4736C25.7663 11.4727 23.8708 11.0003 21.9999 11.0036V13.8725C23.3827 13.87 24.7837 14.2189 26.0651 14.9588C29.9476 17.2004 31.2826 22.1827 29.0409 26.0652C26.7994 29.9477 21.8172 31.2827 17.9346 29.0412C16.8035 28.3881 15.8904 27.5014 15.2174 26.4782L12.8218 28.0597C13.7325 29.4441 14.9696 30.6427 16.4999 31.5261C21.7527 34.5589 28.4934 32.7527 31.5261 27.4999C34.5588 22.247 32.7527 15.5063 27.4999 12.4736Z" fill="#FFDA44"/>
<path d="M15.6568 20.0867C14.8962 21.4771 15.4068 23.2209 16.7971 23.9814L26.117 29.0741C25.4832 30.2326 25.8198 31.6427 26.9783 32.2765L29.4959 33.6537C30.6544 34.2876 32.1077 33.862 32.7415 32.7034L34.1186 30.1859L15.6568 20.0867Z" fill="#FFDA44"/>
</svg>
