<svg width="44" height="44" viewBox="0 0 44 44" fill="none" xmlns="http://www.w3.org/2000/svg">
<g clip-path="url(#clip0)">
<path d="M1.03881 15.3043C0.364891 17.4157 -8.59223e-05 19.6649 1.51727e-08 21.9999C-8.59223e-05 24.3347 0.364891 26.5841 1.0389 28.6956L22 29.6522L42.961 28.6956C43.6349 26.5841 43.9999 24.3347 43.9999 22C43.9999 19.6651 43.6349 17.4157 42.961 15.3043L21.9999 14.3478L1.03881 15.3043Z" fill="#F0F0F0"/>
<path d="M44 21.9999C44 20.6948 43.8857 19.4164 43.6677 18.1737H0.332406C0.114297 19.4164 0 20.6946 0 21.9998C0 23.305 0.114383 24.5833 0.332406 25.8259H43.6677C43.8856 24.5832 44 23.3049 44 21.9999Z" fill="black"/>
<path d="M22.0002 43.9997C31.8156 43.9997 40.1283 37.5714 42.9612 28.6953H1.03906C3.87199 37.5713 12.1848 43.9996 22.0002 43.9997Z" fill="#338AF3"/>
<path d="M22.0002 0.000122074C12.1849 0.000122074 3.87216 6.4285 1.03906 15.3043L42.9611 15.3044C40.1283 6.4285 31.8155 -4.98013e-05 22.0002 0.000122074Z" fill="#338AF3"/>
</g>
<defs>
<clipPath id="clip0">
<rect width="44" height="44" fill="white"/>
</clipPath>
</defs>
</svg>
