<svg width="44" height="44" viewBox="0 0 44 44" fill="none" xmlns="http://www.w3.org/2000/svg">
<g clip-path="url(#clip0)">
<path d="M22 44C34.1503 44 44 34.1503 44 22C44 9.84974 34.1503 0 22 0C9.84974 0 0 9.84974 0 22C0 34.1503 9.84974 44 22 44Z" fill="#F0F0F0"/>
<path d="M36.8509 5.76959C32.9373 2.18668 27.7242 0 22.0001 0C21.063 0 20.1396 0.0590391 19.2333 0.172734L8.60881 12.4348L0.696289 27.5113C1.20745 29.4931 1.98896 31.366 2.99727 33.0901L22.0001 22L36.8509 5.76959Z" fill="#FFDA44"/>
<path d="M40.3162 34.1892L9.53613 40.1292C13.0792 42.5699 17.3725 44 22.0002 44C29.6419 44 36.3724 40.1033 40.3162 34.1892Z" fill="#6DA544"/>
<path d="M36.8539 5.77271L3.00977 33.1116C3.89501 34.6213 4.95488 36.0162 6.16204 37.2682L44.0001 22.0002C44.0001 15.5756 41.2457 9.79475 36.8539 5.77271Z" fill="#D80027"/>
<path d="M0 22.0001C0 23.9034 0.241828 25.7501 0.69618 27.5114L19.2332 0.172852C8.38905 1.53359 0 10.787 0 22.0001Z" fill="#0052B4"/>
</g>
<defs>
<clipPath id="clip0">
<rect width="44" height="44" fill="white"/>
</clipPath>
</defs>
</svg>
