<svg width="44" height="44" viewBox="0 0 44 44" fill="none" xmlns="http://www.w3.org/2000/svg">
<g clip-path="url(#clip0)">
<path d="M22 44C34.1503 44 44 34.1503 44 22C44 9.84974 34.1503 0 22 0C9.84974 0 0 9.84974 0 22C0 34.1503 9.84974 44 22 44Z" fill="#FFDA44"/>
<path d="M22 0C16.6137 0 11.6804 1.93677 7.85596 5.15058L31.5652 22L7.85596 38.8494C11.6804 42.0632 16.6137 44 22 44C34.1502 44 44 34.1502 44 22C44 9.84981 34.1502 0 22 0Z" fill="#D80027"/>
<path d="M6.44364 6.44312C-2.14788 15.0346 -2.14788 28.9643 6.44364 37.5559C9.99397 34.0056 13.4085 30.591 22 21.9995L6.44364 6.44312Z" fill="black"/>
<path d="M6.09941 16.9597L9.44753 20.1284L13.4959 17.9229L11.5172 22.0866L14.8654 25.2554L10.294 24.66L8.31505 28.8236L7.46882 24.2919L2.89746 23.6964L6.94563 21.4911L6.09941 16.9597Z" fill="#F0F0F0"/>
</g>
<defs>
<clipPath id="clip0">
<rect width="44" height="44" fill="white"/>
</clipPath>
</defs>
</svg>
