<svg width="44" height="44" viewBox="0 0 44 44" fill="none" xmlns="http://www.w3.org/2000/svg">
<path d="M22 44C34.1503 44 44 34.1503 44 22C44 9.84974 34.1503 0 22 0C9.84974 0 0 9.84974 0 22C0 34.1503 9.84974 44 22 44Z" fill="#338AF3"/>
<path d="M34.4346 22.239H9.56494C9.56494 23.956 11.0603 25.3477 12.7771 25.3477H12.6736C12.6736 27.0647 14.0654 28.4564 15.7823 28.4564C15.7823 30.1734 17.1741 31.5651 18.8911 31.5651H25.1085C26.8254 31.5651 28.2172 30.1734 28.2172 28.4564C29.9341 28.4564 31.3259 27.0647 31.3259 25.3477H31.2224C32.939 25.3477 34.4346 23.956 34.4346 22.239Z" fill="#FFDA44"/>
<path d="M30.6085 18.1743C30.6085 22.9287 26.7542 26.783 21.9998 26.783C17.2453 26.783 13.3911 22.9287 13.3911 18.1743" fill="#338AF3"/>
<path d="M28.5758 18.1736L25.889 19.4375L27.3197 22.0396L24.4022 21.4815L24.0325 24.4288L22.0003 22.261L19.9681 24.4288L19.5984 21.4815L16.6809 22.0395L18.1116 19.4374L15.4248 18.1736L18.1116 16.9098L16.6809 14.3077L19.5984 14.8658L19.9681 11.9185L22.0003 14.0862L24.0326 11.9185L24.4022 14.8658L27.3198 14.3077L25.8891 16.9099L28.5758 18.1736Z" fill="#FFDA44"/>
</svg>
