<svg width="44" height="44" viewBox="0 0 44 44" fill="none" xmlns="http://www.w3.org/2000/svg">
<path d="M0 22.0002C0 23.5071 0.151937 24.9785 0.440602 26.4002L22 27.7393L43.5595 26.4002C43.8482 24.9785 44 23.5071 44 22.0002C44 20.4932 43.8481 19.0218 43.5595 17.6002L22 16.261L0.440602 17.6002C0.151937 19.0218 0 20.4932 0 22.0002Z" fill="#0052B4"/>
<path d="M43.5593 26.3998H0.44043C2.47878 36.4416 11.3566 43.9998 21.9998 43.9998C32.6431 43.9998 41.5209 36.4416 43.5593 26.3998Z" fill="#F0F0F0"/>
<path d="M0.44043 17.6H43.5594C41.5209 7.5582 32.6433 0 21.9998 0C11.3564 0 2.47878 7.5582 0.44043 17.6Z" fill="black"/>
<path d="M31.5654 17.6H12.4351L16.3435 15.7615L14.2622 11.9763L18.5062 12.788L19.0442 8.50067L22.0003 11.6541L24.9565 8.50067L25.4941 12.788L29.7383 11.9763L27.6572 15.7616L31.5654 17.6Z" fill="#FFDA44"/>
<path d="M0 21.9999C0 34.1501 9.84981 43.9999 22 43.9999L4.39966 8.79913C1.63728 12.4763 0 17.0467 0 21.9999Z" fill="#A2001D"/>
<path d="M22 43.9999C34.1502 43.9999 44 34.1501 44 21.9999C44 17.0467 42.3627 12.4763 39.6003 8.79913L22 43.9999Z" fill="#A2001D"/>
</svg>
