<svg width="44" height="44" viewBox="0 0 44 44" fill="none" xmlns="http://www.w3.org/2000/svg">
<path d="M22 44C34.1503 44 44 34.1503 44 22C44 9.84974 34.1503 0 22 0C9.84974 0 0 9.84974 0 22C0 34.1503 9.84974 44 22 44Z" fill="#F0F0F0"/>
<path d="M43.8138 19.1305H24.8697H24.8696V0.186227C23.9302 0.0639375 22.9726 0 22 0C21.0274 0 20.0698 0.0639375 19.1305 0.186227V19.1303V19.1304H0.186227C0.0639375 20.0698 0 21.0274 0 22C0 22.9726 0.0639375 23.9302 0.186227 24.8695H19.1303H19.1304V43.8138C20.0698 43.9361 21.0274 44 22 44C22.9726 44 23.9302 43.9361 24.8695 43.8138V24.8698V24.8696H43.8138C43.9361 23.9302 44 22.9726 44 22C44 21.0274 43.9361 20.0698 43.8138 19.1305Z" fill="#D80027"/>
<path d="M32.5215 7.6521C30.7386 7.6521 29.2406 8.87147 28.8159 10.5216L32.5215 11.4781L36.227 10.5216C35.8023 8.87155 34.3043 7.6521 32.5215 7.6521Z" fill="black"/>
<path d="M28.6953 16.2604L33.4778 17.2169V15.1833C34.8223 14.8372 35.8806 13.7787 36.2266 12.4343L32.5214 11.4778H27.7388L28.6953 14.3473V16.2604Z" fill="black"/>
<path d="M36.2269 10.5222H27.7388V12.4353V14.3483H28.6953V12.4353H36.2266C36.3054 12.1296 36.3475 11.809 36.3475 11.4788C36.3475 11.1484 36.3056 10.8279 36.2269 10.5222Z" fill="#ACABB1"/>
<path d="M12.4345 7.6521C10.6517 7.6521 9.15371 8.87147 8.729 10.5216L12.4345 11.4781L16.1401 10.5216C15.7154 8.87155 14.2174 7.6521 12.4345 7.6521Z" fill="black"/>
<path d="M8.60891 16.2604L13.3915 17.2169V15.1833C14.736 14.8372 15.7942 13.7787 16.1403 12.4343L12.435 11.4778H7.65234L8.60883 14.3473V16.2604H8.60891Z" fill="black"/>
<path d="M16.1406 10.5222H7.65234V12.4353V14.3483H8.60883V12.4353H16.1402C16.2189 12.1296 16.261 11.809 16.261 11.4788C16.261 11.1484 16.2193 10.8279 16.1406 10.5222Z" fill="#ACABB1"/>
<path d="M32.5215 26.7822C30.7386 26.7822 29.2406 28.0016 28.8159 29.6518L32.5215 30.6082L36.227 29.6518C35.8023 28.0016 34.3043 26.7822 32.5215 26.7822Z" fill="black"/>
<path d="M28.6953 35.3915L33.4778 36.348V34.3144C34.8223 33.9683 35.8806 32.9098 36.2266 31.5654L32.5214 30.6089H27.7388L28.6953 33.4784V35.3915Z" fill="black"/>
<path d="M36.2269 29.6521H27.7388V31.5652V33.4782H28.6953V31.5652H36.2266C36.3054 31.2595 36.3475 30.9389 36.3475 30.6087C36.3475 30.2784 36.3056 29.9579 36.2269 29.6521Z" fill="#ACABB1"/>
<path d="M12.4345 26.7822C10.6517 26.7822 9.15371 28.0016 8.729 29.6518L12.4345 30.6082L16.1401 29.6518C15.7154 28.0016 14.2174 26.7822 12.4345 26.7822Z" fill="black"/>
<path d="M8.60891 35.3915L13.3915 36.348V34.3144C14.736 33.9683 15.7942 32.9098 16.1403 31.5654L12.435 30.6089H7.65234L8.60883 33.4784V35.3915H8.60891Z" fill="black"/>
<path d="M16.1406 29.6521H7.65234V31.5652V33.4782H8.60883V31.5652H16.1402C16.2189 31.2595 16.261 30.9389 16.261 30.6087C16.261 30.2784 16.2193 29.9579 16.1406 29.6521Z" fill="#ACABB1"/>
</svg>
