<svg width="44" height="44" viewBox="0 0 44 44" fill="none" xmlns="http://www.w3.org/2000/svg">
<path d="M22 44C34.1503 44 44 34.1503 44 22C44 9.84974 34.1503 0 22 0C9.84974 0 0 9.84974 0 22C0 34.1503 9.84974 44 22 44Z" fill="#F0F0F0"/>
<path d="M21.9994 0C15.3314 0 9.35677 2.96691 5.32227 7.65213H38.6764C34.642 2.96691 28.6674 0 21.9994 0Z" fill="#0052B4"/>
<path d="M38.6765 36.3479H5.32227C9.35677 41.0331 15.3314 44.0001 21.9994 44.0001C28.6674 44.0001 34.642 41.0331 38.6765 36.3479Z" fill="#0052B4"/>
<path d="M40.771 10.5222H3.22902C1.18121 13.8639 0 17.7941 0 22.0005C0 26.2068 1.18121 30.1371 3.22902 33.4787H40.771C42.8188 30.1371 44 26.2068 44 22.0005C44 17.7941 42.8188 13.8639 40.771 10.5222Z" fill="#D80027"/>
<path d="M13.5345 30.465C18.2097 30.465 21.9997 26.675 21.9997 21.9999C21.9997 17.3247 18.2097 13.5347 13.5345 13.5347C8.85933 13.5347 5.06934 17.3247 5.06934 21.9999C5.06934 26.675 8.85933 30.465 13.5345 30.465Z" fill="#F0F0F0"/>
<path d="M13.5351 13.5347L15.4344 19.3802H21.5908L16.6084 22.9932L18.5226 28.8562L13.5351 25.226L8.55521 28.8494L10.4618 22.9932L5.48389 19.3802H11.6357L13.5351 13.5347Z" fill="#D80027"/>
</svg>
