<svg width="44" height="44" viewBox="0 0 44 44" fill="none" xmlns="http://www.w3.org/2000/svg">
<g clip-path="url(#clip0)">
<path d="M22 44C34.1503 44 44 34.1503 44 22C44 9.84974 34.1503 0 22 0C9.84974 0 0 9.84974 0 22C0 34.1503 9.84974 44 22 44Z" fill="#FFDA44"/>
<path d="M35.3938 4.54781C31.6841 1.69632 27.0405 0 21.9999 0C16.9593 0 12.3156 1.69641 8.60596 4.54781L21.9999 17.9417L35.3938 4.54781Z" fill="#6DA544"/>
<path d="M4.54773 8.60645C1.69641 12.3161 0 16.9597 0 22.0003C0 27.0409 1.69641 31.6846 4.54781 35.3944L17.9418 22.0003L4.54773 8.60645Z" fill="black"/>
<path d="M8.60596 39.4525C12.3157 42.304 16.9593 44.0003 21.9999 44.0003C27.0405 44.0003 31.6841 42.3039 35.3939 39.4525L21.9999 26.0586L8.60596 39.4525Z" fill="#6DA544"/>
<path d="M39.452 35.3942C42.3035 31.6845 43.9998 27.0409 43.9998 22.0003C43.9998 16.9597 42.3035 12.3161 39.452 8.60645L26.0581 22.0003L39.452 35.3942Z" fill="black"/>
</g>
<defs>
<clipPath id="clip0">
<rect width="44" height="44" fill="white"/>
</clipPath>
</defs>
</svg>
