<svg width="44" height="44" viewBox="0 0 44 44" fill="none" xmlns="http://www.w3.org/2000/svg">
<g clip-path="url(#clip0)">
<path d="M22 44C34.1503 44 44 34.1503 44 22C44 9.84974 34.1503 0 22 0C9.84974 0 0 9.84974 0 22C0 34.1503 9.84974 44 22 44Z" fill="#F0F0F0"/>
<path d="M21.0435 22.0002H43.9999C43.9999 20.0145 43.7353 18.0909 43.2421 16.261H21.0435V22.0002Z" fill="#D80027"/>
<path d="M21.0435 10.5214H40.7709C39.4242 8.3238 37.7023 6.38135 35.6946 4.78223H21.0435V10.5214Z" fill="#D80027"/>
<path d="M21.9998 44.0004C27.1775 44.0004 31.9364 42.2108 35.6945 39.2178H8.30518C12.0632 42.2108 16.8222 44.0004 21.9998 44.0004Z" fill="#D80027"/>
<path d="M3.22895 33.4772H40.7709C41.8521 31.713 42.6906 29.7846 43.242 27.738H0.757812C1.30927 29.7846 2.14777 31.713 3.22895 33.4772Z" fill="#D80027"/>
<path d="M10.1908 3.43561H12.1956L10.3308 4.79041L11.0431 6.98259L9.17838 5.62779L7.31362 6.98259L7.92894 5.08879C6.28702 6.45648 4.84791 8.05888 3.66197 9.84431H4.30435L3.1173 10.7067C2.93236 11.0152 2.75498 11.3286 2.585 11.6467L3.15184 13.3913L2.0943 12.6229C1.83141 13.1799 1.59096 13.7494 1.37483 14.3308L1.99934 16.253H4.30435L2.43951 17.6078L3.15184 19.8L1.28709 18.4452L0.17007 19.2568C0.0582656 20.1555 0 21.0709 0 22H22C22 9.84981 22 8.41741 22 0C17.654 0 13.6026 1.2607 10.1908 3.43561ZM11.0431 19.8L9.17838 18.4452L7.31362 19.8L8.02596 17.6078L6.16112 16.253H8.46613L9.17838 14.0608L9.89063 16.253H12.1956L10.3308 17.6078L11.0431 19.8ZM10.3308 11.1991L11.0431 13.3913L9.17838 12.0365L7.31362 13.3913L8.02596 11.1991L6.16112 9.84431H8.46613L9.17838 7.65213L9.89063 9.84431H12.1956L10.3308 11.1991ZM18.9344 19.8L17.0697 18.4452L15.2049 19.8L15.9173 17.6078L14.0524 16.253H16.3574L17.0697 14.0608L17.7819 16.253H20.0869L18.2221 17.6078L18.9344 19.8ZM18.2221 11.1991L18.9344 13.3913L17.0697 12.0365L15.2049 13.3913L15.9173 11.1991L14.0524 9.84431H16.3574L17.0697 7.65213L17.7819 9.84431H20.0869L18.2221 11.1991ZM18.2221 4.79041L18.9344 6.98259L17.0697 5.62779L15.2049 6.98259L15.9173 4.79041L14.0524 3.43561H16.3574L17.0697 1.24343L17.7819 3.43561H20.0869L18.2221 4.79041Z" fill="#0052B4"/>
</g>
<defs>
<clipPath id="clip0">
<rect width="44" height="44" fill="white"/>
</clipPath>
</defs>
</svg>
