<svg width="44" height="44" viewBox="0 0 44 44" fill="none" xmlns="http://www.w3.org/2000/svg">
<path d="M22 44C34.1503 44 44 34.1503 44 22C44 9.84974 34.1503 0 22 0C9.84974 0 0 9.84974 0 22C0 34.1503 9.84974 44 22 44Z" fill="#D80027"/>
<path d="M35.0012 18.0548H25.069L21.9998 8.60889L18.9307 18.0548H8.99854L17.0338 23.8927L13.9645 33.3389L21.9998 27.5009L30.0352 33.3389L26.9659 23.8928L35.0012 18.0548ZM19.2827 23.162L20.3205 19.9678H23.6791L24.717 23.162V23.1621L21.9998 25.1361L19.2828 23.1621L19.2827 23.162ZM23.0576 18.0548H20.9422L21.9998 14.7995L23.0576 18.0548ZM26.3442 21.9797L25.6905 19.9678H29.1133L26.3442 21.9797ZM18.3091 19.9678L17.6554 21.9797L14.8862 19.9678H18.3091ZM17.6034 28.3304L18.6611 25.0752L20.3725 26.3185L17.6034 28.3304ZM23.6272 26.3186L25.3386 25.0753L26.3963 28.3305L23.6272 26.3186Z" fill="#FFDA44"/>
</svg>
