<svg width="44" height="44" viewBox="0 0 44 44" fill="none" xmlns="http://www.w3.org/2000/svg">
<g clip-path="url(#clip0)">
<path d="M22 44C34.1503 44 44 34.1503 44 22C44 9.84974 34.1503 0 22 0C9.84974 0 0 9.84974 0 22C0 34.1503 9.84974 44 22 44Z" fill="#F0F0F0"/>
<path d="M21.9996 0C13.2775 0 5.74112 5.0759 2.18262 12.4348H41.8166C38.2581 5.0759 30.7217 0 21.9996 0Z" fill="#D80027"/>
<path d="M21.9996 44.0002C30.7217 44.0002 38.2581 38.9243 41.8166 31.5654H2.18262C5.74112 38.9243 13.2775 44.0002 21.9996 44.0002Z" fill="#0052B4"/>
<path d="M27.4111 15.6323L25.382 17.6614C26.2475 18.5269 26.7829 19.7225 26.7829 21.0432C26.7829 23.6846 24.6416 25.8258 22.0003 25.8258C19.359 25.8258 17.2177 23.6845 17.2177 21.0432C17.2177 19.7225 17.7531 18.5269 18.6186 17.6614L16.5895 15.6323C15.2046 17.017 14.3481 18.93 14.3481 21.0432C14.3481 25.2695 17.7741 28.6954 22.0003 28.6954C26.2264 28.6954 29.6524 25.2694 29.6524 21.0432C29.6523 18.93 28.7959 17.017 27.4111 15.6323Z" fill="#6DA544"/>
<path d="M22.0002 18.1743L22.7125 20.3666H25.0175L23.1527 21.7213L23.865 23.9135L22.0002 22.5587L20.1353 23.9135L20.8477 21.7213L18.9829 20.3666H21.2878L22.0002 18.1743Z" fill="#FFDA44"/>
</g>
<defs>
<clipPath id="clip0">
<rect width="44" height="44" fill="white"/>
</clipPath>
</defs>
</svg>
