<svg width="44" height="44" viewBox="0 0 44 44" fill="none" xmlns="http://www.w3.org/2000/svg">
<g clip-path="url(#clip0)">
<path d="M2.18298 12.4353C0.784438 15.3276 0 18.5723 0 22.0005C0 25.4286 0.784438 28.6733 2.18298 31.5656L22 33.4787L41.817 31.5656C43.2156 28.6733 44 25.4286 44 22.0005C44 18.5723 43.2156 15.3276 41.817 12.4353L22 10.5222L2.18298 12.4353Z" fill="#F0F0F0"/>
<path d="M2.18359 31.5654C5.74192 38.9243 13.2777 44.0002 21.9998 44.0002C30.722 44.0002 38.2578 38.9243 41.8161 31.5654H2.18359Z" fill="#6DA544"/>
<path d="M2.18359 12.4348H41.8161C38.2578 5.0759 30.7219 0 21.9998 0C13.2778 0 5.74192 5.0759 2.18359 12.4348Z" fill="#FF9811"/>
<path d="M21.9998 29.6522C26.2259 29.6522 29.6519 26.2262 29.6519 22C29.6519 17.7739 26.2259 14.3479 21.9998 14.3479C17.7736 14.3479 14.3477 17.7739 14.3477 22C14.3477 26.2262 17.7736 29.6522 21.9998 29.6522Z" fill="#FF9811"/>
</g>
<defs>
<clipPath id="clip0">
<rect width="44" height="44" fill="white"/>
</clipPath>
</defs>
</svg>
