<svg width="44" height="44" viewBox="0 0 44 44" fill="none" xmlns="http://www.w3.org/2000/svg">
<g clip-path="url(#clip0)">
<path d="M31.5654 2.18298C28.6731 0.784438 25.4283 0 22.0002 0C18.5722 0 15.3273 0.784438 12.435 2.18298L10.522 22L12.435 41.817C15.3273 43.2156 18.5722 44 22.0002 44C25.4283 44 28.6731 43.2156 31.5654 41.817L33.4785 22L31.5654 2.18298Z" fill="#FFDA44"/>
<path d="M12.4348 2.18359C5.07598 5.74192 0 13.2777 0 21.9998C0 30.722 5.07598 38.2578 12.4348 41.8161V2.18359Z" fill="#0052B4"/>
<path d="M31.5654 2.18359V41.8161C38.9243 38.2578 44.0002 30.7219 44.0002 21.9998C44.0002 13.2778 38.9243 5.74192 31.5654 2.18359Z" fill="#0052B4"/>
<path d="M28.6956 13.3913L29.9789 14.0329L28.6956 13.3913L27.4122 12.7497C27.3349 12.9045 25.6592 16.3139 25.3854 21.5218H23.4348V13.3913L21.9999 11.4783L20.5651 13.3913V21.5218H18.6144C18.3406 16.3139 16.665 12.9045 16.5876 12.7497L14.021 14.033C14.0387 14.0683 15.7826 17.6179 15.7826 22.9566V24.3914H20.5652V32.5219H23.4348V24.3914H28.2173V22.9565C28.2173 20.1964 28.6949 17.9204 29.0956 16.4971C29.5324 14.9451 29.9761 14.0387 29.9805 14.0297L28.6956 13.3913Z" fill="black"/>
</g>
<defs>
<clipPath id="clip0">
<rect width="44" height="44" fill="white"/>
</clipPath>
</defs>
</svg>
