<svg width="44" height="44" viewBox="0 0 44 44" fill="none" xmlns="http://www.w3.org/2000/svg">
<g clip-path="url(#clip0)">
<path d="M44.0004 22.0005C44.0004 21.0279 43.9366 20.0702 43.8142 19.1309H19.1307C14.6361 14.6366 6.44377 6.44478 6.44411 6.44409C-2.14739 15.0356 -2.14739 28.9652 6.44411 37.5568L19.131 24.8701H43.8142C43.9365 23.9307 44.0004 22.973 44.0004 22.0005Z" fill="black"/>
<path d="M43.9933 22.4993C43.9924 22.5417 43.9914 22.5843 43.9902 22.6268C43.9913 22.5842 43.9923 22.5417 43.9933 22.4993Z" fill="#F0F0F0"/>
<path d="M43.972 23.1003C43.97 23.1424 43.9671 23.1842 43.9648 23.2262C43.9671 23.1843 43.9698 23.1424 43.972 23.1003Z" fill="#F0F0F0"/>
<path d="M43.9424 23.5798C43.938 23.6416 43.9337 23.7034 43.9287 23.765C43.9337 23.7034 43.9379 23.6416 43.9424 23.5798Z" fill="#F0F0F0"/>
<path d="M43.8691 19.6016C43.8772 19.6751 43.8853 19.7486 43.8926 19.8223C43.8853 19.7485 43.8771 19.6751 43.8691 19.6016Z" fill="#F0F0F0"/>
<path d="M43.9648 20.7717C43.9672 20.8137 43.97 20.8555 43.972 20.8975C43.9699 20.8555 43.9672 20.8136 43.9648 20.7717Z" fill="#F0F0F0"/>
<path d="M43.9902 21.3711C43.9914 21.4135 43.9923 21.4562 43.9933 21.4986C43.9924 21.456 43.9914 21.4135 43.9902 21.3711Z" fill="#F0F0F0"/>
<path d="M43.9287 20.2334C43.9337 20.295 43.938 20.3568 43.9424 20.4186C43.9379 20.3568 43.9337 20.295 43.9287 20.2334Z" fill="#F0F0F0"/>
<path d="M43.8141 19.1296C43.824 19.205 43.8328 19.2808 43.8418 19.3563C42.5361 8.45241 33.256 -0.000732422 22.0004 -0.000732422C15.9251 -0.000732422 10.4251 2.4618 6.44385 6.44319L19.1303 19.1297H43.8141V19.1296Z" fill="#D80027"/>
<path d="M43.8141 24.8698H19.1303L6.44385 37.5563C10.4251 41.5376 15.9251 44.0002 22.0004 44.0002C33.256 44.0002 42.5362 35.5471 43.8418 24.6431C43.8328 24.7186 43.8238 24.7944 43.8141 24.8698Z" fill="#6DA544"/>
<path d="M43.8921 24.178C43.8848 24.2517 43.8767 24.3252 43.8687 24.3988C43.8767 24.3252 43.8849 24.2518 43.8921 24.178Z" fill="#F0F0F0"/>
<path d="M43.9429 20.4192C43.9512 20.5368 43.9588 20.6547 43.9652 20.7729C43.9587 20.6547 43.9512 20.5368 43.9429 20.4192Z" fill="black"/>
<path d="M43.8413 19.3579C43.8512 19.4395 43.8606 19.5212 43.8693 19.603C43.8604 19.5212 43.851 19.4396 43.8413 19.3579Z" fill="black"/>
<path d="M43.8926 19.823C43.906 19.9596 43.9181 20.0965 43.929 20.2339C43.9182 20.0965 43.9061 19.9595 43.8926 19.823Z" fill="black"/>
<path d="M43.9999 21.9993C43.9999 22.1666 43.9973 22.3332 43.9937 22.4995C43.9973 22.3331 43.9999 22.1665 43.9999 21.9993Z" fill="black"/>
<path d="M43.9652 23.2273C43.9587 23.3455 43.9511 23.4634 43.9429 23.581C43.9511 23.4634 43.9586 23.3455 43.9652 23.2273Z" fill="black"/>
<path d="M43.929 23.7656C43.9181 23.9029 43.906 24.0399 43.8926 24.1763C43.9061 24.0399 43.9182 23.9029 43.929 23.7656Z" fill="black"/>
<path d="M43.8693 24.3975C43.8606 24.4793 43.8512 24.5609 43.8413 24.6426C43.851 24.561 43.8604 24.4793 43.8693 24.3975Z" fill="black"/>
<path d="M43.9937 21.499C43.9973 21.6654 43.9999 21.8321 43.9999 21.9993C43.9999 21.8321 43.9973 21.6654 43.9937 21.499Z" fill="black"/>
<path d="M43.9727 20.8987C43.9804 21.0561 43.9862 21.2142 43.9907 21.3725C43.9862 21.2141 43.9805 21.0561 43.9727 20.8987Z" fill="black"/>
<path d="M43.9907 22.6282C43.9862 22.7865 43.9804 22.9445 43.9727 23.1019C43.9806 22.9444 43.9863 22.7865 43.9907 22.6282Z" fill="black"/>
<path d="M43.9795 21.0362H18.3224L5.14335 7.85913C4.71735 8.30841 4.25561 8.93575 3.97004 9.38254L16.5735 21.9926L3.95947 34.607C4.20921 35.0513 4.75328 35.7088 5.13527 36.1367L18.3227 22.9493H43.9826C43.9962 22.632 44.0005 22.3134 44.0005 21.9928C44.0004 21.5633 43.9886 21.2466 43.9795 21.0362Z" fill="#FFDA44"/>
<path d="M5.3446 26.6911V24.8484C7.18348 24.8484 8.67939 23.3523 8.67939 21.5136C8.67939 20.2126 7.6209 19.1542 6.31999 19.1542C5.43371 19.1542 4.71261 19.8752 4.71261 20.7616C4.71261 21.3284 5.17367 21.7895 5.74051 21.7895C6.06088 21.7895 6.32153 21.5287 6.32153 21.2083H8.1642C8.1642 22.5449 7.07692 23.6322 5.7406 23.6322C4.15772 23.6323 2.87012 22.3444 2.87012 20.7618C2.87012 18.8594 4.41785 17.3118 6.32007 17.3118C8.63711 17.3118 10.5222 19.1969 10.5222 21.5138C10.5221 24.3684 8.19952 26.6911 5.3446 26.6911Z" fill="#FFDA44"/>
</g>
<defs>
<clipPath id="clip0">
<rect width="44" height="44" fill="white"/>
</clipPath>
</defs>
</svg>
