<svg width="44" height="44" viewBox="0 0 44 44" fill="none" xmlns="http://www.w3.org/2000/svg">
<path d="M44 22C44 34.1502 34.1502 44 22 44C9.84981 44 0 34.1502 0 22C0 22.0052 22 0.00240625 22 0C34.1502 0 44 9.84981 44 22Z" fill="#0052B4"/>
<path d="M21.9409 21.9995H21.9998C21.9998 21.9798 21.9998 21.9605 21.9998 21.9407C21.9802 21.9604 21.9606 21.9799 21.9409 21.9995Z" fill="#F0F0F0"/>
<path d="M22 11.4782C22 7.60719 22 5.07074 22 0H21.9963C9.84775 0.0020625 0 9.85093 0 22H11.4782V15.5366L17.9418 22H21.9412C21.9608 21.9804 21.9805 21.9608 22.0001 21.9411C22.0001 20.459 22.0001 19.1365 22.0001 17.9419L15.5365 11.4782H22Z" fill="#F0F0F0"/>
<path d="M11.1308 2.86987C7.68992 4.82916 4.82941 7.68968 2.87012 11.1305V22.0003H8.60928V8.60921V8.60904H22.0006C22.0006 6.79894 22.0006 5.07451 22.0006 2.86987H11.1308Z" fill="#D80027"/>
<path d="M22.0007 19.295L14.1844 11.4788C14.1844 11.4788 11.479 11.4789 11.479 11.4788V11.4789L22.0006 22.0004H22.0007C22.0007 22.0004 22.0007 20.135 22.0007 19.295Z" fill="#D80027"/>
<path d="M38.099 16.3247L38.5738 17.7862H40.1105L38.8673 18.6894L39.3422 20.1507L38.099 19.2476L36.8558 20.1507L37.3307 18.6894L36.0874 17.7862H37.6241L38.099 16.3247Z" fill="#D80027"/>
<path d="M32.6061 26.8467L33.3185 29.0389H35.6234L33.7586 30.3937L34.471 32.5858L32.6061 31.231L30.7413 32.5858L31.4537 30.3937L29.5889 29.0389H31.8938L32.6061 26.8467Z" fill="#D80027"/>
<path d="M32.8141 9.62915L33.4077 11.4561H35.3285L33.7744 12.5849L34.3681 14.4117L32.8141 13.2826L31.2602 14.4117L31.8537 12.5849L30.2998 11.4561H32.2205L32.8141 9.62915Z" fill="#D80027"/>
<path d="M27.528 16.261L28.2403 18.4533H30.5453L28.6804 19.808L29.3929 22.0002L27.528 20.6453L25.6632 22.0002L26.3756 19.808L24.5107 18.4533H26.8157L27.528 16.261Z" fill="#D80027"/>
</svg>
