<svg width="44" height="44" viewBox="0 0 44 44" fill="none" xmlns="http://www.w3.org/2000/svg">
<g clip-path="url(#clip0)">
<path d="M31.5654 2.18298C28.6731 0.784438 25.4283 0 22.0002 0C18.5722 0 15.3273 0.784438 12.435 2.18298L10.522 22L12.435 41.817C15.3273 43.2156 18.5722 44 22.0002 44C25.4283 44 28.6731 43.2156 31.5654 41.817L33.4785 22L31.5654 2.18298Z" fill="#D80027"/>
<path d="M12.4348 2.18365C5.07598 5.74207 0 13.2778 0 21.9999C0 30.722 5.07598 38.2577 12.4348 41.8161V2.18365Z" fill="black"/>
<path d="M31.5654 2.18365V41.8161C38.9243 38.2577 44.0002 30.722 44.0002 21.9999C44.0002 13.2778 38.9243 5.74207 31.5654 2.18365Z" fill="#496E2D"/>
<path d="M21.9998 14.3478C17.7736 14.3478 14.3477 17.7738 14.3477 22C14.3477 26.2261 17.7736 29.6521 21.9998 29.6521C26.2259 29.6521 29.6519 26.2261 29.6519 22C29.6519 17.7738 26.226 14.3478 21.9998 14.3478ZM21.9998 26.7826C19.3584 26.7826 17.2172 24.6413 17.2172 22C17.2172 19.3587 19.3585 17.2174 21.9998 17.2174C24.6411 17.2174 26.7824 19.3587 26.7824 22C26.7824 24.6413 24.6412 26.7826 21.9998 26.7826Z" fill="#FFDA44"/>
<path d="M21.9995 19.1306C20.9429 19.1306 20.0864 19.987 20.0864 21.0436V23.9132H23.9125V21.0436C23.9125 19.987 23.0561 19.1306 21.9995 19.1306Z" fill="#FFDA44"/>
</g>
<defs>
<clipPath id="clip0">
<rect width="44" height="44" fill="white"/>
</clipPath>
</defs>
</svg>
