<svg width="44" height="44" viewBox="0 0 44 44" fill="none" xmlns="http://www.w3.org/2000/svg">
<g clip-path="url(#clip0)">
<path d="M22 44C34.1503 44 44 34.1503 44 22C44 9.84974 34.1503 0 22 0C9.84974 0 0 9.84974 0 22C0 34.1503 9.84974 44 22 44Z" fill="#F0F0F0"/>
<path d="M42.2837 13.471C38.952 5.55689 31.1255 0 22 0C15.9247 0 10.4253 2.46288 6.44434 6.44437L11.9538 13.471H42.2837Z" fill="black"/>
<path d="M12.0163 30.4492L6.44434 37.5555C10.4253 41.537 15.9247 43.9998 22 43.9998C31.1563 43.9998 39.0051 38.4058 42.3177 30.4492H12.0163Z" fill="#496E2D"/>
<path d="M4.78271 16.1821V27.7401H43.2423C43.7358 25.9104 44.0001 23.9867 44.0001 22.001C44.0001 19.9864 43.7287 18.0356 43.2214 16.1821H4.78271Z" fill="#A2001D"/>
<path d="M6.44364 6.44312C-2.14788 15.0346 -2.14788 28.9643 6.44364 37.5559C9.99397 34.0056 13.4085 30.591 22 21.9995L6.44364 6.44312Z" fill="#0052B4"/>
<path d="M7.16614 16.5308L9.85125 20.2777L14.2451 18.8817L11.5113 22.5936L14.1964 26.3407L9.82152 24.8877L7.08768 28.5996L7.11775 23.9896L2.74268 22.5365L7.13614 21.1405L7.16614 16.5308Z" fill="#FFDA44"/>
</g>
<defs>
<clipPath id="clip0">
<rect width="44" height="44" fill="white"/>
</clipPath>
</defs>
</svg>
