<svg width="44" height="44" viewBox="0 0 44 44" fill="none" xmlns="http://www.w3.org/2000/svg">
<path d="M22 44C34.1503 44 44 34.1503 44 22C44 9.84974 34.1503 0 22 0C9.84974 0 0 9.84974 0 22C0 34.1503 9.84974 44 22 44Z" fill="#F0F0F0"/>
<path d="M43.0435 22.0003L43.8134 19.1307C43.6855 18.1527 43.4937 17.1947 43.2422 16.2612H20.0869V0.0839844C19.1106 0.168031 18.1529 0.316617 17.2174 0.52407L13.3912 2.86982L11.4782 2.67672C10.4714 3.22603 9.51229 3.85166 8.60866 4.54595V16.2611H0.757836C0.506297 17.1946 0.314484 18.1526 0.186609 19.1307L0.956437 22.0003L0.186523 24.8698C0.314398 25.8479 0.506211 26.8059 0.75775 27.7394H8.60857V39.4545C9.5122 40.1489 10.4714 40.7744 11.4781 41.3238L14.3476 41.1307L17.2172 43.4764C18.1528 43.6838 19.1106 43.8324 20.0867 43.9165V27.7394H43.2419C43.4934 26.806 43.6852 25.848 43.8131 24.8699L43.0435 22.0003Z" fill="#0052B4"/>
<path d="M43.8138 19.1305H17.2175H17.2174V0.522949C15.1843 0.973777 13.2568 1.7045 11.4782 2.675V19.1304H0.186227C0.0639375 20.0698 0 21.0275 0 22C0 22.9726 0.0639375 23.9303 0.186227 24.8696H11.4782H11.4782V41.325C13.2568 42.2954 15.1843 43.0263 17.2174 43.477V24.8698V24.8696H43.8138C43.9361 23.9303 44 22.9726 44 22C44 21.0275 43.9361 20.0698 43.8138 19.1305Z" fill="#D80027"/>
</svg>
