<svg width="44" height="44" viewBox="0 0 44 44" fill="none" xmlns="http://www.w3.org/2000/svg">
<path d="M44 22C44 34.1502 34.1502 44 22 44C9.84981 44 0 34.1502 0 22C0 22.0052 22 0.00240625 22 0C34.1502 0 44 9.84981 44 22Z" fill="#0052B4"/>
<path d="M21.9414 22H22.0003C22.0003 21.9803 22.0003 21.961 22.0003 21.9412C21.9807 21.9608 21.9611 21.9804 21.9414 22Z" fill="#F0F0F0"/>
<path d="M22 11.4782C22 7.60719 22 5.07074 22 0H21.9963C9.84766 0.0020625 0 9.85093 0 22H11.4782V15.5366L17.9417 22H21.9412C21.9608 21.9804 21.9804 21.9608 22.0001 21.9411C22.0001 20.459 22.0001 19.1365 22.0001 17.9419L15.5365 11.4782H22Z" fill="#F0F0F0"/>
<path d="M31.5649 16.2611C33.678 16.2611 35.391 14.5481 35.391 12.435C35.391 10.3219 33.678 8.60889 31.5649 8.60889C29.4518 8.60889 27.7388 10.3219 27.7388 12.435C27.7388 14.5481 29.4518 16.2611 31.5649 16.2611Z" fill="#6DA544"/>
<path d="M11.1303 2.86938C7.68943 4.82867 4.82883 7.68919 2.86963 11.13V21.9998H8.60879V8.60872V8.60855H22.0001C22.0001 6.79845 22.0001 5.07403 22.0001 2.86938H11.1303Z" fill="#D80027"/>
<path d="M22.0003 19.2947L14.1838 11.4784H11.4785V11.4786L22.0001 22.0001H22.0003C22.0003 22.0001 22.0003 20.1346 22.0003 19.2947Z" fill="#D80027"/>
<path d="M38.2609 11.4783H24.8696V17.2174H38.2609V11.4783Z" fill="#D80027"/>
<path d="M24.8696 25.8257V29.6518H26.8826C28.0896 30.8346 29.7418 31.5648 31.5653 31.5648C33.3888 31.5648 35.0409 30.8346 36.2479 29.6518H36.3479H38.2609V25.8257H24.8696Z" fill="#FFDA44"/>
<path d="M24.8696 16.261V22.0002C24.8696 27.1254 31.5653 28.6958 31.5653 28.6958C31.5653 28.6958 38.2609 27.1254 38.2609 22.0002V16.261H24.8696Z" fill="#338AF3"/>
<path d="M31.5648 19.3268C29.891 19.3268 29.891 20.8572 28.2172 20.8572C26.5434 20.8572 26.5434 19.3268 24.8696 19.3268V22.005C26.5434 22.005 26.5434 23.5355 28.2172 23.5355C29.891 23.5355 29.891 22.005 31.5648 22.005C33.2388 22.005 33.2388 23.5355 34.9129 23.5355C36.5869 23.5355 36.5869 22.005 38.2609 22.005V19.3268C36.5869 19.3268 36.5869 20.8572 34.9129 20.8572C33.2388 20.8572 33.2388 19.3268 31.5648 19.3268Z" fill="#F3F3F3"/>
<path d="M31.5648 13.9653C29.891 13.9653 29.891 15.4958 28.2172 15.4958C26.5434 15.4958 26.5434 13.9653 24.8696 13.9653V16.6436C26.5434 16.6436 26.5434 18.174 28.2172 18.174C29.891 18.174 29.891 16.6436 31.5648 16.6436C33.2388 16.6436 33.2388 18.174 34.9129 18.174C36.5869 18.174 36.5869 16.6436 38.2609 16.6436V13.9653C36.5869 13.9653 36.5869 15.4958 34.9129 15.4958C33.2388 15.4958 33.2388 13.9653 31.5648 13.9653Z" fill="#F3F3F3"/>
</svg>
