<svg width="44" height="44" viewBox="0 0 44 44" fill="none" xmlns="http://www.w3.org/2000/svg">
<path d="M22 44C34.1503 44 44 34.1503 44 22C44 9.84974 34.1503 0 22 0C9.84974 0 0 9.84974 0 22C0 34.1503 9.84974 44 22 44Z" fill="#6DA544"/>
<path d="M21.9996 8.60889L40.1735 22.0002L21.9996 35.3915L3.82568 22.0002L21.9996 8.60889Z" fill="#FFDA44"/>
<path d="M21.9998 29.6522C26.2259 29.6522 29.6519 26.2262 29.6519 22C29.6519 17.7739 26.2259 14.3479 21.9998 14.3479C17.7736 14.3479 14.3477 17.7739 14.3477 22C14.3477 26.2262 17.7736 29.6522 21.9998 29.6522Z" fill="#F0F0F0"/>
<path d="M18.1737 21.5217C16.8431 21.5217 15.5589 21.7241 14.3501 22.0997C14.4036 26.2797 17.8071 29.6522 21.9998 29.6522C24.5924 29.6522 26.8821 28.3617 28.2663 26.3893C25.8981 23.4247 22.2543 21.5217 18.1737 21.5217Z" fill="#0052B4"/>
<path d="M29.5099 23.4661C29.6021 22.9914 29.6518 22.5017 29.6518 22C29.6518 17.7738 26.2258 14.3479 21.9997 14.3479C18.8463 14.3479 16.1393 16.2558 14.9678 18.9798C16.0033 18.7653 17.0755 18.6523 18.1737 18.6523C22.6181 18.6522 26.6388 20.4997 29.5099 23.4661Z" fill="#0052B4"/>
</svg>
