<svg width="44" height="44" viewBox="0 0 44 44" fill="none" xmlns="http://www.w3.org/2000/svg">
<path d="M22 44C34.1503 44 44 34.1503 44 22C44 9.84974 34.1503 0 22 0C9.84974 0 0 9.84974 0 22C0 34.1503 9.84974 44 22 44Z" fill="#F0F0F0"/>
<path d="M40.3332 24.633C38.4999 24.633 38.4999 22.9567 36.6665 22.9567C34.8332 22.9567 34.8332 24.633 33 24.633C31.1668 24.633 31.1667 22.9567 29.3335 22.9567C27.5002 22.9567 27.5002 24.633 25.6668 24.633C23.8334 24.633 23.8333 22.9567 21.9998 22.9567C20.1665 22.9567 20.1665 24.633 18.3333 24.633C16.5003 24.633 16.5003 22.9567 14.667 22.9567C12.8335 22.9567 12.8335 24.633 11 24.633C9.16654 24.633 9.16654 22.9567 7.33307 22.9567C5.50002 22.9567 5.50002 24.633 3.66671 24.633C1.84329 24.633 1.83272 22.9751 0.0288086 22.9574C0.0795977 23.9637 0.199738 24.9517 0.38141 25.9179C1.84269 26.1325 1.97065 27.5662 3.66689 27.5662C5.50019 27.5662 5.50019 25.8901 7.33324 25.8901C9.16671 25.8901 9.16671 27.5662 11.0002 27.5662C12.8337 27.5662 12.8337 25.8901 14.6671 25.8901C16.5005 25.8901 16.5005 27.5662 18.3335 27.5662C20.1668 27.5662 20.1668 25.8901 22 25.8901C23.8335 25.8901 23.8335 27.5662 25.667 27.5662C27.5004 27.5662 27.5004 25.8901 29.3337 25.8901C31.167 25.8901 31.167 27.5662 33.0002 27.5662C34.8335 27.5662 34.8335 25.8901 36.6667 25.8901C38.5002 25.8901 38.5002 27.5662 40.3334 27.5662C42.0297 27.5662 42.1577 26.1326 43.6191 25.9179C43.8008 24.9516 43.9208 23.9638 43.9718 22.9574C42.1675 22.9752 42.1567 24.633 40.3332 24.633Z" fill="#0052B4"/>
<path d="M36.6662 28.6956C34.8329 28.6956 34.8329 30.3719 32.9997 30.3719C31.1664 30.3719 31.1664 28.6956 29.3331 28.6956C27.4998 28.6956 27.4998 30.3719 25.6664 30.3719C23.833 30.3719 23.833 28.6956 21.9995 28.6956C20.1662 28.6956 20.1662 30.3719 18.333 30.3719C16.4999 30.3719 16.4999 28.6956 14.6666 28.6956C12.8331 28.6956 12.8331 30.3719 10.9997 30.3719C9.16619 30.3719 9.16619 28.6956 7.33272 28.6956C5.49967 28.6956 5.49967 30.3719 3.66636 30.3719C2.31586 30.3719 1.9593 29.4628 1.13232 28.984C1.63317 30.4809 2.29102 31.9057 3.08551 33.2398C3.25756 33.2813 3.44886 33.3052 3.66628 33.3052C5.49958 33.3052 5.49958 31.629 7.33263 31.629C9.16611 31.629 9.16611 33.3052 10.9996 33.3052C12.8331 33.3052 12.8331 31.629 14.6665 31.629C16.4998 31.629 16.4998 33.3052 18.3329 33.3052C20.1662 33.3052 20.1662 31.629 21.9994 31.629C23.8329 31.629 23.8329 33.3052 25.6664 33.3052C27.4998 33.3052 27.4998 31.629 29.3331 31.629C31.1664 31.629 31.1664 33.3052 32.9996 33.3052C34.8328 33.3052 34.8329 31.629 36.6661 31.629C38.4996 31.629 38.4996 33.3052 40.3328 33.3052C40.5504 33.3052 40.7419 33.2813 40.914 33.2397C41.7086 31.9057 42.3663 30.4809 42.8671 28.984C42.0401 29.4629 41.6835 30.3719 40.3328 30.3719C38.4997 30.3719 38.4997 28.6956 36.6662 28.6956Z" fill="#0052B4"/>
<path d="M43.4883 17.2682C42.1482 17.5464 41.9773 18.8936 40.3332 18.8936C38.4999 18.8936 38.4999 17.2173 36.6665 17.2173C34.8332 17.2173 34.8332 18.8936 32.9999 18.8936C31.1667 18.8936 31.1666 17.2173 29.3334 17.2173C27.5001 17.2173 27.5001 18.8936 25.6667 18.8936C23.8333 18.8936 23.8332 17.2173 21.9998 17.2173C21.0092 17.2173 20.5537 17.7066 20.0552 18.1566V21.0899C20.5537 20.64 21.0091 20.1508 21.9998 20.1508C23.8332 20.1508 23.8332 21.8269 25.6667 21.8269C27.5002 21.8269 27.5002 20.1508 29.3334 20.1508C31.1667 20.1508 31.1667 21.8269 32.9999 21.8269C34.8332 21.8269 34.8332 20.1508 36.6665 20.1508C38.4999 20.1508 38.4999 21.8269 40.3332 21.8269C42.0295 21.8269 42.1574 20.3933 43.6188 20.1786C43.7125 20.1786 43.8172 20.1777 43.9243 20.1764C43.8431 19.187 43.6962 18.2162 43.4883 17.2682Z" fill="#0052B4"/>
<path d="M41.8811 12.5705C41.5012 12.8895 41.0621 13.1546 40.3332 13.1546C38.4999 13.1546 38.4999 11.4783 36.6665 11.4783C34.8332 11.4783 34.8332 13.1546 32.9999 13.1546C31.1667 13.1546 31.1666 11.4783 29.3334 11.4783C27.5001 11.4783 27.5001 13.1546 25.6667 13.1546C23.8333 13.1546 23.8332 11.4783 21.9998 11.4783C21.0092 11.4783 20.5537 11.9676 20.0552 12.4176V15.3509C20.5537 14.901 21.0091 14.4117 21.9998 14.4117C23.8332 14.4117 23.8332 16.0879 25.6667 16.0879C27.5 16.0879 27.5 14.4117 29.3333 14.4117C31.1666 14.4117 31.1666 16.0879 32.9999 16.0879C34.8331 16.0879 34.8331 14.4117 36.6664 14.4117C38.4999 14.4117 38.4999 16.0879 40.3331 16.0879C41.6339 16.0879 42.0128 15.2453 42.7776 14.7552C42.517 14.0078 42.2177 13.2787 41.8811 12.5705Z" fill="#0052B4"/>
<path d="M36.8231 5.74348C36.7723 5.74073 36.7204 5.73901 36.6665 5.73901C34.8332 5.73901 34.8332 7.41531 33 7.41531C31.1667 7.41531 31.1667 5.73901 29.3335 5.73901C27.5002 5.73901 27.5002 7.41531 25.6667 7.41531C23.8332 7.41531 23.8332 5.73901 21.9998 5.73901C21.0092 5.73901 20.5537 6.22834 20.0552 6.67831V9.61162C20.5537 9.16173 21.0091 8.67249 21.9998 8.67249C23.8332 8.67249 23.8332 10.3486 25.6667 10.3486C27.5002 10.3486 27.5002 8.67249 29.3334 8.67249C31.1667 8.67249 31.1667 10.3486 32.9999 10.3486C34.8332 10.3486 34.8332 8.67249 36.6665 8.67249C38.4999 8.67249 38.4999 10.3486 40.3332 10.3486C40.4461 10.3486 40.5515 10.3419 40.6514 10.33C39.5865 8.6315 38.2971 7.08832 36.8231 5.74348Z" fill="#0052B4"/>
<path d="M27.6234 0.726588C27.1201 1.17931 26.6654 1.67654 25.6668 1.67654C23.8334 1.67654 23.8334 0.000416016 22 0.000244141H21.9996C21.0516 0.000330078 20.5939 0.448666 20.1191 0.881705V3.8151C20.5938 3.38206 21.0516 2.93363 22 2.93363C23.8334 2.93363 23.8334 4.60976 25.6669 4.60976C27.5003 4.60976 27.5003 2.93363 29.3336 2.93363C31.1669 2.93363 31.1669 4.60976 33.0002 4.60976C33.7694 4.60976 34.2156 4.31448 34.6102 3.97193C32.5188 2.50627 30.1609 1.39544 27.6234 0.726588Z" fill="#0052B4"/>
<path d="M25.6664 41.8501C23.8329 41.8501 23.8329 40.1738 21.9994 40.1738C20.1661 40.1738 20.1661 41.8501 18.3329 41.8501C16.4999 41.8501 16.4999 40.1738 14.6666 40.1738C13.2623 40.1738 12.9329 41.1564 12.0322 41.6169C14.5158 42.8813 17.2716 43.6873 20.1883 43.9251C20.6394 43.513 21.0976 43.1072 21.9994 43.1072C22.9015 43.1072 23.3597 43.513 23.8109 43.9252C26.7277 43.6875 29.4836 42.8814 31.9673 41.6169C31.0665 41.1566 30.7372 40.1737 29.3331 40.1737C27.4999 40.1738 27.4999 41.8501 25.6664 41.8501Z" fill="#0052B4"/>
<path d="M32.9998 36.1114C31.1665 36.1114 31.1665 34.4351 29.3333 34.4351C27.5 34.4351 27.5 36.1114 25.6666 36.1114C23.8331 36.1114 23.8331 34.4351 21.9997 34.4351C20.1664 34.4351 20.1664 36.1114 18.3331 36.1114C16.5001 36.1114 16.5001 34.4351 14.6668 34.4351C12.8333 34.4351 12.8333 36.1114 10.9998 36.1114C9.16636 36.1114 9.16636 34.4351 7.33288 34.4351C6.01452 34.4351 5.6443 35.3022 4.8584 35.789C5.35099 36.4007 5.8747 36.9863 6.42891 37.5414C6.67718 37.4354 6.96851 37.3684 7.3328 37.3684C9.16627 37.3684 9.16627 39.0446 10.9997 39.0446C12.8332 39.0446 12.8332 37.3684 14.6667 37.3684C16.5 37.3684 16.5 39.0446 18.3331 39.0446C20.1664 39.0446 20.1664 37.3684 21.9996 37.3684C23.8331 37.3684 23.8331 39.0446 25.6665 39.0446C27.5 39.0446 27.5 37.3684 29.3332 37.3684C31.1664 37.3684 31.1665 39.0446 32.9998 39.0446C34.833 39.0446 34.8331 37.3684 36.6663 37.3684C37.031 37.3684 37.3223 37.4354 37.5708 37.5416C38.1251 36.9864 38.6488 36.4008 39.1414 35.7891C38.3554 35.3023 37.9852 34.4351 36.6664 34.4351C34.8331 34.4351 34.8331 36.1114 32.9998 36.1114Z" fill="#0052B4"/>
<path d="M21.9414 22H22.0003C22.0003 21.9803 22.0003 21.961 22.0003 21.9412C21.9807 21.9608 21.9611 21.9804 21.9414 22Z" fill="#F0F0F0"/>
<path d="M21.9998 11.4782V17.9418L14.3477 10.5217L21.9998 11.4782Z" fill="#0052B4"/>
<path d="M11.4781 21.9998H17.9414L11.478 13.3911L10.5215 20.0868L11.4781 21.9998Z" fill="#0052B4"/>
<path d="M22 11.4782C22 7.60719 22 5.07074 22 0H21.9963C9.84775 0.0020625 0 9.85093 0 22H11.4783V15.5366L17.9417 22H21.9412C21.9608 21.9804 21.9804 21.9608 22.0001 21.9411C22.0001 20.459 22.0001 19.1365 22.0001 17.9419L15.5365 11.4782H22Z" fill="#F0F0F0"/>
<path d="M11.1303 2.86938C7.68943 4.82867 4.82892 7.68919 2.86963 11.13V21.9998H8.60879V8.60872V8.60855H22.0001C22.0001 6.79845 22.0001 5.07403 22.0001 2.86938H11.1303Z" fill="#D80027"/>
<path d="M22.0003 19.2947L14.1838 11.4784H11.4785V11.4786L22.0001 22.0001H22.0003C22.0003 22.0001 22.0003 20.1346 22.0003 19.2947Z" fill="#D80027"/>
<path d="M28.6958 11.4783H37.3045L33.0002 15.7826L28.6958 11.4783Z" fill="#6DA544"/>
<path d="M33.9565 14.8262H32.0435V20.087H33.9565V14.8262Z" fill="#A2001D"/>
<path d="M33.9565 28.6956H32.0435V33.9564H33.9565V28.6956Z" fill="#A2001D"/>
<path d="M38.7395 25.8263C38.7395 24.2415 37.4547 22.9567 35.8699 22.9567C35.1348 22.9567 34.4647 23.2335 33.9569 23.688V22.0002H34.9134V20.0871H33.9569V19.1306H32.0438V20.0871H31.0873V22.0002H32.0438V23.688C31.536 23.2335 30.8659 22.9567 30.1308 22.9567C28.546 22.9567 27.2612 24.2415 27.2612 25.8263C27.2612 26.6759 27.6308 27.4391 28.2177 27.9646V29.6524H37.7829V27.9646C38.3699 27.4391 38.7395 26.6759 38.7395 25.8263Z" fill="#FFDA44"/>
<path d="M35.8694 24.8694C35.5677 24.8694 35.3564 25.0019 35.2322 25.1129L33.9563 26.2551H32.0434L30.7675 25.1129C30.6433 25.0019 30.432 24.8694 30.1303 24.8694C29.6029 24.8694 29.1738 25.2985 29.1738 25.8259C29.1738 26.1974 29.3741 26.4321 29.4935 26.5391L30.1304 27.1093V27.7389H35.8696V27.1093L36.5064 26.5391C36.6258 26.4322 36.8261 26.1974 36.8261 25.8259C36.826 25.2985 36.3969 24.8694 35.8694 24.8694Z" fill="#D80027"/>
</svg>
