<svg width="44" height="44" viewBox="0 0 44 44" fill="none" xmlns="http://www.w3.org/2000/svg">
<path d="M2.18298 12.4343C0.784438 15.3266 0 18.5714 0 21.9995C0 25.4276 0.784438 28.6724 2.18298 31.5647L22 33.4777L41.817 31.5647C43.2156 28.6724 44 25.4276 44 21.9995C44 18.5714 43.2156 15.3266 41.817 12.4343L22 10.5212L2.18298 12.4343Z" fill="#F0F0F0"/>
<path d="M2.18359 31.5645C5.74192 38.9233 13.2777 43.9992 21.9998 43.9992C30.722 43.9992 38.2578 38.9233 41.8161 31.5645H2.18359Z" fill="black"/>
<path d="M2.18359 12.4348H41.8161C38.2578 5.0759 30.722 0 21.9998 0C13.2777 0 5.74192 5.0759 2.18359 12.4348Z" fill="#D80027"/>
<path d="M6.44413 6.44312C-2.14739 15.0346 -2.14739 28.9643 6.44413 37.5559C9.99446 34.0056 13.409 30.591 22.0005 21.9995L6.44413 6.44312Z" fill="#496E2D"/>
</svg>
