<svg width="44" height="44" viewBox="0 0 44 44" fill="none" xmlns="http://www.w3.org/2000/svg">
<g clip-path="url(#clip0)">
<path d="M37.5564 37.5563C28.9649 46.1478 15.0353 46.1478 6.44363 37.5563C-2.14789 28.9648 -2.14789 15.0351 6.44371 6.4435C15.0352 -2.14801 27.6121 -0.795269 36.2036 7.79633C44.795 16.3878 46.1479 28.9648 37.5564 37.5563Z" fill="black"/>
<path d="M6.44385 6.44405C15.0354 -2.14747 28.9649 -2.14729 37.5566 6.44414C46.1481 15.0357 46.1481 28.9653 37.5566 37.5569" fill="#A2001D"/>
<path d="M16.8123 29.6523L17.1685 30.7485H18.321L17.3886 31.4258L17.7448 32.522L16.8123 31.8445L15.8799 32.522L16.236 31.4258L15.3037 30.7485H16.4561L16.8123 29.6523Z" fill="#F0F0F0"/>
<path d="M13.8693 19.1301L14.4631 20.957H16.3838L14.8298 22.0859L15.4233 23.9128L13.8693 22.7837L12.3154 23.9128L12.9091 22.0859L11.355 20.957H13.2759L13.8693 19.1301Z" fill="#F0F0F0"/>
<path d="M13.8693 32.5215L14.4629 34.3483H16.3838L14.8296 35.4772L15.4233 37.3041L13.8693 36.1749L12.3154 37.3041L12.9089 35.4772L11.355 34.3483H13.2756L13.8693 32.5215Z" fill="#F0F0F0"/>
<path d="M19.485 23.9126L20.0787 25.7395H21.9994L20.4454 26.8683L21.039 28.6952L19.485 27.5661L17.9311 28.6952L18.5247 26.8683L16.9707 25.7395H18.8915L19.485 23.9126Z" fill="#F0F0F0"/>
<path d="M8.25313 23.9126L8.84687 25.7395H10.7675L9.21357 26.8683L9.80705 28.6952L8.25313 27.5661L6.69912 28.6952L7.29286 26.8683L5.73877 25.7395H7.65956L8.25313 23.9126Z" fill="#F0F0F0"/>
<path d="M36.8288 16.2904C35.8456 15.3072 34.568 14.7263 33.1952 14.6265L37.3047 11.4303C35.668 9.79359 33.4744 9.05444 31.3338 9.21076C31.0776 8.28986 30.589 7.42 29.8648 6.6958L28.2415 9.94235C28.1351 9.7483 28.0002 9.56568 27.8357 9.40129C26.9018 8.4674 25.3877 8.4674 24.4539 9.40129C23.5201 10.3352 23.52 11.8492 24.4539 12.7831C24.6183 12.9475 24.801 13.0823 24.9951 13.1889L21.7485 14.8122C22.4729 15.5366 23.3434 16.0255 24.2648 16.2816C24.1079 18.4221 24.8463 20.6154 26.4831 22.2522L30.0736 17.6358C30.3437 17.3698 30.7004 17.223 31.0799 17.223C31.4632 17.223 31.8234 17.3722 32.0944 17.6433C32.3654 17.9143 32.5147 18.2746 32.5147 18.6578C32.5147 19.0411 32.3654 19.4013 32.0944 19.6724L33.4472 21.0252C34.0795 20.3929 34.4278 19.5521 34.4278 18.6579C34.4278 17.9262 34.1943 17.2306 33.7635 16.6555C34.3913 16.8232 34.9847 17.1516 35.4763 17.6433C36.9682 19.1351 36.9682 21.5625 35.4763 23.0542L36.8291 24.407C37.913 23.323 38.51 21.8818 38.51 20.3488C38.5098 18.8156 37.9127 17.3744 36.8288 16.2904Z" fill="#FFDA44"/>
</g>
<defs>
<clipPath id="clip0">
<rect width="44" height="44" fill="white"/>
</clipPath>
</defs>
</svg>
