<svg width="44" height="44" viewBox="0 0 44 44" fill="none" xmlns="http://www.w3.org/2000/svg">
<path d="M22 44C34.1502 44 44 34.1502 44 22C44 18.3079 43.0891 14.8289 41.4819 11.7734L21.9741 22.0258L32.2266 2.51814C29.1711 0.910938 25.6921 0 22 0C9.84981 0 0 9.84981 0 22C0 28.0752 2.46245 33.5752 6.44359 37.5564C10.4248 41.5376 15.9248 44 22 44Z" fill="#0052B4"/>
<path d="M41.4587 11.7972C40.4517 9.88041 39.1425 8.08079 37.5308 6.46912C35.919 4.85745 34.1197 3.54819 32.2027 2.54126L6.41797 37.5818L41.4587 11.7972Z" fill="#F0F0F0"/>
<path d="M6.41797 37.582L41.4587 11.7973C40.4517 9.88053 39.1425 8.08091 37.5308 6.46924L6.41797 37.582Z" fill="#FF9811"/>
<path d="M19.1041 12.9012L16.4174 14.165L17.8482 16.7672L14.9306 16.209L14.5609 19.1563L12.5286 16.9886L10.4964 19.1563L10.1269 16.209L7.20927 16.767L8.63988 14.1649L5.95312 12.9012L8.63996 11.6373L7.20927 9.03532L10.1267 9.59331L10.4965 6.646L12.5286 8.81377L14.5609 6.646L14.9306 9.59331L17.8483 9.03532L16.4175 11.6374L19.1041 12.9012Z" fill="#F0F0F0"/>
</svg>
