<svg width="44" height="44" viewBox="0 0 44 44" fill="none" xmlns="http://www.w3.org/2000/svg">
<path d="M44 22C44 34.1502 34.1502 44 22 44C9.84981 44 0 34.1502 0 22C7.55648 14.4435 13.9652 8.03481 22 0C34.1502 0 44 9.84981 44 22Z" fill="#D80027"/>
<path d="M22 22C22 9.84981 22 8.41741 22 0C9.84981 0 0 9.84981 0 22H22Z" fill="#0052B4"/>
<path d="M19.1305 12.8752L16.4437 14.1391L17.8744 16.7412L14.9569 16.183L14.5871 19.1304L12.555 16.9627L10.5227 19.1304L10.1531 16.183L7.23555 16.7411L8.66624 14.139L5.97949 12.8752L8.66633 11.6115L7.23555 9.00927L10.153 9.56743L10.5228 6.62012L12.555 8.7878L14.5872 6.62012L14.9569 9.56743L17.8744 9.00927L16.4437 11.6115L19.1305 12.8752Z" fill="#F0F0F0"/>
<path d="M12.5556 16.9709C14.8173 16.9709 16.6508 15.1374 16.6508 12.8757C16.6508 10.614 14.8173 8.78052 12.5556 8.78052C10.2939 8.78052 8.46045 10.614 8.46045 12.8757C8.46045 15.1374 10.2939 16.9709 12.5556 16.9709Z" fill="#0052B4"/>
<path d="M12.5551 15.0566C11.3519 15.0566 10.373 14.0777 10.373 12.8745C10.373 11.6713 11.352 10.6924 12.5551 10.6924C13.7583 10.6924 14.7372 11.6713 14.7372 12.8745C14.7371 14.0777 13.7581 15.0566 12.5551 15.0566Z" fill="#F0F0F0"/>
</svg>
