<svg width="44" height="44" viewBox="0 0 44 44" fill="none" xmlns="http://www.w3.org/2000/svg">
<path d="M22 44C34.1503 44 44 34.1503 44 22C44 9.84974 34.1503 0 22 0C9.84974 0 0 9.84974 0 22C0 34.1503 9.84974 44 22 44Z" fill="#F0F0F0"/>
<path d="M39.2808 17.6952H32.0431C32.0431 16.3746 30.9725 15.304 29.6518 15.304L27.7388 19.13C27.7388 19.13 29.7794 24.8692 29.7156 24.8692H32.1069C33.4276 24.8692 34.4981 23.7986 34.4981 22.4779C35.8189 22.4779 36.8894 21.4073 36.8894 20.0866H36.8098C38.1304 20.0865 39.2808 19.016 39.2808 17.6952Z" fill="#ACABB1"/>
<path d="M4.71875 17.6952H11.9564C11.9564 16.3746 13.027 15.304 14.3477 15.304L16.2608 19.13C16.2608 19.13 14.2201 24.8692 14.284 24.8692H11.8927C10.5719 24.8692 9.5014 23.7986 9.5014 22.4779C8.18066 22.4779 7.11012 21.4073 7.11012 20.0866H7.18976C5.86902 20.0865 4.71875 19.016 4.71875 17.6952Z" fill="#ACABB1"/>
<path d="M29.6519 30.6089V31.5654H14.3476V30.6089H10.5215V34.435H14.3476V35.3914H29.6519V34.435H33.478V30.6089H29.6519Z" fill="#FFDA44"/>
<path d="M14.3477 15.3049V24.87C14.3477 30.7274 21.9998 32.5222 21.9998 32.5222C21.9998 32.5222 29.6519 30.7274 29.6519 24.87V15.3049L21.9998 14.3484L14.3477 15.3049Z" fill="#0052B4"/>
<path d="M29.6519 19.1311H14.3477V24.8702H29.6519V19.1311Z" fill="#D80027"/>
<path d="M25.8259 10.521V11.9558L24.8694 12.4341L23.9129 11.4775V8.60791H20.0868V11.4775L19.1303 12.4341L18.1737 11.9558V10.521H14.3477V15.3036H29.652V10.521H25.8259Z" fill="#FFDA44"/>
</svg>
