<svg width="44" height="44" viewBox="0 0 44 44" fill="none" xmlns="http://www.w3.org/2000/svg">
<path d="M22 44C34.1503 44 44 34.1503 44 22C44 9.84974 34.1503 0 22 0C9.84974 0 0 9.84974 0 22C0 34.1503 9.84974 44 22 44Z" fill="#F0F0F0"/>
<path d="M22 16.2613H43.2421C42.6905 14.2147 41.8521 12.2862 40.771 10.5221H22V16.2613Z" fill="#338AF3"/>
<path d="M8.30525 39.2171H35.6946C37.7024 37.6179 39.4242 35.6756 40.7709 33.4779H3.229C4.57573 35.6755 6.29757 37.6179 8.30525 39.2171Z" fill="#338AF3"/>
<path d="M7.65212 5.32251C5.92254 6.81189 4.42732 8.56579 3.229 10.5214H7.65212V5.32251Z" fill="#338AF3"/>
<path d="M22 22.0002C22 19.7592 22 17.8838 22 16.261H13.3913V22.0002H7.65213V16.261H0.757883C0.264688 18.0909 0 20.0144 0 22.0002C0 23.9859 0.264688 25.9094 0.757883 27.7393H43.2422C43.7353 25.9094 44 23.9859 44 22.0002H22Z" fill="#338AF3"/>
<path d="M21.9998 0C18.9448 0 16.0354 0.623305 13.3911 1.74866V10.5218H21.9998C21.9998 8.51838 21.9998 6.8145 21.9998 4.78259H35.6946C31.9364 1.78956 27.1775 0 21.9998 0Z" fill="#338AF3"/>
</svg>
