<svg width="44" height="44" viewBox="0 0 44 44" fill="none" xmlns="http://www.w3.org/2000/svg">
<path d="M22 44C34.1503 44 44 34.1503 44 22C44 9.84974 34.1503 0 22 0C9.84974 0 0 9.84974 0 22C0 34.1503 9.84974 44 22 44Z" fill="#F0F0F0"/>
<path d="M0 22.0001C0 30.339 4.63977 37.5939 11.4782 41.3251V2.67505C4.63977 6.40628 0 13.6611 0 22.0001Z" fill="#D80027"/>
<path d="M0 22.0002C0 32.1648 6.89399 40.7178 16.2608 43.2423V0.758057C6.89399 3.28256 0 11.8356 0 22.0002Z" fill="#0052B4"/>
<path d="M7.89111 7.6521V11.239C7.89111 13.022 9.33641 14.4673 11.1194 14.4673C12.9023 14.4673 14.3476 13.022 14.3476 11.239V7.6521H7.89111Z" fill="#D80027"/>
<path d="M11.1194 12.5541C10.3942 12.5541 9.8042 11.9642 9.8042 11.239V9.56506H12.4347V11.239C12.4347 11.9642 11.8446 12.5541 11.1194 12.5541Z" fill="#F0F0F0"/>
<path d="M23.9123 22.9563H18.1732C18.1732 21.8998 17.3166 21.0432 16.2601 21.0432C15.2036 21.0432 14.3471 21.8998 14.3471 22.9563H8.60791C8.60791 24.0129 9.52822 24.8693 10.5846 24.8693H10.521C10.521 25.9259 11.3773 26.7824 12.434 26.7824C12.434 27.839 13.2904 28.6954 14.3471 28.6954H18.1732C19.2297 28.6954 20.0862 27.839 20.0862 26.7824C21.1428 26.7824 21.9993 25.9259 21.9993 24.8693H21.9356C22.992 24.8693 23.9123 24.0129 23.9123 22.9563Z" fill="#FFDA44"/>
<path d="M24.6988 19.8951L24.1966 20.6992L24.8058 21.4252L23.8859 21.1962L23.3836 22L23.3173 21.0543L22.3975 20.8249L23.2767 20.4698L23.2105 19.524L23.8199 20.2504L24.6988 19.8951Z" fill="#FFDA44"/>
<path d="M21.7682 17.4359L21.5713 18.3633L22.3923 18.8372L21.4494 18.9367L21.2523 19.8638L20.8666 18.9977L19.9238 19.0967L20.6284 18.4624L20.2429 17.5964L21.0638 18.0704L21.7682 17.4359Z" fill="#FFDA44"/>
<path d="M18.1736 16.1277L18.3055 17.0666L19.2391 17.2311L18.3871 17.6467L18.519 18.5856L17.8605 17.9036L17.0084 18.3192L17.4535 17.4821L16.7949 16.8002L17.7286 16.9647L18.1736 16.1277Z" fill="#FFDA44"/>
<path d="M14.3477 16.1277L14.7928 16.9647L15.7264 16.8001L15.0678 17.4822L15.5129 18.3193L14.6609 17.9036L14.0023 18.5854L14.1343 17.6467L13.2822 17.2312L14.2158 17.0666L14.3477 16.1277Z" fill="#FFDA44"/>
<path d="M10.7527 17.4359L11.4572 18.0704L12.2781 17.5964L11.8928 18.4627L12.597 19.0968L11.6544 18.9977L11.2686 19.8638L11.0718 18.9366L10.1289 18.8376L10.9498 18.3634L10.7527 17.4359Z" fill="#FFDA44"/>
<path d="M7.82215 19.8952L8.70138 20.2504L9.31042 19.5242L9.24459 20.4701L10.1235 20.8253L9.20351 21.0544L9.13717 22L8.63521 21.1963L7.71533 21.4255L8.32472 20.6993L7.82215 19.8952Z" fill="#FFDA44"/>
</svg>
