<svg width="44" height="44" viewBox="0 0 44 44" fill="none" xmlns="http://www.w3.org/2000/svg">
<path d="M44 22C44 34.1502 34.1502 44 22 44C9.84981 44 0 34.1502 0 22C0 22.0052 22 0.00240625 22 0C34.1502 0 44 9.84981 44 22Z" fill="#0052B4"/>
<path d="M21.9414 22H22.0003C22.0003 21.9803 22.0003 21.961 22.0003 21.9412C21.9807 21.9608 21.9611 21.9804 21.9414 22Z" fill="#F0F0F0"/>
<path d="M22 11.4782C22 7.60719 22 5.07074 22 0H21.9963C9.84766 0.0020625 0 9.85093 0 22H11.4782V15.5366L17.9417 22H21.9412C21.9608 21.9804 21.9804 21.9608 22.0001 21.9411C22.0001 20.459 22.0001 19.1365 22.0001 17.9419L15.5365 11.4782H22Z" fill="#F0F0F0"/>
<path d="M11.1303 2.86945C7.68943 4.82873 4.82883 7.68925 2.86963 11.1301V21.9999H8.60879V8.60878V8.60861H22.0001C22.0001 6.79851 22.0001 5.07409 22.0001 2.86945H11.1303Z" fill="#D80027"/>
<path d="M22.0003 19.2947L14.1838 11.4784H11.4785V11.4786L22.0001 22.0001H22.0003C22.0003 22.0001 22.0003 20.1346 22.0003 19.2947Z" fill="#D80027"/>
<path d="M37.2058 25.2205C37.8384 24.3502 38.2609 23.2873 38.2609 22.0001V12.4349C37.4615 13.0354 36.4681 13.3914 35.3914 13.3914C33.8268 13.3914 32.4378 12.64 31.5653 11.4785C30.6927 12.64 29.3037 13.3914 27.7392 13.3914C26.6624 13.3914 25.6689 13.0354 24.8696 12.4351V22.0001C24.8696 23.2873 25.2922 24.3502 25.9248 25.2205H37.2058Z" fill="#F3F3F3"/>
<path d="M35.2165 20.2255C35.521 19.4825 35.7579 18.3965 35.7579 17.8561C35.7579 16.9877 34.6257 16.2838 34.6257 16.2838C34.6257 16.2838 33.4936 16.9877 33.4936 17.8561C33.4936 18.3966 33.7305 19.4826 34.0349 20.2255L33.3813 21.7012C33.7655 21.8574 34.1854 21.9442 34.6258 21.9442C35.0662 21.9442 35.486 21.8573 35.8703 21.7012L35.2165 20.2255Z" fill="#FF9811"/>
<path d="M30.7915 15.4474C29.9961 15.5551 28.9371 15.8933 28.469 16.1635C27.717 16.5977 27.6733 17.93 27.6733 17.93C27.6733 17.93 28.8491 18.5585 29.6011 18.1243C30.0693 17.854 30.8912 17.1061 31.3821 16.4708L32.9871 16.2989C32.9303 15.8883 32.7952 15.4812 32.5753 15.0999C32.355 14.7186 32.0701 14.3982 31.7427 14.1436L30.7915 15.4474Z" fill="#FF9811"/>
<path d="M28.8661 21.6688C29.3571 22.3037 30.1792 23.0516 30.6474 23.322C31.3995 23.7562 32.5752 23.1279 32.5752 23.1279C32.5752 23.1279 32.5313 21.7954 31.7795 21.3612C31.3112 21.0909 30.2524 20.7531 29.4568 20.6455L28.5057 19.3416C28.1784 19.5961 27.8934 19.9166 27.6731 20.2976C27.453 20.6791 27.3183 21.086 27.2612 21.4969L28.8661 21.6688Z" fill="#FF9811"/>
<path d="M25.688 24.8698C27.4745 27.7362 31.5652 28.6957 31.5652 28.6957C31.5652 28.6957 35.6558 27.7362 37.4423 24.8698H25.688Z" fill="#338AF3"/>
</svg>
