<svg width="44" height="44" viewBox="0 0 44 44" fill="none" xmlns="http://www.w3.org/2000/svg">
<path d="M2.18298 12.4343C0.784438 15.3266 0 18.5714 0 21.9995C0 25.4275 0.784438 28.6724 2.18298 31.5647L22 33.4777L41.817 31.5647C43.2156 28.6724 44 25.4275 44 21.9995C44 18.5714 43.2156 15.3266 41.817 12.4343L22 10.5212L2.18298 12.4343Z" fill="#F0F0F0"/>
<path d="M2.18359 31.5645C5.74201 38.9233 13.2778 43.9992 21.9998 43.9992C30.7219 43.9992 38.2578 38.9233 41.8161 31.5645H2.18359Z" fill="#6DA544"/>
<path d="M2.18359 12.4348H41.8161C38.2578 5.07598 30.7219 0 21.9998 0C13.2778 0 5.74201 5.07598 2.18359 12.4348Z" fill="#D80027"/>
<path d="M18.1743 27.74H25.8265V24.4877L24.2961 25.2529L22.0004 22.9573L19.7048 25.2529L18.1743 24.4877V27.74Z" fill="#FFDA44"/>
<path d="M13.7962 23.9141L14.1524 25.0101H15.3049L14.3724 25.6876L14.7287 26.7836L13.7962 26.1062L12.8638 26.7836L13.22 25.6876L12.2876 25.0101H13.44L13.7962 23.9141Z" fill="#FFDA44"/>
<path d="M14.9007 20.0874L15.2569 21.1835H16.4094L15.4769 21.8609L15.8331 22.957L14.9007 22.2796L13.9683 22.957L14.3245 21.8609L13.3921 21.1835H14.5445L14.9007 20.0874Z" fill="#FFDA44"/>
<path d="M18.057 17.2175L18.4132 18.3136H19.5655L18.6333 18.991L18.9893 20.0871L18.057 19.4097L17.1246 20.0871L17.4808 18.991L16.5483 18.3136H17.7008L18.057 17.2175Z" fill="#FFDA44"/>
<path d="M30.2054 23.9141L29.8492 25.0101H28.6968L29.6292 25.6876L29.273 26.7836L30.2054 26.1062L31.1377 26.7836L30.7816 25.6876L31.714 25.0101H30.5616L30.2054 23.9141Z" fill="#FFDA44"/>
<path d="M29.1004 20.0874L28.7442 21.1835H27.5918L28.5242 21.8609L28.168 22.957L29.1004 22.2796L30.0329 22.957L29.6766 21.8609L30.6091 21.1835H29.4566L29.1004 20.0874Z" fill="#FFDA44"/>
<path d="M25.9436 17.2175L25.5874 18.3136H24.4351L25.3673 18.991L25.0112 20.0871L25.9436 19.4097L26.8759 20.0871L26.5198 18.991L27.4522 18.3136H26.2997L25.9436 17.2175Z" fill="#FFDA44"/>
<path d="M22.0008 15.783L22.357 16.879H23.5095L22.577 17.5565L22.9332 18.6525L22.0008 17.9751L21.0684 18.6525L21.4246 17.5565L20.4922 16.879H21.6446L22.0008 15.783Z" fill="#FFDA44"/>
</svg>
