<svg width="44" height="44" viewBox="0 0 44 44" fill="none" xmlns="http://www.w3.org/2000/svg">
<g clip-path="url(#clip0)">
<path d="M21.9998 0C19.3088 0 16.7309 0.484086 14.3477 1.36838L13.3911 22L14.3476 42.6316C16.7309 43.516 19.3088 44 21.9998 44C24.6909 44 27.2687 43.516 29.6519 42.6316L30.6085 22L29.652 1.36838C27.2687 0.484086 24.6909 0 21.9998 0Z" fill="#FFDA44"/>
<path d="M44.0002 22.0001C44.0002 12.5409 38.03 4.47698 29.6523 1.36853V42.6319C38.03 39.5233 44.0002 31.4594 44.0002 22.0001Z" fill="#D80027"/>
<path d="M14.3479 42.6318V1.36853C5.97025 4.47698 0 12.5409 0 22.0001C0 31.4594 5.97025 39.5233 14.3479 42.6318Z" fill="#0052B4"/>
</g>
<defs>
<clipPath id="clip0">
<rect width="44" height="44" fill="white"/>
</clipPath>
</defs>
</svg>
