<svg width="44" height="44" viewBox="0 0 44 44" fill="none" xmlns="http://www.w3.org/2000/svg">
<g clip-path="url(#clip0)">
<path d="M21.9999 44.0008C34.1501 44.0008 43.9998 34.1511 43.9998 22.0009C43.9998 9.85067 34.1501 0.000976562 21.9999 0.000976562C9.8497 0.000976562 0 9.85067 0 22.0009C0 34.1511 9.8497 44.0008 21.9999 44.0008Z" fill="#F0F0F0"/>
<path d="M21.9994 0.000244141C14.8019 0.000244141 8.41215 3.45691 4.39844 8.80024H39.6002C35.5866 3.45682 29.1967 0.000244141 21.9994 0.000244141Z" fill="#0052B4"/>
<path d="M21.9994 44.0003C29.1968 44.0003 35.5866 40.5437 39.6003 35.2003H4.39844C8.41206 40.5437 14.8019 44.0003 21.9994 44.0003Z" fill="#0052B4"/>
<path d="M0 22.0003C0 23.5073 0.151937 24.9787 0.440601 26.4003H43.5595C43.8481 24.9787 44 23.5073 44 22.0003C44 20.4934 43.848 19.022 43.5595 17.6003H0.440601C0.151937 19.022 0 20.4934 0 22.0003Z" fill="#0052B4"/>
<path d="M6.44382 6.44336C-2.14761 15.0348 -2.14761 28.9645 6.44382 37.5561C9.99415 34.0058 13.4086 30.5912 22.0001 21.9998L6.44382 6.44336Z" fill="#D80027"/>
<path d="M8.90456 16.2612L10.3289 20.6453H14.9391L11.2097 23.3551L12.634 27.7393L8.90456 25.0297L5.17496 27.7393L6.59963 23.3551L2.87012 20.6453H7.47998L8.90456 16.2612Z" fill="#F0F0F0"/>
</g>
<defs>
<clipPath id="clip0">
<rect width="44" height="44" fill="white"/>
</clipPath>
</defs>
</svg>
