<svg width="44" height="44" viewBox="0 0 44 44" fill="none" xmlns="http://www.w3.org/2000/svg">
<path d="M22 44C34.1503 44 44 34.1503 44 22C44 9.84974 34.1503 0 22 0C9.84974 0 0 9.84974 0 22C0 34.1503 9.84974 44 22 44Z" fill="#F0F0F0"/>
<path d="M6.44359 37.556C7.36647 38.4789 8.35114 39.3019 9.38403 40.0265L40.0267 9.38378C39.3021 8.3509 38.4791 7.36623 37.5561 6.44335C36.6333 5.52046 35.6486 4.69753 34.6157 3.9729L3.97314 34.6156C4.69768 35.6483 5.52071 36.6331 6.44359 37.556Z" fill="#A2001D"/>
<path d="M6.44382 6.44386C-0.496832 13.3845 -1.82921 23.808 2.44386 32.0874L32.0873 2.44407C23.8079 -1.829 13.3843 -0.496453 6.44382 6.44386Z" fill="#0052B4"/>
<path d="M37.5561 37.5564C44.4966 30.6159 45.8289 20.1923 41.5561 11.9128L11.9126 41.5563C20.1919 45.8294 30.6155 44.497 37.5561 37.5564Z" fill="#496E2D"/>
<path d="M18.1741 12.4347L15.7088 13.5943L17.0216 15.9818L14.3448 15.4698L14.0055 18.1738L12.141 16.1849L10.2764 18.1738L9.93729 15.4698L7.26033 15.9817L8.57303 13.5942L6.10791 12.4347L8.57311 11.2751L7.26033 8.88774L9.9372 9.39975L10.2765 6.69556L12.141 8.68449L14.0056 6.69556L14.3448 9.39975L17.0216 8.88774L15.709 11.2752L18.1741 12.4347Z" fill="#FFDA44"/>
</svg>
