<svg width="44" height="44" viewBox="0 0 44 44" fill="none" xmlns="http://www.w3.org/2000/svg">
<path d="M22 44C34.1503 44 44 34.1503 44 22C44 9.84974 34.1503 0 22 0C9.84974 0 0 9.84974 0 22C0 34.1503 9.84974 44 22 44Z" fill="#D80027"/>
<path d="M24.2713 16.6436C23.7713 18.7232 22.883 18.3266 22.447 20.1402C19.879 19.5228 18.2974 16.9403 18.9148 14.3721C19.532 11.804 22.1147 10.2224 24.6829 10.8399C23.8109 14.4671 24.7186 14.7837 24.2713 16.6436Z" fill="#F0F0F0"/>
<path d="M17.6076 18.1846C19.4309 19.3026 18.7792 20.0251 20.3692 21.0002C18.9883 23.2519 16.0437 23.9579 13.7919 22.5771C11.5403 21.1963 10.8342 18.2515 12.215 15.9999C15.3952 17.95 15.9766 17.1845 17.6076 18.1846Z" fill="#F0F0F0"/>
<path d="M17.0135 24.9985C18.6404 23.6099 19.1258 24.4529 20.5446 23.2421C22.2595 25.251 22.0209 28.2698 20.012 29.9847C18.003 31.6996 14.9842 31.4608 13.2695 29.452C16.1067 27.03 15.5583 26.2403 17.0135 24.9985Z" fill="#F0F0F0"/>
<path d="M23.3109 27.6695C22.4928 25.6932 23.4446 25.4917 22.7314 23.7684C25.172 22.7584 27.9694 23.918 28.9795 26.3586C29.9895 28.7991 28.8297 31.5965 26.3892 32.6066C24.9629 29.1597 24.0426 29.4372 23.3109 27.6695Z" fill="#F0F0F0"/>
<path d="M27.7967 22.5054C25.6644 22.6727 25.7667 21.7051 23.9075 21.851C23.7009 19.218 25.6684 16.9156 28.3016 16.7089C30.9347 16.5028 33.237 18.47 33.4434 21.1033C29.7243 21.3949 29.7038 22.356 27.7967 22.5054Z" fill="#F0F0F0"/>
</svg>
