<svg width="44" height="44" viewBox="0 0 44 44" fill="none" xmlns="http://www.w3.org/2000/svg">
<path d="M22 44C34.1503 44 44 34.1503 44 22C44 9.84974 34.1503 0 22 0C9.84974 0 0 9.84974 0 22C0 34.1503 9.84974 44 22 44Z" fill="#6DA544"/>
<path d="M33.7721 31.5654L34.3758 32.8278L35.7391 32.5127L35.1286 33.7718L36.2249 34.6411L34.8599 34.9488L34.8637 36.3481L33.7721 35.4727L32.6805 36.3481L32.6843 34.9488L31.3193 34.6411L32.4156 33.7718L31.8051 32.5127L33.1684 32.8278L33.7721 31.5654Z" fill="#FFDA44"/>
<path d="M28.1564 18.1735L28.7602 19.4358L30.1235 19.1207L29.5129 20.3798L30.6092 21.2492L29.2442 21.5568L29.248 22.9561L28.1564 22.0807L27.0648 22.9561L27.0685 21.5568L25.7036 21.2492L26.7999 20.3798L26.1893 19.1207L27.5527 19.4358L28.1564 18.1735Z" fill="#FFDA44"/>
<path d="M33.772 10.5212L34.3757 11.7836L35.739 11.4684L35.1286 12.7275L36.2248 13.5969L34.8598 13.9045L34.8635 15.3038L33.772 14.4284L32.6804 15.3038L32.6842 13.9045L31.3193 13.5969L32.4156 12.7275L31.8051 11.4684L33.1683 11.7836L33.772 10.5212Z" fill="#FFDA44"/>
<path d="M38.6774 16.261L39.2811 17.5233L40.6445 17.2082L40.0339 18.4673L41.1302 19.3367L39.7652 19.6443L39.769 21.0437L38.6774 20.1682L37.5858 21.0437L37.5895 19.6443L36.2246 19.3367L37.3209 18.4673L36.7103 17.2082L38.0736 17.5233L38.6774 16.261Z" fill="#FFDA44"/>
<path d="M35.1701 22.9565L35.6451 24.4181H37.1818L35.9385 25.3213L36.4135 26.7827L35.1701 25.8795L33.9271 26.7827L34.4019 25.3213L33.1587 24.4181H34.6953L35.1701 22.9565Z" fill="#FFDA44"/>
<path d="M24.3912 28.2173C20.9574 28.2173 18.1737 25.4336 18.1737 21.9999C18.1737 18.5662 20.9573 15.7825 24.3912 15.7825C25.4618 15.7825 26.4692 16.0533 27.3487 16.5298C25.969 15.1804 24.0822 14.3477 21.9997 14.3477C17.7736 14.3477 14.3477 17.7736 14.3477 21.9998C14.3477 26.2259 17.7736 29.6519 21.9997 29.6519C24.0821 29.6519 25.969 28.8192 27.3486 27.4698C26.4692 27.9465 25.4618 28.2173 24.3912 28.2173Z" fill="#FFDA44"/>
<path d="M13.8349 8.60861C13.1732 7.4653 11.9379 6.69556 10.522 6.69556C9.10605 6.69556 7.8707 7.4653 7.20898 8.60861H13.8349Z" fill="#FFDA44"/>
<path d="M13.8475 8.6311L10.5218 11.9568L7.19613 8.6311C6.87825 9.18892 6.6958 9.83406 6.6958 10.5221C6.6958 12.6352 8.40879 14.3482 10.5219 14.3482C12.635 14.3482 14.348 12.6353 14.348 10.5221C14.3479 9.83406 14.1654 9.18892 13.8475 8.6311Z" fill="#FFDA44"/>
<path d="M9.56543 11V14.2273C9.87111 14.3059 10.1917 14.3478 10.5219 14.3478C10.8522 14.3478 11.1727 14.3058 11.4784 14.2273V11H9.56543Z" fill="#A2001D"/>
</svg>
