<svg width="44" height="44" viewBox="0 0 44 44" fill="none" xmlns="http://www.w3.org/2000/svg">
<path d="M22 44C34.1503 44 44 34.1503 44 22C44 9.84974 34.1503 0 22 0C9.84974 0 0 9.84974 0 22C0 34.1503 9.84974 44 22 44Z" fill="#FFDA44"/>
<path d="M35.3913 10.5218C35.194 11.4701 35.1044 12.4801 35.1044 13.4869C35.1044 19.2906 38.5641 24.3138 43.5223 26.5751C43.8345 25.099 44 23.5689 44 22C44 9.84981 34.1502 0 22 0C9.84981 0 0 9.84981 0 22C0 34.1502 9.84981 44 22 44C29.5352 44 36.1847 40.2108 40.1497 34.4348H12.4348V31.5653H41.817C42.1177 30.9434 42.3894 30.305 42.6317 29.6522H12.4348L35.3913 10.5218Z" fill="#0052B4"/>
<path d="M16.1619 11.4788L16.6368 12.9402H18.1734L16.9303 13.8435L17.4052 15.3049L16.1619 14.4018L14.9188 15.3049L15.3936 13.8435L14.1504 12.9402H15.687L16.1619 11.4788Z" fill="#F0F0F0"/>
<path d="M9.92052 22L10.5142 23.8269H12.4349L10.8809 24.9557L11.4745 26.7826L9.92052 25.6535L8.3666 26.7826L8.96017 24.9557L7.40625 23.8269H9.32695L9.92052 22Z" fill="#F0F0F0"/>
<path d="M9.92052 6.69653L10.5142 8.52348H12.4349L10.8809 9.65226L11.4745 11.4791L9.92052 10.3501L8.3666 11.4791L8.96017 9.65226L7.40625 8.52348H9.32695L9.92052 6.69653Z" fill="#F0F0F0"/>
<path d="M5.13781 15.3054L5.73146 17.1324H7.65208L6.09816 18.2612L6.69182 20.088L5.13781 18.959L3.58389 20.088L4.17746 18.2612L2.62354 17.1324H4.54415L5.13781 15.3054Z" fill="#F0F0F0"/>
</svg>
