<svg width="44" height="44" viewBox="0 0 44 44" fill="none" xmlns="http://www.w3.org/2000/svg">
<path d="M22 44C34.1503 44 44 34.1503 44 22C44 9.84974 34.1503 0 22 0C9.84974 0 0 9.84974 0 22C0 34.1503 9.84974 44 22 44Z" fill="#0052B4"/>
<path d="M31.4417 23.535C31.5227 23.0351 31.5654 22.5225 31.5654 22.0002C31.5654 22.5225 31.5227 23.0351 31.4417 23.535L35.3915 22.0002L31.4417 20.4654L29.2722 19.6225L25.7475 18.2529L24.3779 14.7282C26.6874 15.4852 28.515 17.3128 29.2721 19.6224L31.4416 20.4653C30.786 16.418 27.5822 13.2141 23.5349 12.5586L22.0002 8.60889L20.4653 12.5587C16.418 13.2144 13.2143 16.4181 12.5587 20.4654L8.60889 22.0002L12.5587 23.535C13.2144 27.5823 16.4181 30.7861 20.4654 31.4417L22.0002 35.3915L23.535 31.4417C27.5823 30.7861 30.7861 27.5823 31.4417 23.535ZM24.2696 19.7308L22.0002 22.0002H30.1097L24.2695 24.2696L22.0002 22.0002V30.1098L19.7307 24.2695L22.0002 22.0002H13.8907L19.7307 19.7308L22.0002 22.0002V13.8907L24.2696 19.7308ZM19.6224 14.7282L18.2527 18.253L14.7282 19.6226C15.4852 17.3128 17.3128 15.4853 19.6224 14.7282ZM14.7282 24.378L18.2527 25.7476L19.6224 29.2721C17.3128 28.515 15.4853 26.6876 14.7282 24.378ZM24.378 29.2721L25.7476 25.7476L29.2721 24.378C28.515 26.6876 26.6876 28.515 24.378 29.2721Z" fill="#F0F0F0"/>
<path d="M30.1095 22H22L24.2694 24.2694L30.1095 22Z" fill="#0052B4"/>
<path d="M13.8906 22.0001H22.0001L19.7307 19.7307L13.8906 22.0001Z" fill="#0052B4"/>
<path d="M21.9999 30.1096V22L19.7305 24.2694L21.9999 30.1096Z" fill="#0052B4"/>
<path d="M22 22.0001L24.2694 19.7308L22 13.8906V22.0001Z" fill="#0052B4"/>
<path d="M22.9565 2.86987H21.0435V6.69598H22.9565V2.86987Z" fill="#F0F0F0"/>
<path d="M6.69574 21.0442H2.86963V22.9572H6.69574V21.0442Z" fill="#F0F0F0"/>
<path d="M22.9565 37.3044H21.0435V41.1306H22.9565V37.3044Z" fill="#F0F0F0"/>
<path d="M41.1308 21.0442H37.3047V22.9572H41.1308V21.0442Z" fill="#F0F0F0"/>
</svg>
