<svg width="44" height="44" viewBox="0 0 44 44" fill="none" xmlns="http://www.w3.org/2000/svg">
<g clip-path="url(#clip0)">
<path d="M22 44C34.1503 44 44 34.1503 44 22C44 9.84974 34.1503 0 22 0C9.84974 0 0 9.84974 0 22C0 34.1503 9.84974 44 22 44Z" fill="#FFDA44"/>
<path d="M21.9997 44.0003C29.2184 44.0003 35.625 40.5234 39.6365 35.1531H4.36279C8.37436 40.5234 14.7809 44.0003 21.9997 44.0003Z" fill="#0052B4"/>
<path d="M44 22C44 9.84981 34.1502 0 22 0C9.84981 0 0 9.84981 0 22C0 24.6016 0.452805 27.0971 1.28184 29.4137H42.7181C43.5472 27.0971 44 24.6016 44 22Z" fill="#0052B4"/>
<path d="M15.0579 14.1089L16.245 17.7623H20.0867L16.9788 20.0205L18.1659 23.6741L15.0579 21.416L11.95 23.6741L13.1372 20.0205L10.0293 17.7623H13.8709L15.0579 14.1089Z" fill="#F0F0F0"/>
<path d="M8.46094 10.2832L9.1732 12.4753H11.4783L9.61354 13.8302L10.3258 16.0224L8.46094 14.6675L6.59618 16.0224L7.30852 13.8302L5.44385 12.4753H7.74887L8.46094 10.2832Z" fill="#F0F0F0"/>
</g>
<defs>
<clipPath id="clip0">
<rect width="44" height="44" fill="white"/>
</clipPath>
</defs>
</svg>
