<svg width="44" height="44" viewBox="0 0 44 44" fill="none" xmlns="http://www.w3.org/2000/svg">
<path d="M22 44C34.1503 44 44 34.1503 44 22C44 9.84974 34.1503 0 22 0C9.84974 0 0 9.84974 0 22C0 34.1503 9.84974 44 22 44Z" fill="#F0F0F0"/>
<path d="M44 21.9996C44 34.1498 34.1502 43.9996 22 43.9996C9.84981 43.9996 0 34.1498 0 21.9996C0 9.84938 22 21.9996 22 21.9996C22 21.9996 38.6513 21.9996 44 21.9996Z" fill="#D80027"/>
<path d="M0 22C0 9.84981 9.84981 0 22 0C22 8.36645 22 22 22 22C22 22 7.65213 22 0 22Z" fill="#0052B4"/>
<path d="M13.0961 7.6521L14.5206 12.0365H19.1306L15.4011 14.7461L16.8256 19.1304L13.0961 16.4207L9.36654 19.1304L10.791 14.7461L7.06152 12.0365H11.6715L13.0961 7.6521Z" fill="#F0F0F0"/>
</svg>
