<svg width="44" height="44" viewBox="0 0 44 44" fill="none" xmlns="http://www.w3.org/2000/svg">
<path d="M0 22C0 9.84981 9.84981 0 22 0C34.1502 0 44 9.84981 44 22C43.0435 22 22 24.8695 22 24.8695L0 22Z" fill="#F0F0F0"/>
<path d="M44 22C44 34.1502 34.1502 44 22 44C9.84981 44 0 34.1502 0 22" fill="#D80027"/>
<path d="M15.304 32.5214C21.115 32.5214 25.8257 27.8107 25.8257 21.9997C25.8257 16.1887 21.115 11.4779 15.304 11.4779C9.49298 11.4779 4.78223 16.1887 4.78223 21.9997C4.78223 27.8107 9.49298 32.5214 15.304 32.5214Z" fill="#F0F0F0"/>
<path d="M4.78223 21.9997C4.78223 16.1888 9.49298 11.4779 15.304 11.4779C21.1151 11.4779 25.8257 16.1887 25.8257 21.9997" fill="#D80027"/>
</svg>
