<svg width="44" height="44" viewBox="0 0 44 44" fill="none" xmlns="http://www.w3.org/2000/svg">
<g clip-path="url(#clip0)">
<path d="M0 22C0 9.84981 9.84981 0 22 0C34.1502 0 44 9.84981 44 22H0Z" fill="#F0F0F0"/>
<path d="M16.2613 20.797L15.0586 21.9997H16.2613V20.797Z" fill="#0052B4"/>
<path d="M27.7388 20.7971V21.9997H28.9414L27.7388 20.7971Z" fill="#0052B4"/>
<path d="M0.634734 16.7391C0.220945 18.4249 0 20.1865 0 21.9999H6.94177L12.2025 16.7391H0.634734Z" fill="#0052B4"/>
<path d="M31.7974 16.7391L37.0581 21.9999H44.0001C44.0001 20.1865 43.779 18.4249 43.3653 16.7391H31.7974Z" fill="#0052B4"/>
<path d="M30.4447 16.7391H27.7393L33 21.9999H35.7055L30.4447 16.7391Z" fill="#D80027"/>
<path d="M16.2609 19.4444V16.7391H16.2608L11 21.9999H13.7055L16.2609 19.4444Z" fill="#D80027"/>
<path d="M10.3055 3.36365C9.39864 3.93393 8.53643 4.56832 7.7251 5.26072H12.2024L10.3055 3.36365Z" fill="#0052B4"/>
<path d="M36.274 5.26072C35.4627 4.56823 34.6006 3.93384 33.6939 3.36365L31.7969 5.26072H36.274Z" fill="#0052B4"/>
<path d="M24.8698 13.8695H42.4484C41.6167 11.7796 40.4735 9.84792 39.0768 8.13037H24.8699H24.8698V0.186227C23.9305 0.0639375 22.9729 0 22.0003 0C21.0276 0 20.0701 0.0639375 19.1308 0.186227V8.13029V8.13037H4.92383C3.52709 9.84792 2.38395 11.7796 1.55225 13.8695H19.1306H19.1307V22H24.8698V13.8696V13.8695Z" fill="#D80027"/>
<path d="M16.2612 5.26076V5.26068L12.9447 1.94409C12.3315 2.22141 11.7339 2.52692 11.1523 2.85718L13.5559 5.26076H16.2612Z" fill="#D80027"/>
<path d="M27.7397 5.26062L31.0564 1.94403C30.4256 1.6588 29.7787 1.40305 29.1178 1.17712L27.7397 2.5553V5.26062Z" fill="#D80027"/>
<path d="M44 22C44 34.1502 34.1502 44 22 44C9.84981 44 0 34.1502 0 22C0.956484 22 44 22 44 22Z" fill="#F0F0F0"/>
<path d="M40.3332 24.8058C38.4999 24.8058 38.4999 23.1295 36.6665 23.1295C34.8332 23.1295 34.8332 24.8058 33 24.8058C31.1668 24.8058 31.1667 23.1295 29.3335 23.1295C27.5002 23.1295 27.5002 24.8058 25.6668 24.8058C23.8334 24.8058 23.8333 23.1295 21.9998 23.1295C20.1665 23.1295 20.1665 24.8058 18.3333 24.8058C16.5003 24.8058 16.5003 23.1295 14.667 23.1295C12.8335 23.1295 12.8335 24.8058 11 24.8058C9.16654 24.8058 9.16654 23.1295 7.33307 23.1295C5.50002 23.1295 5.50002 24.8058 3.66671 24.8058C1.84329 24.8058 1.83272 23.148 0.0288086 23.1303C0.0795977 24.1366 0.199738 25.1246 0.38141 26.0907C1.84269 26.3054 1.97065 27.7391 3.6668 27.7391C5.50011 27.7391 5.50011 26.063 7.33315 26.063C9.16663 26.063 9.16663 27.7391 11.0001 27.7391C12.8336 27.7391 12.8336 26.063 14.6671 26.063C16.5004 26.063 16.5004 27.7391 18.3334 27.7391C20.1667 27.7391 20.1667 26.063 21.9999 26.063C23.8334 26.063 23.8334 27.7391 25.6669 27.7391C27.5004 27.7391 27.5004 26.063 29.3336 26.063C31.1669 26.063 31.1669 27.7391 33.0001 27.7391C34.8333 27.7391 34.8334 26.063 36.6666 26.063C38.5001 26.063 38.5001 27.7391 40.3333 27.7391C42.0296 27.7391 42.1576 26.3055 43.619 26.0907C43.8007 25.1246 43.9207 24.1367 43.9717 23.1304C42.1675 23.1482 42.1567 24.8058 40.3332 24.8058Z" fill="#0052B4"/>
<path d="M36.6666 28.8685C34.8333 28.8685 34.8333 30.5448 33 30.5448C31.1668 30.5448 31.1667 28.8685 29.3335 28.8685C27.5002 28.8685 27.5002 30.5448 25.6668 30.5448C23.8333 30.5448 23.8333 28.8685 21.9999 28.8685C20.1666 28.8685 20.1666 30.5448 18.3333 30.5448C16.5003 30.5448 16.5003 28.8685 14.667 28.8685C12.8335 28.8685 12.8335 30.5448 11 30.5448C9.16656 30.5448 9.16656 28.8685 7.33309 28.8685C5.50004 28.8685 5.50004 30.5448 3.66673 30.5448C2.35679 30.5448 1.98262 29.6892 1.20703 29.2004C1.72334 30.6922 2.39503 32.1113 3.20396 33.4378C3.34464 33.4638 3.49778 33.4781 3.66673 33.4781C5.50004 33.4781 5.50004 31.802 7.33309 31.802C9.16656 31.802 9.16656 33.4781 11 33.4781C12.8335 33.4781 12.8335 31.802 14.667 31.802C16.5003 31.802 16.5003 33.4781 18.3333 33.4781C20.1666 33.4781 20.1666 31.802 21.9999 31.802C23.8333 31.802 23.8333 33.4781 25.6668 33.4781C27.5003 33.4781 27.5003 31.802 29.3335 31.802C31.1668 31.802 31.1668 33.4781 33 33.4781C34.8333 33.4781 34.8333 31.802 36.6666 31.802C38.5 31.802 38.5 33.4781 40.3333 33.4781C40.5023 33.4781 40.6555 33.4638 40.7962 33.4377C41.6051 32.1113 42.2768 30.6922 42.7933 29.2005C42.0176 29.6891 41.6435 30.5448 40.3333 30.5448C38.5 30.5448 38.5 28.8685 36.6666 28.8685Z" fill="#0052B4"/>
<path d="M43.9883 21.3088C43.9902 21.3699 43.9923 21.431 43.9937 21.4924C43.9923 21.4311 43.9901 21.3699 43.9883 21.3088Z" fill="#F0F0F0"/>
<path d="M0.00634766 21.4923C0.00780859 21.431 0.00987109 21.3699 0.0117617 21.3087C0.00995703 21.3699 0.00772266 21.4311 0.00634766 21.4923Z" fill="#F0F0F0"/>
<path d="M0 21.9998C0 21.83 0.00257813 21.661 0.00644531 21.4921C0.00249219 21.661 0 21.83 0 21.9998Z" fill="#F0F0F0"/>
<path d="M0 22C0 22.4007 0.0113438 22.7989 0.0327422 23.1943C1.83253 23.2145 1.84448 24.8695 3.66661 24.8695C5.49991 24.8695 5.49991 23.1934 7.33296 23.1934C9.16644 23.1934 9.16644 24.8695 10.9999 24.8695C12.8334 24.8695 12.8334 23.1934 14.6669 23.1934C16.5002 23.1934 16.5002 24.8695 18.3332 24.8695C20.1665 24.8695 20.1665 23.1934 21.9997 23.1934C23.8332 23.1934 23.8332 24.8695 25.6667 24.8695C27.5002 24.8695 27.5002 23.1934 29.3334 23.1934C31.1667 23.1934 31.1667 24.8695 32.9999 24.8695C34.8331 24.8695 34.8332 23.1934 36.6664 23.1934C38.4999 23.1934 38.4999 24.8695 40.3331 24.8695C42.1554 24.8695 42.1674 23.2145 43.9675 23.1943C43.9887 22.7988 44 22.4007 44 22H0Z" fill="#F0F0F0"/>
<path d="M43.9937 21.4921C43.9975 21.6608 44.0001 21.83 44.0001 21.9998C44.0001 21.83 43.9976 21.661 43.9937 21.4921Z" fill="#F0F0F0"/>
<path d="M36.6665 34.6078C34.8332 34.6078 34.8332 36.2841 33 36.2841C31.1667 36.2841 31.1667 34.6078 29.3334 34.6078C27.5001 34.6078 27.5001 36.2841 25.6667 36.2841C23.8333 36.2841 23.8333 34.6078 21.9998 34.6078C20.1665 34.6078 20.1665 36.2841 18.3333 36.2841C16.5002 36.2841 16.5002 34.6078 14.6669 34.6078C12.8334 34.6078 12.8334 36.2841 11 36.2841C9.16649 36.2841 9.16649 34.6078 7.33301 34.6078C6.06681 34.6078 5.67502 35.4073 4.94971 35.9021C6.87376 38.259 9.27743 40.2084 12.0107 41.6042L22.0001 41.101L31.9895 41.6041C34.7227 40.2082 37.1263 38.2591 39.0504 35.9022C38.3247 35.4075 37.9329 34.6078 36.6665 34.6078Z" fill="#0052B4"/>
<path d="M34.202 35.1324L27.5096 36.4125L26.6617 29.6522L22.0003 34.6241L17.3391 29.6521L16.4909 36.4124L9.79883 35.1323L13.0807 41.1009L12.0089 41.605C15.0071 43.1362 18.4027 44 22.0003 44C25.5979 44 28.9936 43.1362 31.9918 41.6051L30.9204 41.1011L34.202 35.1324Z" fill="#FFDA44"/>
</g>
<defs>
<clipPath id="clip0">
<rect width="44" height="44" fill="white"/>
</clipPath>
</defs>
</svg>
