<svg width="44" height="44" viewBox="0 0 44 44" fill="none" xmlns="http://www.w3.org/2000/svg">
<g clip-path="url(#clip0)">
<path d="M42.6316 29.6529C43.5159 27.2696 44 24.6918 44 22.0007C44 19.3097 43.5159 16.7319 42.6316 14.3486L22 12.4355L1.36838 14.3486C0.484086 16.7319 0 19.3097 0 22.0007C0 24.6918 0.484086 27.2696 1.36838 29.6529L22 31.5659L42.6316 29.6529Z" fill="#F0F0F0"/>
<path d="M22.0004 44C31.4595 44 39.5235 38.0297 42.6319 29.6521H1.36865C4.47718 38.0297 12.541 44 22.0004 44Z" fill="#D80027"/>
<path d="M22.0004 0C12.541 0 4.47718 5.97025 1.36865 14.3479H42.632C39.5235 5.97025 31.4595 0 22.0004 0Z" fill="#496E2D"/>
<path d="M21.9994 17.2178L23.1865 20.8712H27.0282L23.9202 23.1294L25.1074 26.7829L21.9994 24.5251L18.8914 26.7829L20.0786 23.1294L16.9707 20.8712H20.8124L21.9994 17.2178Z" fill="black"/>
<path d="M28.5361 4.30347V8.76715C28.5361 9.47054 27.964 10.0425 27.2607 10.0425V11.9556C29.0189 11.9556 30.4491 10.5253 30.4491 8.76715V4.30347H28.5361Z" fill="#F0F0F0"/>
<path d="M14.8262 8.76715C14.8262 9.47054 14.2541 10.0425 13.5508 10.0425V11.9556C15.309 11.9556 16.7392 10.5253 16.7392 8.76715V4.30347H14.8262V8.76715Z" fill="#F0F0F0"/>
<path d="M27.5791 4.30347H25.666V8.76715H27.5791V4.30347Z" fill="#F0F0F0"/>
<path d="M22.7968 6.85409C22.7968 7.02992 22.6537 7.17301 22.478 7.17301C22.3022 7.17301 22.1591 7.02992 22.1591 6.85409V4.30347H20.246V6.85409C20.246 7.02992 20.103 7.17301 19.9272 7.17301C19.7514 7.17301 19.6084 7.02992 19.6084 6.85409V4.30347H17.6953V6.85409C17.6953 8.08489 18.6965 9.08606 19.9272 9.08606C20.4011 9.08606 20.8408 8.93713 21.2025 8.68422C21.5644 8.93713 22.004 9.08606 22.4779 9.08606C22.5734 9.08606 22.6672 9.07936 22.7595 9.06758C22.6239 9.62609 22.1209 10.0425 21.5214 10.0425V11.9556C23.2795 11.9556 24.7098 10.5253 24.7098 8.76715V6.85409V4.30347H22.7967L22.7968 6.85409Z" fill="#F0F0F0"/>
<path d="M20.5649 10.0425H17.6953V11.9555H20.5649V10.0425Z" fill="#F0F0F0"/>
</g>
<defs>
<clipPath id="clip0">
<rect width="44" height="44" fill="white"/>
</clipPath>
</defs>
</svg>
