<svg width="44" height="44" viewBox="0 0 44 44" fill="none" xmlns="http://www.w3.org/2000/svg">
<path d="M21.9994 0C34.1496 0 43.9994 9.84981 43.9994 22C43.9994 34.1502 34.1496 44 21.9994 44C21.9994 43.0435 19.1299 22 19.1299 22L21.9994 0Z" fill="#F0F0F0"/>
<path d="M22 44C9.84981 44 0 34.1502 0 22C0 9.84981 9.84981 0 22 0" fill="#496E2D"/>
<path d="M26.7264 17.7801L24.9214 20.2676L21.998 19.3195L23.806 21.8048L22.0011 24.2923L24.9234 23.3408L26.7313 25.8261L26.7294 22.7529L29.6517 21.8014L26.7285 20.8535L26.7264 17.7801Z" fill="#D80027"/>
<path d="M23.8247 28.2173C20.391 28.2173 17.6073 25.4337 17.6073 21.9999C17.6073 18.5662 20.391 15.7825 23.8247 15.7825C24.8953 15.7825 25.9027 16.0532 26.7822 16.5298C25.4024 15.1805 23.5156 14.3477 21.4334 14.3477C17.2072 14.3477 13.7812 17.7737 13.7812 21.9999C13.7812 26.226 17.2072 29.652 21.4334 29.652C23.5157 29.652 25.4025 28.8192 26.7822 27.4699C25.9027 27.9466 24.8953 28.2173 23.8247 28.2173Z" fill="#D80027"/>
</svg>
