<svg width="44" height="44" viewBox="0 0 44 44" fill="none" xmlns="http://www.w3.org/2000/svg">
<path d="M22 43.9999C34.1502 43.9999 43.9999 34.1502 43.9999 22C43.9999 9.84972 34.1502 0 22 0C9.84972 0 0 9.84972 0 22C0 34.1502 9.84972 43.9999 22 43.9999Z" fill="#FFDA44"/>
<path d="M17.2176 3.82666H9.60049C9.26293 4.0574 8.93259 4.2976 8.60886 4.54622L6.6958 22.0005L8.60886 39.4548C8.93259 39.7035 9.26293 39.9437 9.60049 40.1743H17.2176V3.82666Z" fill="#FF9811"/>
<path d="M0 21.9998C0 29.1107 3.3746 35.4324 8.60872 39.4541V4.54541C3.3746 8.56712 0 14.8889 0 21.9998Z" fill="#6DA544"/>
<path d="M35.3911 13.4114V13.9618L35.4116 13.9649L35.3911 13.4114Z" fill="#FFDA44"/>
<path d="M42.2464 27.7397H38.1013L36.3478 29.6527V33.4788H32.5217V31.5658H34.4347V27.7397H25.826V30.131H23.9129V25.5736C23.326 25.0482 22.9565 24.285 22.9565 23.4353V11.0006C22.9565 9.41579 24.2412 8.13102 25.826 8.13102V25.8267H29.6521L30.9649 24.7326C30.7356 24.1865 30.6086 23.5867 30.6086 22.9572V20.0876H27.7391V14.3485H33.4782C33.4782 13.392 34.913 12.4355 34.913 12.4355C34.913 12.4355 36.3478 13.392 36.3478 14.3485V15.7833V20.0877C37.4119 20.1003 39.1027 20.0727 40.9293 20.0877C40.4494 19.2489 40.1738 18.2537 40.1738 17.2182C40.1738 15.5303 40.9026 14.0128 42.0625 12.9626C40.3905 9.2574 37.7225 6.09816 34.3996 3.82666H20.0869V40.1745H34.3997C38.4404 37.4124 41.5125 33.338 43.003 28.5652L42.2464 27.7397Z" fill="#A2001D"/>
</svg>
