<svg width="44" height="44" viewBox="0 0 44 44" fill="none" xmlns="http://www.w3.org/2000/svg">
<g clip-path="url(#clip0)">
<path d="M2.18298 12.4353C0.784438 15.3276 0 18.5723 0 22.0005C0 25.4286 0.784438 28.6733 2.18298 31.5656L22 33.4787L41.817 31.5656C43.2156 28.6733 44 25.4286 44 22.0005C44 18.5723 43.2156 15.3276 41.817 12.4353L22 10.5222L2.18298 12.4353Z" fill="black"/>
<path d="M2.18359 31.5654C5.74192 38.9243 13.2777 44.0002 21.9998 44.0002C30.7219 44.0002 38.2578 38.9243 41.8161 31.5654H2.18359Z" fill="#496E2D"/>
<path d="M2.18359 12.4348H41.8161C38.2578 5.0759 30.7219 0 21.9998 0C13.2777 0 5.74192 5.0759 2.18359 12.4348Z" fill="#D80027"/>
<path d="M27.1207 17.9763L28.9257 20.4638L31.8491 19.5159L30.0411 22.0012L31.846 24.4886L28.9238 23.5371L27.1158 26.0224L27.1177 22.9492L24.1953 21.9977L27.1187 21.0498L27.1207 17.9763Z" fill="#F0F0F0"/>
<path d="M22.1948 28.2173C18.7611 28.2173 15.9774 25.4336 15.9774 21.9999C15.9774 18.5662 18.7611 15.7825 22.1948 15.7825C23.2654 15.7825 24.2729 16.0532 25.1523 16.5298C23.7725 15.1805 21.8857 14.3477 19.8035 14.3477C15.5773 14.3477 12.1514 17.7736 12.1514 21.9998C12.1514 26.2259 15.5774 29.6519 19.8035 29.6519C21.8858 29.6519 23.7726 28.8191 25.1523 27.4698C24.2728 27.9466 23.2655 28.2173 22.1948 28.2173Z" fill="#F0F0F0"/>
</g>
<defs>
<clipPath id="clip0">
<rect width="44" height="44" fill="white"/>
</clipPath>
</defs>
</svg>
