<svg width="44" height="44" viewBox="0 0 44 44" fill="none" xmlns="http://www.w3.org/2000/svg">
<path d="M22 44C34.1503 44 44 34.1503 44 22C44 9.84974 34.1503 0 22 0C9.84974 0 0 9.84974 0 22C0 34.1503 9.84974 44 22 44Z" fill="#F0F0F0"/>
<path d="M29.6519 22C29.6519 23.9131 26.2259 28.6957 21.9998 28.6957C17.7736 28.6957 14.3477 23.9131 14.3477 22C14.3477 17.7738 17.7736 14.3479 21.9998 14.3479C26.2259 14.3479 29.6519 17.7738 29.6519 22Z" fill="#D80027"/>
<path d="M29.6519 22C29.6519 26.2262 26.2259 29.6521 21.9998 29.6521C17.7736 29.6521 14.3477 26.2262 14.3477 22" fill="#0052B4"/>
<path d="M32.1453 26.7344L30.1162 28.7634L31.4689 30.1161L33.498 28.0871L32.1453 26.7344Z" fill="black"/>
<path d="M28.7629 30.1172L26.7339 32.1462L28.0866 33.499L30.1157 31.4699L28.7629 30.1172Z" fill="black"/>
<path d="M36.2039 30.7913L34.1748 32.8203L35.5275 34.173L37.5566 32.144L36.2039 30.7913Z" fill="black"/>
<path d="M32.8215 34.1738L30.7925 36.2029L32.1452 37.5556L34.1743 35.5266L32.8215 34.1738Z" fill="black"/>
<path d="M34.1746 28.7637L32.1455 30.7927L33.4982 32.1454L35.5273 30.1164L34.1746 28.7637Z" fill="black"/>
<path d="M30.7932 32.1448L28.7642 34.1738L30.1169 35.5266L32.1459 33.4975L30.7932 32.1448Z" fill="black"/>
<path d="M28.7645 9.82526L34.1753 15.2361L35.528 13.8834L30.1172 8.47254L28.7645 9.82526Z" fill="black"/>
<path d="M26.7356 11.8545L28.7646 13.8835L30.1173 12.5309L28.0883 10.5018L26.7356 11.8545Z" fill="black"/>
<path d="M30.117 15.2366L32.146 17.2656L33.4986 15.913L31.4696 13.8839L30.117 15.2366Z" fill="black"/>
<path d="M30.7918 7.79639L32.8208 9.82544L34.1735 8.47272L32.1445 6.44367L30.7918 7.79639Z" fill="black"/>
<path d="M34.1751 11.1794L36.2041 13.2085L37.5568 11.8558L35.5278 9.82673L34.1751 11.1794Z" fill="black"/>
<path d="M13.2072 36.2033L7.79639 30.7925L6.44366 32.1452L11.8545 37.556L13.2072 36.2033Z" fill="black"/>
<path d="M15.2361 34.1741L13.207 32.145L11.8544 33.4977L13.8834 35.5267L15.2361 34.1741Z" fill="black"/>
<path d="M11.8542 30.793L9.8252 28.7639L8.47248 30.1166L10.5015 32.1457L11.8542 30.793Z" fill="black"/>
<path d="M17.2653 32.1449L11.8545 26.7341L10.5018 28.0868L15.9126 33.4977L17.2653 32.1449Z" fill="black"/>
<path d="M7.79621 13.2067L13.207 7.7959L11.8543 6.44318L6.44349 11.854L7.79621 13.2067Z" fill="black"/>
<path d="M9.82502 15.235L15.2358 9.82422L13.8831 8.4715L8.4723 13.8823L9.82502 15.235Z" fill="black"/>
<path d="M11.8548 17.2653L17.2656 11.8545L15.913 10.5018L10.5021 15.9127L11.8548 17.2653Z" fill="black"/>
</svg>
