<svg width="44" height="44" viewBox="0 0 44 44" fill="none" xmlns="http://www.w3.org/2000/svg">
<path d="M22 44C34.1503 44 44 34.1503 44 22C44 9.84974 34.1503 0 22 0C9.84974 0 0 9.84974 0 22C0 34.1503 9.84974 44 22 44Z" fill="#D80027"/>
<path d="M21.0987 17.9773L22.9038 20.4648L25.8271 19.5169L24.0192 22.0022L25.824 24.4896L22.9017 23.5381L21.0938 26.0234L21.0957 22.9502L18.1733 21.9987L21.0968 21.0508L21.0987 17.9773Z" fill="#F0F0F0"/>
<path d="M16.1728 28.2183C12.7391 28.2183 9.95542 25.4346 9.95542 22.0009C9.95542 18.5671 12.7391 15.7834 16.1728 15.7834C17.2434 15.7834 18.2508 16.0542 19.1303 16.5308C17.7506 15.1814 15.8636 14.3486 13.7815 14.3486C9.55529 14.3486 6.12939 17.7746 6.12939 22.0008C6.12939 26.2269 9.55538 29.6529 13.7815 29.6529C15.8638 29.6529 17.7506 28.8201 19.1303 27.4708C18.2508 27.9475 17.2434 28.2183 16.1728 28.2183Z" fill="#F0F0F0"/>
</svg>
