<svg width="44" height="44" viewBox="0 0 44 44" fill="none" xmlns="http://www.w3.org/2000/svg">
<g clip-path="url(#clip0)">
<path d="M42.6316 29.6519C43.516 27.2686 44 24.6908 44 21.9998C44 19.3087 43.516 16.7309 42.6316 14.3476L22 12.4346L1.36838 14.3476C0.484 16.7309 0 19.3087 0 21.9998C0 24.6908 0.484 27.2686 1.36838 29.6519L22 31.565L42.6316 29.6519Z" fill="#F0F0F0"/>
<path d="M22.0004 44C31.4595 44 39.5235 38.0297 42.6319 29.6521H1.36865C4.47718 38.0297 12.541 44 22.0004 44Z" fill="#338AF3"/>
<path d="M22.0004 0C12.541 0 4.47718 5.97025 1.36865 14.3479H42.632C39.5235 5.97025 31.4595 0 22.0004 0Z" fill="#6DA544"/>
</g>
<defs>
<clipPath id="clip0">
<rect width="44" height="44" fill="white"/>
</clipPath>
</defs>
</svg>
