<svg width="44" height="44" viewBox="0 0 44 44" fill="none" xmlns="http://www.w3.org/2000/svg">
<path d="M44 22C44 34.1502 34.1502 44 22 44C9.84981 44 0 34.1502 0 22C7.55648 14.4435 13.9652 8.03481 22 0C34.1502 0 44 9.84981 44 22Z" fill="#D80027"/>
<path d="M22 22C22 9.84981 22 8.41741 22 0C9.84981 0 0 9.84981 0 22H22Z" fill="#0052B4"/>
<path d="M17.6219 14.3479L17.9781 15.444H19.1305L18.1981 16.1213L18.5543 17.2174L17.6219 16.54L16.6895 17.2174L17.0457 16.1213L16.1133 15.444H17.2657L17.6219 14.3479Z" fill="#F0F0F0"/>
<path d="M11.8337 5.73901L12.4273 7.56596H14.3481L12.794 8.69475L13.3878 10.5216L11.8337 9.39247L10.2797 10.5216L10.8733 8.69475L9.31934 7.56596H11.24L11.8337 5.73901Z" fill="#F0F0F0"/>
<path d="M17.5725 7.6521L18.166 9.47913H20.0868L18.5328 10.6079L19.1264 12.4348L17.5725 11.3056L16.0185 12.4348L16.6121 10.6079L15.0581 9.47913H16.9788L17.5725 7.6521Z" fill="#F0F0F0"/>
<path d="M13.0363 15.3044L13.63 17.1314H15.5507L13.9967 18.2602L14.5903 20.087L13.0363 18.958L11.4823 20.087L12.076 18.2602L10.522 17.1314H12.4428L13.0363 15.3044Z" fill="#F0F0F0"/>
<path d="M8.00744 10.5212L8.60109 12.3482H10.5219L8.96779 13.477L9.56145 15.3038L8.00744 14.1748L6.45352 15.3038L7.04709 13.477L5.49316 12.3482H7.41387L8.00744 10.5212Z" fill="#F0F0F0"/>
</svg>
