<svg width="44" height="44" viewBox="0 0 44 44" fill="none" xmlns="http://www.w3.org/2000/svg">
<g clip-path="url(#clip0)">
<path d="M22 44C34.1503 44 44 34.1503 44 22C44 9.84974 34.1503 0 22 0C9.84974 0 0 9.84974 0 22C0 34.1503 9.84974 44 22 44Z" fill="#F0F0F0"/>
<path d="M21.9996 0C13.2775 0 5.74112 5.0759 2.18262 12.4348H41.8166C38.2581 5.0759 30.7217 0 21.9996 0Z" fill="#338AF3"/>
<path d="M21.9996 44.0002C30.7217 44.0002 38.2581 38.9243 41.8166 31.5654H2.18262C5.74112 38.9243 13.2775 44.0002 21.9996 44.0002Z" fill="#338AF3"/>
<path d="M21.9998 15.3044C18.302 15.3044 15.3042 18.3022 15.3042 22.0001C15.3042 25.698 18.302 28.6957 21.9998 28.6957C25.6977 28.6957 28.6955 25.698 28.6955 22.0001C28.6955 18.3022 25.6977 15.3044 21.9998 15.3044ZM21.9998 25.8262C19.8868 25.8262 18.1737 24.1133 18.1737 22.0001C18.1737 19.8869 19.8867 18.174 21.9998 18.174C24.113 18.174 25.826 19.8869 25.826 22.0001C25.826 24.1133 24.1129 25.8262 21.9998 25.8262Z" fill="#FFDA44"/>
<path d="M25.3137 22.9565L22.0001 22L18.6865 22.9565L17.582 24.8695H26.418L25.3137 22.9565Z" fill="#0052B4"/>
<path d="M22 17.2178L19.791 21.0439L22 22.0004L24.2091 21.0439L22 17.2178Z" fill="#338AF3"/>
<path d="M18.686 22.9564H25.3132L24.2086 21.0435H19.7906L18.686 22.9564Z" fill="#6DA544"/>
</g>
<defs>
<clipPath id="clip0">
<rect width="44" height="44" fill="white"/>
</clipPath>
</defs>
</svg>
