<svg width="44" height="44" viewBox="0 0 44 44" fill="none" xmlns="http://www.w3.org/2000/svg">
<g clip-path="url(#clip0)">
<path d="M22 44C34.1503 44 44 34.1503 44 22C44 9.84974 34.1503 0 22 0C9.84974 0 0 9.84974 0 22C0 34.1503 9.84974 44 22 44Z" fill="#F0F0F0"/>
<path d="M22 44.0001C34.1502 44.0001 44 34.1502 44 22C44 19.309 43.516 16.7311 42.6316 14.3479H1.36838C0.484086 16.7311 0 19.309 0 22C0 34.1502 9.84981 44.0001 22 44.0001Z" fill="#0052B4"/>
<path d="M22.0003 44C31.4595 44 39.5234 38.0297 42.6319 29.6521H1.36865C4.4771 38.0297 12.541 44 22.0003 44Z" fill="#D80027"/>
<path d="M5.68848 12.4355V23.4103C5.68848 29.6531 13.844 31.566 13.844 31.566C13.844 31.566 21.9995 29.6531 21.9995 23.4103V12.4355H5.68848Z" fill="#F0F0F0"/>
<path d="M7.60205 12.4355V23.4103C7.60205 24.1432 7.76482 24.8353 8.08725 25.4842C11.2871 25.4842 16.0696 25.4842 19.6018 25.4842C19.9242 24.8354 20.087 24.1432 20.087 23.4103V12.4355H7.60205Z" fill="#D80027"/>
<path d="M17.6702 20.087H14.8007V18.1739H16.7138V16.2609H14.8007V14.3479H12.8877V16.2609H10.9747V18.1739H12.8877V20.087H10.0181V22H12.8877V23.9131H14.8007V22H17.6702V20.087Z" fill="#F0F0F0"/>
<path d="M10.6962 28.1542C11.929 28.9289 13.1956 29.3787 13.844 29.5788C14.4924 29.3788 15.7589 28.9289 16.9917 28.1542C18.2348 27.3729 19.1063 26.4793 19.6012 25.4837C19.0554 25.0976 18.3894 24.8698 17.6701 24.8698C17.4081 24.8698 17.1537 24.9009 16.909 24.9578C16.3905 23.7798 15.2136 22.9568 13.844 22.9568C12.4745 22.9568 11.2975 23.7798 10.7791 24.9578C10.5344 24.9009 10.2799 24.8698 10.018 24.8698C9.29863 24.8698 8.6327 25.0976 8.08691 25.4837C8.58148 26.4792 9.45298 27.3728 10.6962 28.1542Z" fill="#0052B4"/>
</g>
<defs>
<clipPath id="clip0">
<rect width="44" height="44" fill="white"/>
</clipPath>
</defs>
</svg>
