<svg width="44" height="44" viewBox="0 0 44 44" fill="none" xmlns="http://www.w3.org/2000/svg">
<path d="M44 21.9997C44 34.1499 34.1502 43.9997 22 43.9997C9.84981 43.9997 0 34.1499 0 21.9997C0.956484 21.9997 22 19.1301 22 19.1301L44 21.9997Z" fill="#338AF3"/>
<path d="M0 22C0 9.84981 9.84981 0 22 0C34.1502 0 44 9.84981 44 22" fill="#F0F0F0"/>
<path d="M30.7328 15.1807L22.0002 23.9134L13.2676 15.1807C12.1383 16.857 11.4785 18.8748 11.4785 21.0438V23.9133C11.4785 28.5209 14.4558 32.4459 18.5874 33.8666C18.036 34.9473 18.129 36.2961 18.937 37.3046C20.0102 36.4444 21.1213 35.554 22.0639 34.7988C23.0064 35.5541 24.1176 36.4445 25.1907 37.3046C26.0082 36.2843 26.0945 34.9154 25.5213 33.8282C29.5965 32.3768 32.5219 28.4805 32.5219 23.9133V21.0438C32.522 18.8748 31.8621 16.8571 30.7328 15.1807Z" fill="#6DA544"/>
<path d="M21.9998 31.5652C17.7803 31.5652 14.3477 28.1324 14.3477 23.913V21.0435C14.3477 16.824 17.7804 13.3914 21.9998 13.3914C26.2191 13.3914 29.6519 16.8241 29.6519 21.0435V23.913C29.6519 28.1324 26.2192 31.5652 21.9998 31.5652Z" fill="#FFDA44"/>
<path d="M26.7825 23.9134V21.0438C26.7825 18.4067 24.6369 16.2612 21.9999 16.2612C19.3628 16.2612 17.2173 18.4067 17.2173 21.0438V23.9134L21.9999 24.8699L26.7825 23.9134Z" fill="#338AF3"/>
<path d="M17.2173 23.9133C17.2173 26.5505 19.3628 28.6959 21.9999 28.6959C24.6369 28.6959 26.7825 26.5504 26.7825 23.9133H17.2173Z" fill="#6DA544"/>
<path d="M27.7395 13.3912C27.7395 11.8064 26.4547 10.5217 24.8699 10.5217C24.1347 10.5217 23.4647 10.7984 22.9569 11.2529V9.5651H23.9134V7.65204H22.9569V6.69556H21.0438V7.65204H20.0873V9.5651H21.0438V11.2529C20.536 10.7984 19.8659 10.5217 19.1308 10.5217C17.546 10.5217 16.2612 11.8064 16.2612 13.3912C16.2612 14.2409 16.6308 15.004 17.2177 15.5295V17.2173H26.7829V15.5295C27.3698 15.004 27.7395 14.2409 27.7395 13.3912Z" fill="#FFDA44"/>
</svg>
