<svg width="44" height="44" viewBox="0 0 44 44" fill="none" xmlns="http://www.w3.org/2000/svg">
<g clip-path="url(#clip0)">
<path d="M22 44C34.1503 44 44 34.1503 44 22C44 9.84974 34.1503 0 22 0C9.84974 0 0 9.84974 0 22C0 34.1503 9.84974 44 22 44Z" fill="#F0F0F0"/>
<path d="M6.44364 37.5559C-2.14788 28.9643 -2.14788 15.0347 6.44364 6.44312C6.44304 6.44406 19.1305 21.9995 19.1305 21.9995L6.44364 37.5559Z" fill="black"/>
<path d="M19.1302 21.9994L2.91761 11.0435C2.41496 11.9172 1.9717 12.8292 1.59082 13.7731L9.79862 21.9995L1.59108 30.2263C1.97161 31.1695 2.41445 32.0809 2.91675 32.954L19.1302 21.9994Z" fill="#FFDA44"/>
<path d="M43.8138 19.1301H19.1299L6.44344 6.4436C5.07634 7.8107 3.8886 9.3568 2.91785 11.0438L13.8525 21.9997L2.91699 32.9541C3.88774 34.6416 5.076 36.1882 6.44344 37.5556L19.1299 24.8692H43.8138C43.9361 23.9299 44 22.9722 44 21.9997C44 21.0271 43.9361 20.0694 43.8138 19.1301Z" fill="#6DA544"/>
<path d="M8.60547 39.4518C12.3153 42.3033 16.9591 43.9998 21.9999 43.9998C32.1645 43.9998 40.7175 37.1058 43.242 27.739H20.3183L8.60547 39.4518Z" fill="#0052B4"/>
<path d="M43.242 16.2608C40.7175 6.89399 32.1645 0 21.9999 0C16.9591 0 12.3153 1.69649 8.60547 4.54807L20.3182 16.2608H43.242Z" fill="#D80027"/>
</g>
<defs>
<clipPath id="clip0">
<rect width="44" height="44" fill="white"/>
</clipPath>
</defs>
</svg>
