<svg width="44" height="44" viewBox="0 0 44 44" fill="none" xmlns="http://www.w3.org/2000/svg">
<g clip-path="url(#clip0)">
<path d="M22 44C34.1503 44 44 34.1503 44 22C44 9.84974 34.1503 0 22 0C9.84974 0 0 9.84974 0 22C0 34.1503 9.84974 44 22 44Z" fill="#F0F0F0"/>
<path d="M22 8.14993e-06C21.9795 -0.0154606 -0.00584259 21.9942 1.16476e-06 22C1.16476e-06 9.84982 9.84981 8.14993e-06 22 8.14993e-06Z" fill="#D80027"/>
<path d="M22 8.14996e-06C22.0205 -0.0154606 44.0058 21.9942 44 22C44 9.84982 34.1502 8.14996e-06 22 8.14996e-06Z" fill="#D80027"/>
<path d="M22 44C21.9795 44.0154 -0.00584259 22.0058 1.16476e-06 22C1.16476e-06 34.1502 9.84981 44 22 44Z" fill="#0052B4"/>
<path d="M22 44C22.0205 44.0154 44.0058 22.0058 44 22C44 34.1502 34.1502 44 22 44Z" fill="#0052B4"/>
<path d="M22.0003 11.4778L24.3746 18.785H32.0578L25.8419 23.301L28.2162 30.6082L22.0003 26.0921L15.7844 30.6082L18.1587 23.301L11.9429 18.785H19.626L22.0003 11.4778Z" fill="#FFDA44"/>
</g>
<defs>
<clipPath id="clip0">
<rect width="44" height="44" fill="white"/>
</clipPath>
</defs>
</svg>
