<svg width="44" height="44" viewBox="0 0 44 44" fill="none" xmlns="http://www.w3.org/2000/svg">
<path d="M1.36865 29.652C4.4771 38.0295 12.541 43.9998 22.0003 43.9998C31.4595 43.9998 39.5234 38.0295 42.6319 29.652L22.0003 27.739L1.36865 29.652Z" fill="#FFDA44"/>
<path d="M22.0003 0C12.541 0 4.4771 5.97025 1.36865 14.3479L22.0003 16.2608L42.6319 14.3478C39.5234 5.97025 31.4595 0 22.0003 0Z" fill="black"/>
<path d="M1.36838 14.3479C0.484086 16.7312 0 19.309 0 22C0 24.6911 0.484086 27.2689 1.36838 29.6522H42.6317C43.516 27.2689 44 24.6911 44 22C44 19.309 43.516 16.7312 42.6316 14.3479H1.36838Z" fill="#D80027"/>
</svg>
