<svg width="44" height="44" viewBox="0 0 44 44" fill="none" xmlns="http://www.w3.org/2000/svg">
<g clip-path="url(#clip0)">
<path d="M31.5654 2.18298C28.6731 0.784438 25.4283 0 22.0002 0C18.5722 0 15.3273 0.784438 12.435 2.18298L10.522 22L12.435 41.817C15.3273 43.2156 18.5722 44 22.0002 44C25.4283 44 28.6731 43.2156 31.5654 41.817L33.4785 22L31.5654 2.18298Z" fill="#D80027"/>
<path d="M21.9999 14.3479L23.8991 20.1933H30.0461L25.0734 23.8064L26.9727 29.6522L21.9999 26.0393L17.0271 29.6522L18.9268 23.8064L13.9541 20.1933H20.1006L21.9999 14.3479Z" fill="#FFDA44"/>
<path d="M12.4348 2.18359C5.07598 5.74192 0 13.2777 0 21.9998C0 30.722 5.07598 38.2578 12.4348 41.8161V2.18359Z" fill="#496E2D"/>
<path d="M31.5654 2.18359V41.8161C38.9243 38.2578 44.0002 30.7219 44.0002 21.9998C44.0002 13.2778 38.9243 5.74192 31.5654 2.18359Z" fill="#FFDA44"/>
</g>
<defs>
<clipPath id="clip0">
<rect width="44" height="44" fill="white"/>
</clipPath>
</defs>
</svg>
