<svg width="44" height="44" viewBox="0 0 44 44" fill="none" xmlns="http://www.w3.org/2000/svg">
<path d="M22.0002 43.9968C34.1487 43.9968 43.997 34.1486 43.997 22.0001C43.997 9.85159 34.1487 0.0032959 22.0002 0.0032959C9.85171 0.0032959 0.00341797 9.85159 0.00341797 22.0001C0.00341797 34.1486 9.85171 43.9968 22.0002 43.9968Z" fill="#F0F0F0"/>
<path d="M2.95024 11.0015C1.95739 12.7209 1.22501 14.5186 0.737305 16.3497L37.5243 37.5889C38.8663 36.2509 40.057 34.7176 41.0496 32.9982L2.95024 11.0015Z" fill="black"/>
<path d="M32.9984 2.95021C24.1969 -2.1313 13.3445 -0.437693 6.47559 6.41098L43.2626 27.65C45.7594 18.2772 41.7998 8.0318 32.9984 2.95021Z" fill="#FFDA44"/>
<path d="M11.002 41.0497C19.8034 46.1312 30.6561 44.4376 37.5248 37.5891L0.737683 16.3499C-1.75894 25.7228 2.20046 35.9682 11.002 41.0497Z" fill="#FFDA44"/>
<path d="M28.2167 19.6088C28.2167 23.042 25.4335 25.8253 22.0002 25.8253C18.5669 25.8253 15.7837 23.0421 15.7837 19.6088C15.7837 18.5383 16.0543 17.531 16.5309 16.6516C15.182 18.0312 14.3491 19.9177 14.3491 21.9997C14.3491 26.2253 17.7746 29.6508 22.0002 29.6508C26.2259 29.6508 29.6513 26.2253 29.6513 21.9997C29.6513 19.9177 28.8186 18.0312 27.4695 16.6516C27.9461 17.5312 28.2167 18.5383 28.2167 19.6088Z" fill="#D80027"/>
<path d="M23.4351 12.4363H20.5659V26.782H23.4351V12.4363Z" fill="#D80027"/>
<path d="M26.782 15.3055H17.2183C17.2183 15.9658 17.7935 16.501 18.4536 16.501H18.4138C18.4138 17.1613 18.9491 17.6965 19.6093 17.6965C19.6093 18.3568 20.1446 18.892 20.8048 18.892H23.1957C23.856 18.892 24.3912 18.3568 24.3912 17.6965C25.0515 17.6965 25.5867 17.1613 25.5867 16.501H25.5469C26.2069 16.501 26.782 15.9659 26.782 15.3055Z" fill="#D80027"/>
<path d="M28.6955 27.7383H15.3062V30.6075H28.6955V27.7383Z" fill="#D80027"/>
<path d="M30.6079 28.6947H24.8696V31.5639H30.6079V28.6947Z" fill="#D80027"/>
<path d="M19.1313 28.6947H13.3931V31.5639H19.1313V28.6947Z" fill="#D80027"/>
</svg>
