<svg width="44" height="44" viewBox="0 0 44 44" fill="none" xmlns="http://www.w3.org/2000/svg">
<path d="M22 44C34.1503 44 44 34.1503 44 22C44 9.84974 34.1503 0 22 0C9.84974 0 0 9.84974 0 22C0 34.1503 9.84974 44 22 44Z" fill="#F0F0F0"/>
<path d="M22.0001 0C13.278 0 5.74161 5.0759 2.18311 12.4348H41.817C38.2586 5.0759 30.7222 0 22.0001 0Z" fill="#338AF3"/>
<path d="M22.0001 43.9998C30.7222 43.9998 38.2586 38.9239 41.8171 31.565H2.18311C5.74161 38.9239 13.278 43.9998 22.0001 43.9998Z" fill="#338AF3"/>
<path d="M28.5758 22.0001L25.889 23.264L27.3197 25.8661L24.4022 25.308L24.0325 28.2553L22.0003 26.0876L19.9681 28.2553L19.5984 25.308L16.6809 25.866L18.1116 23.2639L15.4248 22.0001L18.1116 20.7363L16.6809 18.1342L19.5984 18.6923L19.9681 15.745L22.0003 17.9127L24.0326 15.745L24.4022 18.6923L27.3198 18.1342L25.8891 20.7363L28.5758 22.0001Z" fill="#FFDA44"/>
</svg>
