<svg width="44" height="44" viewBox="0 0 44 44" fill="none" xmlns="http://www.w3.org/2000/svg">
<path d="M22 44C34.1503 44 44 34.1503 44 22C44 9.84974 34.1503 0 22 0C9.84974 0 0 9.84974 0 22C0 34.1503 9.84974 44 22 44Z" fill="#D80027"/>
<path d="M36.348 11.4778H7.65234V32.5213H36.348V11.4778Z" fill="#6DA544"/>
<path d="M25.5429 28.2173C22.1092 28.2173 19.3255 25.4336 19.3255 21.9999C19.3255 18.5662 22.1092 15.7825 25.5429 15.7825C26.6136 15.7825 27.621 16.0532 28.5005 16.5298C27.1208 15.1805 25.234 14.3477 23.1516 14.3477C18.9256 14.3477 15.4995 17.7736 15.4995 21.9998C15.4995 26.2259 18.9256 29.6519 23.1516 29.6519C25.234 29.6519 27.1208 28.8191 28.5005 27.4698C27.621 27.9466 26.6136 28.2173 25.5429 28.2173Z" fill="#F0F0F0"/>
</svg>
